<svg id="Ebene_1" data-name="Ebene 1" xmlns="http://www.w3.org/2000/svg" viewBox="0 0 776.47 1174.19"><defs><style>.cls-1,.cls-13,.cls-14,.cls-15,.cls-16,.cls-9{fill:none;stroke-miterlimit:10;}.cls-1{stroke:#ef8619;stroke-width:3px;opacity:0.6;}.cls-1,.cls-13{stroke-dasharray:4;}.cls-2,.cls-4{fill:#fff;}.cls-2{fill-rule:evenodd;}.cls-10,.cls-3,.cls-5{fill:#079;}.cls-5{font-size:41.16px;}.cls-10,.cls-5{font-family:BebasNeueBold, Bebas Neue;}.cls-6{fill:#e2a558;}.cls-7{fill:#e9f2f0;}.cls-8{letter-spacing:-0.01em;}.cls-13,.cls-14,.cls-15,.cls-9{stroke:#fff;}.cls-9{stroke-width:0.5px;}.cls-10{font-size:33.06px;}.cls-11{letter-spacing:0em;}.cls-12{fill:#ef8619;}.cls-14{stroke-width:9px;stroke-dasharray:0.5;}.cls-16{stroke:#e2a558;}</style></defs><rect class="cls-1" x="1.5" y="1.5" width="343.97" height="343.97" rx="171.98"/><polygon class="cls-2" points="98.01 344.36 96.56 344.36 20.28 344.36 16.78 344.36 19.26 341.88 37.6 323.53 19.03 304.96 16.56 302.49 20.06 302.49 96.56 302.49 98.01 302.49 98.01 303.94 98.01 342.91 98.01 344.36 98.01 344.36"/><polygon class="cls-3" points="71.49 327.72 98.36 327.72 98.36 345.61 71.49 327.72"/><polygon class="cls-3" points="282.7 327.72 255.83 327.72 255.83 345.61 282.7 327.72"/><polygon class="cls-4" points="283.47 305.31 336.39 305.26 315.34 326.31 336.17 347.13 256.24 346.37 283.47 328.07 283.47 305.31"/><rect class="cls-4" x="70.86" y="285.36" width="212.67" height="41.87"/><text class="cls-5" transform="translate(99.35 321.37)">düsseldorf</text><path class="cls-4" d="M304.7,241.19c.14,3,.28,6.07.41,9.11q.18,3.85.34,7.7.21,4.68.41,9.36l.33,7.36c.13,2.89.25,5.79.38,8.68l.42,9.45q.17,4,.34,7.95c.13,3,.27,6,.4,9,.12,2.59.23,5.17.34,7.76,0,.77.06,1.54.11,2.31a.32.32,0,0,1-.22.37,20.35,20.35,0,0,1-2.84.9c-.61.07-1.2.18-1.81.23s-1.2,0-1.8,0a12.93,12.93,0,0,1-3.64-1c-.49-.22-.49-.22-.48-.75,0-.05,0-.11,0-.16l.27-7.55q.25-6.86.5-13.7.23-6.1.44-12.2c.17-4.88.36-9.76.54-14.64l.39-11.32.42-11.11c.09-2.57.17-5.14.27-7.71a1,1,0,0,0-.13-.53"/><path class="cls-4" d="M300.08,240.69c-1.74-3.23-3.46-6.46-5.19-9.69l-.13-.21-2.93-5.49c-.07-.14-.14-.28-.22-.41-.24-.45-.24-.45.23-.7a16.68,16.68,0,0,1,2.08-.89.72.72,0,0,1,.44-.2,21.65,21.65,0,0,1,4.07-.77,32.62,32.62,0,0,1,4.42-.19,37.57,37.57,0,0,1,8.12,1c.14,0,.3,0,.39.18.43.18.89.28,1.31.5a3.14,3.14,0,0,1,.39.24.36.36,0,0,1,.12.53q-4.2,8.09-8.38,16.18a.84.84,0,0,0-.1.44"/><path class="cls-4" d="M306.51,213.43a17.49,17.49,0,0,1,2.86,1.12c.36.12.43.4.44.74a3.22,3.22,0,0,1-.56,2c-.08.11-.16.19-.3.14a.79.79,0,0,1-.43,0,23.42,23.42,0,0,0-3.73-.52c-.7,0-1.41-.05-2.11,0a38,38,0,0,0-6.48.62c-.67.12-.75.1-1.07-.5a1.77,1.77,0,0,1-.35-1.16c0-.95,0-1,.86-1.33a21.71,21.71,0,0,1,4.8-1.42c.17,0,.21-.1.22-.26.07-1.39.15-2.79.23-4.18.11-2,.19-4.07.33-6.11a12.63,12.63,0,0,1,.51-2.08,2.59,2.59,0,0,0,.09-.68c0-3.93,0-7.87-.05-11.8a.53.53,0,0,1,.3-.53c.21-.11.38,0,.54.12s.13.25.13.39c0,2.2.06,4.39.1,6.59,0,1.77.06,3.54.08,5.31a5.4,5.4,0,0,0,.29,1.37,16.83,16.83,0,0,1,.43,3.24c.14,1.76.27,3.52.4,5.29.08,1,.16,2,.22,3,0,.22.08.31.32.35C305.23,213.16,305.86,213.3,306.51,213.43Z"/><path class="cls-6" d="M294,222a4.36,4.36,0,0,1-1.34-2.37c-.06-.31,0-.48.33-.58s.71-.28,1.07-.42a.54.54,0,0,1,.36-.21,27.09,27.09,0,0,1,5.76-1.21,28.41,28.41,0,0,1,4-.1,20.83,20.83,0,0,1,4.29.61.59.59,0,0,1,.36.16,22.05,22.05,0,0,1,2.86,1l.37.17c.44.21.48.29.36.77a4.41,4.41,0,0,1-1.14,1.93l-.21.23a.76.76,0,0,1-.94.46,45.89,45.89,0,0,0-4.66-.68,40.16,40.16,0,0,0-4.65-.17,20.89,20.89,0,0,0-5.72.84A1,1,0,0,1,294,222Z"/><rect class="cls-1" x="1.5" y="412.93" width="343.97" height="343.97" rx="171.98"/><polygon class="cls-2" points="95.02 759.89 93.57 759.89 17.29 759.89 13.79 759.89 16.27 757.42 34.61 739.07 16.04 720.5 13.57 718.02 17.07 718.02 93.57 718.02 95.02 718.02 95.02 719.47 95.02 758.44 95.02 759.89 95.02 759.89"/><polygon class="cls-3" points="68.5 743.25 95.37 743.25 95.37 761.15 68.5 743.25"/><polygon class="cls-3" points="279.71 743.25 252.84 743.25 252.84 761.15 279.71 743.25"/><polygon class="cls-4" points="280.48 720.84 333.4 720.8 312.35 741.84 333.17 762.67 253.25 761.9 280.48 743.61 280.48 720.84"/><rect class="cls-4" x="67.87" y="700.9" width="212.67" height="41.87"/><text class="cls-5" transform="translate(110.51 735.88)">Duisburg</text><path class="cls-7" d="M69,644.09a5,5,0,0,0-10-.23A4,4,0,0,0,55.61,642a4,4,0,0,0-4,4.07c0,.15,0,.29,0,.43a6.67,6.67,0,0,0-4.06-1.37,6.87,6.87,0,0,0-6.81,6.93,7,7,0,0,0,.31,2.06c-.25,0-.5,0-.76,0a8.14,8.14,0,0,0,0,16.28,7.89,7.89,0,0,0,5.37-2.11,7.87,7.87,0,0,0,4.11,1.36A7.91,7.91,0,0,0,55.47,672a8,8,0,0,0,7.67-5.82A8.16,8.16,0,0,0,66.26,660a8.21,8.21,0,0,0,.36-11.53A5.12,5.12,0,0,0,69,644.09Z"/><ellipse class="cls-7" cx="77.67" cy="639.7" rx="4.26" ry="4.34"/><path class="cls-4" d="M65.92,666.38s-14.88.06-34.45-.27c-1,50.11-5.65,59.07-5.65,59.07H70S66.58,710.85,65.92,666.38Z"/><path class="cls-7" d="M98.44,664a4.09,4.09,0,0,0-8.08-.16,3.35,3.35,0,0,0-2.7-1.28,3,3,0,0,0-3.22,2.8,1.51,1.51,0,0,0,0,.3,6,6,0,0,0-3.27-1c-3,0-5.49,2.14-5.49,4.78a4.2,4.2,0,0,0,.25,1.42l-.61,0c-3.55,0-6.44,2.51-6.44,5.61s2.89,5.62,6.44,5.62a7,7,0,0,0,4.32-1.46,7.09,7.09,0,0,0,3.31.94,6.93,6.93,0,0,0,4.58,1.67,6.39,6.39,0,0,0,6.17-4,5.41,5.41,0,0,0,2.52-4.31,5.11,5.11,0,0,0,.29-7.95A3.44,3.44,0,0,0,98.44,664Z"/><ellipse class="cls-7" cx="105.79" cy="662.55" rx="3.43" ry="3.52"/><ellipse class="cls-7" cx="108.31" cy="657.71" rx="2.86" ry="2.94"/><path class="cls-4" d="M96.32,680.42s-12,0-27.74-.19C67.77,714.8,64,721,64,721H99.58S96.86,711.09,96.32,680.42Z"/><rect class="cls-1" x="1.5" y="817.2" width="343.97" height="343.97" rx="171.98"/><polygon class="cls-2" points="95.02 1164.16 93.57 1164.16 17.29 1164.16 13.79 1164.16 16.27 1161.69 34.61 1143.34 16.05 1124.77 13.57 1122.3 17.07 1122.3 93.57 1122.3 95.02 1122.3 95.02 1123.74 95.02 1162.71 95.02 1164.16 95.02 1164.16"/><polygon class="cls-3" points="68.5 1147.52 95.38 1147.52 95.38 1165.42 68.5 1147.52"/><polygon class="cls-3" points="279.72 1147.52 252.84 1147.52 252.84 1165.42 279.72 1147.52"/><polygon class="cls-4" points="280.48 1125.11 333.4 1125.07 312.35 1146.11 333.18 1166.94 253.25 1166.17 280.48 1147.88 280.48 1125.11"/><rect class="cls-4" x="67.87" y="1105.17" width="212.67" height="41.87"/><text class="cls-5" transform="translate(154.85 1140.48)"><tspan class="cls-8">k</tspan><tspan x="16.75" y="0">öln</tspan></text><path class="cls-4" d="M271.8,1070.1l-1.55-9.78L268.6,1050l-.57,4.18-.57-3.61-1.07-6.73-.33,2.44-3.36-22.45a1.52,1.52,0,0,0,.78-1.32,1.5,1.5,0,0,0-.7-1.26.79.79,0,0,0,.05-.22.82.82,0,0,0-.67-.8l-.2-1.35-.25,1.37a.82.82,0,0,0-.56.78,1.38,1.38,0,0,0,0,.2,1.48,1.48,0,0,0-.74,1.28,1.52,1.52,0,0,0,.63,1.23l-6,32.64-2.53-8.53v0l-2.53,8.53-6-32.63a1.54,1.54,0,0,0,.63-1.24,1.51,1.51,0,0,0-.7-1.27.71.71,0,0,0,0-.21.82.82,0,0,0-.62-.79l-.25-1.36-.2,1.36a.82.82,0,0,0-.61.79.58.58,0,0,0,0,.19,1.51,1.51,0,0,0-.74,1.29,1.53,1.53,0,0,0,.77,1.32l-3.55,23.72-.59-3.71-.92,6.75-.44,3.19-.6-3.78-1.43,10.41-1.33,9.74h-4.65v34.66h48V1070.1Z"/><path class="cls-6" d="M245.39,1057a2.21,2.21,0,0,0,0-.37v-6.81a1.89,1.89,0,0,0-3.77,0v6.81a1.5,1.5,0,0,0,0,.37Z"/><path class="cls-6" d="M245.39,1070.57a2.2,2.2,0,0,0,0-.36v-6.81a1.89,1.89,0,0,0-3.77,0v6.81a1.47,1.47,0,0,0,0,.36Z"/><path class="cls-6" d="M263.85,1057a2.21,2.21,0,0,0,0-.37v-6.81a1.89,1.89,0,0,0-3.77,0v6.81a2.21,2.21,0,0,0,0,.37Z"/><path class="cls-6" d="M263.85,1070.57a2.2,2.2,0,0,0,0-.36v-6.81a1.89,1.89,0,0,0-3.77,0v6.81a2.2,2.2,0,0,0,0,.36Z"/><path class="cls-6" d="M236.63,1083.43a2.21,2.21,0,0,0,0-.37v-6.8a1.89,1.89,0,1,0-3.77,0v6.8a2.21,2.21,0,0,0,0,.37Z"/><path class="cls-6" d="M242.35,1083.43a1.5,1.5,0,0,0,0-.37v-6.8a1.89,1.89,0,1,0-3.77,0v6.8a2.21,2.21,0,0,0,0,.37Z"/><path class="cls-6" d="M266.73,1083.43a1.5,1.5,0,0,0,0-.37v-6.8a1.88,1.88,0,1,0-3.76,0v6.8a2.22,2.22,0,0,0,0,.37Z"/><path class="cls-6" d="M272.46,1083.43a2.22,2.22,0,0,0,0-.37v-6.8a1.88,1.88,0,1,0-3.76,0v6.8a2.22,2.22,0,0,0,0,.37Z"/><path class="cls-6" d="M252.2,1102.84a3.56,3.56,0,0,0,0-.57v-10.69c0-1.63-.84-3-1.88-3s-1.88,1.33-1.88,3v10.69a5.3,5.3,0,0,0,0,.57Z"/><path class="cls-6" d="M257.93,1102.84a5.3,5.3,0,0,0,0-.57v-10.69c0-1.63-.84-3-1.88-3s-1.88,1.33-1.88,3v10.69a5.3,5.3,0,0,0,0,.57Z"/><path class="cls-6" d="M256.12,1083.43a1.15,1.15,0,0,0,.06-.37v-6.8c0-1-1.45-1.89-3.24-1.89s-3.24.85-3.24,1.89v6.8a.94.94,0,0,0,.07.37Z"/><path class="cls-6" d="M254.46,1070.57a1.33,1.33,0,0,0,0-.28V1065a1.48,1.48,0,0,0-3,0v5.33a1.33,1.33,0,0,0,0,.28Z"/><path class="cls-6" d="M236.76,1098.58a2.09,2.09,0,0,0,0-.36v-6.81a1.89,1.89,0,0,0-3.77,0v6.81a1.42,1.42,0,0,0,0,.36Z"/><path class="cls-6" d="M242.48,1098.58a2.09,2.09,0,0,0,0-.36v-6.81a1.89,1.89,0,0,0-3.77,0v6.81a2.09,2.09,0,0,0,0,.36Z"/><path class="cls-6" d="M266.86,1098.58a1.42,1.42,0,0,0,0-.36v-6.81a1.88,1.88,0,1,0-3.76,0v6.81a2.1,2.1,0,0,0,0,.36Z"/><path class="cls-6" d="M272.59,1098.58a2.1,2.1,0,0,0,0-.36v-6.81a1.88,1.88,0,1,0-3.76,0v6.81a2.1,2.1,0,0,0,0,.36Z"/><rect class="cls-1" x="431.01" y="8.75" width="343.97" height="343.97" rx="171.98"/><polygon class="cls-2" points="527.52 351.61 526.07 351.61 449.79 351.61 446.29 351.61 448.76 349.13 467.11 330.79 448.54 312.22 446.07 309.74 449.57 309.74 526.07 309.74 527.52 309.74 527.52 311.19 527.52 350.16 527.52 351.61 527.52 351.61"/><polygon class="cls-3" points="500.99 334.97 527.87 334.97 527.87 352.86 500.99 334.97"/><polygon class="cls-3" points="712.21 334.97 685.34 334.97 685.34 352.86 712.21 334.97"/><polygon class="cls-4" points="712.98 312.56 765.89 312.51 744.85 333.56 765.67 354.38 685.74 353.62 712.98 335.32 712.98 312.56"/><rect class="cls-4" x="500.37" y="292.61" width="212.67" height="41.87"/><rect class="cls-4" x="477.51" y="230.26" width="53.14" height="79.71"/><circle class="cls-4" cx="504.08" cy="231.18" r="11.91"/><rect class="cls-4" x="468.29" y="224.98" width="5.58" height="84.99"/><line class="cls-9" x1="469.6" y1="233.21" x2="482" y2="233.21"/><line class="cls-9" x1="469.6" y1="237.6" x2="482" y2="237.6"/><line class="cls-9" x1="469.6" y1="241.99" x2="482" y2="241.99"/><line class="cls-9" x1="469.6" y1="246.37" x2="482" y2="246.37"/><line class="cls-9" x1="469.6" y1="250.76" x2="482" y2="250.76"/><line class="cls-9" x1="469.6" y1="255.14" x2="482" y2="255.14"/><line class="cls-9" x1="469.6" y1="259.53" x2="482" y2="259.53"/><line class="cls-9" x1="469.6" y1="263.91" x2="482" y2="263.91"/><line class="cls-9" x1="469.6" y1="268.3" x2="482" y2="268.3"/><line class="cls-9" x1="469.6" y1="272.68" x2="482" y2="272.68"/><line class="cls-9" x1="469.6" y1="277.07" x2="482" y2="277.07"/><line class="cls-9" x1="469.6" y1="281.45" x2="482" y2="281.45"/><line class="cls-9" x1="469.6" y1="285.84" x2="482" y2="285.84"/><line class="cls-9" x1="469.6" y1="290.23" x2="482" y2="290.23"/><line class="cls-9" x1="469.6" y1="294.61" x2="482" y2="294.61"/><line class="cls-9" x1="469.6" y1="299" x2="482" y2="299"/><line class="cls-9" x1="469.6" y1="303.38" x2="482" y2="303.38"/><line class="cls-9" x1="469.6" y1="307.77" x2="482" y2="307.77"/><text class="cls-5" transform="translate(521.86 328.62)">Oberhausen</text><rect class="cls-1" x="431.01" y="420.18" width="343.97" height="343.97" rx="171.98"/><polygon class="cls-2" points="524.53 767.14 523.08 767.14 446.8 767.14 443.3 767.14 445.77 764.67 464.12 746.32 445.55 727.75 443.07 725.28 446.58 725.28 523.08 725.28 524.53 725.28 524.53 726.73 524.53 765.7 524.53 767.14 524.53 767.14"/><polygon class="cls-3" points="498 750.5 524.88 750.5 524.88 768.4 498 750.5"/><polygon class="cls-3" points="709.22 750.5 682.35 750.5 682.35 768.4 709.22 750.5"/><polygon class="cls-4" points="709.99 728.09 762.9 728.05 741.86 749.09 762.68 769.92 682.75 769.15 709.99 750.86 709.99 728.09"/><rect class="cls-4" x="497.38" y="708.15" width="212.67" height="41.87"/><text class="cls-10" transform="translate(502.08 741.28)">mönchengladb<tspan class="cls-11" x="162.73" y="0">a</tspan><tspan x="176.15" y="0">ch</tspan></text><path class="cls-12" d="M597.44,707.19c1.91-3.21,8.28-14.24,8.28-18.38a8.81,8.81,0,0,0-17.62,0c0,4.14,6.36,15.17,8.27,18.38-2.19.08-3.89.64-3.89,1.32s2,1.32,4.43,1.32,4.42-.59,4.42-1.32S599.63,707.27,597.44,707.19Zm-6.73-18.4a6.2,6.2,0,1,1,6.2,6.2A6.2,6.2,0,0,1,590.71,688.79Z"/><line class="cls-13" x1="560.92" y1="766.75" x2="640.89" y2="766.75"/><line class="cls-14" x1="555.63" y1="758.88" x2="555.63" y2="774.33"/><line class="cls-14" x1="644.7" y1="758.88" x2="644.7" y2="774.33"/><line class="cls-15" x1="541.6" y1="758.88" x2="660.04" y2="758.88"/><line class="cls-15" x1="541.6" y1="775.4" x2="660.04" y2="775.4"/><path class="cls-4" d="M660.26,695c0-2.7-2.35-2.63-2.35-3.28a19.35,19.35,0,0,1,.61-2.82s-2.16-.27-2.7.62-2,4.94-2.54,5.13-18.45-.27-18.45-.27-5.6-.51-8.47-3.5l-3.05.36a1,1,0,0,1-.54,1.38c-.95.42-3.28.12-4.3.65s-7.73,4.32-8.54,7.53c-.76,3,5.38,3.22,5.38,3.22s6.15-.17,7.7-.71c.52-.18,1.5-.56,2.67-1.07v4.95c-2.68,0-5.74,0-8,0V704h-.48v3.19c-1.6,0-2.75,0-3,0a1.13,1.13,0,0,1-.93-.6l-.44.19a1.63,1.63,0,0,0,1.32.89c.29,0,2.05,0,4.26,0,4.22,0,10.08,0,10.45,0v-.48l-2.7,0v-5h-.24a36.38,36.38,0,0,0,7-3.79c2.08-1.62,20.48-1.73,20.48-1.73a11.07,11.07,0,0,1,2.43,3.51h2.55s-.54-1.43-.35-1.66A3.72,3.72,0,0,0,660.26,695Zm-3.13,2.82a2.51,2.51,0,1,1,2.51-2.51A2.51,2.51,0,0,1,657.13,697.79Z"/><path class="cls-6" d="M609.87,701.34c0-.26,3.83-.15,4,0s.27.85-1.08,2.3C611.66,703.49,609.87,702.54,609.87,701.34Z"/><path class="cls-6" d="M610.08,700.32s4,.09,4.45,0,4.73-7.32,4.73-7.32l-.5.12a31.72,31.72,0,0,0-5.51,3.56C610.55,698.85,610.08,700.32,610.08,700.32Z"/><path class="cls-6" d="M621.27,693.94c-.36,0-1.07,0-1.52,0s-3.12,4.6-3.39,5,0,.9.69.85a23.69,23.69,0,0,0,3.51-.62,2.49,2.49,0,0,0,1.07-1.72,28.83,28.83,0,0,0,.27-2.93C621.85,694.43,621.61,694,621.27,693.94Z"/><path class="cls-4" d="M648,688.37l-5.56,0c-3.7,0-7.4,0-11.1,0l-6,.07a.27.27,0,0,0-.26-.24h-.28a.27.27,0,0,0-.26.26l-4.29.07-5.55.12c-1.85.05-3.7.09-5.55.16,1.85,0,3.7,0,5.55.07h9.84V691a.26.26,0,0,0,.26.26h.28a.26.26,0,0,0,.26-.26v-2.05l6,0c3.7,0,7.4-.08,11.1-.15l5.55-.12c1.85-.06,3.7-.1,5.55-.17Z"/><path class="cls-6" d="M657.13,692.77a2.51,2.51,0,1,0,2.51,2.51A2.51,2.51,0,0,0,657.13,692.77Zm.42,2a.74.74,0,0,0-.34-.14v-1.67a2.35,2.35,0,0,1,1.52.63Zm-.5-.14a.83.83,0,0,0-.35.14l-1.18-1.18a2.4,2.4,0,0,1,1.53-.63Zm-.46.26a.65.65,0,0,0-.14.34h-1.67a2.35,2.35,0,0,1,.63-1.53Zm-.14.5a.65.65,0,0,0,.14.34l-1.18,1.19a2.35,2.35,0,0,1-.63-1.53Zm.25.46a.83.83,0,0,0,.35.14v1.67a2.4,2.4,0,0,1-1.53-.63Zm.51.14a.74.74,0,0,0,.34-.14l1.18,1.18a2.35,2.35,0,0,1-1.52.63Zm.46-.26a.74.74,0,0,0,.14-.34h1.67a2.35,2.35,0,0,1-.63,1.52Zm.14-.5a.74.74,0,0,0-.14-.34l1.18-1.19a2.4,2.4,0,0,1,.63,1.53Z"/><rect class="cls-1" x="431.01" y="824.45" width="343.97" height="343.97" rx="171.98"/><polygon class="cls-2" points="524.53 1171.41 523.08 1171.41 446.8 1171.41 443.3 1171.41 445.77 1168.94 464.12 1150.59 445.55 1132.02 443.08 1129.55 446.58 1129.55 523.08 1129.55 524.53 1129.55 524.53 1130.99 524.53 1169.96 524.53 1171.41 524.53 1171.41"/><polygon class="cls-3" points="498 1154.77 524.88 1154.77 524.88 1172.67 498 1154.77"/><polygon class="cls-3" points="709.22 1154.77 682.35 1154.77 682.35 1172.67 709.22 1154.77"/><polygon class="cls-4" points="709.99 1132.36 762.9 1132.32 741.86 1153.36 762.68 1174.19 682.75 1173.42 709.99 1155.13 709.99 1132.36"/><rect class="cls-4" x="497.38" y="1112.42" width="212.67" height="41.87"/><text class="cls-5" transform="translate(561.35 1147.73)">essen</text><path class="cls-4" d="M610.5,1069.11a48.37,48.37,0,0,1-.07-7.28c.21-.21,5.47-.79,5.47-.79l.79-4.18v-1.08H585.62v1.08l.79,4.18s5.26.58,5.48.79a51.17,51.17,0,0,1-.07,7.28c-.15.79-19.88,42.64-19.88,42.64h4.18l12.43-25.88h9.94v26h5.33v-26h9.94l12.44,25.88h4.18S610.64,1069.9,610.5,1069.11Zm1.31-11.45a16.13,16.13,0,0,0,3.38-.51l-.43,2.6h-4.53A1.53,1.53,0,0,1,611.81,1057.66Zm-17.87,1.09c.09-.79,1-.93,1-.93h12.22s.94.14,1,.93a2.44,2.44,0,0,1,0,1H593.94A2.4,2.4,0,0,1,593.94,1058.75Zm-2,1h-4.53l-.43-2.6a16.13,16.13,0,0,0,3.38.51A1.53,1.53,0,0,1,592,1059.75Zm6.65,22h-8.16l3.3-6.54a2,2,0,0,1,1.75-1.08c1.27-.06,3.11,0,3.11,0Zm2-14.48H595a.83.83,0,0,1-.75-.59s0-3,0-3.93a.94.94,0,0,1,1-.92h11.62a.94.94,0,0,1,1,.93c0,1,0,3.92,0,3.92a.82.82,0,0,1-.76.59C606.61,1067.31,601.79,1067.3,600.57,1067.3Zm2.94,14.48v-7.59s1.84-.09,3.11,0a2,2,0,0,1,1.75,1.08l3.3,6.54Z"/><circle class="cls-16" cx="593.31" cy="1067.58" r="4.07"/><line class="cls-16" x1="589.24" y1="1067.58" x2="597.39" y2="1067.58"/><line class="cls-16" x1="593.31" y1="1063.51" x2="593.31" y2="1071.66"/><line class="cls-16" x1="596.19" y1="1064.71" x2="590.43" y2="1070.46"/><line class="cls-16" x1="596.19" y1="1070.46" x2="590.43" y2="1064.71"/><circle class="cls-16" cx="609.14" cy="1067.44" r="4.07"/><line class="cls-16" x1="605.07" y1="1067.44" x2="613.21" y2="1067.44"/><line class="cls-16" x1="609.14" y1="1063.36" x2="609.14" y2="1071.51"/><line class="cls-16" x1="612.02" y1="1064.56" x2="606.26" y2="1070.31"/><line class="cls-16" x1="612.02" y1="1070.31" x2="606.26" y2="1064.56"/><circle class="cls-16" cx="587.41" cy="1083.79" r="5.6"/><line class="cls-16" x1="581.81" y1="1083.79" x2="593" y2="1083.79"/><line class="cls-16" x1="587.41" y1="1078.2" x2="587.41" y2="1089.39"/><line class="cls-16" x1="591.36" y1="1079.84" x2="583.45" y2="1087.75"/><line class="cls-16" x1="591.36" y1="1087.75" x2="583.45" y2="1079.84"/><circle class="cls-16" cx="614.23" cy="1083.79" r="5.6"/><line class="cls-16" x1="608.63" y1="1083.79" x2="619.82" y2="1083.79"/><line class="cls-16" x1="614.23" y1="1078.2" x2="614.23" y2="1089.39"/><line class="cls-16" x1="618.18" y1="1079.84" x2="610.27" y2="1087.75"/><line class="cls-16" x1="618.18" y1="1087.75" x2="610.27" y2="1079.84"/><rect class="cls-4" x="587.44" y="1093.7" width="26.96" height="18.32"/></svg>