<svg id="Helikopter" data-name="Ebene 1" xmlns="http://www.w3.org/2000/svg" viewBox="0 0 50 21">
  <defs>
    <style>
      .cls-1 {
        fill: #fff;
      }

      .cls-2 {
        fill: #e2a558;
      }
    </style>
  </defs>
    <path class="cls-1"
      d="M2.28,10.22c.19.23-.35,1.66-.35,1.66H4.48A11.07,11.07,0,0,1,6.91,8.37s18.41.11,20.48,1.73a37.23,37.23,0,0,0,7,3.78H34.1v5.06l-2.7,0v.47c.38,0,6.23.05,10.45.05,2.21,0,4,0,4.27-.05a1.61,1.61,0,0,0,1.31-.89L47,18.31a1.15,1.15,0,0,1-.93.61c-.21,0-1.35,0-3,0V15.77h-.48V19l-8,0V14c1.17.5,2.15.88,2.67,1.06,1.55.54,7.7.72,7.7.72s6.14-.19,5.38-3.22c-.81-3.21-7.53-7-8.54-7.53s-3.35-.24-4.3-.66A1,1,0,0,1,37,3L33.9,2.63c-2.87,3-8.47,3.5-8.47,3.5S7.56,6.59,7,6.4,5,2.15,4.44,1.26,1.74.65,1.74.65a19.47,19.47,0,0,1,.61,2.81C2.35,4.12,0,4,0,6.74A3.72,3.72,0,0,0,2.28,10.22ZM.62,7.06A2.52,2.52,0,1,1,3.13,9.57,2.52,2.52,0,0,1,.62,7.06Z" />
    <path class="cls-2" d="M50.4,13.11c0-.25-3.84-.14-4,0s-.27.86,1.08,2.3C48.6,15.26,50.4,14.31,50.4,13.11Z" />
    <path class="cls-2"
      d="M50.18,12.1s-4,.09-4.44,0S41,4.78,41,4.78l.5.12A31.09,31.09,0,0,1,47,8.46C49.71,10.63,50.18,12.1,50.18,12.1Z" />
    <path class="cls-2"
      d="M39,5.71c.36,0,1.07,0,1.52,0s3.13,4.6,3.39,5.05,0,.89-.69.85A22.57,22.57,0,0,1,39.7,11a2.5,2.5,0,0,1-1.07-1.71,29.08,29.08,0,0,1-.27-2.93C38.41,6.21,38.66,5.73,39,5.71Z" />
    <path class="cls-1"
      d="M12.26.14h5.55c3.7,0,7.4,0,11.1,0l6,.07A.27.27,0,0,1,35.18,0h.27a.26.26,0,0,1,.26.25L40,.33l5.55.11c1.85.06,3.7.1,5.54.17-1.85,0-3.7,0-5.55.06L40,.69c-1.43,0-2.86,0-4.29,0v2a.27.27,0,0,1-.26.27h-.27a.27.27,0,0,1-.27-.27v-2l-6,0C25.2.61,21.5.57,17.8.49L12.25.38C10.4.32,8.55.28,6.71.21,8.56.17,10.41.17,12.26.14Z" />
    <path class="cls-2"
      d="M.62,7.06A2.52,2.52,0,1,0,3.13,4.54,2.52,2.52,0,0,0,.62,7.06Zm.91-1.72a2.3,2.3,0,0,1,1.52-.63V6.38a.61.61,0,0,0-.34.14Zm1.68-.63a2.33,2.33,0,0,1,1.53.63L3.56,6.52a.64.64,0,0,0-.35-.14Zm1.64.74A2.33,2.33,0,0,1,5.48,7H3.81a.64.64,0,0,0-.14-.35Zm.63,1.69a2.3,2.3,0,0,1-.63,1.52L3.67,7.48a.61.61,0,0,0,.14-.34ZM4.74,8.77a2.34,2.34,0,0,1-1.53.64V7.74a.73.73,0,0,0,.35-.15Zm-1.69.64a2.31,2.31,0,0,1-1.52-.64L2.71,7.59a.7.7,0,0,0,.34.15ZM1.42,8.66A2.33,2.33,0,0,1,.78,7.14H2.45a.7.7,0,0,0,.15.34ZM.78,7a2.34,2.34,0,0,1,.64-1.53L2.6,6.63A.73.73,0,0,0,2.45,7Z" /> 
</svg>