<svg width="1207" height="243" viewBox="0 0 1207 243" fill="none" xmlns="http://www.w3.org/2000/svg">
<g clip-path="url(#clip0_8_247)">
<path d="M1078.25 74.9282C1078.61 73.8087 1079.31 72.8286 1080.25 72.1242C1081.19 71.4198 1082.33 71.0261 1083.51 70.9977C1084.68 70.9694 1085.84 71.3078 1086.81 71.966C1087.78 72.6242 1088.53 73.5695 1088.94 74.6705C1089.55 73.9957 1090.34 73.5066 1091.22 73.2591C1092.1 73.0115 1093.03 73.0153 1093.91 73.2702C1094.78 73.525 1095.57 74.0205 1096.18 74.7004C1096.78 75.3803 1097.19 76.2172 1097.35 77.1159H1078.03C1077.96 76.3789 1078.04 75.6356 1078.25 74.9282Z" fill="#D1DDDE"/>
<path d="M1050.3 37.6686V31.4639C1050.18 31.5991 1050.04 31.7078 1049.87 31.7826C1049.71 31.8574 1049.53 31.8966 1049.35 31.8976C1049.18 31.8957 1049 31.8561 1048.84 31.7813C1048.68 31.7065 1048.53 31.5983 1048.42 31.4639V37.6686L1047.79 56.9492V59.7215H1050.93V56.9492L1050.3 37.6686Z" fill="white"/>
<path d="M1058.25 29.0084C1063.06 27.5411 1066.82 25.9209 1066.66 25.3896C1066.5 24.8583 1062.47 25.617 1057.66 27.0844C1052.85 28.5517 1049.08 30.1719 1049.25 30.7032C1049.41 31.2346 1053.44 30.4758 1058.25 29.0084Z" fill="white"/>
<path d="M1049.36 30.6463C1049.74 30.2403 1047.07 27.1301 1043.39 23.6995C1039.72 20.269 1036.43 17.8171 1036.05 18.2232C1035.67 18.6293 1038.35 21.7395 1042.02 25.1701C1045.7 28.6006 1048.98 31.0524 1049.36 30.6463Z" fill="white"/>
<path d="M1048.13 39.6813C1049.26 34.7835 1049.74 30.7114 1049.2 30.5862C1048.66 30.4609 1047.3 34.3299 1046.17 39.2278C1045.04 44.1257 1044.56 48.1977 1045.1 48.323C1045.64 48.4482 1047 44.5792 1048.13 39.6813Z" fill="white"/>
<path d="M1049.35 31.6839C1050.04 31.6839 1050.59 31.1294 1050.59 30.4455C1050.59 29.7615 1050.04 29.207 1049.35 29.207C1048.67 29.207 1048.12 29.7615 1048.12 30.4455C1048.12 31.1294 1048.67 31.6839 1049.35 31.6839Z" fill="#EF8619"/>
<path d="M1207 242.292H0V64.1217C58.8098 64.1217 116.105 79.8378 176.436 64.1217C276.849 37.9449 399.303 74.0983 467.801 64.1217C553.296 51.6619 665.937 66.6363 745.832 75.4373C792.823 78.2536 876.59 54.736 1034.44 56.9048C1089.88 56.9048 1175.52 64.1217 1207 64.1217V242.292Z" fill="#007799"/>
<path d="M1207 176.467C1198.98 176.467 1189.27 180.629 1180.55 119.826C1179.57 113.024 1169.56 107.209 1159.46 110.057C1149.19 113.69 1147.32 115.237 1144.61 118.267C1141.9 121.297 1138.16 125.679 1137.23 127.697C1137.02 128.211 1136.65 128.645 1136.17 128.936C1135.7 129.226 1135.14 129.358 1134.59 129.312C1129.48 128.514 1112.45 126.433 1109.44 133.713C1105.59 143.023 1102.18 148.26 1096.67 151.164C1085.04 157.3 1066.76 131.047 1051.12 130.048C1034.78 129.017 1037.19 151.918 1018.81 134.926C990.777 109.001 986.396 96.5787 948.356 75.607C937.179 69.4526 924.128 61.0476 898.14 61.5254C887.704 61.714 849.558 65.2218 844.322 66.9003C832.377 70.7413 813.977 82.9811 810.482 97.2325C809.514 101.042 809.841 105.065 811.412 108.668C811.412 108.668 789.655 112.32 787.523 123.868C784.915 137.843 793.967 139.955 790.667 146.405C774.133 178.68 675.536 208.748 666.823 181.182C665.899 178.24 714.883 142.011 714.883 142.011L682.973 116.865C682.973 116.865 676.605 122.787 647.141 147.474L643.067 140.559C642.067 138.912 640.414 135.266 639.798 134.272C639.383 133.606 675.222 113.112 675.222 113.112L652.792 96.3335L625.132 113.734C621.988 109.372 619.618 106.266 619.109 105.6C617.632 103.651 641.005 89.1732 641.005 89.1732L620.354 80.0704C620.354 80.0704 607.479 90.9774 605.656 88.8338C605.656 88.8338 594.598 65.9259 584.383 60.4064C584.383 60.4064 533.959 57.8415 532.036 59.4446C514.628 73.9663 496.203 100.175 485.327 102.708C436.412 105.65 431.264 144.783 403.553 151.315C394.532 153.44 382.034 156.143 342.203 116.582C324.035 98.5338 315.461 57.2883 294.703 55.2515C275.718 53.3656 237.012 53.3216 221.195 56.3453C190.907 59.52 231.059 102.186 202.631 89.7767C166.887 74.1737 165.214 97.66 169.445 110.359C172.909 120.775 196.76 153.735 159.054 167.968C121.348 182.2 14.8926 176.467 0 176.467V206.963C12.8432 206.963 178.202 194.981 194.578 169.388C208.163 148.153 207.026 140.339 209.081 132.204C212.419 119.002 193.51 108.831 217.147 113.558C247.083 119.556 238.301 82.2078 252.037 78.3982C260.322 76.1037 278.195 71.0808 290.133 79.0835C306.477 90.0282 313.349 97.0816 331.894 137.309C345.095 165.887 357.222 183.992 372.888 186.972C388.553 189.951 401.466 189.298 415.786 178.623C425.317 171.513 434.916 130.746 471.736 115.425C531.111 116.299 499.157 89.9213 547.343 85.8791C563.059 84.867 601.136 83.5531 634.31 171.884C667.484 260.215 795.243 202.455 806.817 171.098C810.834 160.21 815.536 149.096 804.698 131.425C804.07 130.381 824.375 132.562 826.921 115.558C828.36 105.895 826.129 104.462 823.407 99.3447C821.521 95.7992 842.995 84.3201 855.512 81.9187C880.268 77.1661 894.727 80.3533 908.896 82.4467C923.066 84.5401 939.737 92.2976 957.635 101.237C968.951 109.409 972.377 105.474 1023.21 151.529C1039.88 166.616 1044.06 142.526 1048.64 141.634C1052.21 140.942 1095.69 173.739 1108.95 167.094C1113.7 164.711 1119.83 148.235 1123.94 144.557C1130.62 138.591 1146.98 145.267 1148.85 134.197C1150.19 126.276 1172.19 110.987 1172.59 124.692C1174.97 206.868 1201.21 206.931 1206.98 206.994" fill="#43AFE0"/>
<path d="M397.116 68.9373C397.204 70.8232 397.292 72.7531 397.373 74.6642C397.449 76.2819 397.52 77.8955 397.587 79.5048C397.675 81.4662 397.761 83.4275 397.845 85.3889L398.052 90.0157C398.134 91.8388 398.209 93.6556 398.291 95.4724L398.555 101.413C398.631 103.079 398.693 104.745 398.769 106.442C398.851 108.328 398.939 110.214 399.02 112.1C399.096 113.728 399.165 115.35 399.234 116.978C399.234 117.462 399.272 117.946 399.303 118.431C399.313 118.48 399.305 118.531 399.279 118.574C399.253 118.617 399.213 118.649 399.165 118.663C398.584 118.895 397.988 119.084 397.38 119.229C396.996 119.273 396.625 119.342 396.242 119.374C395.858 119.405 395.487 119.374 395.116 119.374C394.325 119.278 393.552 119.066 392.822 118.745C392.514 118.607 392.514 118.607 392.52 118.273C392.52 118.242 392.52 118.204 392.52 118.173C392.579 116.597 392.637 115.015 392.696 113.427C392.797 110.556 392.899 107.685 393.004 104.814C393.101 102.258 393.193 99.7011 393.281 97.1446C393.388 94.0768 393.507 91.009 393.62 87.9412L393.865 80.8249L394.129 73.8407C394.186 72.2251 394.236 70.6094 394.299 68.9938C394.303 68.8773 394.275 68.762 394.218 68.6606" fill="white"/>
<path d="M394.211 68.6232C393.117 66.5927 392.036 64.5622 390.949 62.5317L390.867 62.3997L389.025 58.9484C388.981 58.8604 388.937 58.7724 388.887 58.6906C388.736 58.4078 388.736 58.4078 389.031 58.2506C389.454 58.0347 389.891 57.8478 390.339 57.6911C390.414 57.6186 390.511 57.5742 390.615 57.5654C391.451 57.3226 392.308 57.1605 393.174 57.0813C394.096 56.9788 395.025 56.9389 395.953 56.9619C397.674 56.9853 399.388 57.1961 401.063 57.5905C401.145 57.5905 401.246 57.5905 401.302 57.7037C401.573 57.8168 401.862 57.8797 402.126 58.018C402.211 58.0622 402.293 58.1127 402.371 58.1689C402.4 58.1842 402.425 58.2055 402.444 58.2312C402.464 58.257 402.478 58.2867 402.485 58.3183C402.492 58.3498 402.492 58.3826 402.486 58.4143C402.479 58.446 402.466 58.4759 402.446 58.502C400.686 61.8884 398.93 65.2788 397.178 68.6735C397.133 68.7583 397.111 68.8539 397.116 68.9501" fill="white"/>
<path d="M398.253 51.4863C398.872 51.6637 399.473 51.8951 400.051 52.1778C400.278 52.2532 400.322 52.4292 400.328 52.643C400.353 53.0894 400.229 53.5315 399.976 53.9003C399.926 53.9694 399.875 54.0197 399.787 53.9883C399.699 54.0166 399.605 54.0166 399.517 53.9883C398.745 53.8165 397.961 53.7072 397.172 53.6614C396.732 53.6614 396.286 53.6614 395.846 53.6614C394.479 53.6745 393.116 53.8049 391.772 54.0511C391.351 54.1266 391.307 54.114 391.099 53.7368C390.943 53.5272 390.865 53.269 390.879 53.0076C390.879 52.3789 390.879 52.3789 391.42 52.1715C392.388 51.7586 393.401 51.459 394.438 51.2788C394.544 51.2788 394.57 51.2159 394.576 51.1154C394.62 50.2415 394.67 49.3677 394.72 48.4876C394.79 47.2303 394.84 45.929 394.934 44.6466C394.999 44.202 395.104 43.7643 395.249 43.339C395.286 43.1997 395.305 43.0559 395.305 42.9115C395.305 40.4409 395.305 37.9641 395.274 35.4935C395.267 35.4253 395.282 35.3567 395.315 35.2971C395.349 35.2375 395.4 35.1897 395.462 35.1603C395.594 35.0912 395.701 35.1603 395.808 35.2358C395.915 35.3112 395.883 35.3929 395.883 35.4809C395.883 36.864 395.921 38.2407 395.946 39.6237C395.946 40.7364 395.984 41.8491 395.997 42.9618C396.019 43.2557 396.08 43.5453 396.179 43.8231C396.335 44.4916 396.425 45.1738 396.449 45.8599C396.537 46.9663 396.619 48.079 396.701 49.1854C396.751 49.8141 396.801 50.4427 396.839 51.0713C396.839 51.2097 396.889 51.2662 397.04 51.2914C397.449 51.3165 397.851 51.4045 398.253 51.4863Z" fill="white"/>
<path d="M390.389 56.8987C389.956 56.5047 389.661 55.9826 389.547 55.4088C389.509 55.2139 389.547 55.1071 389.754 55.0442C389.962 54.9813 390.2 54.8682 390.427 54.7802C390.454 54.7443 390.488 54.7141 390.527 54.6914C390.566 54.6688 390.609 54.6541 390.653 54.6481C391.829 54.2638 393.043 54.0088 394.274 53.8875C395.11 53.8075 395.95 53.7865 396.789 53.8246C397.699 53.8583 398.602 53.9869 399.486 54.2081C399.57 54.2161 399.649 54.2514 399.712 54.3087C400.325 54.4768 400.926 54.6868 401.51 54.9373L401.742 55.0442C402.019 55.1762 402.044 55.2265 401.969 55.5283C401.838 55.9877 401.592 56.4056 401.252 56.7415L401.12 56.8861C401.077 57.0009 400.992 57.0948 400.882 57.1486C400.772 57.2024 400.646 57.212 400.529 57.1753C399.561 56.9828 398.583 56.8401 397.6 56.7478C396.628 56.6557 395.652 56.6201 394.676 56.641C393.459 56.6495 392.249 56.8272 391.081 57.169C390.952 57.2032 390.815 57.1955 390.691 57.1469C390.566 57.0983 390.461 57.0113 390.389 56.8987Z" fill="#E2A558"/>
<path d="M1052.54 112.741H1019.13V162.851H1052.54V112.741Z" fill="white"/>
<path d="M1035.83 120.801C1039.97 120.801 1043.32 117.448 1043.32 113.313C1043.32 109.178 1039.97 105.826 1035.83 105.826C1031.7 105.826 1028.35 109.178 1028.35 113.313C1028.35 117.448 1031.7 120.801 1035.83 120.801Z" fill="white"/>
<path d="M1016.84 109.416H1013.33V162.845H1016.84V109.416Z" fill="white"/>
<path d="M1014.16 114.596H1021.95" stroke="white" stroke-width="0.314323" stroke-miterlimit="10"/>
<path d="M1014.16 117.355H1021.95" stroke="white" stroke-width="0.314323" stroke-miterlimit="10"/>
<path d="M1014.16 120.109H1021.95" stroke="white" stroke-width="0.314323" stroke-miterlimit="10"/>
<path d="M1014.16 122.869H1021.95" stroke="white" stroke-width="0.314323" stroke-miterlimit="10"/>
<path d="M1014.16 125.622H1021.95" stroke="white" stroke-width="0.314323" stroke-miterlimit="10"/>
<path d="M1014.16 128.382H1021.95" stroke="white" stroke-width="0.314323" stroke-miterlimit="10"/>
<path d="M1014.16 131.136H1021.95" stroke="white" stroke-width="0.314323" stroke-miterlimit="10"/>
<path d="M1014.16 133.895H1021.95" stroke="white" stroke-width="0.314323" stroke-miterlimit="10"/>
<path d="M1014.16 136.649H1021.95" stroke="white" stroke-width="0.314323" stroke-miterlimit="10"/>
<path d="M1014.16 139.409H1021.95" stroke="white" stroke-width="0.314323" stroke-miterlimit="10"/>
<path d="M1014.16 142.168H1021.95" stroke="white" stroke-width="0.314323" stroke-miterlimit="10"/>
<path d="M1014.16 144.922H1021.95" stroke="white" stroke-width="0.314323" stroke-miterlimit="10"/>
<path d="M1014.16 147.681H1021.95" stroke="white" stroke-width="0.314323" stroke-miterlimit="10"/>
<path d="M1014.16 150.435H1021.95" stroke="white" stroke-width="0.314323" stroke-miterlimit="10"/>
<path d="M1014.16 153.195H1021.95" stroke="white" stroke-width="0.314323" stroke-miterlimit="10"/>
<path d="M1014.16 155.948H1021.95" stroke="white" stroke-width="0.314323" stroke-miterlimit="10"/>
<path d="M1014.16 158.708H1021.95" stroke="white" stroke-width="0.314323" stroke-miterlimit="10"/>
<path d="M1014.16 161.461H1021.95" stroke="white" stroke-width="0.314323" stroke-miterlimit="10"/>
<path d="M1167.28 58.5078C1167.15 56.9854 1167.13 55.4558 1167.23 53.9312C1167.37 53.7992 1170.67 53.4346 1170.67 53.4346L1171.17 50.8069V50.1279H1151.64V50.8069L1152.14 53.4346C1152.14 53.4346 1155.44 53.7992 1155.58 53.9312C1155.68 55.4557 1155.66 56.9855 1155.53 58.5078C1155.44 59.0044 1143.04 85.3132 1143.04 85.3132H1145.66L1153.48 69.0439H1159.76V85.3887H1163.11V69.0439H1169.36L1177.18 85.3132H1179.8C1179.8 85.3132 1167.4 59.0044 1167.28 58.5078ZM1168.1 51.3098C1168.82 51.2787 1169.53 51.1713 1170.23 50.9892L1169.96 52.6237H1167.11C1167.04 52.4698 1167.02 52.3027 1167.05 52.1385C1167.07 51.9743 1167.13 51.8185 1167.23 51.6863C1167.33 51.5542 1167.46 51.4501 1167.62 51.3841C1167.77 51.3181 1167.93 51.2925 1168.1 51.3098ZM1156.87 51.995C1156.92 51.4984 1157.49 51.4104 1157.49 51.4104H1165.17C1165.17 51.4104 1165.8 51.4984 1165.8 51.995C1165.84 52.2023 1165.84 52.4164 1165.8 52.6237H1156.82C1156.8 52.4132 1156.81 52.2001 1156.87 51.995ZM1155.61 52.6237H1152.75L1152.48 50.9892C1153.18 51.171 1153.89 51.2785 1154.61 51.3098C1154.78 51.2883 1154.94 51.3107 1155.1 51.3747C1155.26 51.4386 1155.39 51.542 1155.5 51.6746C1155.6 51.8072 1155.67 51.9645 1155.69 52.1309C1155.71 52.2973 1155.69 52.4671 1155.63 52.6237H1155.61ZM1159.79 66.4539H1154.66L1156.73 62.3425C1156.84 62.1424 1157 61.9744 1157.19 61.8552C1157.38 61.7361 1157.61 61.67 1157.83 61.6636C1158.63 61.6321 1159.79 61.6636 1159.79 61.6636V66.4539ZM1161.01 57.3511C1159.84 57.3511 1157.79 57.3511 1157.53 57.3511C1157.42 57.3471 1157.31 57.3091 1157.23 57.2424C1157.14 57.1758 1157.08 57.0839 1157.05 56.9802C1157.05 56.9802 1157.05 55.0942 1157.05 54.5159C1157.05 54.4353 1157.07 54.3555 1157.1 54.2815C1157.13 54.2075 1157.18 54.141 1157.24 54.0861C1157.3 54.0312 1157.37 53.9891 1157.45 53.9624C1157.52 53.9358 1157.6 53.9252 1157.68 53.9312H1164.99C1165.07 53.9261 1165.15 53.9374 1165.22 53.9644C1165.3 53.9914 1165.37 54.0335 1165.43 54.0882C1165.49 54.143 1165.53 54.2091 1165.57 54.2826C1165.6 54.3562 1165.62 54.4355 1165.62 54.5159C1165.62 55.1445 1165.62 56.9802 1165.62 56.9802C1165.59 57.0837 1165.52 57.1754 1165.44 57.2428C1165.36 57.3102 1165.25 57.3502 1165.14 57.3574L1161.01 57.3511ZM1162.86 66.4539V61.7013C1162.86 61.7013 1164.01 61.651 1164.81 61.7013C1165.04 61.7077 1165.26 61.7738 1165.46 61.893C1165.65 62.0121 1165.81 62.1801 1165.92 62.3802L1167.99 66.4916L1162.86 66.4539Z" fill="white"/>
<path d="M1156.48 60.1113C1157.89 60.1113 1159.03 58.9658 1159.03 57.5527C1159.03 56.1397 1157.89 54.9941 1156.48 54.9941C1155.06 54.9941 1153.92 56.1397 1153.92 57.5527C1153.92 58.9658 1155.06 60.1113 1156.48 60.1113Z" stroke="#E2A558" stroke-width="0.628646" stroke-miterlimit="10"/>
<path d="M1153.91 57.5527H1159.03" stroke="#E2A558" stroke-width="0.628646" stroke-miterlimit="10"/>
<path d="M1156.48 54.9878V60.1113" stroke="#E2A558" stroke-width="0.628646" stroke-miterlimit="10"/>
<path d="M1158.29 55.7422L1154.67 59.3632" stroke="#E2A558" stroke-width="0.628646" stroke-miterlimit="10"/>
<path d="M1158.29 59.3632L1154.67 55.7422" stroke="#E2A558" stroke-width="0.628646" stroke-miterlimit="10"/>
<path d="M1166.42 60.0166C1167.83 60.0166 1168.98 58.8711 1168.98 57.458C1168.98 56.0449 1167.83 54.8994 1166.42 54.8994C1165.01 54.8994 1163.86 56.0449 1163.86 57.458C1163.86 58.8711 1165.01 60.0166 1166.42 60.0166Z" stroke="#E2A558" stroke-width="0.628646" stroke-miterlimit="10"/>
<path d="M1163.86 57.458H1168.99" stroke="#E2A558" stroke-width="0.628646" stroke-miterlimit="10"/>
<path d="M1166.42 54.8936V60.017" stroke="#E2A558" stroke-width="0.628646" stroke-miterlimit="10"/>
<path d="M1168.23 55.6475L1164.61 59.2685" stroke="#E2A558" stroke-width="0.628646" stroke-miterlimit="10"/>
<path d="M1168.23 59.2685L1164.61 55.6475" stroke="#E2A558" stroke-width="0.628646" stroke-miterlimit="10"/>
<path d="M1152.76 71.2567C1154.7 71.2567 1156.28 69.6805 1156.28 67.7362C1156.28 65.792 1154.7 64.2158 1152.76 64.2158C1150.82 64.2158 1149.24 65.792 1149.24 67.7362C1149.24 69.6805 1150.82 71.2567 1152.76 71.2567Z" stroke="#E2A558" stroke-width="0.628646" stroke-miterlimit="10"/>
<path d="M1149.24 67.7368H1156.28" stroke="#E2A558" stroke-width="0.628646" stroke-miterlimit="10"/>
<path d="M1152.76 64.2222V71.2567" stroke="#E2A558" stroke-width="0.628646" stroke-miterlimit="10"/>
<path d="M1155.25 65.2534L1150.27 70.226" stroke="#E2A558" stroke-width="0.628646" stroke-miterlimit="10"/>
<path d="M1155.25 70.226L1150.27 65.2534" stroke="#E2A558" stroke-width="0.628646" stroke-miterlimit="10"/>
<path d="M1169.62 71.2567C1171.57 71.2567 1173.14 69.6805 1173.14 67.7362C1173.14 65.792 1171.57 64.2158 1169.62 64.2158C1167.68 64.2158 1166.1 65.792 1166.1 67.7362C1166.1 69.6805 1167.68 71.2567 1169.62 71.2567Z" stroke="#E2A558" stroke-width="0.628646" stroke-miterlimit="10"/>
<path d="M1166.1 67.7368H1173.14" stroke="#E2A558" stroke-width="0.628646" stroke-miterlimit="10"/>
<path d="M1169.62 64.2222V71.2567" stroke="#E2A558" stroke-width="0.628646" stroke-miterlimit="10"/>
<path d="M1172.11 65.2534L1167.13 70.226" stroke="#E2A558" stroke-width="0.628646" stroke-miterlimit="10"/>
<path d="M1172.11 70.226L1167.13 65.2534" stroke="#E2A558" stroke-width="0.628646" stroke-miterlimit="10"/>
<path d="M1169.73 73.9663H1152.79V85.4831H1169.73V73.9663Z" fill="white"/>
<path d="M728.431 27.7481C728.45 26.9145 728.137 26.1073 727.561 25.5043C726.985 24.9013 726.193 24.5517 725.36 24.5326C724.526 24.5134 723.719 24.8262 723.116 25.4021C722.513 25.978 722.163 26.7699 722.144 27.6035C721.919 27.2479 721.608 26.9546 721.24 26.7503C720.873 26.546 720.459 26.4373 720.038 26.4342C719.704 26.4342 719.374 26.5006 719.066 26.6298C718.758 26.7589 718.479 26.948 718.244 27.1862C718.01 27.4244 717.826 27.7068 717.702 28.017C717.579 28.3272 717.518 28.6589 717.524 28.9928C717.524 29.0808 717.524 29.1688 717.524 29.2568C716.791 28.6969 715.894 28.3942 714.971 28.3956C714.404 28.4005 713.844 28.5171 713.322 28.7387C712.799 28.9603 712.326 29.2826 711.929 29.6872C711.531 30.0917 711.217 30.5706 711.005 31.0965C710.792 31.6224 710.685 32.185 710.69 32.7521C710.69 33.1911 710.756 33.6276 710.885 34.0471C710.728 34.0471 710.571 34.0471 710.408 34.0471C709.081 34.0936 707.823 34.6534 706.901 35.6086C705.979 36.5638 705.463 37.8397 705.463 39.1674C705.463 40.4952 705.979 41.7711 706.901 42.7263C707.823 43.6814 709.081 44.2413 710.408 44.2878C711.661 44.2853 712.866 43.8093 713.783 42.955C714.546 43.4787 715.442 43.7752 716.367 43.81C716.829 44.2912 717.383 44.674 717.997 44.9354C718.611 45.1969 719.271 45.3315 719.938 45.3313C721.029 45.3262 722.088 44.9666 722.957 44.3066C723.825 43.6467 724.456 42.7222 724.753 41.6726C725.354 41.2017 725.843 40.6021 726.182 39.9179C726.522 39.2336 726.703 38.4821 726.715 37.7184C727.697 36.7838 728.272 35.4995 728.315 34.1439C728.357 32.7883 727.863 31.4706 726.941 30.4764C727.398 30.1832 727.774 29.7796 728.035 29.3028C728.295 28.826 728.431 28.2913 728.431 27.7481Z" fill="#E9F2F0"/>
<path d="M733.887 27.7169C735.366 27.7169 736.565 26.4954 736.565 24.9886C736.565 23.4818 735.366 22.2603 733.887 22.2603C732.408 22.2603 731.209 23.4818 731.209 24.9886C731.209 26.4954 732.408 27.7169 733.887 27.7169Z" fill="#E9F2F0"/>
<path d="M726.501 41.7606C726.501 41.7606 717.146 41.7983 704.838 41.5908C704.209 73.0923 701.292 78.7249 701.292 78.7249H729.04C729.04 78.7249 726.916 69.7164 726.501 41.7606Z" fill="white"/>
<path d="M746.944 40.2335C746.861 39.6263 746.563 39.069 746.105 38.662C745.646 38.2549 745.058 38.025 744.445 38.0136C743.832 38.0023 743.235 38.2102 742.762 38.5999C742.289 38.9896 741.971 39.5356 741.865 40.1392C741.665 39.881 741.407 39.6732 741.113 39.5324C740.818 39.3916 740.494 39.3217 740.168 39.3283C739.918 39.3095 739.668 39.3405 739.431 39.4194C739.193 39.4983 738.974 39.6236 738.786 39.7879C738.597 39.9523 738.444 40.1525 738.333 40.3769C738.223 40.6012 738.159 40.8452 738.143 41.0948C738.14 41.1555 738.14 41.2164 738.143 41.2771C737.535 40.8737 736.824 40.6554 736.094 40.6484C734.208 40.6484 732.643 41.9937 732.643 43.6534C732.643 43.9598 732.696 44.2639 732.8 44.5523C732.672 44.5459 732.544 44.5459 732.416 44.5523C730.178 44.5523 728.368 46.1302 728.368 48.079C728.368 50.0278 730.178 51.612 732.416 51.612C733.399 51.6178 734.355 51.2947 735.132 50.6942C735.767 51.0591 736.481 51.262 737.213 51.2851C738.014 51.9722 739.037 52.3453 740.092 52.335C740.919 52.3663 741.735 52.1416 742.429 51.6915C743.124 51.2414 743.662 50.5879 743.971 49.8204C744.432 49.535 744.818 49.1436 745.096 48.6789C745.375 48.2141 745.539 47.6895 745.574 47.1486C745.964 46.8618 746.283 46.4906 746.51 46.0628C746.736 45.635 746.862 45.1616 746.88 44.6781C746.897 44.1945 746.805 43.7133 746.611 43.2702C746.416 42.8272 746.124 42.4338 745.756 42.1195C746.106 41.9421 746.402 41.673 746.611 41.3408C746.82 41.0087 746.936 40.626 746.944 40.2335Z" fill="#E9F2F0"/>
<path d="M751.565 41.5663C752.756 41.5663 753.721 40.5756 753.721 39.3535C753.721 38.1313 752.756 37.1406 751.565 37.1406C750.374 37.1406 749.409 38.1313 749.409 39.3535C749.409 40.5756 750.374 41.5663 751.565 41.5663Z" fill="#E9F2F0"/>
<path d="M753.149 38.1588C754.142 38.1588 754.947 37.3314 754.947 36.3106C754.947 35.2899 754.142 34.4624 753.149 34.4624C752.156 34.4624 751.351 35.2899 751.351 36.3106C751.351 37.3314 752.156 38.1588 753.149 38.1588Z" fill="#E9F2F0"/>
<path d="M745.612 50.5873C745.612 50.5873 738.068 50.5873 728.173 50.4741C727.664 72.2001 725.313 76.0851 725.313 76.0851H747.661C747.661 76.0851 745.951 69.8741 745.612 50.5873Z" fill="white"/>
<path d="M101.13 79.7692L100.156 73.6211L99.1186 67.102L98.7603 69.7298L98.402 67.4604L97.7293 63.2296L97.5219 64.7572L95.4096 50.6504C95.5575 50.5679 95.6809 50.4476 95.7671 50.3018C95.8532 50.156 95.8991 49.9899 95.8999 49.8206C95.899 49.6622 95.8582 49.5066 95.7813 49.3682C95.7044 49.2298 95.5939 49.1129 95.4599 49.0285C95.4769 48.9841 95.4875 48.9375 95.4913 48.8902C95.4904 48.7705 95.4479 48.6548 95.3711 48.5631C95.2942 48.4713 95.1878 48.4091 95.0701 48.3872L94.9444 47.5386L94.7872 48.4061C94.6845 48.4405 94.5951 48.5063 94.5319 48.5944C94.4687 48.6824 94.4349 48.7881 94.4352 48.8964C94.4293 48.9381 94.4293 48.9805 94.4352 49.0222C94.2923 49.1024 94.1734 49.2193 94.0905 49.3607C94.0076 49.5021 93.9639 49.663 93.9637 49.8268C93.9639 49.9779 93.9999 50.1267 94.0688 50.2611C94.1376 50.3955 94.2374 50.5117 94.3598 50.6001L90.5879 71.1191L88.9974 65.7504L87.4069 71.1191L83.6351 50.6001C83.7608 50.5108 83.8628 50.3924 83.9325 50.2548C84.0021 50.1173 84.0372 49.9649 84.0347 49.8108C84.0322 49.6567 83.9923 49.5055 83.9182 49.3703C83.8442 49.2351 83.7384 49.1199 83.6099 49.0347C83.6165 48.991 83.6165 48.9465 83.6099 48.9027C83.6103 48.7882 83.572 48.6768 83.5013 48.5867C83.4306 48.4966 83.3315 48.433 83.2202 48.4061L83.0693 47.5511L82.9813 48.4061C82.8716 48.4352 82.7746 48.4996 82.7053 48.5894C82.6359 48.6791 82.5982 48.7893 82.5978 48.9027C82.5912 48.9423 82.5912 48.9826 82.5978 49.0222C82.4572 49.1056 82.3409 49.2243 82.2604 49.3665C82.1798 49.5088 82.138 49.6697 82.1389 49.8331C82.1385 50.002 82.1831 50.1679 82.2682 50.3138C82.3533 50.4597 82.4757 50.5802 82.6229 50.6629L80.385 65.5744L80.0204 63.2421L79.4357 67.4855L79.1591 69.4909L78.7819 67.1146L77.8892 73.6588L77.0469 79.7818H74.1237V101.571H104.299V79.7692H101.13Z" fill="white"/>
<path d="M84.5277 71.5461C84.5339 71.4687 84.5339 71.3909 84.5277 71.3135V67.0324C84.5059 66.7331 84.3716 66.453 84.1517 66.2487C83.9319 66.0443 83.6429 65.9307 83.3427 65.9307C83.0426 65.9307 82.7535 66.0443 82.5337 66.2487C82.3139 66.453 82.1795 66.7331 82.1577 67.0324V71.3135C82.1484 71.3908 82.1484 71.4689 82.1577 71.5461H84.5277Z" fill="#E2A558"/>
<path d="M84.5277 80.0642C84.5339 79.9889 84.5339 79.9132 84.5277 79.8379V75.5569C84.5059 75.2575 84.3716 74.9775 84.1517 74.7731C83.9319 74.5687 83.6429 74.4551 83.3427 74.4551C83.0425 74.4551 82.7535 74.5687 82.5337 74.7731C82.3138 74.9775 82.1795 75.2575 82.1577 75.5569V79.8379C82.1484 79.9131 82.1484 79.9891 82.1577 80.0642H84.5277Z" fill="#E2A558"/>
<path d="M96.1326 71.5461C96.1418 71.4689 96.1418 71.3908 96.1326 71.3135V67.0324C96.1107 66.7331 95.9764 66.453 95.7566 66.2487C95.5368 66.0443 95.2477 65.9307 94.9476 65.9307C94.6474 65.9307 94.3584 66.0443 94.1385 66.2487C93.9187 66.453 93.7844 66.7331 93.7626 67.0324V71.3135C93.7564 71.3909 93.7564 71.4687 93.7626 71.5461H96.1326Z" fill="#E2A558"/>
<path d="M96.1326 80.0642C96.1418 79.9891 96.1418 79.9131 96.1326 79.8379V75.5569C96.1107 75.2575 95.9764 74.9775 95.7566 74.7731C95.5368 74.5687 95.2477 74.4551 94.9476 74.4551C94.6474 74.4551 94.3584 74.5687 94.1385 74.7731C93.9187 74.9775 93.7844 75.2575 93.7626 75.5569V79.8379C93.7564 79.9132 93.7564 79.9889 93.7626 80.0642H96.1326Z" fill="#E2A558"/>
<path d="M79.0207 88.1488C79.0272 88.0714 79.0272 87.9936 79.0207 87.9162V83.6415C79.0326 83.4786 79.0108 83.315 78.9566 83.1609C78.9024 83.0069 78.8171 82.8657 78.7059 82.7461C78.5947 82.6265 78.46 82.5311 78.3103 82.4658C78.1606 82.4006 77.9991 82.3669 77.8357 82.3669C77.6724 82.3669 77.5109 82.4006 77.3612 82.4658C77.2115 82.5311 77.0768 82.6265 76.9656 82.7461C76.8544 82.8657 76.7691 83.0069 76.7149 83.1609C76.6607 83.315 76.6389 83.4786 76.6508 83.6415V87.9162C76.6442 87.9936 76.6442 88.0714 76.6508 88.1488H79.0207Z" fill="#E2A558"/>
<path d="M82.6166 88.1488C82.6262 88.0716 82.6262 87.9935 82.6166 87.9162V83.6415C82.6284 83.4786 82.6066 83.315 82.5524 83.1609C82.4983 83.0069 82.4129 82.8657 82.3017 82.7461C82.1905 82.6265 82.0559 82.5311 81.9061 82.4658C81.7564 82.4006 81.5949 82.3669 81.4316 82.3669C81.2683 82.3669 81.1067 82.4006 80.957 82.4658C80.8073 82.5311 80.6726 82.6265 80.5614 82.7461C80.4502 82.8657 80.3649 83.0069 80.3107 83.1609C80.2565 83.315 80.2347 83.4786 80.2466 83.6415V87.9162C80.2401 87.9936 80.2401 88.0714 80.2466 88.1488H82.6166Z" fill="#E2A558"/>
<path d="M97.9493 88.1487C97.9558 88.0713 97.9558 87.9935 97.9493 87.9161V83.6413C97.9493 83.3279 97.8248 83.0273 97.6031 82.8056C97.3815 82.584 97.0809 82.4595 96.7675 82.4595C96.454 82.4595 96.1534 82.584 95.9318 82.8056C95.7101 83.0273 95.5856 83.3279 95.5856 83.6413V87.9161C95.5791 87.9935 95.5791 88.0713 95.5856 88.1487H97.9493Z" fill="#E2A558"/>
<path d="M101.545 88.1487C101.552 88.0713 101.552 87.9935 101.545 87.9161V83.6413C101.545 83.3279 101.421 83.0273 101.199 82.8056C100.977 82.584 100.677 82.4595 100.363 82.4595C100.05 82.4595 99.7492 82.584 99.5276 82.8056C99.306 83.0273 99.1815 83.3279 99.1815 83.6413V87.9161C99.1719 87.9934 99.1719 88.0715 99.1815 88.1487H101.545Z" fill="#E2A558"/>
<path d="M88.8151 100.351C88.8215 100.231 88.8215 100.112 88.8151 99.9924V93.2722C88.8151 92.2475 88.287 91.3862 87.6332 91.3862C86.9794 91.3862 86.4514 92.2223 86.4514 93.2722V99.9924C86.4449 100.112 86.4449 100.231 86.4514 100.351H88.8151Z" fill="#E2A558"/>
<path d="M92.4109 100.351C92.4174 100.231 92.4174 100.112 92.4109 99.9924V93.2722C92.4109 92.2475 91.8829 91.3862 91.2291 91.3862C90.5753 91.3862 90.0472 92.2223 90.0472 93.2722V99.9924C90.0376 100.112 90.0376 100.231 90.0472 100.351H92.4109Z" fill="#E2A558"/>
<path d="M91.2731 88.1487C91.2983 88.0737 91.311 87.9951 91.3108 87.9161V83.6413C91.3108 83.0126 90.3993 82.4531 89.274 82.4531C88.1487 82.4531 87.2372 82.9875 87.2372 83.6413V87.9161C87.2391 87.9955 87.2539 88.074 87.2812 88.1487H91.2731Z" fill="#E2A558"/>
<path d="M90.2295 80.0643C90.2357 80.0058 90.2357 79.9468 90.2295 79.8883V76.5376C90.2103 76.3048 90.1043 76.0878 89.9325 75.9296C89.7608 75.7714 89.5358 75.6836 89.3023 75.6836C89.0687 75.6836 88.8437 75.7714 88.672 75.9296C88.5002 76.0878 88.3942 76.3048 88.375 76.5376V79.8883C88.3688 79.9468 88.3688 80.0058 88.375 80.0643H90.2295Z" fill="#E2A558"/>
<path d="M79.1025 97.6726C79.109 97.5973 79.109 97.5216 79.1025 97.4463V93.1652C79.0807 92.8659 78.9464 92.5859 78.7266 92.3815C78.5067 92.1771 78.2177 92.0635 77.9175 92.0635C77.6174 92.0635 77.3283 92.1771 77.1085 92.3815C76.8887 92.5859 76.7544 92.8659 76.7325 93.1652V97.44C76.726 97.5153 76.726 97.5911 76.7325 97.6664L79.1025 97.6726Z" fill="#E2A558"/>
<path d="M82.6984 97.6726C82.708 97.5975 82.708 97.5215 82.6984 97.4463V93.1652C82.6765 92.8659 82.5422 92.5859 82.3224 92.3815C82.1026 92.1771 81.8135 92.0635 81.5134 92.0635C81.2132 92.0635 80.9242 92.1771 80.7043 92.3815C80.4845 92.5859 80.3502 92.8659 80.3284 93.1652V97.44C80.3219 97.5153 80.3219 97.5911 80.3284 97.6664L82.6984 97.6726Z" fill="#E2A558"/>
<path d="M98.0248 97.6726C98.0344 97.5975 98.0344 97.5215 98.0248 97.4463V93.1652C98.0248 92.8518 97.9002 92.5512 97.6786 92.3295C97.457 92.1079 97.1564 91.9834 96.8429 91.9834C96.5295 91.9834 96.2288 92.1079 96.0072 92.3295C95.7856 92.5512 95.661 92.8518 95.661 93.1652V97.44C95.6546 97.5153 95.6546 97.5911 95.661 97.6664L98.0248 97.6726Z" fill="#E2A558"/>
<path d="M101.627 97.6726C101.633 97.5973 101.633 97.5216 101.627 97.4463V93.1652C101.627 92.8518 101.502 92.5512 101.281 92.3295C101.059 92.1079 100.758 91.9834 100.445 91.9834C100.132 91.9834 99.831 92.1079 99.6093 92.3295C99.3877 92.5512 99.2632 92.8518 99.2632 93.1652V97.44C99.2567 97.5153 99.2567 97.5911 99.2632 97.6664L101.627 97.6726Z" fill="#E2A558"/>
<path d="M88.7333 150.982C89.934 148.964 93.9322 142.036 93.9322 139.434C93.9322 137.965 93.3487 136.556 92.3101 135.517C91.2714 134.479 89.8627 133.895 88.3938 133.895C86.925 133.895 85.5163 134.479 84.4776 135.517C83.439 136.556 82.8555 137.965 82.8555 139.434C82.8555 142.036 86.8599 148.964 88.0607 150.982C86.6839 151.032 85.6152 151.384 85.6152 151.812C85.6152 152.239 86.8725 152.648 88.3938 152.648C89.9152 152.648 91.1787 152.277 91.1787 151.812C91.1787 151.346 90.11 151.032 88.7333 150.982ZM84.4962 139.421C84.4962 138.65 84.7248 137.897 85.1531 137.256C85.5814 136.615 86.1901 136.115 86.9023 135.82C87.6145 135.525 88.3982 135.448 89.1542 135.598C89.9103 135.749 90.6048 136.12 91.1499 136.665C91.695 137.21 92.0662 137.905 92.2166 138.661C92.3669 139.417 92.2898 140.2 91.9948 140.913C91.6998 141.625 91.2002 142.234 90.5592 142.662C89.9183 143.09 89.1647 143.319 88.3938 143.319C87.3601 143.319 86.3688 142.908 85.6378 142.177C84.9069 141.446 84.4962 140.455 84.4962 139.421Z" fill="#EF8619"/>
<path d="M739.684 131.167C740.884 129.149 744.889 122.221 744.889 119.619C744.889 118.15 744.305 116.741 743.267 115.702C742.228 114.664 740.819 114.08 739.35 114.08C737.881 114.08 736.473 114.664 735.434 115.702C734.395 116.741 733.812 118.15 733.812 119.619C733.812 122.221 737.81 129.149 739.011 131.167C737.634 131.217 736.565 131.569 736.565 131.997C736.565 132.424 737.823 132.833 739.35 132.833C740.878 132.833 742.129 132.456 742.129 131.997C742.129 131.538 741.06 131.217 739.684 131.167ZM735.453 119.606C735.452 118.835 735.679 118.081 736.107 117.439C736.534 116.797 737.142 116.297 737.854 116.001C738.567 115.705 739.35 115.627 740.107 115.776C740.863 115.926 741.558 116.297 742.104 116.842C742.65 117.386 743.022 118.081 743.173 118.837C743.324 119.593 743.247 120.377 742.952 121.09C742.657 121.802 742.157 122.412 741.516 122.84C740.875 123.269 740.121 123.497 739.35 123.497C738.839 123.498 738.332 123.398 737.859 123.203C737.386 123.008 736.957 122.721 736.595 122.36C736.233 121.998 735.946 121.569 735.75 121.097C735.554 120.624 735.453 120.118 735.453 119.606Z" fill="#EF8619"/>
<path d="M997.843 158.148C999.044 156.13 1003.04 149.196 1003.04 146.6C1003.04 145.131 1002.46 143.722 1001.42 142.684C1000.38 141.645 998.973 141.062 997.504 141.062C996.035 141.062 994.626 141.645 993.588 142.684C992.549 143.722 991.965 145.131 991.965 146.6C991.965 149.196 995.97 156.13 997.171 158.148C995.794 158.198 994.725 158.55 994.725 158.978C994.725 159.405 995.982 159.814 997.504 159.814C999.025 159.814 1000.28 159.437 1000.28 158.978C1000.28 158.519 999.22 158.198 997.843 158.148ZM993.606 146.581C993.606 145.81 993.835 145.057 994.263 144.416C994.691 143.775 995.3 143.275 996.012 142.98C996.724 142.685 997.508 142.608 998.264 142.758C999.02 142.909 999.715 143.28 1000.26 143.825C1000.8 144.37 1001.18 145.065 1001.33 145.821C1001.48 146.577 1001.4 147.36 1001.1 148.073C1000.81 148.785 1000.31 149.394 999.669 149.822C999.028 150.25 998.275 150.479 997.504 150.479C996.471 150.477 995.48 150.066 994.75 149.335C994.019 148.605 993.608 147.614 993.606 146.581Z" fill="#EF8619"/>
<path d="M76.6866 108.277H78.5288V113.217L80.8734 108.277H82.7156L80.5217 112.581L82.7491 120H80.8232L79.2657 114.775L78.5288 116.265V120H76.6866V108.277ZM86.0221 120.167C85.1178 120.167 84.4255 119.911 83.9455 119.397C83.4654 118.884 83.2253 118.158 83.2253 117.22V111.057C83.2253 110.119 83.4654 109.393 83.9455 108.88C84.4255 108.366 85.1178 108.11 86.0221 108.11C86.9265 108.11 87.6187 108.366 88.0988 108.88C88.5788 109.393 88.8189 110.119 88.8189 111.057V117.22C88.8189 118.158 88.5788 118.884 88.0988 119.397C87.6187 119.911 86.9265 120.167 86.0221 120.167ZM86.0221 118.493C86.6585 118.493 86.9767 118.108 86.9767 117.337V110.94C86.9767 110.169 86.6585 109.784 86.0221 109.784C85.3857 109.784 85.0675 110.169 85.0675 110.94V117.337C85.0675 118.108 85.3857 118.493 86.0221 118.493ZM83.912 105.782H85.5532V107.49H83.912V105.782ZM86.491 105.782H88.1322V107.49H86.491V105.782ZM90.0647 108.277H91.9069V118.325H94.9381V120H90.0647V108.277ZM95.8215 108.277H98.1326L99.9246 115.294H99.9581V108.277H101.599V120H99.7069L97.4962 111.442H97.4627V120H95.8215V108.277Z" fill="white"/>
<path d="M372.65 123.991H374.716C375.388 123.991 375.892 124.172 376.228 124.532C376.564 124.893 376.732 125.422 376.732 126.119V130.472C376.732 131.168 376.564 131.697 376.228 132.058C375.892 132.419 375.388 132.599 374.716 132.599H372.65V123.991ZM374.691 131.369C374.912 131.369 375.08 131.304 375.195 131.173C375.318 131.041 375.38 130.828 375.38 130.533V126.057C375.38 125.762 375.318 125.549 375.195 125.418C375.08 125.287 374.912 125.221 374.691 125.221H374.002V131.369H374.691ZM379.613 132.722C378.957 132.722 378.457 132.537 378.113 132.169C377.768 131.791 377.596 131.254 377.596 130.558V123.991H378.949V130.656C378.949 130.951 379.006 131.164 379.121 131.295C379.244 131.427 379.416 131.492 379.637 131.492C379.859 131.492 380.027 131.427 380.141 131.295C380.264 131.164 380.326 130.951 380.326 130.656V123.991H381.629V130.558C381.629 131.254 381.457 131.791 381.113 132.169C380.769 132.537 380.268 132.722 379.613 132.722ZM378.063 122.159H379.268V123.414H378.063V122.159ZM379.957 122.159H381.162V123.414H379.957V122.159ZM384.351 132.722C383.695 132.722 383.199 132.537 382.863 132.169C382.527 131.791 382.359 131.254 382.359 130.558V130.066H383.638V130.656C383.638 131.213 383.871 131.492 384.339 131.492C384.568 131.492 384.74 131.427 384.855 131.295C384.978 131.156 385.04 130.935 385.04 130.631C385.04 130.271 384.958 129.955 384.794 129.685C384.63 129.406 384.326 129.074 383.884 128.689C383.326 128.197 382.937 127.754 382.716 127.361C382.494 126.959 382.384 126.508 382.384 126.008C382.384 125.328 382.556 124.803 382.9 124.434C383.244 124.057 383.744 123.868 384.4 123.868C385.048 123.868 385.536 124.057 385.863 124.434C386.2 124.803 386.368 125.336 386.368 126.033V126.389H385.089V125.947C385.089 125.651 385.031 125.438 384.917 125.307C384.802 125.168 384.634 125.098 384.412 125.098C383.962 125.098 383.736 125.373 383.736 125.922C383.736 126.233 383.818 126.524 383.982 126.795C384.154 127.066 384.462 127.393 384.904 127.779C385.47 128.271 385.859 128.717 386.072 129.119C386.286 129.521 386.392 129.992 386.392 130.533C386.392 131.238 386.216 131.779 385.863 132.156C385.519 132.533 385.015 132.722 384.351 132.722ZM388.926 132.722C388.27 132.722 387.774 132.537 387.438 132.169C387.102 131.791 386.934 131.254 386.934 130.558V130.066H388.213V130.656C388.213 131.213 388.447 131.492 388.914 131.492C389.143 131.492 389.315 131.427 389.43 131.295C389.553 131.156 389.615 130.935 389.615 130.631C389.615 130.271 389.533 129.955 389.369 129.685C389.205 129.406 388.901 129.074 388.459 128.689C387.901 128.197 387.512 127.754 387.291 127.361C387.069 126.959 386.959 126.508 386.959 126.008C386.959 125.328 387.131 124.803 387.475 124.434C387.819 124.057 388.319 123.868 388.975 123.868C389.623 123.868 390.111 124.057 390.439 124.434C390.775 124.803 390.943 125.336 390.943 126.033V126.389H389.664V125.947C389.664 125.651 389.606 125.438 389.492 125.307C389.377 125.168 389.209 125.098 388.988 125.098C388.537 125.098 388.311 125.373 388.311 125.922C388.311 126.233 388.393 126.524 388.557 126.795C388.729 127.066 389.037 127.393 389.479 127.779C390.045 128.271 390.434 128.717 390.648 129.119C390.861 129.521 390.967 129.992 390.967 130.533C390.967 131.238 390.791 131.779 390.439 132.156C390.094 132.533 389.59 132.722 388.926 132.722ZM391.743 123.991H395.432V125.221H393.095V127.496H394.952V128.726H393.095V131.369H395.432V132.599H391.743V123.991ZM396.21 123.991H397.562V131.369H399.788V132.599H396.21V123.991ZM400.437 123.991H402.502C403.175 123.991 403.679 124.172 404.015 124.532C404.351 124.893 404.519 125.422 404.519 126.119V130.472C404.519 131.168 404.351 131.697 404.015 132.058C403.679 132.419 403.175 132.599 402.502 132.599H400.437V123.991ZM402.478 131.369C402.699 131.369 402.867 131.304 402.982 131.173C403.105 131.041 403.166 130.828 403.166 130.533V126.057C403.166 125.762 403.105 125.549 402.982 125.418C402.867 125.287 402.699 125.221 402.478 125.221H401.789V131.369H402.478ZM407.387 132.722C406.723 132.722 406.215 132.533 405.862 132.156C405.51 131.779 405.334 131.246 405.334 130.558V126.033C405.334 125.344 405.51 124.811 405.862 124.434C406.215 124.057 406.723 123.868 407.387 123.868C408.051 123.868 408.559 124.057 408.912 124.434C409.264 124.811 409.441 125.344 409.441 126.033V130.558C409.441 131.246 409.264 131.779 408.912 132.156C408.559 132.533 408.051 132.722 407.387 132.722ZM407.387 131.492C407.854 131.492 408.088 131.209 408.088 130.644V125.947C408.088 125.381 407.854 125.098 407.387 125.098C406.92 125.098 406.686 125.381 406.686 125.947V130.644C406.686 131.209 406.92 131.492 407.387 131.492ZM410.355 123.991H412.36C413.056 123.991 413.565 124.155 413.884 124.483C414.204 124.803 414.364 125.299 414.364 125.971V126.5C414.364 127.393 414.069 127.959 413.479 128.197V128.221C413.807 128.32 414.036 128.521 414.167 128.824C414.307 129.127 414.376 129.533 414.376 130.041V131.554C414.376 131.8 414.384 132 414.401 132.156C414.417 132.304 414.458 132.451 414.524 132.599H413.147C413.097 132.46 413.065 132.328 413.048 132.205C413.032 132.082 413.024 131.861 413.024 131.541V129.967C413.024 129.574 412.958 129.299 412.827 129.144C412.704 128.988 412.487 128.91 412.175 128.91H411.708V132.599H410.355V123.991ZM412.2 127.68C412.47 127.68 412.671 127.611 412.802 127.471C412.942 127.332 413.011 127.098 413.011 126.77V126.106C413.011 125.795 412.954 125.569 412.839 125.43C412.733 125.291 412.561 125.221 412.323 125.221H411.708V127.68H412.2ZM415.315 123.991H418.893V125.221H416.667V127.619H418.413V128.849H416.667V132.599H415.315V123.991Z" fill="white"/>
<path d="M995.258 180.163C994.378 180.163 993.705 179.913 993.238 179.414C992.771 178.914 992.538 178.208 992.538 177.296V171.302C992.538 170.39 992.771 169.684 993.238 169.185C993.705 168.685 994.378 168.435 995.258 168.435C996.137 168.435 996.81 168.685 997.277 169.185C997.744 169.684 997.978 170.39 997.978 171.302V177.296C997.978 178.208 997.744 178.914 997.277 179.414C996.81 179.913 996.137 180.163 995.258 180.163ZM995.258 178.534C995.877 178.534 996.186 178.159 996.186 177.41V171.188C996.186 170.439 995.877 170.064 995.258 170.064C994.639 170.064 994.329 170.439 994.329 171.188V177.41C994.329 178.159 994.639 178.534 995.258 178.534ZM999.189 168.598H1001.89C1002.82 168.598 1003.49 168.815 1003.91 169.25C1004.34 169.673 1004.55 170.33 1004.55 171.221V171.677C1004.55 172.263 1004.45 172.741 1004.26 173.11C1004.07 173.479 1003.78 173.745 1003.39 173.908V173.941C1004.28 174.245 1004.73 175.038 1004.73 176.319V177.296C1004.73 178.176 1004.49 178.849 1004.03 179.316C1003.57 179.772 1002.9 180 1002.01 180H999.189V168.598ZM1001.68 173.24C1002.04 173.24 1002.31 173.148 1002.48 172.963C1002.66 172.779 1002.76 172.469 1002.76 172.035V171.4C1002.76 170.987 1002.68 170.689 1002.53 170.504C1002.39 170.319 1002.16 170.227 1001.84 170.227H1000.98V173.24H1001.68ZM1002.01 178.371C1002.32 178.371 1002.56 178.29 1002.71 178.127C1002.86 177.953 1002.94 177.66 1002.94 177.247V176.254C1002.94 175.732 1002.84 175.374 1002.66 175.179C1002.49 174.972 1002.19 174.869 1001.78 174.869H1000.98V178.371H1002.01ZM1005.77 168.598H1010.66V170.227H1007.57V173.24H1010.03V174.869H1007.57V178.371H1010.66V180H1005.77V168.598ZM1011.69 168.598H1014.35C1015.27 168.598 1015.94 168.815 1016.37 169.25C1016.79 169.673 1017 170.33 1017 171.221V171.921C1017 173.105 1016.61 173.854 1015.83 174.169V174.201C1016.26 174.332 1016.57 174.598 1016.74 175C1016.93 175.401 1017.02 175.939 1017.02 176.612V178.616C1017.02 178.941 1017.03 179.207 1017.05 179.414C1017.07 179.609 1017.13 179.805 1017.21 180H1015.39C1015.32 179.815 1015.28 179.642 1015.26 179.479C1015.24 179.316 1015.23 179.023 1015.23 178.599V176.514C1015.23 175.993 1015.14 175.629 1014.97 175.423C1014.8 175.217 1014.52 175.114 1014.1 175.114H1013.48V180H1011.69V168.598ZM1014.14 173.485C1014.49 173.485 1014.76 173.392 1014.93 173.208C1015.12 173.023 1015.21 172.714 1015.21 172.279V171.4C1015.21 170.987 1015.13 170.689 1014.98 170.504C1014.84 170.319 1014.61 170.227 1014.3 170.227H1013.48V173.485H1014.14ZM1018.26 168.598H1020.05V173.24H1021.98V168.598H1023.77V180H1021.98V174.869H1020.05V180H1018.26V168.598ZM1026.49 168.598H1028.91L1030.77 180H1028.98L1028.65 177.736V177.769H1026.62L1026.29 180H1024.63L1026.49 168.598ZM1028.44 176.221L1027.64 170.585H1027.61L1026.83 176.221H1028.44ZM1034.21 180.163C1033.34 180.163 1032.68 179.919 1032.23 179.43C1031.77 178.93 1031.54 178.219 1031.54 177.296V168.598H1033.33V177.426C1033.33 177.817 1033.41 178.1 1033.56 178.273C1033.72 178.447 1033.95 178.534 1034.25 178.534C1034.54 178.534 1034.76 178.447 1034.91 178.273C1035.08 178.1 1035.16 177.817 1035.16 177.426V168.598H1036.88V177.296C1036.88 178.219 1036.66 178.93 1036.2 179.43C1035.74 179.919 1035.08 180.163 1034.21 180.163ZM1040.49 180.163C1039.62 180.163 1038.96 179.919 1038.52 179.43C1038.07 178.93 1037.85 178.219 1037.85 177.296V176.645H1039.54V177.426C1039.54 178.165 1039.85 178.534 1040.47 178.534C1040.78 178.534 1041.01 178.447 1041.16 178.273C1041.32 178.089 1041.4 177.796 1041.4 177.394C1041.4 176.916 1041.29 176.498 1041.08 176.14C1040.86 175.77 1040.46 175.331 1039.87 174.82C1039.13 174.169 1038.62 173.582 1038.32 173.061C1038.03 172.529 1037.88 171.932 1037.88 171.27C1037.88 170.368 1038.11 169.673 1038.57 169.185C1039.02 168.685 1039.69 168.435 1040.55 168.435C1041.41 168.435 1042.06 168.685 1042.49 169.185C1042.94 169.673 1043.16 170.379 1043.16 171.302V171.774H1041.47V171.188C1041.47 170.797 1041.39 170.515 1041.24 170.341C1041.09 170.156 1040.86 170.064 1040.57 170.064C1039.97 170.064 1039.68 170.428 1039.68 171.156C1039.68 171.568 1039.78 171.954 1040 172.312C1040.23 172.67 1040.64 173.105 1041.22 173.615C1041.97 174.267 1042.49 174.858 1042.77 175.39C1043.05 175.923 1043.19 176.547 1043.19 177.264C1043.19 178.197 1042.96 178.914 1042.49 179.414C1042.04 179.913 1041.37 180.163 1040.49 180.163ZM1044.22 168.598H1049.11V170.227H1046.01V173.24H1048.47V174.869H1046.01V178.371H1049.11V180H1044.22V168.598ZM1050.14 168.598H1052.39L1054.13 175.423H1054.16V168.598H1055.76V180H1053.92L1051.77 171.677H1051.73V180H1050.14V168.598Z" fill="white"/>
<path d="M688.401 82.9248H690.806C691.588 82.9248 692.175 83.1348 692.566 83.5547C692.958 83.9746 693.153 84.5901 693.153 85.4012V90.4685C693.153 91.2796 692.958 91.8951 692.566 92.315C692.175 92.7349 691.588 92.9448 690.806 92.9448H688.401V82.9248ZM690.777 91.5134C691.035 91.5134 691.23 91.4371 691.364 91.2844C691.507 91.1317 691.579 90.8836 691.579 90.54V85.3296C691.579 84.9861 691.507 84.738 691.364 84.5853C691.23 84.4326 691.035 84.3563 690.777 84.3563H689.975V91.5134H690.777ZM696.506 93.088C695.743 93.088 695.161 92.8733 694.76 92.4438C694.359 92.0049 694.159 91.3798 694.159 90.5687V82.9248H695.733V90.6832C695.733 91.0267 695.8 91.2748 695.934 91.4275C696.077 91.5802 696.277 91.6565 696.535 91.6565C696.793 91.6565 696.988 91.5802 697.122 91.4275C697.265 91.2748 697.337 91.0267 697.337 90.6832V82.9248H698.854V90.5687C698.854 91.3798 698.653 92.0049 698.253 92.4438C697.852 92.8733 697.27 93.088 696.506 93.088ZM699.975 82.9248H701.55V92.9448H699.975V82.9248ZM704.776 93.088C704.013 93.088 703.435 92.8733 703.044 92.4438C702.653 92.0049 702.457 91.3798 702.457 90.5687V89.9961H703.946V90.6832C703.946 91.3321 704.218 91.6565 704.762 91.6565C705.029 91.6565 705.229 91.5802 705.363 91.4275C705.506 91.2653 705.578 91.0076 705.578 90.6545C705.578 90.2347 705.482 89.8673 705.291 89.5523C705.1 89.2279 704.747 88.8414 704.232 88.3929C703.583 87.8203 703.13 87.305 702.872 86.8469C702.615 86.3793 702.486 85.8545 702.486 85.2724C702.486 84.4803 702.686 83.8696 703.087 83.4402C703.488 83.0012 704.07 82.7817 704.833 82.7817C705.587 82.7817 706.155 83.0012 706.537 83.4402C706.928 83.8696 707.124 84.4899 707.124 85.301V85.7161H705.635V85.2008C705.635 84.8573 705.568 84.6092 705.434 84.4565C705.301 84.2942 705.105 84.2131 704.848 84.2131C704.323 84.2131 704.06 84.5328 704.06 85.1722C704.06 85.5348 704.156 85.8736 704.347 86.1885C704.547 86.5034 704.905 86.8851 705.42 87.3336C706.079 87.9062 706.532 88.4263 706.78 88.8939C707.028 89.3615 707.152 89.9102 707.152 90.54C707.152 91.3607 706.947 91.9905 706.537 92.4295C706.136 92.8685 705.549 93.088 704.776 93.088ZM708.055 82.9248H710.431C711.242 82.9248 711.834 83.1157 712.206 83.4974C712.578 83.8696 712.764 84.4469 712.764 85.2294V85.6302C712.764 86.1455 712.679 86.5654 712.507 86.8899C712.345 87.2143 712.092 87.4481 711.748 87.5913V87.6199C712.531 87.8871 712.922 88.5837 712.922 89.7098V90.5687C712.922 91.3416 712.717 91.9333 712.306 92.3436C711.906 92.7444 711.314 92.9448 710.531 92.9448H708.055V82.9248ZM710.245 87.0044C710.56 87.0044 710.794 86.9233 710.946 86.7611C711.109 86.5988 711.19 86.3269 711.19 85.9451V85.3869C711.19 85.0243 711.123 84.7618 710.989 84.5996C710.865 84.4374 710.665 84.3563 710.388 84.3563H709.63V87.0044H710.245ZM710.531 91.5134C710.808 91.5134 711.013 91.4418 711.147 91.2987C711.28 91.146 711.347 90.8883 711.347 90.5257V89.6525C711.347 89.1945 711.266 88.8796 711.104 88.7078C710.951 88.5265 710.694 88.4358 710.331 88.4358H709.63V91.5134H710.531ZM716.133 93.088C715.369 93.088 714.787 92.8733 714.386 92.4438C713.985 92.0049 713.785 91.3798 713.785 90.5687V82.9248H715.36V90.6832C715.36 91.0267 715.426 91.2748 715.56 91.4275C715.703 91.5802 715.903 91.6565 716.161 91.6565C716.419 91.6565 716.614 91.5802 716.748 91.4275C716.891 91.2748 716.963 91.0267 716.963 90.6832V82.9248H718.48V90.5687C718.48 91.3798 718.28 92.0049 717.879 92.4438C717.478 92.8733 716.896 93.088 716.133 93.088ZM719.601 82.9248H721.935C722.746 82.9248 723.337 83.1157 723.71 83.4974C724.082 83.8696 724.268 84.4469 724.268 85.2294V85.8449C724.268 86.8851 723.924 87.5436 723.237 87.8203V87.8489C723.619 87.9635 723.886 88.1973 724.039 88.5503C724.201 88.9034 724.282 89.3758 724.282 89.9675V91.7281C724.282 92.0144 724.292 92.2482 724.311 92.4295C724.33 92.6013 724.378 92.7731 724.454 92.9448H722.851C722.794 92.7826 722.755 92.6299 722.736 92.4868C722.717 92.3436 722.708 92.086 722.708 91.7138V89.8816C722.708 89.4235 722.631 89.1038 722.479 88.9225C722.335 88.7412 722.083 88.6505 721.72 88.6505H721.176V92.9448H719.601V82.9248ZM721.749 87.2191C722.064 87.2191 722.297 87.138 722.45 86.9758C722.612 86.8135 722.693 86.5416 722.693 86.1599V85.3869C722.693 85.0243 722.627 84.7618 722.493 84.5996C722.369 84.4374 722.168 84.3563 721.892 84.3563H721.176V87.2191H721.749ZM727.608 93.088C726.844 93.088 726.262 92.8733 725.861 92.4438C725.461 92.0049 725.26 91.3798 725.26 90.5687V85.301C725.26 84.4899 725.461 83.8696 725.861 83.4402C726.262 83.0012 726.844 82.7817 727.608 82.7817C728.371 82.7817 728.953 83.0012 729.354 83.4402C729.755 83.8696 729.955 84.4899 729.955 85.301V86.1599H728.467V85.2008C728.467 84.5424 728.195 84.2131 727.651 84.2131C727.107 84.2131 726.835 84.5424 726.835 85.2008V90.6832C726.835 91.3321 727.107 91.6565 727.651 91.6565C728.195 91.6565 728.467 91.3321 728.467 90.6832V88.7221H727.679V87.2907H729.955V90.5687C729.955 91.3798 729.755 92.0049 729.354 92.4438C728.953 92.8733 728.371 93.088 727.608 93.088ZM730.737 87.2191H733.886V88.6505H730.737V87.2191ZM734.824 82.9248H736.399V87.0044H738.088V82.9248H739.663V92.9448H738.088V88.4358H736.399V92.9448H734.824V82.9248ZM742.052 82.9248H744.185L745.817 92.9448H744.242L743.956 90.9551V90.9838H742.166L741.88 92.9448H740.42L742.052 82.9248ZM743.77 89.6239L743.068 84.6712H743.04L742.353 89.6239H743.77ZM746.581 82.9248H750.746V84.3563H748.155V87.1475H750.188V88.579H748.155V92.9448H746.581V82.9248ZM751.501 82.9248H755.795V84.3563H753.076V87.0044H755.237V88.4358H753.076V91.5134H755.795V92.9448H751.501V82.9248ZM756.701 82.9248H758.677L760.208 88.9225H760.237V82.9248H761.64V92.9448H760.022L758.133 85.6302H758.104V92.9448H756.701V82.9248Z" fill="white"/>
<path d="M230.504 145.393H232.435L233.295 151.553H233.32L234.181 145.393H236.111V154H234.832V147.483H234.808L233.824 154H232.693L231.709 147.483H231.685V154H230.504V145.393ZM239.076 154.123C238.412 154.123 237.903 153.934 237.551 153.557C237.198 153.18 237.022 152.647 237.022 151.959V147.434C237.022 146.745 237.198 146.212 237.551 145.835C237.903 145.458 238.412 145.27 239.076 145.27C239.74 145.27 240.248 145.458 240.6 145.835C240.953 146.212 241.129 146.745 241.129 147.434V151.959C241.129 152.647 240.953 153.18 240.6 153.557C240.248 153.934 239.74 154.123 239.076 154.123ZM239.076 152.893C239.543 152.893 239.777 152.611 239.777 152.045V147.348C239.777 146.782 239.543 146.499 239.076 146.499C238.608 146.499 238.375 146.782 238.375 147.348V152.045C238.375 152.611 238.608 152.893 239.076 152.893ZM237.526 143.56H238.731V144.815H237.526V143.56ZM239.42 143.56H240.625V144.815H239.42V143.56ZM242.044 145.393H243.741L245.057 150.545H245.081V145.393H246.286V154H244.897L243.274 147.717H243.249V154H242.044V145.393ZM249.197 154.123C248.55 154.123 248.054 153.939 247.71 153.57C247.373 153.201 247.205 152.68 247.205 152.008V147.385C247.205 146.712 247.373 146.192 247.71 145.823C248.054 145.454 248.55 145.27 249.197 145.27C249.845 145.27 250.337 145.454 250.673 145.823C251.017 146.192 251.189 146.712 251.189 147.385V148.295H249.911V147.299C249.911 146.766 249.685 146.499 249.234 146.499C248.783 146.499 248.558 146.766 248.558 147.299V152.106C248.558 152.631 248.783 152.893 249.234 152.893C249.685 152.893 249.911 152.631 249.911 152.106V150.791H251.189V152.008C251.189 152.68 251.017 153.201 250.673 153.57C250.337 153.939 249.845 154.123 249.197 154.123ZM251.999 145.393H253.351V148.897H254.802V145.393H256.155V154H254.802V150.127H253.351V154H251.999V145.393ZM257.162 145.393H260.851V146.622H258.515V148.897H260.372V150.127H258.515V152.77H260.851V154H257.162V145.393ZM261.629 145.393H263.326L264.642 150.545H264.666V145.393H265.871V154H264.482L262.859 147.717H262.834V154H261.629V145.393ZM268.795 154.123C268.139 154.123 267.639 153.939 267.295 153.57C266.951 153.193 266.778 152.656 266.778 151.959V147.434C266.778 146.737 266.951 146.204 267.295 145.835C267.639 145.458 268.139 145.27 268.795 145.27C269.451 145.27 269.951 145.458 270.295 145.835C270.639 146.204 270.812 146.737 270.812 147.434V148.172H269.533V147.348C269.533 146.782 269.299 146.499 268.832 146.499C268.365 146.499 268.131 146.782 268.131 147.348V152.057C268.131 152.615 268.365 152.893 268.832 152.893C269.299 152.893 269.533 152.615 269.533 152.057V150.373H268.856V149.143H270.812V151.959C270.812 152.656 270.639 153.193 270.295 153.57C269.951 153.939 269.451 154.123 268.795 154.123ZM271.68 145.393H273.033V152.77H275.258V154H271.68V145.393ZM277 145.393H278.832L280.234 154H278.881L278.635 152.291V152.315H277.098L276.853 154H275.598L277 145.393ZM278.476 151.147L277.873 146.893H277.849L277.258 151.147H278.476ZM280.89 145.393H282.956C283.628 145.393 284.132 145.573 284.468 145.934C284.805 146.294 284.973 146.823 284.973 147.52V151.873C284.973 152.57 284.805 153.098 284.468 153.459C284.132 153.82 283.628 154 282.956 154H280.89V145.393ZM282.931 152.77C283.153 152.77 283.321 152.705 283.436 152.574C283.559 152.442 283.62 152.229 283.62 151.934V147.458C283.62 147.163 283.559 146.95 283.436 146.819C283.321 146.688 283.153 146.622 282.931 146.622H282.243V152.77H282.931ZM285.886 145.393H287.927C288.624 145.393 289.132 145.557 289.452 145.884C289.771 146.204 289.931 146.7 289.931 147.372V147.717C289.931 148.159 289.857 148.52 289.71 148.799C289.57 149.077 289.353 149.278 289.058 149.401V149.426C289.73 149.655 290.066 150.254 290.066 151.221V151.959C290.066 152.623 289.89 153.131 289.538 153.484C289.193 153.828 288.685 154 288.013 154H285.886V145.393ZM287.767 148.897C288.037 148.897 288.238 148.827 288.369 148.688C288.509 148.549 288.578 148.315 288.578 147.987V147.508C288.578 147.196 288.521 146.971 288.406 146.831C288.3 146.692 288.128 146.622 287.89 146.622H287.238V148.897H287.767ZM288.013 152.77C288.251 152.77 288.427 152.709 288.542 152.586C288.656 152.455 288.714 152.233 288.714 151.922V151.172C288.714 150.778 288.644 150.508 288.505 150.36C288.374 150.205 288.152 150.127 287.841 150.127H287.238V152.77H288.013ZM291.902 145.393H293.734L295.136 154H293.783L293.538 152.291V152.315H292.001L291.755 154H290.5L291.902 145.393ZM293.378 151.147L292.775 146.893H292.751L292.16 151.147H293.378ZM297.674 154.123C297.027 154.123 296.531 153.939 296.186 153.57C295.85 153.201 295.682 152.68 295.682 152.008V147.385C295.682 146.712 295.85 146.192 296.186 145.823C296.531 145.454 297.027 145.27 297.674 145.27C298.322 145.27 298.814 145.454 299.15 145.823C299.494 146.192 299.666 146.712 299.666 147.385V148.295H298.387V147.299C298.387 146.766 298.162 146.499 297.711 146.499C297.26 146.499 297.035 146.766 297.035 147.299V152.106C297.035 152.631 297.26 152.893 297.711 152.893C298.162 152.893 298.387 152.631 298.387 152.106V150.791H299.666V152.008C299.666 152.68 299.494 153.201 299.15 153.57C298.814 153.939 298.322 154.123 297.674 154.123ZM300.475 145.393H301.828V148.897H303.279V145.393H304.632V154H303.279V150.127H301.828V154H300.475V145.393Z" fill="white"/>
<path d="M268.809 180.509C270.01 178.491 274.014 171.557 274.014 168.955C274.014 167.486 273.431 166.077 272.392 165.039C271.353 164 269.945 163.417 268.476 163.417C267.007 163.417 265.598 164 264.56 165.039C263.521 166.077 262.937 167.486 262.937 168.955C262.937 171.557 266.936 178.491 268.136 180.509C266.76 180.56 265.697 180.912 265.697 181.339C265.697 181.767 266.954 182.169 268.476 182.169C269.997 182.169 271.254 181.798 271.254 181.339C271.254 180.88 270.186 180.56 268.809 180.509ZM264.578 168.942C264.578 168.171 264.807 167.418 265.235 166.777C265.663 166.136 266.272 165.636 266.984 165.341C267.696 165.046 268.48 164.969 269.236 165.12C269.992 165.27 270.687 165.641 271.232 166.186C271.777 166.731 272.148 167.426 272.298 168.182C272.449 168.938 272.372 169.722 272.077 170.434C271.782 171.146 271.282 171.755 270.641 172.183C270 172.611 269.247 172.84 268.476 172.84C267.442 172.84 266.451 172.429 265.72 171.698C264.989 170.967 264.578 169.976 264.578 168.942Z" fill="#EF8619"/>
<path d="M241.199 195.452H291.472" stroke="white" stroke-width="0.628646" stroke-miterlimit="10" stroke-dasharray="2.51 2.51"/>
<path d="M237.867 190.505V200.211" stroke="white" stroke-width="5.65781" stroke-miterlimit="10" stroke-dasharray="0.31 0.31"/>
<path d="M293.86 190.505V200.211" stroke="white" stroke-width="5.65781" stroke-miterlimit="10" stroke-dasharray="0.31 0.31"/>
<path d="M229.053 190.505H303.504" stroke="white" stroke-width="0.628646" stroke-miterlimit="10"/>
<path d="M229.053 200.89H303.504" stroke="white" stroke-width="0.628646" stroke-miterlimit="10"/>
<path d="M315.58 168.848C315.285 167.176 313.814 167.509 313.738 167.107C313.706 166.503 313.721 165.898 313.782 165.296C313.782 165.296 312.412 165.384 312.186 166C311.959 166.616 311.557 169.282 311.23 169.47C310.903 169.659 299.864 171.52 299.864 171.52C299.864 171.52 296.35 171.878 294.206 170.376L292.371 170.967C292.423 171.036 292.46 171.116 292.48 171.201C292.5 171.286 292.502 171.374 292.486 171.46C292.47 171.545 292.437 171.627 292.388 171.699C292.338 171.771 292.275 171.832 292.201 171.878C291.66 172.249 290.189 172.343 289.63 172.796C289.07 173.249 285.374 176.392 285.261 178.454C285.154 180.421 288.963 179.799 288.963 179.799C288.963 179.799 292.735 178.95 293.634 178.435C293.93 178.259 294.489 177.907 295.149 177.454L295.746 180.509C294.093 180.836 292.207 181.213 290.786 181.484L290.409 179.522L290.114 179.579L290.497 181.54C289.504 181.735 288.8 181.861 288.662 181.874C288.543 181.885 288.424 181.867 288.314 181.821C288.204 181.775 288.108 181.702 288.033 181.61L287.788 181.779C287.894 181.919 288.034 182.028 288.195 182.098C288.356 182.167 288.531 182.194 288.706 182.175C288.888 182.175 289.963 181.955 291.34 181.685C293.949 181.182 297.557 180.428 297.783 180.428L297.727 180.132L296.054 180.472L295.426 177.328H295.281C296.666 176.42 297.949 175.367 299.11 174.185C300.204 172.928 311.544 170.658 311.544 170.658C312.301 171.157 312.954 171.798 313.468 172.544L315.04 172.243C315.04 172.243 314.537 171.425 314.625 171.256C315.004 170.994 315.297 170.625 315.467 170.197C315.638 169.768 315.677 169.299 315.58 168.848ZM314.015 170.992C313.709 171.049 313.392 171.015 313.106 170.893C312.819 170.771 312.575 170.566 312.404 170.306C312.233 170.045 312.144 169.74 312.146 169.429C312.148 169.117 312.243 168.813 312.418 168.555C312.593 168.298 312.84 168.097 313.128 167.98C313.417 167.862 313.734 167.833 314.039 167.895C314.344 167.957 314.624 168.108 314.844 168.329C315.063 168.55 315.212 168.831 315.272 169.137C315.311 169.341 315.31 169.552 315.268 169.755C315.226 169.959 315.144 170.153 315.028 170.325C314.911 170.497 314.761 170.645 314.588 170.759C314.414 170.873 314.219 170.952 314.015 170.992Z" fill="white"/>
<path d="M285.273 178.825C285.242 178.667 287.624 178.278 287.725 178.347C287.826 178.416 288.002 178.843 287.335 179.893C286.663 179.937 285.405 179.566 285.273 178.825Z" fill="#E2A558"/>
<path d="M285.286 178.177C285.286 178.177 287.75 177.749 288.027 177.643C288.303 177.536 290.07 172.557 290.07 172.557L289.774 172.689C288.686 173.536 287.689 174.495 286.801 175.549C285.405 177.209 285.286 178.177 285.286 178.177Z" fill="#E2A558"/>
<path d="M291.421 172.878C291.201 172.915 290.761 172.991 290.485 173.06C290.208 173.129 289.108 176.272 288.995 176.58C288.882 176.888 289.108 177.134 289.529 177.02C290.245 176.807 290.943 176.538 291.616 176.216C291.77 176.06 291.889 175.874 291.967 175.669C292.045 175.465 292.08 175.246 292.069 175.028C292.044 174.411 291.983 173.796 291.887 173.186C291.843 173.123 291.635 172.878 291.421 172.878Z" fill="#E2A558"/>
<path d="M307.251 166.245L303.824 166.874C301.545 167.293 299.263 167.748 296.979 168.238L293.282 168.999C293.27 168.959 293.245 168.925 293.21 168.903C293.176 168.882 293.134 168.873 293.094 168.879L292.924 168.917C292.903 168.92 292.883 168.927 292.865 168.938C292.847 168.949 292.832 168.963 292.819 168.98C292.807 168.997 292.798 169.016 292.793 169.037C292.789 169.057 292.788 169.078 292.792 169.099L290.151 169.665L286.738 170.4C285.606 170.658 284.468 170.903 283.337 171.167L286.769 170.539L290.195 169.879L292.842 169.363L293.087 170.62C293.096 170.663 293.122 170.701 293.158 170.726C293.194 170.75 293.239 170.76 293.282 170.752L293.452 170.721C293.495 170.712 293.532 170.687 293.557 170.65C293.582 170.614 293.591 170.569 293.584 170.526L293.339 169.269L297.041 168.521C299.317 168.056 301.599 167.584 303.868 167.094L307.282 166.358C308.414 166.101 309.551 165.855 310.683 165.591C309.539 165.818 308.395 166.038 307.251 166.245Z" fill="white"/>
<path d="M313.411 167.849C313.106 167.909 312.825 168.058 312.603 168.277C312.382 168.497 312.231 168.777 312.169 169.082C312.107 169.387 312.136 169.704 312.254 169.992C312.371 170.281 312.572 170.528 312.83 170.703C313.087 170.878 313.391 170.972 313.703 170.975C314.014 170.977 314.32 170.887 314.58 170.717C314.841 170.546 315.045 170.302 315.167 170.015C315.289 169.728 315.323 169.412 315.266 169.106C315.227 168.901 315.149 168.706 315.035 168.532C314.92 168.358 314.773 168.208 314.601 168.091C314.428 167.974 314.234 167.892 314.03 167.851C313.826 167.809 313.616 167.809 313.411 167.849ZM313.908 169.018C313.839 168.979 313.76 168.962 313.682 168.968L313.481 167.937C313.834 167.882 314.195 167.955 314.499 168.144L313.908 169.018ZM313.581 168.986C313.505 169.011 313.437 169.057 313.386 169.118L312.519 168.528C312.727 168.239 313.033 168.036 313.38 167.955L313.581 168.986ZM313.33 169.2C313.293 169.272 313.278 169.353 313.286 169.433L312.255 169.628C312.193 169.276 312.267 168.914 312.462 168.616L313.33 169.2ZM313.33 169.527C313.352 169.603 313.396 169.67 313.455 169.722L312.871 170.596C312.582 170.385 312.379 170.077 312.299 169.728L313.33 169.527ZM313.537 169.779C313.608 169.817 313.689 169.835 313.77 169.829L313.971 170.86C313.618 170.915 313.256 170.841 312.952 170.652L313.537 169.779ZM313.87 169.779C313.945 169.752 314.013 169.706 314.065 169.647L314.933 170.231C314.725 170.521 314.419 170.727 314.071 170.81L313.87 169.779ZM314.122 169.565C314.155 169.492 314.171 169.412 314.166 169.332L315.197 169.131C315.252 169.484 315.178 169.846 314.989 170.149L314.122 169.565ZM314.122 169.238C314.098 169.16 314.052 169.09 313.99 169.037L314.581 168.169C314.872 168.378 315.076 168.687 315.153 169.037L314.122 169.238Z" fill="#E2A558"/>
<path d="M1184.45 43.2634C1185.65 41.2454 1189.65 34.3114 1189.65 31.7151C1189.65 30.2463 1189.07 28.8376 1188.03 27.7989C1186.99 26.7603 1185.58 26.1768 1184.11 26.1768C1182.64 26.1768 1181.23 26.7603 1180.19 27.7989C1179.16 28.8376 1178.57 30.2463 1178.57 31.7151C1178.57 34.3114 1182.58 41.2454 1183.78 43.2634C1182.4 43.3136 1181.33 43.6657 1181.33 44.0932C1181.33 44.5206 1182.59 44.9293 1184.11 44.9293C1185.63 44.9293 1186.89 44.5521 1186.89 44.0932C1186.89 43.6343 1185.83 43.3136 1184.45 43.2634ZM1180.21 31.6963C1180.21 30.9254 1180.44 30.1718 1180.87 29.5309C1181.3 28.8899 1181.91 28.3904 1182.62 28.0954C1183.33 27.8004 1184.12 27.7232 1184.87 27.8736C1185.63 28.0239 1186.32 28.3952 1186.87 28.9402C1187.41 29.4853 1187.78 30.1798 1187.93 30.9359C1188.08 31.6919 1188.01 32.4756 1187.71 33.1878C1187.42 33.9 1186.92 34.5087 1186.28 34.937C1185.64 35.3653 1184.88 35.5939 1184.11 35.5939C1183.08 35.5939 1182.09 35.1832 1181.35 34.4523C1180.62 33.7213 1180.21 32.73 1180.21 31.6963Z" fill="#EF8619"/>
<path opacity="0.6" d="M734.575 205.139C740.353 203.854 744.896 202.174 744.721 201.388C744.546 200.602 739.72 201.006 733.942 202.292C728.163 203.577 723.621 205.256 723.795 206.043C723.97 206.829 728.796 206.424 734.575 205.139Z" fill="#007799"/>
<path d="M730.541 186.879L727.448 187.567L728.433 191.997L731.526 191.31L730.541 186.879Z" fill="white"/>
<path d="M735.87 185.687L732.777 186.375L733.763 190.806L736.855 190.118L735.87 185.687Z" fill="white"/>
<path d="M724.734 192.768L726.539 200.871L741.569 197.527L739.772 189.424L724.734 192.768ZM727.676 195.251C727.482 195.295 727.28 195.28 727.094 195.208C726.908 195.137 726.748 195.012 726.633 194.849C726.519 194.687 726.455 194.493 726.45 194.295C726.445 194.096 726.499 193.9 726.606 193.732C726.712 193.563 726.866 193.431 727.048 193.35C727.23 193.27 727.432 193.245 727.628 193.279C727.824 193.313 728.006 193.405 728.15 193.542C728.294 193.679 728.394 193.856 728.437 194.05C728.495 194.31 728.448 194.583 728.305 194.808C728.163 195.033 727.936 195.193 727.676 195.251ZM731.14 194.478C730.947 194.52 730.746 194.505 730.562 194.433C730.378 194.361 730.219 194.236 730.106 194.074C729.993 193.913 729.93 193.721 729.926 193.523C729.922 193.326 729.976 193.131 730.082 192.965C730.188 192.798 730.342 192.667 730.522 192.587C730.703 192.507 730.903 192.483 731.098 192.517C731.293 192.551 731.473 192.642 731.616 192.779C731.758 192.915 731.858 193.091 731.901 193.283C731.929 193.414 731.931 193.548 731.907 193.679C731.883 193.81 731.833 193.935 731.759 194.046C731.686 194.157 731.591 194.253 731.481 194.327C731.37 194.401 731.246 194.452 731.115 194.478H731.14ZM734.61 193.705C734.417 193.747 734.216 193.731 734.032 193.66C733.848 193.588 733.69 193.463 733.576 193.301C733.463 193.139 733.401 192.947 733.396 192.75C733.392 192.552 733.446 192.358 733.552 192.192C733.659 192.025 733.812 191.893 733.992 191.814C734.173 191.734 734.374 191.71 734.568 191.744C734.763 191.778 734.943 191.869 735.086 192.005C735.229 192.142 735.328 192.317 735.371 192.51C735.4 192.639 735.403 192.771 735.38 192.901C735.357 193.031 735.309 193.154 735.239 193.265C735.168 193.376 735.076 193.472 734.968 193.548C734.86 193.623 734.739 193.676 734.61 193.705ZM738.074 192.931C737.881 192.974 737.68 192.958 737.496 192.886C737.312 192.815 737.153 192.69 737.04 192.528C736.927 192.366 736.864 192.174 736.86 191.977C736.856 191.779 736.91 191.585 737.016 191.418C737.122 191.252 737.276 191.12 737.456 191.041C737.637 190.961 737.837 190.937 738.032 190.971C738.227 191.005 738.407 191.096 738.55 191.232C738.692 191.369 738.792 191.544 738.835 191.737C738.864 191.865 738.868 191.998 738.846 192.128C738.824 192.258 738.776 192.382 738.705 192.494C738.634 192.605 738.542 192.701 738.433 192.776C738.325 192.851 738.203 192.904 738.074 192.931Z" fill="#EF8619"/>
<path d="M743.675 194.088L744.26 201.337L724.741 205.681L719.359 198.061L727.362 196.282L743.675 194.088Z" fill="white"/>
<path opacity="0.6" d="M134.956 187.377C140.721 186.037 145.248 184.314 145.065 183.529C144.883 182.745 140.061 183.195 134.295 184.536C128.529 185.877 124.003 187.6 124.185 188.384C124.368 189.169 129.19 188.718 134.956 187.377Z" fill="#007799"/>
<path d="M131.705 173.599L134.791 172.882L133.763 168.461L130.677 169.178L131.705 173.599Z" fill="white"/>
<path d="M126.389 174.829L129.475 174.112L128.447 169.691L125.361 170.409L126.389 174.829Z" fill="white"/>
<path d="M123.485 175.505L125.371 183.589L140.377 180.1L138.491 172.016L123.485 175.505ZM135.706 174.763C135.66 174.569 135.672 174.366 135.742 174.179C135.811 173.992 135.935 173.83 136.097 173.714C136.259 173.597 136.452 173.532 136.651 173.525C136.85 173.519 137.047 173.571 137.216 173.677C137.385 173.782 137.52 173.936 137.601 174.117C137.683 174.299 137.709 174.501 137.676 174.698C137.643 174.894 137.552 175.077 137.415 175.222C137.278 175.366 137.101 175.467 136.907 175.511C136.648 175.57 136.377 175.524 136.152 175.384C135.928 175.244 135.767 175.021 135.706 174.763ZM132.248 175.562C132.205 175.369 132.22 175.168 132.29 174.984C132.361 174.799 132.485 174.64 132.646 174.526C132.807 174.412 132.999 174.348 133.196 174.343C133.393 174.338 133.588 174.391 133.755 174.496C133.922 174.601 134.055 174.753 134.135 174.933C134.216 175.113 134.242 175.313 134.209 175.508C134.176 175.703 134.087 175.883 133.951 176.027C133.816 176.171 133.641 176.272 133.449 176.316C133.191 176.376 132.92 176.332 132.695 176.193C132.47 176.054 132.309 175.832 132.248 175.574V175.562ZM128.784 176.366C128.74 176.173 128.754 175.97 128.824 175.784C128.895 175.598 129.019 175.437 129.181 175.322C129.343 175.206 129.535 175.141 129.734 175.135C129.933 175.129 130.129 175.182 130.298 175.288C130.466 175.393 130.6 175.546 130.682 175.728C130.763 175.909 130.789 176.11 130.757 176.307C130.724 176.503 130.634 176.685 130.498 176.83C130.361 176.975 130.185 177.076 129.991 177.121C129.733 177.181 129.461 177.137 129.235 176.998C129.009 176.859 128.847 176.637 128.784 176.379V176.366ZM125.327 177.171C125.282 176.977 125.296 176.775 125.367 176.589C125.437 176.403 125.561 176.242 125.723 176.126C125.885 176.011 126.078 175.946 126.277 175.94C126.475 175.934 126.672 175.987 126.84 176.093C127.009 176.198 127.142 176.351 127.224 176.532C127.306 176.714 127.332 176.915 127.299 177.111C127.266 177.307 127.176 177.489 127.04 177.634C126.904 177.779 126.728 177.881 126.534 177.925C126.276 177.986 126.004 177.942 125.778 177.803C125.552 177.664 125.39 177.441 125.327 177.184V177.171Z" fill="#EF8619"/>
<path d="M121.982 181.396L124.585 188.185L144.067 183.652L145.626 174.462L137.642 176.322L121.982 181.396Z" fill="white"/>
<path d="M1178.46 51.4731H1182.16V52.7304H1179.82V55.0061H1181.7V56.2634H1179.82V58.91H1182.16V60.1673H1178.46V51.4731Z" fill="white"/>
<path d="M1182.72 58.0491V57.5587H1183.98V58.1497C1183.98 58.7783 1184.25 58.9858 1184.68 58.9858C1185.1 58.9858 1185.38 58.7657 1185.38 58.1245C1185.38 57.4833 1185.11 56.9552 1184.22 56.1757C1183.09 55.1825 1182.72 54.4784 1182.72 53.4914C1182.72 52.1398 1183.43 51.354 1184.74 51.354C1186.05 51.354 1186.71 52.1398 1186.71 53.5165V53.8749H1185.46V53.4348C1185.46 52.8062 1185.21 52.5861 1184.78 52.5861C1184.34 52.5861 1184.1 52.8187 1184.1 53.4097C1184.1 54.0006 1184.38 54.4909 1185.27 55.2956C1186.41 56.2952 1186.76 56.9867 1186.76 58.0554C1186.76 59.4572 1186.05 60.2493 1184.71 60.2493C1183.38 60.2493 1182.72 59.4258 1182.72 58.0491Z" fill="white"/>
<path d="M1187.3 58.0491V57.5587H1188.56V58.1497C1188.56 58.7783 1188.83 58.9858 1189.26 58.9858C1189.69 58.9858 1189.96 58.7657 1189.96 58.1245C1189.96 57.4833 1189.69 56.9552 1188.81 56.1757C1187.68 55.1825 1187.3 54.4784 1187.3 53.4914C1187.3 52.1398 1188.01 51.354 1189.32 51.354C1190.64 51.354 1191.29 52.1398 1191.29 53.5165V53.8749H1190.03V53.4348C1190.03 52.8062 1189.79 52.5861 1189.35 52.5861C1188.92 52.5861 1188.67 52.8187 1188.67 53.4097C1188.67 54.0006 1188.96 54.4909 1189.84 55.2956C1190.98 56.2952 1191.33 56.9867 1191.33 58.0554C1191.33 59.4572 1190.62 60.2493 1189.29 60.2493C1187.96 60.2493 1187.3 59.4258 1187.3 58.0491Z" fill="white"/>
<path d="M1192.12 51.4731H1195.82V52.7304H1193.48V55.0061H1195.36V56.2634H1193.48V58.91H1195.82V60.1673H1192.12V51.4731Z" fill="white"/>
<path d="M1196.6 51.4731H1198.29L1199.61 56.6343V51.4731H1200.81V60.0919H1199.46L1197.83 53.8054V60.0919H1196.63L1196.6 51.4731Z" fill="white"/>
<path d="M518.52 152.711V146.506C518.403 146.641 518.259 146.749 518.098 146.824C517.936 146.898 517.761 146.938 517.583 146.94C517.404 146.939 517.227 146.9 517.065 146.825C516.902 146.75 516.757 146.641 516.64 146.506V152.711L516.011 171.991V174.764H519.155V172.004L518.52 152.711Z" fill="white"/>
<path d="M526.686 146.544C531.713 146.544 535.789 146.093 535.789 145.538C535.789 144.982 531.713 144.532 526.686 144.532C521.658 144.532 517.583 144.982 517.583 145.538C517.583 146.093 521.658 146.544 526.686 146.544Z" fill="white"/>
<path d="M517.718 145.52C518.199 145.243 516.552 141.488 514.038 137.134C511.524 132.78 509.097 129.476 508.615 129.754C508.134 130.032 509.782 133.786 512.296 138.14C514.809 142.494 517.237 145.798 517.718 145.52Z" fill="white"/>
<path d="M513.906 153.798C516.42 149.445 518.067 145.69 517.586 145.412C517.105 145.134 514.678 148.439 512.164 152.793C509.65 157.146 508.002 160.901 508.484 161.179C508.965 161.456 511.392 158.152 513.906 153.798Z" fill="white"/>
<path d="M517.583 146.726C518.267 146.726 518.821 146.171 518.821 145.487C518.821 144.803 518.267 144.249 517.583 144.249C516.899 144.249 516.345 144.803 516.345 145.487C516.345 146.171 516.899 146.726 517.583 146.726Z" fill="#EF8619"/>
<path d="M531.111 145.607V139.402C530.994 139.537 530.849 139.646 530.687 139.721C530.524 139.796 530.347 139.835 530.168 139.836C529.991 139.834 529.815 139.794 529.654 139.72C529.492 139.645 529.348 139.537 529.232 139.402V145.607L528.603 164.887V167.641H531.746V164.887L531.111 145.607Z" fill="white"/>
<path d="M541.607 138.94C546.584 138.085 550.542 136.947 550.448 136.397C550.353 135.847 546.242 136.094 541.265 136.948C536.288 137.803 532.33 138.942 532.424 139.492C532.519 140.042 536.63 139.795 541.607 138.94Z" fill="white"/>
<path d="M530.184 138.42C530.611 138.064 528.346 134.646 525.126 130.785C521.906 126.924 518.95 124.083 518.523 124.439C518.097 124.795 520.361 128.213 523.581 132.073C526.801 135.934 529.758 138.776 530.184 138.42Z" fill="white"/>
<path d="M527.847 147.219C529.581 142.5 530.563 138.519 530.042 138.328C529.52 138.136 527.692 141.807 525.959 146.526C524.226 151.245 523.243 155.225 523.764 155.417C524.286 155.608 526.114 151.938 527.847 147.219Z" fill="white"/>
<path d="M530.168 139.622C530.852 139.622 531.407 139.068 531.407 138.384C531.407 137.7 530.852 137.145 530.168 137.145C529.484 137.145 528.93 137.7 528.93 138.384C528.93 139.068 529.484 139.622 530.168 139.622Z" fill="#EF8619"/>
<path d="M542.873 151.032V144.909C542.759 145.043 542.618 145.15 542.458 145.224C542.299 145.298 542.125 145.336 541.949 145.337C541.773 145.335 541.599 145.296 541.439 145.222C541.278 145.148 541.135 145.042 541.019 144.909V151.032L540.39 170.08V172.796H543.533V170.08L542.873 151.032Z" fill="white"/>
<path d="M536.012 150.421C539.734 147.136 542.458 144.139 542.095 143.728C541.732 143.317 538.42 145.646 534.697 148.932C530.975 152.217 528.252 155.214 528.615 155.625C528.978 156.036 532.289 153.706 536.012 150.421Z" fill="white"/>
<path d="M541.993 143.799C542.531 143.69 542.169 139.657 541.185 134.79C540.202 129.924 538.968 126.067 538.43 126.176C537.893 126.285 538.255 130.318 539.238 135.184C540.222 140.051 541.456 143.907 541.993 143.799Z" fill="white"/>
<path d="M559.047 149.367C559.222 148.847 555.549 147.144 550.842 145.563C546.136 143.981 542.179 143.121 542.004 143.641C541.83 144.161 545.503 145.865 550.21 147.446C554.916 149.027 558.873 149.887 559.047 149.367Z" fill="white"/>
<path d="M541.949 145.123C542.623 145.123 543.169 144.577 543.169 143.903C543.169 143.23 542.623 142.684 541.949 142.684C541.276 142.684 540.73 143.23 540.73 143.903C540.73 144.577 541.276 145.123 541.949 145.123Z" fill="#EF8619"/>
<path d="M839.054 168.314V162.109C838.936 162.243 838.79 162.35 838.628 162.423C838.465 162.497 838.289 162.535 838.111 162.535C837.932 162.535 837.756 162.497 837.593 162.423C837.431 162.35 837.286 162.243 837.168 162.109V168.314L836.539 187.594V190.354H839.682V187.594L839.054 168.314Z" fill="white"/>
<path d="M847.22 162.147C852.247 162.147 856.323 161.696 856.323 161.141C856.323 160.585 852.247 160.135 847.22 160.135C842.192 160.135 838.117 160.585 838.117 161.141C838.117 161.696 842.192 162.147 847.22 162.147Z" fill="white"/>
<path d="M838.246 161.123C838.727 160.845 837.08 157.091 834.566 152.737C832.052 148.383 829.624 145.079 829.143 145.357C828.662 145.634 830.31 149.389 832.824 153.743C835.337 158.097 837.765 161.401 838.246 161.123Z" fill="white"/>
<path d="M834.437 169.396C836.95 165.042 838.598 161.287 838.117 161.009C837.636 160.732 835.208 164.036 832.694 168.39C830.181 172.744 828.533 176.498 829.014 176.776C829.495 177.054 831.923 173.749 834.437 169.396Z" fill="white"/>
<path d="M838.111 162.329C838.795 162.329 839.349 161.774 839.349 161.09C839.349 160.407 838.795 159.852 838.111 159.852C837.427 159.852 836.872 160.407 836.872 161.09C836.872 161.774 837.427 162.329 838.111 162.329Z" fill="#EF8619"/>
<path d="M850.52 154.408V149.762C850.433 149.865 850.325 149.946 850.204 150.003C850.082 150.059 849.95 150.088 849.816 150.088C849.682 150.088 849.55 150.059 849.428 150.003C849.307 149.946 849.199 149.865 849.112 149.762V154.408L848.634 168.836V170.898H850.998V168.836L850.52 154.408Z" fill="white"/>
<path d="M847.829 155.635C849.322 152.181 850.223 149.246 849.841 149.081C849.458 148.916 847.938 151.582 846.444 155.037C844.951 158.491 844.05 161.426 844.432 161.591C844.815 161.756 846.335 159.09 847.829 155.635Z" fill="white"/>
<path d="M849.806 149.163C850.14 148.915 848.591 146.264 846.346 143.244C844.101 140.223 842.01 137.976 841.676 138.224C841.341 138.473 842.89 141.123 845.135 144.144C847.38 147.164 849.471 149.412 849.806 149.163Z" fill="white"/>
<path d="M856.641 148.99C860.379 148.556 863.371 147.869 863.323 147.455C863.275 147.041 860.205 147.058 856.467 147.491C852.728 147.925 849.736 148.613 849.784 149.026C849.832 149.44 852.902 149.424 856.641 148.99Z" fill="white"/>
<path d="M849.816 149.926C850.326 149.926 850.74 149.512 850.74 149.002C850.74 148.491 850.326 148.078 849.816 148.078C849.306 148.078 848.892 148.491 848.892 149.002C848.892 149.512 849.306 149.926 849.816 149.926Z" fill="#EF8619"/>
<path d="M1013.27 57.4396V51.2349C1013.15 51.3686 1013.01 51.4758 1012.84 51.5492C1012.68 51.6226 1012.51 51.6605 1012.33 51.6605C1012.15 51.6605 1011.97 51.6226 1011.81 51.5492C1011.65 51.4758 1011.5 51.3686 1011.38 51.2349V57.4396L1010.76 76.7202V79.4799H1013.9V76.695L1013.27 57.4396Z" fill="white"/>
<path d="M1021.44 51.2724C1026.46 51.2724 1030.54 50.8221 1030.54 50.2666C1030.54 49.7111 1026.46 49.2607 1021.44 49.2607C1016.41 49.2607 1012.33 49.7111 1012.33 50.2666C1012.33 50.8221 1016.41 51.2724 1021.44 51.2724Z" fill="white"/>
<path d="M1012.47 50.2455C1012.95 49.9677 1011.3 46.2131 1008.79 41.8593C1006.27 37.5055 1003.85 34.2012 1003.36 34.479C1002.88 34.7567 1004.53 38.5114 1007.04 42.8652C1009.56 47.219 1011.99 50.5232 1012.47 50.2455Z" fill="white"/>
<path d="M1008.65 58.5235C1011.16 54.1697 1012.81 50.4151 1012.33 50.1373C1011.85 49.8596 1009.42 53.1638 1006.91 57.5176C1004.39 61.8714 1002.75 65.626 1003.23 65.9038C1003.71 66.1816 1006.14 62.8773 1008.65 58.5235Z" fill="white"/>
<path d="M1012.33 51.4549C1013.01 51.4549 1013.57 50.9004 1013.57 50.2165C1013.57 49.5325 1013.01 48.978 1012.33 48.978C1011.64 48.978 1011.09 49.5325 1011.09 50.2165C1011.09 50.9004 1011.64 51.4549 1012.33 51.4549Z" fill="#EF8619"/>
<path d="M1063.71 46.1112V39.9819C1063.59 40.1157 1063.45 40.2229 1063.29 40.2963C1063.12 40.3696 1062.95 40.4076 1062.77 40.4076C1062.59 40.4076 1062.42 40.3696 1062.25 40.2963C1062.09 40.2229 1061.94 40.1157 1061.83 39.9819V46.1112L1061.2 65.1529V67.8938H1064.34V65.1718L1063.71 46.1112Z" fill="white"/>
<path d="M1056.83 45.4887C1060.56 42.2034 1063.28 39.2068 1062.92 38.7955C1062.55 38.3842 1059.24 40.714 1055.52 43.9993C1051.8 47.2845 1049.07 50.2812 1049.44 50.6925C1049.8 51.1038 1053.11 48.7739 1056.83 45.4887Z" fill="white"/>
<path d="M1062.82 38.8624C1063.36 38.7537 1063 34.7206 1062.02 29.8542C1061.03 24.9878 1059.8 21.131 1059.26 21.2397C1058.72 21.3484 1059.08 25.3815 1060.07 30.2479C1061.05 35.1142 1062.29 38.9711 1062.82 38.8624Z" fill="white"/>
<path d="M1079.87 44.4365C1080.04 43.9165 1076.37 42.2132 1071.66 40.6321C1066.96 39.051 1063 38.1907 1062.82 38.7108C1062.65 39.2308 1066.32 40.9341 1071.03 42.5152C1075.74 44.0963 1079.69 44.9565 1079.87 44.4365Z" fill="white"/>
<path d="M1062.78 40.1955C1063.46 40.1955 1064 39.6495 1064 38.9759C1064 38.3024 1063.46 37.7563 1062.78 37.7563C1062.11 37.7563 1061.56 38.3024 1061.56 38.9759C1061.56 39.6495 1062.11 40.1955 1062.78 40.1955Z" fill="#EF8619"/>
<path d="M396.248 17.0866C397.449 15.0875 401.447 8.1724 401.447 5.53837C401.447 4.0695 400.863 2.6608 399.825 1.62215C398.786 0.583505 397.378 0 395.909 0C394.44 0 393.031 0.583505 391.992 1.62215C390.954 2.6608 390.37 4.0695 390.37 5.53837C390.37 8.14096 394.375 15.0686 395.575 17.0866C394.199 17.1369 393.13 17.4889 393.13 17.9164C393.13 18.3439 394.387 18.7525 395.909 18.7525C397.43 18.7525 398.694 18.3816 398.694 17.9164C398.694 17.4512 397.625 17.1369 396.248 17.0866ZM392.011 5.5258C392.011 4.75492 392.24 4.00136 392.668 3.3604C393.096 2.71945 393.705 2.21988 394.417 1.92488C395.129 1.62988 395.913 1.55269 396.669 1.70308C397.425 1.85347 398.12 2.22468 398.665 2.76977C399.21 3.31486 399.581 4.00935 399.731 4.76541C399.882 5.52147 399.805 6.30515 399.51 7.01734C399.215 7.72954 398.715 8.33826 398.074 8.76654C397.433 9.19481 396.68 9.4234 395.909 9.4234C394.875 9.4234 393.884 9.01276 393.153 8.28182C392.422 7.55088 392.011 6.5595 392.011 5.5258Z" fill="#EF8619"/>
</g>
<defs>
<clipPath id="clip0_8_247">
<rect width="1207" height="242.293" fill="white"/>
</clipPath>
</defs>
</svg>
