<svg id="Ebene_1" data-name="Ebene 1" xmlns="http://www.w3.org/2000/svg" viewBox="0 0 297.64 57.48"><defs><style>.cls-1,.cls-3{fill:#fff;}.cls-1{fill-rule:evenodd;}.cls-2{fill:#079;}</style></defs><polygon class="cls-1" points="75.8 54.9 74.45 54.9 3.46 54.9 0.2 54.9 2.51 52.6 19.59 35.52 2.31 18.24 0 15.94 3.26 15.94 74.45 15.94 75.8 15.94 75.8 17.29 75.8 53.55 75.8 54.9 75.8 54.9"/><polygon class="cls-2" points="51.12 39.42 76.13 39.42 76.13 56.07 51.12 39.42"/><polygon class="cls-2" points="247.68 39.42 222.67 39.42 222.67 56.07 247.68 39.42"/><polygon class="cls-3" points="248.39 18.56 297.64 18.52 278.06 38.1 297.43 57.48 223.05 56.77 248.39 39.75 248.39 18.56"/><rect class="cls-3" x="50.54" width="197.92" height="38.97"/><path class="cls-2" d="M68.73,4.91h4.14V27.5h6.81v3.76h-11Z"/><path class="cls-2" d="M81.22,25V11.16c0-4.22,2.22-6.63,6.29-6.63s6.29,2.41,6.29,6.63V25c0,4.22-2.22,6.63-6.29,6.63S81.22,29.23,81.22,25Zm8.44.26V10.89c0-1.88-.83-2.59-2.15-2.59s-2.15.71-2.15,2.59V25.27c0,1.89.83,2.6,2.15,2.6S89.66,27.16,89.66,25.27Z"/><path class="cls-2" d="M96.32,25.16V11c0-4.07,2.11-6.48,6.1-6.48s6.1,2.41,6.1,6.48v2.78H104.6v-3c0-1.73-.83-2.44-2.07-2.44s-2.07.71-2.07,2.44V25.46c0,1.74.83,2.41,2.07,2.41s2.07-.67,2.07-2.41v-4h3.92v3.72c0,4.07-2.11,6.48-6.1,6.48S96.32,29.23,96.32,25.16Z"/><path class="cls-2" d="M114.2,4.91h5.61l4.29,26.35H120L119.21,26v.07H114.5l-.75,5.16h-3.84Zm4.52,17.62-1.85-13h-.07l-1.81,13Z"/><path class="cls-2" d="M127.6,8.67h-4.33V4.91h12.8V8.67h-4.33V31.26H127.6Z"/><path class="cls-2" d="M138.07,4.91h4.14V31.26h-4.14Z"/><path class="cls-2" d="M145,25V11.16c0-4.22,2.23-6.63,6.29-6.63s6.29,2.41,6.29,6.63V25c0,4.22-2.22,6.63-6.29,6.63S145,29.23,145,25Zm8.44.26V10.89c0-1.88-.83-2.59-2.15-2.59s-2.14.71-2.14,2.59V25.27c0,1.89.83,2.6,2.14,2.6S153.43,27.16,153.43,25.27Z"/><path class="cls-2" d="M160.35,4.91h5.2l4,15.77h.07V4.91h3.69V31.26h-4.25l-5-19.24H164V31.26h-3.69Z"/><path class="cls-2" d="M182.45,4.91h5.91L191,23.77h.07l2.64-18.86h5.91V31.26H195.7v-20h-.07l-3,20h-3.47l-3-20h-.07v20h-3.62Z"/><path class="cls-2" d="M205.91,4.91h5.61l4.29,26.35h-4.15L210.91,26v.07h-4.7l-.76,5.16h-3.84Zm4.51,17.62-1.84-13h-.08l-1.8,13Z"/><path class="cls-2" d="M217.8,4.91h6.1c4.14,0,6.17,2.29,6.17,6.51V14c0,4.21-2,6.51-6.17,6.51h-2V31.26H217.8Zm6.1,11.86c1.32,0,2-.61,2-2.49V11.16c0-1.89-.71-2.49-2-2.49h-2v8.1Z"/></svg>