<svg viewBox="0 0 512 101" preserveAspectRatio="none" fill="none" xmlns="http://www.w3.org/2000/svg">
  <path
    d="M 2,2 c 0,0 26.486302,0.31484 58.434286,26.72423 16.2449975,13.42872 6.3148917,22.91238 0.287729,22.76229 -4.687215,-0.11672 -9.346084,-2.99962 -9.015463,-11.2268 0.416315,-10.35963 20.9660819,-18.71318 34.530927,-19.73196 16.532452,-1.24166 100.500482,14.92307 102.061852,29.93814 1.26416,12.15691 -37.455971,14.74401 -38.103091,2.04124 -0.750595,-14.73396 55.941501,-21.08976 87.773201,-18.71134 55.71432,4.16289 62.84478,43.2067 77.2268,40.48454 17.53249,-3.31847 35.31836,-15.70384 55.11341,-12.58764 17.96607,2.82827 39.2406,41.40375 63.95876,37.76289 47.8739,-7.05158 34.83219,-81.89181 58.17526,-83.01031 7.80605,-0.37403 7.92284,8.60521 7.92284,8.60521 l 9.63348,-23.0505"
    stroke="#EF8619" stroke-width="2" stroke-miterlimit="10" stroke-dasharray="4 4" />
</svg>