<?xml version="1.0" encoding="UTF-8" standalone="no"?>
<!-- Created with Inkscape (http://www.inkscape.org/) -->

<svg
   width="100.00002mm"
   height="19.266443mm"
   viewBox="0 0 100.00002 19.266443"
   version="1.1"
   id="svg5"
   inkscape:version="1.1.2 (b8e25be8, 2022-02-05)"
   sodipodi:docname="Zeichnung.svg"
   xmlns:inkscape="http://www.inkscape.org/namespaces/inkscape"
   xmlns:sodipodi="http://sodipodi.sourceforge.net/DTD/sodipodi-0.dtd"
   xmlns="http://www.w3.org/2000/svg"
   xmlns:svg="http://www.w3.org/2000/svg">
  <sodipodi:namedview
     id="namedview7"
     pagecolor="#ffffff"
     bordercolor="#666666"
     borderopacity="1.0"
     inkscape:pageshadow="2"
     inkscape:pageopacity="0.0"
     inkscape:pagecheckerboard="0"
     inkscape:document-units="mm"
     showgrid="false"
     inkscape:zoom="0.48666123"
     inkscape:cx="876.37966"
     inkscape:cy="221.92029"
     inkscape:window-width="2900"
     inkscape:window-height="1192"
     inkscape:window-x="0"
     inkscape:window-y="25"
     inkscape:window-maximized="0"
     inkscape:current-layer="layer1" />
  <defs
     id="defs2" />
  <g
     inkscape:label="Ebene 1"
     inkscape:groupmode="layer"
     id="layer1"
     transform="translate(-110.09062,245.13968)">
    <path
       style="fill:none;stroke:#000000;stroke-width:0.0520359px;stroke-linecap:butt;stroke-linejoin:miter;stroke-opacity:1"
       d="M0, 0 c 0,0 5.20909,0.0619 11.49234,5.25589 3.19493,2.64104 1.24196,4.50621 0.0566,4.47669 -0.92184,-0.023 -1.8381,-0.58994 -1.77308,-2.20799 0.0819,-2.03744 4.12343,-3.68034 6.79124,-3.88071 3.25146,-0.2442 19.76556,2.93494 20.07263,5.88797 0.24863,2.39092 -7.36651,2.89973 -7.49378,0.40146 -0.14762,-2.89775 11.00208,-4.14775 17.26246,-3.67999 10.95741,0.81872 12.35977,8.49752 15.1883,7.96215 3.44813,-0.65265 6.9461,-3.0885 10.83922,-2.47563 3.53341,0.55624 7.7175,8.14293 12.57885,7.42688 9.41542,-1.38685 6.85049,-16.10577 11.4414,-16.32574 1.53522,-0.0736 1.55819,1.69239 1.55819,1.69239 l 1.96154,-4.433"
       id="path247"
       sodipodi:nodetypes="cssssssssssscc" />
  </g>
</svg>
