<svg width="376" height="85" viewBox="0 0 376 85" fill="none" xmlns="http://www.w3.org/2000/svg">
<path d="M14.4631 60.8419C9.97087 60.8419 6.54551 59.5784 4.18707 57.0515C1.82863 54.4685 0.649414 50.7904 0.649414 46.0174V15.0208C0.649414 10.2477 1.82863 6.59777 4.18707 4.07087C6.54551 1.48782 9.97087 0.196289 14.4631 0.196289C18.9554 0.196289 22.3808 1.48782 24.7392 4.07087C27.0976 6.59777 28.2769 10.2477 28.2769 15.0208V20.0746H19.5169V14.4312C19.5169 10.5566 17.9166 8.61929 14.7158 8.61929C11.5151 8.61929 9.91471 10.5566 9.91471 14.4312V46.6913C9.91471 50.5097 11.5151 52.4189 14.7158 52.4189C17.9166 52.4189 19.5169 50.5097 19.5169 46.6913V35.1517H14.8843V26.7287H28.2769V46.0174C28.2769 50.7904 27.0976 54.4685 24.7392 57.0515C22.3808 59.5784 18.9554 60.8419 14.4631 60.8419Z" fill="white"/>
<path d="M34.2256 1.03859H59.4946V9.46159H43.4909V25.0441H56.2096V33.4671H43.4909V51.5766H59.4946V59.9996H34.2256V1.03859Z" fill="white"/>
<path d="M72.0686 9.46159H62.3821V1.03859H91.0203V9.46159H81.3339V59.9996H72.0686V9.46159Z" fill="white"/>
<path d="M122.389 60.8419C117.84 60.8419 114.359 59.5504 111.944 56.9673C109.53 54.3843 108.322 50.7343 108.322 46.0174V15.0208C108.322 10.3039 109.53 6.65392 111.944 4.07087C114.359 1.48782 117.84 0.196289 122.389 0.196289C126.937 0.196289 130.419 1.48782 132.833 4.07087C135.248 6.65392 136.455 10.3039 136.455 15.0208V46.0174C136.455 50.7343 135.248 54.3843 132.833 56.9673C130.419 59.5504 126.937 60.8419 122.389 60.8419ZM122.389 52.4189C125.589 52.4189 127.19 50.4816 127.19 46.607V14.4312C127.19 10.5566 125.589 8.61929 122.389 8.61929C119.188 8.61929 117.588 10.5566 117.588 14.4312V46.607C117.588 50.4816 119.188 52.4189 122.389 52.4189Z" fill="white"/>
<path d="M142.721 1.03859H154.345L163.357 36.331H163.526V1.03859H171.78V59.9996H162.262L151.144 16.9581H150.976V59.9996H142.721V1.03859Z" fill="white"/>
<path d="M192.157 1.03859H206.139C210.912 1.03859 214.394 2.16166 216.584 4.40779C218.774 6.59777 219.869 9.99505 219.869 14.5996V16.9581C219.869 19.9903 219.363 22.4611 218.352 24.3703C217.398 26.2795 215.91 27.6553 213.888 28.4976V28.666C218.493 30.2383 220.795 34.3375 220.795 40.9636V46.0174C220.795 50.5658 219.588 54.0473 217.173 56.4619C214.815 58.8204 211.333 59.9996 206.729 59.9996H192.157V1.03859ZM205.044 25.0441C206.897 25.0441 208.273 24.5668 209.171 23.6122C210.126 22.6576 210.603 21.0573 210.603 18.8111V15.5262C210.603 13.3923 210.21 11.8481 209.424 10.8935C208.694 9.93889 207.515 9.46159 205.886 9.46159H201.422V25.0441H205.044ZM206.729 51.5766C208.357 51.5766 209.564 51.1554 210.351 50.3131C211.137 49.4147 211.53 47.8986 211.53 45.7647V40.6267C211.53 37.9313 211.052 36.0783 210.098 35.0675C209.199 34.0006 207.683 33.4671 205.549 33.4671H201.422V51.5766H206.729Z" fill="white"/>
<path d="M239.603 60.8419C235.055 60.8419 231.573 59.5504 229.159 56.9673C226.744 54.3843 225.537 50.7343 225.537 46.0174V15.0208C225.537 10.3039 226.744 6.65392 229.159 4.07087C231.573 1.48782 235.055 0.196289 239.603 0.196289C244.152 0.196289 247.633 1.48782 250.048 4.07087C252.462 6.65392 253.67 10.3039 253.67 15.0208V46.0174C253.67 50.7343 252.462 54.3843 250.048 56.9673C247.633 59.5504 244.152 60.8419 239.603 60.8419ZM239.603 52.4189C242.804 52.4189 244.404 50.4816 244.404 46.607V14.4312C244.404 10.5566 242.804 8.61929 239.603 8.61929C236.403 8.61929 234.802 10.5566 234.802 14.4312V46.607C234.802 50.4816 236.403 52.4189 239.603 52.4189Z" fill="white"/>
<path d="M266.931 1.03859H279.481L289.083 59.9996H279.818L278.133 48.2916V48.4601H267.605L265.92 59.9996H257.328L266.931 1.03859ZM277.038 40.4582L272.911 11.3147H272.743L268.7 40.4582H277.038Z" fill="white"/>
<path d="M293.578 1.03859H307.308C312.081 1.03859 315.562 2.16166 317.752 4.40779C319.942 6.59777 321.037 9.99505 321.037 14.5996V18.2215C321.037 24.3422 319.016 28.2168 314.973 29.8453V30.0137C317.219 30.6876 318.791 32.0633 319.69 34.141C320.644 36.2187 321.122 38.9982 321.122 42.4798V52.84C321.122 54.5246 321.178 55.9004 321.29 56.9673C321.402 57.9781 321.683 58.9888 322.132 59.9996H312.699C312.362 59.045 312.137 58.1465 312.025 57.3042C311.912 56.4619 311.856 54.9458 311.856 52.7558V41.9744C311.856 39.279 311.407 37.3979 310.509 36.331C309.666 35.2641 308.178 34.7306 306.044 34.7306H302.844V59.9996H293.578V1.03859ZM306.213 26.3076C308.066 26.3076 309.442 25.8303 310.34 24.8757C311.295 23.9211 311.772 22.3207 311.772 20.0746V15.5262C311.772 13.3923 311.379 11.8481 310.593 10.8935C309.863 9.93889 308.684 9.46159 307.055 9.46159H302.844V26.3076H306.213Z" fill="white"/>
<path d="M327.55 1.03859H341.701C346.305 1.03859 349.759 2.27396 352.061 4.74471C354.363 7.21546 355.514 10.8373 355.514 15.6104V45.4278C355.514 50.2008 354.363 53.8227 352.061 56.2935C349.759 58.7642 346.305 59.9996 341.701 59.9996H327.55V1.03859ZM341.532 51.5766C343.048 51.5766 344.199 51.1274 344.986 50.2289C345.828 49.3305 346.249 47.8705 346.249 45.849V15.1892C346.249 13.1677 345.828 11.7077 344.986 10.8093C344.199 9.91082 343.048 9.46159 341.532 9.46159H336.815V51.5766H341.532Z" fill="white"/>
<path d="M362.527 25.6338V1.03859H371.792V25.6338L370.613 44.417H363.706L362.527 25.6338ZM362.695 51.0712H371.623V59.9996H362.695V51.0712Z" fill="white"/>
<path d="M235.011 82.0171L239.138 71.8616H235.214V69.8386H241.526V71.8211L237.399 81.9766H241.526V83.9996H235.011V82.0171Z" fill="white"/>
<path d="M246.023 84.2019C244.944 84.2019 244.121 83.8984 243.555 83.2915C242.988 82.6712 242.705 81.7878 242.705 80.6414V69.8386H244.93V80.8033C244.93 81.2888 245.025 81.6394 245.214 81.8552C245.416 82.071 245.699 82.1789 246.063 82.1789C246.427 82.1789 246.704 82.071 246.893 81.8552C247.095 81.6394 247.196 81.2888 247.196 80.8033V69.8386H249.34V80.6414C249.34 81.7878 249.057 82.6712 248.491 83.2915C247.924 83.8984 247.102 84.2019 246.023 84.2019Z" fill="white"/>
<path d="M250.925 69.8386H254.101L255.518 79.9738H255.558L256.974 69.8386H260.15V83.9996H258.046V73.2777H258.006L256.387 83.9996H254.526L252.908 73.2777H252.867V83.9996H250.925V69.8386Z" fill="white"/>
<path d="M267.944 84.2019C266.865 84.2019 266.049 83.8984 265.496 83.2915C264.943 82.6712 264.666 81.7878 264.666 80.6414V79.8322H266.77V80.8033C266.77 81.7203 267.155 82.1789 267.923 82.1789C268.301 82.1789 268.584 82.071 268.773 81.8552C268.975 81.6259 269.077 81.2618 269.077 80.7628C269.077 80.1694 268.942 79.6501 268.672 79.2051C268.402 78.7465 267.903 78.2003 267.175 77.5665C266.258 76.7573 265.617 76.029 265.253 75.3816C264.889 74.7208 264.707 73.979 264.707 73.1563C264.707 72.0369 264.99 71.1738 265.557 70.5669C266.123 69.9465 266.946 69.6363 268.025 69.6363C269.09 69.6363 269.893 69.9465 270.432 70.5669C270.985 71.1738 271.261 72.0504 271.261 73.1968V73.7834H269.157V73.0552C269.157 72.5696 269.063 72.219 268.874 72.0032C268.685 71.7739 268.409 71.6593 268.045 71.6593C267.303 71.6593 266.932 72.1111 266.932 73.0147C266.932 73.5272 267.067 74.006 267.337 74.451C267.62 74.8961 268.126 75.4356 268.854 76.0694C269.785 76.8786 270.425 77.6137 270.776 78.2745C271.127 78.9354 271.302 79.7108 271.302 80.601C271.302 81.7608 271.012 82.6509 270.432 83.2713C269.866 83.8917 269.036 84.2019 267.944 84.2019Z" fill="white"/>
<path d="M272.578 69.8386H278.647V71.8616H274.803V75.6041H277.858V77.6271H274.803V81.9766H278.647V83.9996H272.578V69.8386Z" fill="white"/>
<path d="M279.927 69.8386H282.152V81.9766H285.814V83.9996H279.927V69.8386Z" fill="white"/>
<path d="M286.881 69.8386H290.239C291.386 69.8386 292.222 70.1083 292.748 70.6478C293.274 71.1738 293.537 71.9897 293.537 73.0956V73.6621C293.537 74.3903 293.415 74.9838 293.173 75.4423C292.943 75.9009 292.586 76.2313 292.1 76.4336V76.474C293.206 76.8517 293.759 77.8362 293.759 79.4276V80.6414C293.759 81.7338 293.469 82.57 292.889 83.1499C292.323 83.7164 291.487 83.9996 290.381 83.9996H286.881V69.8386ZM289.976 75.6041C290.421 75.6041 290.752 75.4895 290.967 75.2602C291.197 75.031 291.311 74.6466 291.311 74.1071V73.3182C291.311 72.8057 291.217 72.4348 291.028 72.2055C290.853 71.9762 290.57 71.8616 290.178 71.8616H289.106V75.6041H289.976ZM290.381 81.9766C290.772 81.9766 291.062 81.8754 291.251 81.6731C291.44 81.4574 291.534 81.0932 291.534 80.5807V79.3467C291.534 78.6993 291.419 78.2543 291.19 78.0115C290.974 77.7553 290.61 77.6271 290.098 77.6271H289.106V81.9766H290.381Z" fill="white"/>
<path d="M295.06 69.8386H297.285V75.8064L300.117 69.8386H302.343L299.693 75.0377L302.383 83.9996H300.057L298.175 77.6878L297.285 79.4883V83.9996H295.06V69.8386Z" fill="white"/>
<path d="M306.337 84.2019C305.244 84.2019 304.408 83.8917 303.828 83.2713C303.248 82.6509 302.958 81.7743 302.958 80.6414V73.1968C302.958 72.0639 303.248 71.1873 303.828 70.5669C304.408 69.9465 305.244 69.6363 306.337 69.6363C307.429 69.6363 308.266 69.9465 308.845 70.5669C309.425 71.1873 309.715 72.0639 309.715 73.1968V80.6414C309.715 81.7743 309.425 82.6509 308.845 83.2713C308.266 83.8917 307.429 84.2019 306.337 84.2019ZM306.337 82.1789C307.106 82.1789 307.49 81.7136 307.49 80.783V73.0552C307.49 72.1246 307.106 71.6593 306.337 71.6593C305.568 71.6593 305.184 72.1246 305.184 73.0552V80.783C305.184 81.7136 305.568 82.1789 306.337 82.1789Z" fill="white"/>
<path d="M314.113 84.2019C313.034 84.2019 312.218 83.8984 311.665 83.2915C311.112 82.6712 310.836 81.7878 310.836 80.6414V79.8322H312.94V80.8033C312.94 81.7203 313.324 82.1789 314.093 82.1789C314.471 82.1789 314.754 82.071 314.943 81.8552C315.145 81.6259 315.246 81.2618 315.246 80.7628C315.246 80.1694 315.111 79.6501 314.841 79.2051C314.572 78.7465 314.073 78.2003 313.344 77.5665C312.427 76.7573 311.787 76.029 311.423 75.3816C311.058 74.7208 310.876 73.979 310.876 73.1563C310.876 72.0369 311.16 71.1738 311.726 70.5669C312.292 69.9465 313.115 69.6363 314.194 69.6363C315.26 69.6363 316.062 69.9465 316.601 70.5669C317.154 71.1738 317.431 72.0504 317.431 73.1968V73.7834H315.327V73.0552C315.327 72.5696 315.233 72.219 315.044 72.0032C314.855 71.7739 314.578 71.6593 314.214 71.6593C313.473 71.6593 313.102 72.1111 313.102 73.0147C313.102 73.5272 313.236 74.006 313.506 74.451C313.789 74.8961 314.295 75.4356 315.023 76.0694C315.954 76.8786 316.595 77.6137 316.945 78.2745C317.296 78.9354 317.471 79.7108 317.471 80.601C317.471 81.7608 317.181 82.6509 316.601 83.2713C316.035 83.8917 315.206 84.2019 314.113 84.2019Z" fill="white"/>
<path d="M320.487 71.8616H318.161V69.8386H325.039V71.8616H322.712V83.9996H320.487V71.8616Z" fill="white"/>
<path d="M326.116 69.8386H332.185V71.8616H328.341V75.6041H331.396V77.6271H328.341V81.9766H332.185V83.9996H326.116V69.8386Z" fill="white"/>
<path d="M333.465 69.8386H336.257L338.422 78.315H338.462V69.8386H340.445V83.9996H338.159L335.488 73.6621H335.448V83.9996H333.465V69.8386Z" fill="white"/>
<path d="M342.099 69.8386H345.376C346.482 69.8386 347.311 70.1353 347.864 70.7287C348.417 71.3221 348.694 72.192 348.694 73.3384V74.7343C348.694 75.8806 348.417 76.7505 347.864 77.3439C347.311 77.9373 346.482 78.234 345.376 78.234H344.324V83.9996H342.099V69.8386ZM345.376 76.211C345.74 76.211 346.01 76.1099 346.185 75.9076C346.374 75.7053 346.468 75.3614 346.468 74.8759V73.1968C346.468 72.7113 346.374 72.3673 346.185 72.165C346.01 71.9627 345.74 71.8616 345.376 71.8616H344.324V76.211H345.376Z" fill="white"/>
<path d="M349.902 69.8386H353.2C354.346 69.8386 355.182 70.1083 355.708 70.6478C356.234 71.1738 356.497 71.9897 356.497 73.0956V73.9655C356.497 75.4356 356.012 76.3661 355.041 76.7573V76.7977C355.58 76.9596 355.958 77.29 356.173 77.789C356.403 78.288 356.517 78.9556 356.517 79.7918V82.28C356.517 82.6846 356.531 83.0151 356.558 83.2713C356.585 83.5141 356.652 83.7568 356.76 83.9996H354.494C354.413 83.7703 354.36 83.5545 354.333 83.3522C354.306 83.1499 354.292 82.7858 354.292 82.2598V79.6704C354.292 79.023 354.184 78.5712 353.968 78.315C353.766 78.0587 353.409 77.9306 352.896 77.9306H352.128V83.9996H349.902V69.8386ZM352.937 75.9076C353.382 75.9076 353.712 75.793 353.928 75.5637C354.157 75.3344 354.272 74.95 354.272 74.4106V73.3182C354.272 72.8057 354.177 72.4348 353.989 72.2055C353.813 71.9762 353.53 71.8616 353.139 71.8616H352.128V75.9076H352.937Z" fill="white"/>
<path d="M358.061 69.8386H364.13V71.8616H360.287V75.6041H363.341V77.6271H360.287V81.9766H364.13V83.9996H358.061V69.8386Z" fill="white"/>
<path d="M365.411 69.8386H367.636V83.9996H365.411V69.8386Z" fill="white"/>
<path d="M372.195 84.2019C371.116 84.2019 370.3 83.8984 369.748 83.2915C369.195 82.6712 368.918 81.7878 368.918 80.6414V79.8322H371.022V80.8033C371.022 81.7203 371.406 82.1789 372.175 82.1789C372.553 82.1789 372.836 82.071 373.025 81.8552C373.227 81.6259 373.328 81.2618 373.328 80.7628C373.328 80.1694 373.193 79.6501 372.924 79.2051C372.654 78.7465 372.155 78.2003 371.427 77.5665C370.51 76.7573 369.869 76.029 369.505 75.3816C369.141 74.7208 368.959 73.979 368.959 73.1563C368.959 72.0369 369.242 71.1738 369.808 70.5669C370.375 69.9465 371.197 69.6363 372.276 69.6363C373.342 69.6363 374.144 69.9465 374.684 70.5669C375.237 71.1738 375.513 72.0504 375.513 73.1968V73.7834H373.409V73.0552C373.409 72.5696 373.315 72.219 373.126 72.0032C372.937 71.7739 372.661 71.6593 372.297 71.6593C371.555 71.6593 371.184 72.1111 371.184 73.0147C371.184 73.5272 371.319 74.006 371.588 74.451C371.872 74.8961 372.377 75.4356 373.106 76.0694C374.036 76.8786 374.677 77.6137 375.028 78.2745C375.378 78.9354 375.554 79.7108 375.554 80.601C375.554 81.7608 375.264 82.6509 374.684 83.2713C374.117 83.8917 373.288 84.2019 372.195 84.2019Z" fill="white"/>
</svg>
