<svg width="188" height="85" viewBox="0 0 188 85" fill="none" xmlns="http://www.w3.org/2000/svg">
<g clip-path="url(#clip0_134_3)">
<path d="M179.612 44.6864C178.913 45.6921 180.899 51.9446 180.899 51.9446H171.518C169.404 46.188 166.367 40.9753 162.578 36.5974C162.578 36.5974 94.846 37.0784 87.2304 44.1617C79.1672 50.7483 70.5335 56.2892 61.4769 60.6895H62.5439V82.814H72.4773V84.869C71.0793 84.869 49.5568 85.0877 34.0311 85.0877C25.9004 85.0877 19.3149 85.0877 18.3216 84.869C17.3041 84.769 16.3258 84.3581 15.4813 83.6763C14.6369 82.9945 13.955 82.0648 13.502 80.9776L15.084 80.0594C15.418 80.8115 15.907 81.4508 16.5054 81.9172C17.1038 82.3837 17.7919 82.6621 18.5055 82.7265C19.2781 82.7265 23.4722 82.7265 29.5427 82.7265V68.9534H31.3086V83.0763H60.7411V61.2142C56.4366 63.4004 52.8311 65.0619 50.918 65.849C45.2155 68.2101 22.5893 68.9971 22.5893 68.9971C22.5893 68.9971 -0.000173646 68.1664 2.79591 54.9179C5.77595 40.8824 30.4992 24.3109 34.2151 21.9935C37.9309 19.6761 46.5399 20.9441 50.0351 19.1077C50.4974 18.873 50.9144 18.5281 51.2603 18.0943C51.6061 17.6606 51.8735 17.1472 52.0459 16.5858C52.2183 16.0245 52.292 15.4271 52.2625 14.8306C52.2331 14.234 52.101 13.651 51.8746 13.1175L63.2797 11.4997C73.8386 24.617 94.4413 26.8032 94.4413 26.8032C94.4413 26.8032 160.186 28.8145 162.246 27.9837C164.307 27.153 169.605 9.40092 171.665 5.50946C173.725 1.618 181.598 2.84228 181.598 2.84228C180.596 6.86645 179.846 10.9732 179.354 15.1288C179.354 18.0146 188 17.4899 188 29.4704C188.036 32.7112 187.257 35.8912 185.763 38.6023C184.268 41.3134 182.126 43.4321 179.612 44.6864V44.6864ZM185.719 30.8695C185.726 28.6866 185.188 26.5503 184.172 24.7316C183.156 22.9129 181.708 21.4939 180.013 20.6545C178.317 19.8151 176.45 19.5932 174.648 20.017C172.846 20.4407 171.191 21.491 169.892 23.0346C168.593 24.5782 167.709 26.5456 167.353 28.687C166.996 30.8284 167.183 33.0475 167.889 35.0627C168.595 37.0778 169.789 38.7982 171.32 40.0056C172.85 41.213 174.648 41.853 176.484 41.8443C178.931 41.8328 181.274 40.6729 183.003 38.6172C184.733 36.5615 185.709 33.7767 185.719 30.8695V30.8695Z" fill="white"/>
<path d="M2.57509 57.3241C2.57509 56.231 16.7027 56.7119 17.2913 57.3241C17.88 57.9362 18.2847 61.0844 13.318 67.3807C9.19741 66.7248 2.57509 62.571 2.57509 57.3241Z" fill="#E2A558"/>
<path d="M3.38496 52.9061C3.38496 52.9061 18.1012 53.2996 19.72 52.9061C21.3388 52.5126 37.1587 20.8999 37.1587 20.8999L35.3192 21.4246C28.1318 25.7517 21.3492 30.9693 15.0844 36.9904C5.11412 46.4786 3.38496 52.9061 3.38496 52.9061Z" fill="#E2A558"/>
<path d="M44.5167 24.9678C43.1922 24.9678 40.5801 24.9678 38.9245 24.9678C37.2689 24.9678 27.409 45.0809 26.4525 47.0485C25.4959 49.0161 26.4525 50.94 28.991 50.7651C33.3603 50.2841 37.6906 49.3922 41.9413 48.0979C42.9985 47.245 43.8945 46.1396 44.5723 44.8523C45.2501 43.565 45.6947 42.1239 45.8779 40.6211C46.3907 36.3733 46.7223 32.0974 46.8713 27.8099C46.6873 27.154 45.7675 25.0552 44.5167 24.9678Z" fill="#E2A558"/>
<path d="M142.895 0.612507H122.476C108.864 0.612507 95.2512 0.612507 81.6387 0.612507L59.5643 0.918577C59.5134 0.652751 59.3866 0.416056 59.2056 0.248682C59.0245 0.0813071 58.8003 -0.0064301 58.5709 0.00036726H57.5776C57.3302 0.000149667 57.0923 0.113902 56.9139 0.317733C56.7355 0.521563 56.6306 0.79961 56.6211 1.09347L40.8379 1.44327L20.4191 1.92424C13.6128 2.18658 6.80657 2.36148 0.0370946 2.66755C6.84336 2.66755 13.6496 2.66755 20.4559 2.92989L40.8379 3.01734C46.0989 3.01734 51.36 3.01734 56.6211 3.01734V11.7622C56.6209 12.0679 56.7205 12.3617 56.8989 12.5819C57.0773 12.8021 57.3206 12.9314 57.5776 12.9428H58.5709C58.8344 12.9428 59.0871 12.8184 59.2733 12.597C59.4596 12.3756 59.5643 12.0753 59.5643 11.7622V3.01734H81.6387C95.288 2.66755 108.901 2.49265 122.513 2.14286L142.932 1.66189C149.738 1.39954 156.544 1.22465 163.314 0.918577C156.508 0.74368 149.701 0.74368 142.895 0.612507Z" fill="white"/>
<path d="M185.719 30.8697C185.719 33.0508 185.174 35.1828 184.154 36.9958C183.133 38.8087 181.683 40.2209 179.987 41.0536C178.291 41.8862 176.425 42.1019 174.625 41.6732C172.826 41.2445 171.174 40.1907 169.879 38.6454C168.584 37.1 167.703 35.1326 167.35 32.9924C166.996 30.8521 167.185 28.6353 167.893 26.6227C168.6 24.6101 169.794 22.8923 171.323 21.6868C172.853 20.4814 174.649 19.8425 176.484 19.8512C178.937 19.8627 181.285 21.0287 183.016 23.0938C184.747 25.1589 185.719 27.9549 185.719 30.8697V30.8697ZM182.371 23.3491C180.856 21.6428 178.865 20.6617 176.779 20.5945V27.8964C177.239 27.9427 177.675 28.1565 178.029 28.5086L182.371 23.3491ZM176.19 20.5945C174.093 20.6633 172.091 21.6434 170.561 23.3491L174.902 28.5086C175.27 28.1555 175.719 27.9422 176.19 27.8964V20.5945ZM170.156 23.8301C168.704 25.6702 167.878 28.0851 167.838 30.6073H173.983C174.021 30.0473 174.2 29.5141 174.498 29.077L170.156 23.8301ZM167.838 31.2195C167.895 33.6987 168.721 36.0657 170.156 37.8656L174.498 32.7061C174.201 32.2853 174.021 31.7662 173.983 31.2195H167.838ZM170.561 38.3465C172.087 40.0648 174.089 41.0601 176.19 41.1449V33.8429C175.719 33.7635 175.275 33.5372 174.902 33.1871L170.561 38.3465ZM176.779 41.1449C178.869 41.0617 180.86 40.0653 182.371 38.3465L178.029 33.1871C177.67 33.5356 177.238 33.7622 176.779 33.8429V41.1449ZM182.775 37.8656C184.216 36.0655 185.053 33.7019 185.13 31.2195H178.986C178.918 31.7651 178.727 32.2787 178.434 32.7061L182.775 37.8656ZM185.13 30.6073C185.059 28.1105 184.221 25.731 182.775 23.9175L178.434 28.9895C178.741 29.4574 178.932 30.0176 178.986 30.6073H185.13Z" fill="#E2A558"/>
</g>
<defs>
<clipPath id="clip0_134_3">
<rect width="188" height="85" fill="white" transform="matrix(-1 0 0 1 188 0)"/>
</clipPath>
</defs>
</svg>
