<svg id="Ebene_1" data-name="Ebene 1" xmlns="http://www.w3.org/2000/svg" viewBox="0 0 1699.73 1053.01"><defs><style>.cls-1{fill:#079;}.cls-2{fill:#43afe0;}.cls-3,.cls-7,.cls-8{fill:#fff;}.cls-4{fill:#ef8619;}.cls-5{fill:#e2a558;}.cls-6{fill:#e9f2f0;}.cls-7{fill-rule:evenodd;}.cls-8{font-size:43.59px;font-family:BebasNeueBold, Bebas Neue;letter-spacing:-0.01em;}.cls-9{letter-spacing:0em;}.cls-10{letter-spacing:-0.04em;}.cls-11{fill:none;stroke:#ef8619;stroke-miterlimit:10;}</style></defs><path class="cls-1" d="M.27,1100V895.18c22.17-24,123.1-54.79,160.08-73.14,81.78-40.59,170.71-89.76,201.48-98.89,139.9-41.56,422.2-18.9,619.94-72.61s495.47-243,718.23-248.43V1100Z" transform="translate(-0.27 -46.99)"/><path class="cls-2" d="M1700,500.42c-.17,0-.12,0-.29,0,0,0-14.89-.9-25.79,0s-25.14,4.86-36.11,13.38c-9.76,11.58-12.59,14.54-12.34,17.58.35,4.15,3.36,7.41,3.94,9.65.31,1.23-.76,2.42-2.58,2.84-9.11,2.14-38.84,9.75-36.12,17.65,3.48,10.1,36.33,19.88,30.45,25.41-12.43,11.67-67.69,7.22-94,15-27.55,8.14.75,24.56-47.2,22-85.37-4.55-129.47-6.9-141.06,5.51-10.52,11.28,5.45,19,19.82,28.51,12.55,8.3,60.54,39.29,59.63,40.45-.75,1-8.59,12.86-5.29,18.64,3.73,6.53,30.85,9.57,30.85,9.57s-22.65,12.07-15.9,23.49c12.41,21,45.1,18.67,42.71,25.94-9.39,28.62-101.78,38.91-144.62,20.11-4.57-2,36.93-60.07,36.93-60.07l-77.85-3.94s-4.13,8.59-26.11,46l-13.82-3.68c-3.32-.86-9.81-3.07-11.82-3.57-1.37-.33,35.27-37.67,35.27-37.67l-53.79-2-26.6,30.15c-9.65-2-16.7-3.35-18.22-3.64-4.43-.85,18.31-26.15,18.31-26.15l-42.91,3.6s-9.47,16.45-14.65,15.61c0,0-11-1.77-21.56-3.28-153.52-22-196,4.65-196,4.65-72.86,27.36,5,117.74-58.71,120.91-85.75,4.26-120.89-58.84-226.6-70.75-114.89-13-209.81-4.27-247.3,5.13-63.56,15.94,84.61,24.13,25.67,29.19C332.23,843,354,864.05,374.09,872.6c16.47,7,72.88,13,26.68,46S148.3,1100,148.3,1100H748.86S573.47,952.77,545.35,927.13c-24.35-22.21-87-56.41-87-65,0-14.63,18.31-6.51,61.59-15.38,64.1-13.15-97-33.13-70.57-37.06,22.65-3.38,76.91-4.23,100.07-1.06,67.42,9.23,114.31,46.9,137.28,61.25,39.15,24.46,77.73,58.6,169.53,58.6,22.71,0,61.24-9.37,71.95-15.84,60.22-36.35-52.75-113.33-9.1-146.77,43-24.29,136.45-13.2,136.45-13.2s126.23,17.37,272,74.72,208.63-5.87,195.11-39.16c-7.81-19.23-1.09-28.88-58.92-41.18-2.19-.47,28.72-9.35,11-28.18-8.4-8.9-28.2-6.2-37.94-9.08-6.76-2,7.58-10.17-8.39-20-31.89-19.68-88.32-47-84-56.32.1-.22,8.22-5,8.51-5.1,19.59-4.65,21.27-4.06,151.53,7.33,42.72,3.73,24.37-19.22,30.85-22.51,5-2.57,107.9-6.42,122.43-19.43,5.22-4.66-35-25.59-32.15-31,4.6-8.8,38-12.11,29.53-22.62-6.09-7.53-16.11-9.16-10.94-22.85C1649.84,497.11,1700,500.42,1700,500.42Z" transform="translate(-0.27 -46.99)"/><path class="cls-3" d="M221.24,959.12h4.45V971l5.66-11.92h4.45l-5.3,10.39,5.38,17.9h-4.65l-3.76-12.61-1.78,3.6v9h-4.45Z" transform="translate(-0.27 -46.99)"/><path class="cls-3" d="M237,980.71V965.83c0-4.53,2.38-7.11,6.75-7.11s6.75,2.58,6.75,7.11v14.88c0,4.52-2.39,7.11-6.75,7.11S237,985.23,237,980.71Zm1.65-27.62h4v4.13h-4Zm7.4,27.9V965.55c0-2-.89-2.79-2.3-2.79s-2.31.76-2.31,2.79V981c0,2,.89,2.79,2.31,2.79S246.07,983,246.07,981Zm-1.17-27.9h4v4.13h-4Z" transform="translate(-0.27 -46.99)"/><path class="cls-3" d="M253.52,959.12H258v24.25h7.32v4H253.52Z" transform="translate(-0.27 -46.99)"/><path class="cls-3" d="M267.43,959.12H273l4.32,16.94h.09V959.12h4v28.29h-4.57l-5.34-20.65h-.08v20.65h-4Z" transform="translate(-0.27 -46.99)"/><path class="cls-3" d="M741.56,492.41h6.79c4.44,0,6.63,2.47,6.63,7v14.32c0,4.52-2.19,7-6.63,7h-6.79Zm6.71,24.26c1.41,0,2.26-.73,2.26-2.75V499.2c0-2-.85-2.74-2.26-2.74H746v20.21Z" transform="translate(-0.27 -46.99)"/><path class="cls-3" d="M757.82,514V492.41h4.44v21.91c0,2,.85,2.75,2.27,2.75s2.26-.73,2.26-2.75V492.41h4.29V514c0,4.53-2.27,7.11-6.63,7.11S757.82,518.53,757.82,514Zm1.53-27.61h4v4.12h-4Zm6.23,0h4v4.12h-4Z" transform="translate(-0.27 -46.99)"/><path class="cls-3" d="M773.47,514v-1.62h4.2v1.94c0,2,.89,2.75,2.31,2.75s2.3-.73,2.3-2.83c0-2.34-.89-3.84-3.8-6.39-3.72-3.27-4.93-5.57-4.93-8.81,0-4.44,2.31-7,6.63-7s6.47,2.59,6.47,7.11v1.17h-4.21v-1.45c0-2-.8-2.79-2.22-2.79s-2.22.77-2.22,2.71.93,3.55,3.84,6.1c3.72,3.28,4.89,5.54,4.89,9.06,0,4.61-2.35,7.19-6.71,7.19S773.47,518.53,773.47,514Z" transform="translate(-0.27 -46.99)"/><path class="cls-3" d="M788.51,514v-1.62h4.21v1.94c0,2,.89,2.75,2.3,2.75s2.31-.73,2.31-2.83c0-2.34-.89-3.84-3.8-6.39-3.72-3.27-4.93-5.57-4.93-8.81,0-4.44,2.3-7,6.63-7s6.46,2.59,6.46,7.11v1.17h-4.2v-1.45c0-2-.81-2.79-2.22-2.79s-2.23.77-2.23,2.71.93,3.55,3.84,6.1c3.72,3.28,4.89,5.54,4.89,9.06,0,4.61-2.34,7.19-6.71,7.19S788.51,518.53,788.51,514Z" transform="translate(-0.27 -46.99)"/><path class="cls-3" d="M804.33,492.41h12.13v4h-7.68v7.47h6.1V508h-6.1v8.69h7.68v4H804.33Z" transform="translate(-0.27 -46.99)"/><path class="cls-3" d="M819,492.41h4.45v24.26h7.31v4H819Z" transform="translate(-0.27 -46.99)"/><path class="cls-3" d="M832.92,492.41h6.8c4.44,0,6.62,2.47,6.62,7v14.32c0,4.52-2.18,7-6.62,7h-6.8Zm6.71,24.26c1.42,0,2.27-.73,2.27-2.75V499.2c0-2-.85-2.74-2.27-2.74h-2.26v20.21Z" transform="translate(-0.27 -46.99)"/><path class="cls-3" d="M849,514V499.12c0-4.52,2.39-7.11,6.75-7.11s6.75,2.59,6.75,7.11V514c0,4.53-2.38,7.11-6.75,7.11S849,518.53,849,514Zm9.06.28V498.84c0-2-.89-2.79-2.31-2.79s-2.3.77-2.3,2.79v15.44c0,2,.89,2.79,2.3,2.79S858.08,516.3,858.08,514.28Z" transform="translate(-0.27 -46.99)"/><path class="cls-3" d="M865.52,492.41h6.59c4.61,0,6.59,2.14,6.59,6.51v1.74c0,2.91-.93,4.77-2.91,5.58v.08c2.22.69,3,2.79,3,6v5a8.25,8.25,0,0,0,.49,3.44H874.7a8.72,8.72,0,0,1-.41-3.48v-5.17c0-2.63-.76-3.48-2.78-3.48H870v12.13h-4.45Zm6.07,12.13c1.65,0,2.67-.73,2.67-3v-2.18c0-2-.69-2.91-2.27-2.91h-2v8.08Z" transform="translate(-0.27 -46.99)"/><path class="cls-3" d="M881.82,492.41h11.77v4h-7.32v7.88H892v4h-5.74v12.33h-4.45Z" transform="translate(-0.27 -46.99)"/><path class="cls-3" d="M1436.67,1006.55V991.67c0-4.53,2.39-7.11,6.75-7.11s6.75,2.58,6.75,7.11v14.88c0,4.53-2.38,7.11-6.75,7.11S1436.67,1011.08,1436.67,1006.55Zm9.06.28V991.39c0-2-.89-2.79-2.31-2.79s-2.3.77-2.3,2.79v15.44c0,2,.89,2.79,2.3,2.79S1445.73,1008.85,1445.73,1006.83Z" transform="translate(-0.27 -46.99)"/><path class="cls-3" d="M1453.17,985h6.71c4.61,0,6.59,2.14,6.59,6.51v1.13c0,2.91-.89,4.73-2.87,5.54v.08c2.39.81,3.32,2.91,3.32,5.9v2.43c0,4.37-2.31,6.71-6.75,6.71h-7Zm6.19,11.52c1.66,0,2.67-.73,2.67-3v-1.57c0-2-.69-2.92-2.27-2.92h-2.14v7.48Zm.81,12.74c1.49,0,2.3-.69,2.3-2.79V1004c0-2.63-.85-3.44-2.87-3.44h-2v8.7Z" transform="translate(-0.27 -46.99)"/><path class="cls-3" d="M1469.51,985h12.13v4H1474v7.48h6.1v4H1474v8.7h7.68v4h-12.13Z" transform="translate(-0.27 -46.99)"/><path class="cls-3" d="M1484.19,985h6.59c4.61,0,6.59,2.14,6.59,6.51v1.74c0,2.91-.92,4.77-2.91,5.58v.08c2.23.69,3,2.79,3,6v5a8.41,8.41,0,0,0,.49,3.44h-4.53a8.8,8.8,0,0,1-.4-3.48v-5.17c0-2.63-.77-3.48-2.79-3.48h-1.54v12.13h-4.45Zm6.07,12.13c1.66,0,2.67-.73,2.67-3v-2.18c0-2-.69-2.92-2.27-2.92h-2v8.09Z" transform="translate(-0.27 -46.99)"/><path class="cls-3" d="M1500.49,985h4.45v11.52h4.77V985h4.45v28.3h-4.45v-12.74h-4.77v12.74h-4.45Z" transform="translate(-0.27 -46.99)"/><path class="cls-3" d="M1520.92,985h6l4.61,28.3h-4.45l-.8-5.62v.08h-5.06l-.81,5.54h-4.12Zm4.85,18.92-2-14h-.08l-1.94,14Z" transform="translate(-0.27 -46.99)"/><path class="cls-3" d="M1533.46,1006.55V985h4.45v21.91c0,2,.85,2.75,2.26,2.75s2.26-.73,2.26-2.75V985h4.29v21.59c0,4.53-2.27,7.11-6.63,7.11S1533.46,1011.08,1533.46,1006.55Z" transform="translate(-0.27 -46.99)"/><path class="cls-3" d="M1549.11,1006.55v-1.62h4.2v1.94c0,2,.89,2.75,2.31,2.75s2.3-.73,2.3-2.83c0-2.34-.89-3.84-3.8-6.38-3.72-3.28-4.93-5.58-4.93-8.82,0-4.45,2.31-7,6.63-7s6.47,2.58,6.47,7.11v1.18h-4.21v-1.46c0-2-.8-2.79-2.22-2.79s-2.22.77-2.22,2.71.93,3.56,3.84,6.1c3.72,3.28,4.89,5.54,4.89,9.06,0,4.61-2.35,7.19-6.71,7.19S1549.11,1011.08,1549.11,1006.55Z" transform="translate(-0.27 -46.99)"/><path class="cls-3" d="M1564.93,985h12.12v4h-7.68v7.48h6.11v4h-6.11v8.7h7.68v4h-12.12Z" transform="translate(-0.27 -46.99)"/><path class="cls-3" d="M1579.61,985h5.58l4.32,16.94h.08V985h4v28.3H1589l-5.34-20.66h-.08v20.66h-4Z" transform="translate(-0.27 -46.99)"/><path class="cls-3" d="M1153.36,690.28h6.79c4.44,0,6.63,2.46,6.63,7v14.31c0,4.53-2.19,7-6.63,7h-6.79Zm6.7,24.25c1.42,0,2.27-.73,2.27-2.75V697.07c0-2-.85-2.75-2.27-2.75h-2.26v20.21Z" transform="translate(-0.27 -46.99)"/><path class="cls-3" d="M1169.62,711.86V690.28h4.44v21.91c0,2,.85,2.75,2.26,2.75s2.27-.73,2.27-2.75V690.28h4.28v21.58c0,4.53-2.26,7.12-6.63,7.12S1169.62,716.39,1169.62,711.86Z" transform="translate(-0.27 -46.99)"/><path class="cls-3" d="M1186,690.28h4.45v28.29H1186Z" transform="translate(-0.27 -46.99)"/><path class="cls-3" d="M1193,711.86v-1.61h4.2v1.94c0,2,.89,2.75,2.31,2.75s2.3-.73,2.3-2.84c0-2.34-.89-3.83-3.8-6.38-3.71-3.28-4.93-5.58-4.93-8.82,0-4.44,2.31-7,6.63-7s6.47,2.59,6.47,7.12v1.17H1202V696.7c0-2-.8-2.78-2.22-2.78s-2.22.76-2.22,2.7.93,3.56,3.84,6.11c3.72,3.27,4.89,5.54,4.89,9,0,4.61-2.34,7.2-6.71,7.2S1193,716.39,1193,711.86Z" transform="translate(-0.27 -46.99)"/><path class="cls-3" d="M1208.84,690.28h6.72c4.6,0,6.59,2.14,6.59,6.51v1.13c0,2.91-.89,4.72-2.88,5.53v.09c2.39.8,3.32,2.91,3.32,5.9v2.42c0,4.37-2.3,6.71-6.75,6.71h-7ZM1215,701.8c1.66,0,2.67-.73,2.67-3v-1.58c0-2-.69-2.91-2.27-2.91h-2.14v7.48Zm.81,12.73c1.49,0,2.3-.69,2.3-2.79v-2.46c0-2.63-.85-3.44-2.87-3.44h-2v8.69Z" transform="translate(-0.27 -46.99)"/><path class="cls-3" d="M1225,711.86V690.28h4.44v21.91c0,2,.85,2.75,2.26,2.75s2.27-.73,2.27-2.75V690.28h4.28v21.58c0,4.53-2.26,7.12-6.63,7.12S1225,716.39,1225,711.86Z" transform="translate(-0.27 -46.99)"/><path class="cls-3" d="M1241.44,690.28H1248c4.61,0,6.59,2.14,6.59,6.51v1.73c0,2.91-.93,4.77-2.91,5.58v.08c2.22.69,3,2.79,3,6v5a8.22,8.22,0,0,0,.49,3.43h-4.53a8.73,8.73,0,0,1-.4-3.47v-5.18c0-2.62-.77-3.47-2.79-3.47h-1.54v12.12h-4.45Zm6.07,12.12c1.66,0,2.67-.72,2.67-3v-2.18c0-2-.69-2.91-2.27-2.91h-2v8.08Z" transform="translate(-0.27 -46.99)"/><path class="cls-3" d="M1257.42,711.86V697c0-4.53,2.27-7.12,6.63-7.12s6.63,2.59,6.63,7.12v2.42h-4.2V696.7c0-2-.89-2.78-2.31-2.78s-2.3.76-2.3,2.78v15.49c0,2,.89,2.75,2.3,2.75s2.31-.73,2.31-2.75v-5.54h-2.23v-4h6.43v9.25c0,4.53-2.26,7.12-6.63,7.12S1257.42,716.39,1257.42,711.86Z" transform="translate(-0.27 -46.99)"/><path class="cls-3" d="M1272.91,702.4h8.89v4.05h-8.89Z" transform="translate(-0.27 -46.99)"/><path class="cls-3" d="M1284.48,690.28h4.45V701.8h4.77V690.28h4.44v28.29h-4.44V705.84h-4.77v12.73h-4.45Z" transform="translate(-0.27 -46.99)"/><path class="cls-3" d="M1304.9,690.28h6l4.61,28.29h-4.45l-.81-5.62V713h-5l-.81,5.53h-4.12Zm4.85,18.92-2-14h-.08l-1.94,14Z" transform="translate(-0.27 -46.99)"/><path class="cls-3" d="M1317.68,690.28h11.77v4h-7.32v7.88h5.74v4h-5.74v12.33h-4.45Z" transform="translate(-0.27 -46.99)"/><path class="cls-3" d="M1331.6,690.28h12.12v4h-7.67v7.48h6.1v4h-6.1v8.69h7.67v4H1331.6Z" transform="translate(-0.27 -46.99)"/><path class="cls-3" d="M1346.28,690.28h5.58l4.32,16.93h.08V690.28h4v28.29h-4.56l-5.34-20.65h-.08v20.65h-4Z" transform="translate(-0.27 -46.99)"/><path class="cls-3" d="M1534.7,471.83h12.13v4h-7.68v7.48h6.1v4h-6.1v8.68h7.68v4.05H1534.7Z" transform="translate(-0.27 -46.99)"/><path class="cls-3" d="M1548.69,493.42V491.8h4.21v1.94c0,2,.89,2.75,2.3,2.75s2.31-.73,2.31-2.83c0-2.34-.89-3.84-3.8-6.39-3.72-3.27-4.93-5.58-4.93-8.81,0-4.44,2.3-7,6.63-7s6.46,2.59,6.46,7.11v1.17h-4.2v-1.45c0-2-.81-2.79-2.23-2.79s-2.22.77-2.22,2.71.93,3.55,3.84,6.1c3.72,3.28,4.9,5.54,4.9,9.06,0,4.6-2.35,7.19-6.72,7.19S1548.69,497.94,1548.69,493.42Z" transform="translate(-0.27 -46.99)"/><path class="cls-3" d="M1563.74,493.42V491.8H1568v1.94c0,2,.88,2.75,2.3,2.75s2.3-.73,2.3-2.83c0-2.34-.88-3.84-3.8-6.39-3.72-3.27-4.93-5.58-4.93-8.81,0-4.44,2.31-7,6.63-7s6.47,2.59,6.47,7.11v1.17h-4.2v-1.45c0-2-.81-2.79-2.23-2.79s-2.22.77-2.22,2.71.93,3.55,3.84,6.1c3.72,3.28,4.89,5.54,4.89,9.06,0,4.6-2.35,7.19-6.71,7.19S1563.74,497.94,1563.74,493.42Z" transform="translate(-0.27 -46.99)"/><path class="cls-3" d="M1579.56,471.83h12.12v4H1584v7.48h6.1v4H1584v8.68h7.68v4.05h-12.12Z" transform="translate(-0.27 -46.99)"/><path class="cls-3" d="M1594.24,471.83h5.57l4.33,16.94h.08V471.83h4v28.3h-4.56l-5.34-20.66h-.08v20.66h-4Z" transform="translate(-0.27 -46.99)"/><path class="cls-3" d="M397.87,700.74h5.25l2.34,16.74h.06l2.34-16.74h5.25v23.39h-3.48V706.42h-.06l-2.68,17.71h-3.07l-2.67-17.71h-.07v17.71h-3.21Z" transform="translate(-0.27 -46.99)"/><path class="cls-3" d="M415.59,718.58V706.29c0-3.75,2-5.88,5.58-5.88s5.58,2.13,5.58,5.88v12.29c0,3.74-2,5.88-5.58,5.88S415.59,722.32,415.59,718.58ZM417,695.76h3.28v3.41H417Zm6.12,23.06V706.05c0-1.67-.74-2.3-1.91-2.3s-1.9.63-1.9,2.3v12.77c0,1.67.73,2.3,1.9,2.3S423.08,720.49,423.08,718.82Zm-1-23.06h3.27v3.41h-3.27Z" transform="translate(-0.27 -46.99)"/><path class="cls-3" d="M429.23,700.74h4.61l3.58,14h.06v-14h3.28v23.39H437l-4.41-17.08h-.07v17.08h-3.27Z" transform="translate(-0.27 -46.99)"/><path class="cls-3" d="M443.27,718.71V706.15c0-3.61,1.87-5.74,5.41-5.74s5.42,2.13,5.42,5.74v2.47h-3.48v-2.7c0-1.54-.73-2.17-1.84-2.17s-1.83.63-1.83,2.17V719c0,1.54.73,2.14,1.83,2.14s1.84-.6,1.84-2.14v-3.57h3.48v3.3c0,3.61-1.87,5.75-5.42,5.75S443.27,722.32,443.27,718.71Z" transform="translate(-0.27 -46.99)"/><path class="cls-3" d="M456.31,700.74H460v9.52h3.95v-9.52h3.67v23.39h-3.67V713.6H460v10.53h-3.67Z" transform="translate(-0.27 -46.99)"/><path class="cls-3" d="M470.35,700.74h10v3.34H474v6.18h5.05v3.34H474v7.19h6.35v3.34h-10Z" transform="translate(-0.27 -46.99)"/><path class="cls-3" d="M482.48,700.74h4.62l3.57,14h.07v-14H494v23.39h-3.77l-4.41-17.08h-.07v17.08h-3.28Z" transform="translate(-0.27 -46.99)"/><path class="cls-3" d="M496.49,718.58V706.29c0-3.75,1.87-5.88,5.48-5.88s5.48,2.13,5.48,5.88v2H504v-2.24c0-1.67-.74-2.3-1.91-2.3s-1.9.63-1.9,2.3v12.8c0,1.67.73,2.27,1.9,2.27s1.91-.6,1.91-2.27v-4.58h-1.84v-3.34h5.31v7.65c0,3.74-1.87,5.88-5.48,5.88S496.49,722.32,496.49,718.58Z" transform="translate(-0.27 -46.99)"/><path class="cls-3" d="M509.83,700.74h3.68v20h6v3.34h-9.72Z" transform="translate(-0.27 -46.99)"/><path class="cls-3" d="M524.3,700.74h5l3.81,23.39h-3.67l-.67-4.65v.07h-4.18l-.67,4.58h-3.4Zm4,15.64-1.63-11.56h-.07L525,716.38Z" transform="translate(-0.27 -46.99)"/><path class="cls-3" d="M534.87,700.74h5.61c3.68,0,5.48,2,5.48,5.78v11.83c0,3.74-1.8,5.78-5.48,5.78h-5.61Zm5.54,20c1.17,0,1.88-.6,1.88-2.27V706.35c0-1.67-.71-2.27-1.88-2.27h-1.87v16.71Z" transform="translate(-0.27 -46.99)"/><path class="cls-3" d="M548.44,700.74H554c3.81,0,5.44,1.77,5.44,5.38v.93c0,2.41-.73,3.91-2.37,4.58v.07c2,.67,2.74,2.4,2.74,4.88v2c0,3.61-1.9,5.55-5.58,5.55h-5.78Zm5.11,9.52c1.37,0,2.21-.6,2.21-2.47v-1.3c0-1.67-.57-2.41-1.87-2.41h-1.77v6.18Zm.67,10.53c1.24,0,1.91-.57,1.91-2.31v-2c0-2.17-.71-2.84-2.38-2.84h-1.63v7.19Z" transform="translate(-0.27 -46.99)"/><path class="cls-3" d="M564.79,700.74h5l3.81,23.39H569.9l-.67-4.65v.07h-4.18l-.67,4.58H561Zm4,15.64-1.63-11.56h-.07l-1.6,11.56Z" transform="translate(-0.27 -46.99)"/><path class="cls-3" d="M575.05,718.71V706.15c0-3.61,1.87-5.74,5.41-5.74s5.42,2.13,5.42,5.74v2.47H582.4v-2.7c0-1.54-.73-2.17-1.84-2.17s-1.83.63-1.83,2.17V719c0,1.54.73,2.14,1.83,2.14s1.84-.6,1.84-2.14v-3.57h3.48v3.3c0,3.61-1.87,5.75-5.42,5.75S575.05,722.32,575.05,718.71Z" transform="translate(-0.27 -46.99)"/><path class="cls-3" d="M588.09,700.74h3.67v9.52h4v-9.52h3.67v23.39h-3.67V713.6h-4v10.53h-3.67Z" transform="translate(-0.27 -46.99)"/><path class="cls-4" d="M189.51,983.43c3.22-5.41,14-24,14-31a14.85,14.85,0,1,0-29.7,0c0,7,10.73,25.55,14,31-3.69.14-6.55,1.08-6.55,2.22s3.34,2.24,7.45,2.24,7.45-1,7.45-2.24S193.2,983.57,189.51,983.43Zm-11.34-31a10.45,10.45,0,1,1,10.44,10.45A10.43,10.43,0,0,1,178.17,952.43Z" transform="translate(-0.27 -46.99)"/><path class="cls-4" d="M817.65,581.84c3.22-5.42,14-24,14-31a14.85,14.85,0,0,0-29.69,0c0,7,10.72,25.55,13.94,31-3.69.13-6.55,1.07-6.55,2.22s3.34,2.24,7.45,2.24,7.45-1,7.45-2.24S821.34,582,817.65,581.84Zm-11.34-31a10.45,10.45,0,1,1,10.44,10.44A10.44,10.44,0,0,1,806.31,550.84Z" transform="translate(-0.27 -46.99)"/><path class="cls-4" d="M1191.38,671c3.22-5.41,13.95-24,13.95-31a14.85,14.85,0,0,0-29.7,0c0,7,10.73,25.55,13.95,31-3.69.14-6.55,1.08-6.55,2.23s3.33,2.23,7.45,2.23,7.45-1,7.45-2.23S1195.07,671.13,1191.38,671ZM1180,640a10.45,10.45,0,1,1,10.44,10.45A10.43,10.43,0,0,1,1180,640Z" transform="translate(-0.27 -46.99)"/><path class="cls-4" d="M1464.27,972.1c3.22-5.41,14-24,14-31a14.85,14.85,0,0,0-29.7,0c0,7,10.73,25.55,14,31-3.69.13-6.55,1.08-6.55,2.22s3.33,2.24,7.45,2.24,7.45-1,7.45-2.24S1468,972.23,1464.27,972.1Zm-11.35-31a10.45,10.45,0,1,1,10.45,10.45A10.45,10.45,0,0,1,1452.92,941.1Z" transform="translate(-0.27 -46.99)"/><path class="cls-4" d="M1650.62,467.2c3.22-5.41,14-24,14-31a14.85,14.85,0,1,0-29.69,0c0,7,10.72,25.55,13.94,31-3.69.14-6.55,1.08-6.55,2.22s3.34,2.24,7.45,2.24,7.46-1,7.46-2.24S1654.31,467.34,1650.62,467.2Zm-11.34-31a10.45,10.45,0,1,1,10.44,10.45A10.43,10.43,0,0,1,1639.28,436.2Z" transform="translate(-0.27 -46.99)"/><path class="cls-4" d="M375.07,765.07c3.21-5.41,13.94-24,13.94-31a14.85,14.85,0,1,0-29.69,0c0,7,10.73,25.55,13.94,31-3.69.13-6.55,1.08-6.55,2.22s3.34,2.24,7.46,2.24,7.45-1,7.45-2.24S378.76,765.2,375.07,765.07Zm-11.35-31a10.45,10.45,0,1,1,10.45,10.44A10.45,10.45,0,0,1,363.72,734.07Z" transform="translate(-0.27 -46.99)"/><path class="cls-3" d="M820.17,687c.23,5.11.47,10.23.69,15.34.2,4.33.38,8.66.57,13q.35,7.88.7,15.77l.54,12.4q.33,7.31.65,14.61.34,8,.7,15.93c.2,4.47.38,8.94.58,13.41q.33,7.56.68,15.13l.57,13.09c.06,1.3.1,2.6.18,3.89a.52.52,0,0,1-.38.62,33.2,33.2,0,0,1-4.78,1.52c-1,.12-2,.31-3,.38s-2,0-3,0a21.81,21.81,0,0,1-6.14-1.65c-.83-.37-.84-.36-.82-1.27a2.35,2.35,0,0,0,0-.26q.24-6.36.47-12.72.41-11.55.83-23.09.36-10.27.74-20.56.45-12.33.9-24.66c.24-6.36.44-12.73.67-19.09s.47-12.48.7-18.72c.16-4.33.3-8.66.46-13a1.73,1.73,0,0,0-.22-.89" transform="translate(-0.27 -46.99)"/><path class="cls-3" d="M812.38,686.18Q808,678,803.63,669.85l-.22-.35q-2.46-4.63-4.93-9.25c-.12-.24-.24-.47-.37-.7-.41-.76-.4-.75.38-1.17a29.39,29.39,0,0,1,3.51-1.5c.18-.25.48-.27.74-.35a38.23,38.23,0,0,1,6.86-1.29,58,58,0,0,1,7.45-.32,63.13,63.13,0,0,1,13.69,1.66,1,1,0,0,1,.65.3,21.65,21.65,0,0,1,2.2.84,5.64,5.64,0,0,1,.67.4.61.61,0,0,1,.19.9l-14.11,27.26a1.48,1.48,0,0,0-.17.75" transform="translate(-0.27 -46.99)"/><path class="cls-3" d="M823.21,640.25a27.71,27.71,0,0,1,4.82,1.89c.62.19.73.67.75,1.24a5.35,5.35,0,0,1-.95,3.36c-.13.19-.26.33-.5.24a1.18,1.18,0,0,1-.72-.06,39.18,39.18,0,0,0-6.29-.87c-1.19-.08-2.37-.09-3.56-.08a65.43,65.43,0,0,0-10.91,1c-1.13.2-1.26.18-1.81-.83a2.91,2.91,0,0,1-.59-2c-.05-1.6-.05-1.61,1.46-2.24a36,36,0,0,1,8.07-2.39c.29-.05.36-.17.38-.44.12-2.35.25-4.69.38-7,.19-3.43.33-6.87.57-10.3a21.62,21.62,0,0,1,.85-3.51,4.75,4.75,0,0,0,.16-1.14q0-9.95-.09-19.89a.89.89,0,0,1,.51-.89c.35-.18.63,0,.91.2s.21.43.21.66c.06,3.71.11,7.41.17,11.11,0,3,.1,6,.14,8.94a9,9,0,0,0,.48,2.31,27.26,27.26,0,0,1,.73,5.46q.35,4.46.68,8.91c.13,1.68.27,3.36.37,5,0,.38.14.53.54.6C821.05,639.79,822.13,640,823.21,640.25Z" transform="translate(-0.27 -46.99)"/><path class="cls-5" d="M802.19,654.75a7.44,7.44,0,0,1-2.27-4,.72.72,0,0,1,.57-1c.61-.19,1.19-.47,1.79-.71.14-.24.39-.28.62-.35a46.53,46.53,0,0,1,9.7-2.05,49.53,49.53,0,0,1,6.78-.16,35.31,35.31,0,0,1,7.22,1,1.09,1.09,0,0,1,.61.27,39.53,39.53,0,0,1,4.83,1.7l.61.29c.75.35.81.48.61,1.3a7.48,7.48,0,0,1-1.93,3.26c-.12.12-.23.25-.35.38a1.29,1.29,0,0,1-1.58.78,74.42,74.42,0,0,0-7.86-1.15,65.87,65.87,0,0,0-7.82-.29,35,35,0,0,0-9.65,1.42A1.62,1.62,0,0,1,802.19,654.75Z" transform="translate(-0.27 -46.99)"/><path class="cls-3" d="M1558.63,873a15.34,15.34,0,0,0-30.6,0h-19.1v3h-4.71v-9.82H1497v110h7.22v-2h4.71v2h68.8V873Zm-49.7,4.67v4h-4.71v-4Zm-4.71,83.48v-4h4.71v4Zm4.71,1.68v4h-4.71v-4Zm-4.71-7.36v-4h4.71v4Zm0-5.68v-4h4.71v4Zm0-5.68v-4h4.71v4Zm0-5.67v-4h4.71v4Zm0-5.68v-4h4.71v4Zm0-5.68v-4h4.71v4Zm0-5.68v-4h4.71v4Zm0-5.67v-4h4.71v4Zm0-5.68v-4h4.71v4Zm0-5.68v-4h4.71v4Zm0-5.68v-4h4.71v4Zm0-5.67v-4h4.71v4Zm0-5.68v-4h4.71v4Zm0,85.16v-4h4.71v4Z" transform="translate(-0.27 -46.99)"/><path class="cls-3" d="M1587.18,389.65c-.24-1.33-.48-11.89-.12-12.26s9.23-1.33,9.23-1.33l1.33-7V367.2h-52.35V369l1.33,7s8.86,1,9.23,1.33.12,10.93-.13,12.26-33.49,71.85-33.49,71.85h7l21-43.61H1567v43.85h9V417.89h16.76l21,43.61h7S1587.43,391,1587.18,389.65Zm2.21-19.29a26.7,26.7,0,0,0,5.71-.85l-.73,4.37h-7.65S1585.63,370.6,1589.39,370.36Zm-30.11,1.83c.15-1.33,1.74-1.57,1.74-1.57h20.58s1.59.24,1.74,1.57a4.15,4.15,0,0,1,0,1.68h-24.06A4.12,4.12,0,0,1,1559.28,372.19Zm-3.31,1.69h-7.65l-.72-4.37a26.67,26.67,0,0,0,5.7.85C1557.06,370.6,1556,373.88,1556,373.88Zm11.2,37.12h-13.75l5.56-11a3.49,3.49,0,0,1,3-1.82c2.14-.09,5.24,0,5.24,0Zm3.28-24.4c-3.15,0-8.63,0-9.34,0a1.4,1.4,0,0,1-1.27-1s-.06-5,0-6.61a1.59,1.59,0,0,1,1.68-1.56h19.58a1.59,1.59,0,0,1,1.68,1.56c.06,1.63,0,6.61,0,6.61a1.39,1.39,0,0,1-1.27,1C1580.64,386.62,1572.51,386.6,1570.45,386.6Zm5,24.4V398.21s3.1-.14,5.24,0a3.49,3.49,0,0,1,2.95,1.82l5.56,11Z" transform="translate(-0.27 -46.99)"/><path class="cls-5" d="M1558.22,379.38a7.71,7.71,0,1,0,7.71,7.71A7.72,7.72,0,0,0,1558.22,379.38Zm.85,1.77a6,6,0,0,1,2.76,1.14l-2.76,2.76Zm-1.69,3.9-2.76-2.76a6,6,0,0,1,2.76-1.14Zm-1.19,1.19h-3.9a6,6,0,0,1,1.14-2.76Zm0,1.69-2.76,2.76a6,6,0,0,1-1.14-2.76Zm1.19,1.19V393a6,6,0,0,1-2.76-1.14Zm1.69,0,2.76,2.76a6,6,0,0,1-2.76,1.14Zm1.19-1.19h3.9a6,6,0,0,1-1.14,2.76Zm0-1.69,2.76-2.76a6,6,0,0,1,1.14,2.76Z" transform="translate(-0.27 -46.99)"/><path class="cls-5" d="M1592.6,386.83a7.71,7.71,0,1,0-7.71,7.71A7.71,7.71,0,0,0,1592.6,386.83Zm-5.67.84h3.9a5.93,5.93,0,0,1-1.14,2.77Zm1.57,4a6.15,6.15,0,0,1-2.76,1.14v-3.9Zm-1.57-5.64,2.76-2.76a5.85,5.85,0,0,1,1.14,2.76Zm-1.19-1.19v-3.9a5.93,5.93,0,0,1,2.76,1.14Zm-1.69,0-2.76-2.76a5.85,5.85,0,0,1,2.76-1.14Zm-1.19,1.19H1579a5.85,5.85,0,0,1,1.14-2.76Zm0,1.68-2.76,2.77a5.93,5.93,0,0,1-1.14-2.77Zm1.19,1.2v3.9a6.06,6.06,0,0,1-2.76-1.14Z" transform="translate(-0.27 -46.99)"/><path class="cls-5" d="M1548.27,404.13a10.27,10.27,0,1,0,10.28,10.27A10.28,10.28,0,0,0,1548.27,404.13Zm.85,1.77a8.43,8.43,0,0,1,4.57,1.89l-4.57,4.57Zm-1.69,6.46-4.57-4.57a8.43,8.43,0,0,1,4.57-1.89Zm-1.19,1.2h-6.47a8.53,8.53,0,0,1,1.89-4.58Zm0,1.68-4.58,4.58a8.57,8.57,0,0,1-1.89-4.58Zm1.19,1.19v6.47a8.43,8.43,0,0,1-4.57-1.89Zm1.69,0,4.57,4.58a8.5,8.5,0,0,1-4.57,1.89Zm1.19-1.19h6.47a8.5,8.5,0,0,1-1.9,4.58Zm0-1.68,4.57-4.58a8.5,8.5,0,0,1,1.9,4.58Z" transform="translate(-0.27 -46.99)"/><path class="cls-5" d="M1593.47,404.13a10.27,10.27,0,1,0,10.27,10.27A10.28,10.28,0,0,0,1593.47,404.13Zm.84,1.77a8.43,8.43,0,0,1,4.57,1.89l-4.57,4.57Zm-1.69,6.47-4.57-4.58a8.43,8.43,0,0,1,4.57-1.89Zm-1.19,1.19H1585a8.5,8.5,0,0,1,1.9-4.58Zm0,1.68-4.57,4.58a8.5,8.5,0,0,1-1.9-4.58Zm1.19,1.19v6.47a8.5,8.5,0,0,1-4.57-1.89Zm1.69,0,4.57,4.58a8.5,8.5,0,0,1-4.57,1.89Zm1.19-1.19H1602a8.57,8.57,0,0,1-1.89,4.58Zm0-1.68,4.58-4.58a8.57,8.57,0,0,1,1.89,4.58Z" transform="translate(-0.27 -46.99)"/><rect class="cls-3" x="1548.07" y="384.1" width="45.43" height="30.87"/><path class="cls-6" d="M1281.21,609.25a10.55,10.55,0,0,0,4-8.07,10.6,10.6,0,0,0,.46-14.89,6.63,6.63,0,0,0,3.07-5.6,6.48,6.48,0,0,0-13-.3,5.14,5.14,0,0,0-4.34-2.41,5.25,5.25,0,0,0-5.14,5.81,8.63,8.63,0,0,0-5.24-1.78,9,9,0,0,0-8.4,11.62c-.32,0-.65,0-1,0a10.47,10.47,0,0,0-9,15.59c17.6.28,32,.32,38.39.32A2.34,2.34,0,0,1,1281.21,609.25Z" transform="translate(-0.27 -46.99)"/><path class="cls-6" d="M1300,580.61a5.6,5.6,0,1,0-5.5-5.6A5.56,5.56,0,0,0,1300,580.61Z" transform="translate(-0.27 -46.99)"/><path class="cls-6" d="M1320.73,626.06a7,7,0,0,0,3.25-5.57,6.6,6.6,0,0,0,.38-10.27,4.46,4.46,0,0,0,2.46-3.86c0-2.51-2.34-4.55-5.22-4.55s-5.09,1.93-5.21,4.35a4.34,4.34,0,0,0-3.5-1.67,3.92,3.92,0,0,0-4.16,3.63c0,.13,0,.25,0,.38a7.7,7.7,0,0,0-4.22-1.23c-3.91,0-7.08,2.77-7.08,6.18a5.39,5.39,0,0,0,.32,1.84c-.26,0-.52,0-.79,0-4.6,0-8.32,3.25-8.32,7.26a6.75,6.75,0,0,0,2.23,4.91c12.85.17,23.48.21,29,.21A6.68,6.68,0,0,0,1320.73,626.06Z" transform="translate(-0.27 -46.99)"/><path class="cls-6" d="M1336.32,600h0a4.76,4.76,0,1,0,3.58,2,3.23,3.23,0,0,1-.33.06A3.65,3.65,0,0,1,1336.32,600Z" transform="translate(-0.27 -46.99)"/><path class="cls-6" d="M1343.27,598.28a3.7,3.7,0,1,0-7.39,0,3.81,3.81,0,0,0,.44,1.71,4.33,4.33,0,0,1,3.58,2A3.73,3.73,0,0,0,1343.27,598.28Z" transform="translate(-0.27 -46.99)"/><path class="cls-6" d="M1336.32,600a3.65,3.65,0,0,0,3.25,2.08,3.23,3.23,0,0,0,.33-.06A4.33,4.33,0,0,0,1336.32,600Z" transform="translate(-0.27 -46.99)"/><path class="cls-3" d="M1289.08,680c-.66-4.47-1.57-12-2.4-23.32s-1.57-26.91-1.88-47.23h-3.68c-6.44,0-20.79,0-38.39-.32l-2.44,0c-1.29,64.75-7.29,76.32-7.29,76.32h57S1289.64,683.81,1289.08,680Z" transform="translate(-0.27 -46.99)"/><path class="cls-3" d="M1324.09,627.63h-4.17c-5.55,0-16.18,0-29-.21l-2.65,0c-.29,12.4-.87,22-1.56,29.33.83,11.36,1.74,18.85,2.4,23.32h39.22S1324.78,667.25,1324.09,627.63Z" transform="translate(-0.27 -46.99)"/><path class="cls-3" d="M281.26,880.36l-2.61-16.48-2.77-17.48-1,7-1-6.08L272.15,836l-.56,4.11-5.66-37.82a2.54,2.54,0,0,0,.14-4.36,1.44,1.44,0,0,0,.07-.36,1.39,1.39,0,0,0-1.12-1.36l-.34-2.26-.42,2.3a1.39,1.39,0,0,0-.95,1.32,1.21,1.21,0,0,0,.07.33,2.51,2.51,0,0,0-.2,4.23l-10.1,55-4.27-14.39v0l0-.06v.11l-4.27,14.39-10.09-55a2.53,2.53,0,0,0-.12-4.21,1.44,1.44,0,0,0,.07-.36,1.39,1.39,0,0,0-1-1.34l-.42-2.28-.34,2.28a1.39,1.39,0,0,0-1,1.34,1.8,1.8,0,0,0,.06.32,2.54,2.54,0,0,0,.06,4.39l-6,40-1-6.26-1.56,11.38-.74,5.38-1-6.37L219,863.93l-2.26,16.43h-7.83v58.39h80.85V880.36Z" transform="translate(-0.27 -46.99)"/><path class="cls-5" d="M236.76,858.3a3.08,3.08,0,0,0,.06-.61V846.22a3.17,3.17,0,1,0-6.34,0v11.47a3.08,3.08,0,0,0,.06.61Z" transform="translate(-0.27 -46.99)"/><path class="cls-5" d="M236.76,881.15a3.18,3.18,0,0,0,.06-.62V869.06a3.17,3.17,0,1,0-6.34,0v11.47a3.18,3.18,0,0,0,.06.62Z" transform="translate(-0.27 -46.99)"/><path class="cls-5" d="M267.87,858.3a3.08,3.08,0,0,0,.06-.61V846.22a3.17,3.17,0,1,0-6.34,0v11.47a3.08,3.08,0,0,0,.06.61Z" transform="translate(-0.27 -46.99)"/><path class="cls-5" d="M267.87,881.15a3.18,3.18,0,0,0,.06-.62V869.06a3.17,3.17,0,0,0-6.34,0v11.47a3.18,3.18,0,0,0,.06.62Z" transform="translate(-0.27 -46.99)"/><path class="cls-5" d="M222,902.81a3.11,3.11,0,0,0,.06-.62V890.72a3.17,3.17,0,0,0-6.34,0v11.47a3.11,3.11,0,0,0,.06.62Z" transform="translate(-0.27 -46.99)"/><path class="cls-5" d="M231.64,902.81a3.1,3.1,0,0,0,.07-.62V890.72a3.18,3.18,0,0,0-6.35,0v11.47a3.11,3.11,0,0,0,.06.62Z" transform="translate(-0.27 -46.99)"/><path class="cls-5" d="M272.73,902.81a3.11,3.11,0,0,0,.06-.62V890.72a3.17,3.17,0,0,0-6.34,0v11.47a3.11,3.11,0,0,0,.06.62Z" transform="translate(-0.27 -46.99)"/><path class="cls-5" d="M282.37,902.81a3.11,3.11,0,0,0,.06-.62V890.72a3.17,3.17,0,0,0-6.34,0v11.47a3.11,3.11,0,0,0,.06.62Z" transform="translate(-0.27 -46.99)"/><path class="cls-5" d="M248.24,935.52a7.5,7.5,0,0,0,.07-1v-18c0-2.75-1.42-5-3.18-5s-3.17,2.23-3.17,5v18a7.54,7.54,0,0,0,.06,1Z" transform="translate(-0.27 -46.99)"/><path class="cls-5" d="M257.89,935.52a7.54,7.54,0,0,0,.06-1v-18c0-2.75-1.42-5-3.17-5s-3.18,2.23-3.18,5v18a7.5,7.5,0,0,0,.07,1Z" transform="translate(-0.27 -46.99)"/><path class="cls-5" d="M254.84,902.81a1.84,1.84,0,0,0,.11-.62V890.72c0-1.75-2.45-3.17-5.46-3.17S244,889,244,890.72v11.47a2.12,2.12,0,0,0,.1.62Z" transform="translate(-0.27 -46.99)"/><path class="cls-5" d="M252,881.15a2.63,2.63,0,0,0,.05-.49v-9a2.48,2.48,0,1,0-5,0v9a2.63,2.63,0,0,0,.05.49Z" transform="translate(-0.27 -46.99)"/><path class="cls-5" d="M222.22,928.35a3.18,3.18,0,0,0,.06-.62V916.26a3.17,3.17,0,1,0-6.34,0v11.47a3.18,3.18,0,0,0,.06.62Z" transform="translate(-0.27 -46.99)"/><path class="cls-5" d="M231.86,928.35a3.18,3.18,0,0,0,.06-.62V916.26a3.17,3.17,0,0,0-6.34,0v11.47a3.18,3.18,0,0,0,.06.62Z" transform="translate(-0.27 -46.99)"/><path class="cls-5" d="M273,928.35a3.18,3.18,0,0,0,.06-.62V916.26a3.18,3.18,0,0,0-6.35,0v11.47a3.18,3.18,0,0,0,.07.62Z" transform="translate(-0.27 -46.99)"/><path class="cls-5" d="M282.59,928.35a3.18,3.18,0,0,0,.06-.62V916.26a3.17,3.17,0,1,0-6.34,0v11.47a3.18,3.18,0,0,0,.06.62Z" transform="translate(-0.27 -46.99)"/><rect class="cls-3" x="439.86" y="705.23" width="13" height="3.25"/><rect class="cls-3" x="491.85" y="705.23" width="13" height="3.25"/><rect class="cls-3" x="517.85" y="705.23" width="13" height="3.25"/><rect class="cls-3" x="465.86" y="705.23" width="13" height="3.25"/><rect class="cls-3" x="543.85" y="705.23" width="13" height="3.25"/><rect class="cls-3" x="408.36" y="705.71" width="30.33" height="1.69"/><rect class="cls-3" x="408.36" y="702.34" width="30.33" height="1.69"/><rect class="cls-3" x="408.36" y="712.45" width="30.33" height="1.69"/><rect class="cls-3" x="408.36" y="695.6" width="30.33" height="1.69"/><rect class="cls-3" x="408.36" y="715.82" width="30.33" height="1.69"/><rect class="cls-3" x="408.36" y="698.97" width="30.33" height="1.69"/><rect class="cls-3" x="408.36" y="709.08" width="30.33" height="1.69"/><rect class="cls-3" x="558.45" y="709.08" width="30.33" height="1.69"/><rect class="cls-3" x="558.45" y="698.97" width="30.33" height="1.69"/><rect class="cls-3" x="558.45" y="695.6" width="30.33" height="1.69"/><rect class="cls-3" x="558.45" y="705.71" width="30.33" height="1.69"/><rect class="cls-3" x="558.45" y="715.82" width="30.33" height="1.69"/><rect class="cls-3" x="558.45" y="702.34" width="30.33" height="1.69"/><rect class="cls-3" x="558.45" y="712.45" width="30.33" height="1.69"/><polygon class="cls-3" points="399.89 690.54 399.89 693.91 408.36 693.91 438.69 693.91 558.45 693.91 588.78 693.91 599.47 693.91 599.47 690.54 399.89 690.54"/><rect class="cls-3" x="399.89" y="718.38" width="199.58" height="3.37"/><polygon class="cls-7" points="743.11 1011.1 741.14 1011.1 637.47 1011.1 632.71 1011.1 636.08 1007.74 661.01 982.8 635.78 957.57 632.41 954.2 637.17 954.2 741.14 954.2 743.11 954.2 743.11 956.17 743.11 1009.13 743.11 1011.1 743.11 1011.1"/><polygon class="cls-1" points="707.06 988.49 743.59 988.49 743.59 1012.81 707.06 988.49"/><polygon class="cls-1" points="994.1 988.49 957.58 988.49 957.58 1012.81 994.1 988.49"/><polygon class="cls-3" points="995.14 958.03 1067.05 957.97 1038.45 986.57 1066.75 1014.87 958.13 1013.83 995.14 988.97 995.14 958.03"/><rect class="cls-3" x="706.22" y="930.93" width="289.02" height="56.9"/><path class="cls-1" d="M733,985.08h6v33h10v5.5H733Z" transform="translate(-0.27 -46.99)"/><path class="cls-1" d="M751.29,1014.44V994.21c0-6.16,3.24-9.68,9.18-9.68s9.18,3.52,9.18,9.68v20.23c0,6.16-3.24,9.68-9.18,9.68S751.29,1020.6,751.29,1014.44Zm12.31.39v-21c0-2.74-1.21-3.79-3.13-3.79s-3.13,1.05-3.13,3.79v21c0,2.75,1.21,3.79,3.13,3.79S763.6,1017.58,763.6,1014.83Z" transform="translate(-0.27 -46.99)"/><path class="cls-1" d="M773.33,1014.66V994c0-5.94,3.08-9.46,8.91-9.46s8.91,3.52,8.91,9.46v4.07h-5.72v-4.45c0-2.53-1.21-3.58-3-3.58s-3,1.05-3,3.58v21.49c0,2.53,1.21,3.52,3,3.52s3-1,3-3.52v-5.88h5.72v5.44c0,5.94-3.08,9.46-8.91,9.46S773.33,1020.6,773.33,1014.66Z" transform="translate(-0.27 -46.99)"/><path class="cls-1" d="M799.45,985.08h8.19l6.27,38.49h-6l-1.1-7.64v.11h-6.87l-1.1,7.53h-5.61Zm6.59,25.73-2.69-19h-.11l-2.64,19Z" transform="translate(-0.27 -46.99)"/><path class="cls-1" d="M819,990.58h-6.33v-5.5h18.7v5.5h-6.33v33h-6Z" transform="translate(-0.27 -46.99)"/><path class="cls-1" d="M834.3,985.08h6.05v38.49H834.3Z" transform="translate(-0.27 -46.99)"/><path class="cls-1" d="M844.41,1014.44V994.21c0-6.16,3.25-9.68,9.19-9.68s9.18,3.52,9.18,9.68v20.23c0,6.16-3.25,9.68-9.18,9.68S844.41,1020.6,844.41,1014.44Zm12.32.39v-21c0-2.74-1.21-3.79-3.13-3.79s-3.14,1.05-3.14,3.79v21c0,2.75,1.21,3.79,3.14,3.79S856.73,1017.58,856.73,1014.83Z" transform="translate(-0.27 -46.99)"/><path class="cls-1" d="M866.84,985.08h7.59l5.88,23h.11v-23h5.39v38.49H879.6l-7.26-28.1h-.11v28.1h-5.39Z" transform="translate(-0.27 -46.99)"/><path class="cls-1" d="M899.11,985.08h8.63l3.85,27.55h.11l3.85-27.55h8.63v38.49h-5.72V994.43h-.11l-4.4,29.14H908.9l-4.4-29.14h-.11v29.14h-5.28Z" transform="translate(-0.27 -46.99)"/><path class="cls-1" d="M933.36,985.08h8.19l6.27,38.49h-6.05l-1.1-7.64v.11H933.8l-1.1,7.53h-5.61Zm6.6,25.73-2.7-19h-.11l-2.63,19Z" transform="translate(-0.27 -46.99)"/><path class="cls-1" d="M950.73,985.08h8.91c6,0,9,3.36,9,9.51v3.8c0,6.15-3,9.51-9,9.51h-2.86v15.67h-6Zm8.91,17.32c1.92,0,3-.88,3-3.63v-4.56c0-2.75-1.05-3.63-3-3.63h-2.86v11.82Z" transform="translate(-0.27 -46.99)"/><path class="cls-3" d="M287.72,610.58c1.08,1.29-1.88,9.25-1.88,9.25l14.17-.09c4.44-11.19,13.4-19.62,13.4-19.62s102.4,0,114,8.94c9.68,7.43,26,15.33,38.77,20.82h-1.32l.17,28.1H450v2.65c2.07,0,34.64,0,58.12-.13,12.3-.07,22.1-.19,23.72-.38a9,9,0,0,0,7.28-5l-2.43-1a6.43,6.43,0,0,1-5.16,3.41c-1.2.14-7.55.24-16.48.32l-.11-17.73h-2.64l.11,17.74c-12.75.09-29.79.14-44.7.15l-.17-27.54c6.53,2.77,12,4.86,14.89,5.85,8.65,2.94,42.88,3.72,42.88,3.72s34.15-1.26,29.79-18.12c-4.6-17.81-42.1-38.61-47.77-41.57s-18.61-1.22-23.94-3.51-3-7.62-3-7.62l-16.95-1.89c-15.88,16.72-47,19.73-47,19.73s-99.38,3.19-102.6,2.13-11.31-23.54-14.35-28.46-15-3.34-15-3.34,3.5,12,3.53,15.65-13.29,3.3-13,18.32S286.64,609.3,287.72,610.58Zm-9.33-17.52A14,14,0,1,1,292.45,607,14,14,0,0,1,278.39,593.06Z" transform="translate(-0.27 -46.99)"/><path class="cls-5" d="M555.48,625c0-1.42-21.34-.66-22.09.14s-1.52,4.77,6.07,12.76C545.58,637.07,555.52,631.72,555.48,625Z" transform="translate(-0.27 -46.99)"/><path class="cls-5" d="M554.25,619.43s-22.12.63-24.73.15S502.93,579,502.93,579l2.79.66S526.25,590,536.5,599.28C551.58,611.25,554.25,619.43,554.25,619.43Z" transform="translate(-0.27 -46.99)"/><path class="cls-5" d="M491.78,584.28c2-.09,6-.16,8.45,0s17.55,25.48,19.06,28,0,5-3.83,4.74-17.9-2.49-19.52-3.35a13.94,13.94,0,0,1-6-9.53c-.77-5.22-1.83-15.52-1.59-16.27S489.92,584.36,491.78,584.28Z" transform="translate(-0.27 -46.99)"/><path class="cls-3" d="M342.88,554.2l30.88-.28c20.58-.18,41.16-.16,61.75-.13q16.69.08,33.41.19a1.46,1.46,0,0,1,1.45-1.35h1.51a1.46,1.46,0,0,1,1.47,1.4q12,.09,23.9.26l30.87.46c10.29.24,20.58.4,30.87.73-10.29.27-20.58.37-30.87.56l-30.87.28q-11.94.11-23.88.12l.07,11.39a1.46,1.46,0,0,1-1.46,1.47h-1.51a1.47,1.47,0,0,1-1.48-1.46l-.07-11.4q-16.71,0-33.42,0c-20.58-.09-41.17-.18-61.75-.48l-30.87-.46c-10.29-.25-20.58-.41-30.87-.74C322.3,554.49,332.59,554.39,342.88,554.2Z" transform="translate(-0.27 -46.99)"/><path class="cls-5" d="M278.39,593.06A14,14,0,1,0,292.28,579,14,14,0,0,0,278.39,593.06Zm5-9.59a13,13,0,0,1,8.47-3.57l0,9.29A3.81,3.81,0,0,0,290,590Zm9.35-3.58a13,13,0,0,1,8.51,3.47L294.71,590a3.72,3.72,0,0,0-1.92-.78Zm9.14,4.09a13,13,0,0,1,3.57,8.47l-9.3.06a3.71,3.71,0,0,0-.8-1.92Zm3.58,9.35a13,13,0,0,1-3.47,8.51l-6.61-6.53a3.81,3.81,0,0,0,.78-1.92Zm-4.09,9.14a13,13,0,0,1-8.47,3.57l-.06-9.3a3.71,3.71,0,0,0,1.92-.8ZM292,606.05a13,13,0,0,1-8.51-3.47L290,596a3.81,3.81,0,0,0,1.92.78ZM282.87,602a13,13,0,0,1-3.57-8.47l9.29-.06a3.81,3.81,0,0,0,.81,1.92Zm-3.58-9.35a13,13,0,0,1,3.47-8.51l6.61,6.53a3.72,3.72,0,0,0-.78,1.92Z" transform="translate(-0.27 -46.99)"/><text class="cls-8" transform="translate(1533.12 37.05)">K<tspan class="cls-9" x="17.74" y="0">on</tspan><tspan class="cls-10" x="53.62" y="0">t</tspan><tspan class="cls-9" x="67.48" y="0">akt</tspan></text><path class="cls-3" d="M1538.64,113.54c.44.54-.81,3.85-.81,3.85h5.91a25.84,25.84,0,0,1,5.64-8.14s42.68.27,47.5,4c4,3.12,10.81,6.45,16.11,8.77h-.55v11.72l-6.28,0v1.11c.86,0,14.44.09,24.22.09,5.13,0,9.22,0,9.89-.1a3.76,3.76,0,0,0,3-2.06l-1-.44a2.65,2.65,0,0,1-2.16,1.4c-.5.06-3.15.09-6.87.1v-7.4h-1.1v7.4c-5.32,0-12.42,0-18.64,0V122.28c2.72,1.18,5,2.06,6.19,2.48,3.6,1.25,17.87,1.66,17.87,1.66s14.24-.44,12.47-7.48c-1.88-7.43-17.46-16.2-19.81-17.45s-7.76-.55-10-1.52a2.37,2.37,0,0,1-1.25-3.19L1612,96c-6.66,6.93-19.65,8.11-19.65,8.11s-41.43,1.07-42.78.63-4.65-9.85-5.9-11.91-6.27-1.43-6.27-1.43a44.34,44.34,0,0,1,1.44,6.53c0,1.53-5.55,1.35-5.46,7.61S1538.19,113,1538.64,113.54Zm-3.85-7.33a5.83,5.83,0,1,1,5.83,5.83A5.83,5.83,0,0,1,1534.79,106.21Z" transform="translate(-0.27 -46.99)"/><path class="cls-5" d="M1650.22,120.26c0-.6-8.89-.33-9.21,0s-.64,2,2.5,5.33C1646.06,125.24,1650.22,123,1650.22,120.26Z" transform="translate(-0.27 -46.99)"/><path class="cls-5" d="M1649.72,117.91s-9.22.21-10.31,0-11-17-11-17l1.16.29s8.53,4.34,12.78,8.25C1648.63,114.49,1649.72,117.91,1649.72,117.91Z" transform="translate(-0.27 -46.99)"/><path class="cls-5" d="M1623.77,103.1c.83,0,2.49,0,3.52,0s7.25,10.67,7.87,11.71,0,2.07-1.6,2a52.51,52.51,0,0,1-8.13-1.45,5.77,5.77,0,0,1-2.49-4,62.25,62.25,0,0,1-.62-6.79C1622.42,104.24,1623,103.13,1623.77,103.1Z" transform="translate(-0.27 -46.99)"/><path class="cls-3" d="M1561.78,90.18l12.87,0c8.58,0,17.16,0,25.74.11l13.93.16a.6.6,0,0,1,.6-.56h.63a.61.61,0,0,1,.61.59c3.32,0,6.65.1,10,.17l12.87.27c4.28.13,8.57.22,12.86.38-4.29.09-8.58.1-12.87.16l-12.87,0h-9.95v4.74a.61.61,0,0,1-.62.61h-.63a.61.61,0,0,1-.61-.61V91.44q-7,0-13.93-.09c-8.58-.09-17.16-.18-25.74-.36l-12.87-.27c-4.29-.13-8.58-.22-12.86-.38C1553.2,90.25,1557.49,90.24,1561.78,90.18Z" transform="translate(-0.27 -46.99)"/><path class="cls-5" d="M1534.79,106.21a5.83,5.83,0,1,0,5.83-5.82A5.84,5.84,0,0,0,1534.79,106.21Zm2.11-4a5.46,5.46,0,0,1,3.54-1.47v3.88a1.51,1.51,0,0,0-.8.33Zm3.91-1.47a5.46,5.46,0,0,1,3.53,1.47l-2.73,2.74a1.54,1.54,0,0,0-.8-.33Zm3.79,1.73a5.38,5.38,0,0,1,1.47,3.54h-3.87a1.73,1.73,0,0,0-.33-.8Zm1.47,3.91a5.4,5.4,0,0,1-1.47,3.54l-2.73-2.74a1.73,1.73,0,0,0,.33-.8Zm-1.73,3.8a5.4,5.4,0,0,1-3.53,1.46v-3.87a1.63,1.63,0,0,0,.8-.33Zm-3.9,1.46a5.4,5.4,0,0,1-3.54-1.46l2.74-2.74a1.59,1.59,0,0,0,.8.33Zm-3.8-1.72a5.45,5.45,0,0,1-1.47-3.54h3.88a1.54,1.54,0,0,0,.33.8Zm-1.47-3.91a5.43,5.43,0,0,1,1.47-3.54l2.74,2.74a1.54,1.54,0,0,0-.33.8Z" transform="translate(-0.27 -46.99)"/><path class="cls-3" d="M1273,957.94V949.2a1.74,1.74,0,0,1-2.65,0v8.74l-.9,27.16V989h4.45V985.1Z" transform="translate(-0.27 -46.99)"/><ellipse class="cls-3" cx="1283.78" cy="944.4" rx="12.83" ry="1.42" transform="translate(-220.01 368.81) rotate(-16.97)"/><ellipse class="cls-3" cx="1262.31" cy="939.32" rx="1.42" ry="12.83" transform="translate(-285.97 1174.09) rotate(-46.97)"/><ellipse class="cls-3" cx="1268.57" cy="960.46" rx="12.83" ry="1.42" transform="translate(46.54 1932.82) rotate(-76.97)"/><circle class="cls-4" cx="1271.4" cy="900.78" r="1.74"/><path class="cls-3" d="M1220.84,985.79v-8.74a1.74,1.74,0,0,1-1.32.61,1.76,1.76,0,0,1-1.33-.61v8.74l-.9,27.16v3.88h4.45V1013Z" transform="translate(-0.27 -46.99)"/><ellipse class="cls-3" cx="1232.08" cy="928.7" rx="12.83" ry="1.42"/><ellipse class="cls-3" cx="1213.3" cy="964.56" rx="1.42" ry="12.83" transform="translate(-320 688.88) rotate(-30)"/><ellipse class="cls-3" cx="1213.11" cy="986.61" rx="12.83" ry="1.42" transform="translate(-248.15 1496.89) rotate(-60)"/><circle class="cls-4" cx="1219.25" cy="928.63" r="1.74"/><path class="cls-3" d="M1291.88,969.84v-8.63a1.72,1.72,0,0,1-1.3.6,1.75,1.75,0,0,1-1.31-.6v8.63l-.89,26.82v3.83h4.39v-3.83Z" transform="translate(-0.27 -46.99)"/><ellipse class="cls-3" cx="1281.31" cy="967.95" rx="12.67" ry="1.4" transform="translate(-320.14 1043.01) rotate(-41.43)"/><ellipse class="cls-3" cx="1288.13" cy="947.26" rx="1.4" ry="12.67" transform="translate(-162.41 227.01) rotate(-11.43)"/><ellipse class="cls-3" cx="1302.68" cy="963.46" rx="1.4" ry="12.67" transform="translate(-25.78 1844.46) rotate(-71.43)"/><circle class="cls-4" cx="1290.31" cy="912.8" r="1.72"/><path class="cls-3" d="M1073,591.44V582.7a1.76,1.76,0,0,1-1.33.61,1.74,1.74,0,0,1-1.32-.61v8.74l-.9,27.16v3.88h4.45V618.6Z" transform="translate(-0.27 -46.99)"/><ellipse class="cls-3" cx="1083.74" cy="577.9" rx="12.83" ry="1.42" transform="translate(-121.75 294.47) rotate(-16.97)"/><ellipse class="cls-3" cx="1062.27" cy="572.82" rx="1.42" ry="12.83" transform="translate(-81.6 911.45) rotate(-46.97)"/><ellipse class="cls-3" cx="1068.53" cy="593.96" rx="12.83" ry="1.42" transform="translate(248.67 1454.06) rotate(-76.97)"/><circle class="cls-4" cx="1071.36" cy="534.28" r="1.74"/><path class="cls-3" d="M998.39,625.72V617a1.71,1.71,0,0,1-1.32.61,1.73,1.73,0,0,1-1.33-.61v8.74l-.9,27.16v3.88h4.45v-3.88Z" transform="translate(-0.27 -46.99)"/><ellipse class="cls-3" cx="1009.63" cy="568.63" rx="12.83" ry="1.42"/><ellipse class="cls-3" cx="990.85" cy="604.49" rx="1.42" ry="12.83" transform="translate(-169.76 529.42) rotate(-30)"/><ellipse class="cls-3" cx="990.66" cy="626.54" rx="12.83" ry="1.42" transform="translate(-47.54 1124.21) rotate(-60)"/><circle class="cls-4" cx="996.8" cy="568.56" r="1.74"/><path class="cls-3" d="M1040,623.14v-8.63a1.72,1.72,0,0,1-2.61,0v8.63l-.89,26.82v3.83h4.39V650Z" transform="translate(-0.27 -46.99)"/><ellipse class="cls-3" cx="1029.41" cy="621.25" rx="12.67" ry="1.4" transform="translate(-153.76 789.59) rotate(-41.43)"/><ellipse class="cls-3" cx="1036.24" cy="600.57" rx="1.4" ry="12.67" transform="translate(-98.72 170.23) rotate(-11.43)"/><ellipse class="cls-3" cx="1050.79" cy="616.77" rx="1.4" ry="12.67" transform="translate(131.2 1369.41) rotate(-71.43)"/><circle class="cls-4" cx="1038.42" cy="566.1" r="1.72"/><path class="cls-3" d="M101.43,820.08v-8.74a1.74,1.74,0,0,1-1.32.61,1.76,1.76,0,0,1-1.33-.61v8.74l-.9,27.15v3.89h4.45v-3.89Z" transform="translate(-0.27 -46.99)"/><ellipse class="cls-3" cx="112.22" cy="806.54" rx="12.83" ry="1.42" transform="translate(-230.78 20.88) rotate(-16.97)"/><ellipse class="cls-3" cx="90.76" cy="801.45" rx="1.42" ry="12.83" transform="translate(-557.29 273.9) rotate(-46.97)"/><ellipse class="cls-3" cx="97.01" cy="822.6" rx="12.83" ry="1.42" transform="translate(-726.55 684.64) rotate(-76.97)"/><circle class="cls-4" cx="99.84" cy="762.91" r="1.74"/><path class="cls-3" d="M49.28,847.93v-8.74a1.74,1.74,0,0,1-1.32.61,1.76,1.76,0,0,1-1.33-.61v8.74l-.9,27.15V879h4.45v-3.88Z" transform="translate(-0.27 -46.99)"/><ellipse class="cls-3" cx="60.52" cy="790.84" rx="12.83" ry="1.42"/><ellipse class="cls-3" cx="41.74" cy="826.7" rx="1.42" ry="12.83" transform="translate(-408.02 84.64) rotate(-30)"/><ellipse class="cls-3" cx="41.55" cy="848.75" rx="12.83" ry="1.42" transform="translate(-714.53 413.36) rotate(-60)"/><circle class="cls-4" cx="47.69" cy="790.76" r="1.74"/><path class="cls-3" d="M120.33,832v-8.63a1.73,1.73,0,0,1-2.62,0V832l-.89,26.82v3.83h4.4v-3.83Z" transform="translate(-0.27 -46.99)"/><ellipse class="cls-3" cx="109.75" cy="830.08" rx="12.67" ry="1.4" transform="translate(-522.05 233.32) rotate(-41.43)"/><ellipse class="cls-3" cx="116.57" cy="809.4" rx="1.4" ry="12.67" transform="translate(-158.32 -7.85) rotate(-11.43)"/><ellipse class="cls-3" cx="131.13" cy="825.6" rx="1.4" ry="12.67" transform="translate(-693.51 639.95) rotate(-71.43)"/><circle class="cls-4" cx="118.75" cy="774.93" r="1.72"/><rect class="cls-3" x="1426.34" y="790.64" width="7.18" height="10.29" transform="translate(-138.96 282.55) rotate(-12.54)"/><rect class="cls-3" x="1438.42" y="787.95" width="7.18" height="10.29" transform="translate(-138.09 285.11) rotate(-12.54)"/><path class="cls-4" d="M1419.15,803.45l4.09,18.37,34.09-7.58-4.09-18.37Zm6.67,5.62a2.27,2.27,0,1,1,1.72-2.71A2.27,2.27,0,0,1,1425.82,809.07Zm7.86-1.75a2.27,2.27,0,1,1,1.72-2.71A2.26,2.26,0,0,1,1433.68,807.32Zm7.86-1.75a2.27,2.27,0,1,1,1.73-2.71A2.27,2.27,0,0,1,1441.54,805.57Zm7.86-1.75a2.27,2.27,0,1,1,1.73-2.71A2.26,2.26,0,0,1,1449.4,803.82Z" transform="translate(-0.27 -46.99)"/><polygon class="cls-3" points="1461.83 759.45 1463.17 775.88 1418.89 785.73 1406.69 768.47 1424.84 764.43 1461.83 759.45"/><rect class="cls-3" x="401.77" y="962.56" width="11.01" height="15.77" transform="translate(911.16 1847.3) rotate(174.15)"/><rect class="cls-3" x="382.9" y="964.5" width="11.01" height="15.77" transform="translate(873.72 1853.08) rotate(174.15)"/><path class="cls-4" d="M373.41,981.85l2.94,28.7,53.26-5.46-2.94-28.7Zm42.46,2.83a3.48,3.48,0,1,1,3.82,3.11A3.47,3.47,0,0,1,415.87,984.68Zm-12.28,1.26a3.48,3.48,0,1,1,3.82,3.11A3.47,3.47,0,0,1,403.59,985.94ZM391.3,987.2a3.49,3.49,0,1,1,3.83,3.11A3.48,3.48,0,0,1,391.3,987.2ZM379,988.46a3.48,3.48,0,1,1,3.82,3.11A3.48,3.48,0,0,1,379,988.46Z" transform="translate(-0.27 -46.99)"/><polygon class="cls-3" points="365.37 954.53 371.38 979.07 440.55 971.98 449.95 940.96 421.6 943.87 365.37 954.53"/><path class="cls-11" d="M567.23,622.48c55.5-6.94,123.92,95.65,208.63,98.81S909,722,918,702.29,772.32,653.4,663.51,747.15C538.83,854.57,232.59,787.41,165.06,855c-22.41,22.44-9.47,57.64,148.62,51.65s397.91-61.85,488.08-61,186.27,49,296.71,49c171,0,439.35-283,509.71-125.91,56.39,125.91-156,178.85-304.61,122.23-113.73-43.33-202.32-134.9-195.85-217.82,7.89-101.12,108.29-141.29,198-142.58s230.06,31,304.91,19.43c60.43-9.31,98-104.86,54.91-166.44C1617,314.18,1400,109.92,1514.22,100.39" transform="translate(-0.27 -46.99)"/></svg>