<svg id="Ebene_1" data-name="Ebene 1" xmlns="http://www.w3.org/2000/svg" viewBox="0 0 360 784.83"><defs><style>.cls-1{fill:#079;}.cls-2{fill:#43afe0;}.cls-3,.cls-7,.cls-8{fill:#fff;}.cls-4{fill:#ef8619;}.cls-5{fill:#e2a558;}.cls-6{fill:#e9f2f0;}.cls-7{fill-rule:evenodd;}.cls-8{font-size:9.23px;font-family:BebasNeueBold, Bebas Neue;}.cls-9{letter-spacing:-0.01em;}.cls-10{letter-spacing:-0.04em;}.cls-11{fill:none;stroke:#ef8619;stroke-miterlimit:10;}</style></defs><path class="cls-1" d="M0,800V627.43c4.7-5.1,26.07-11.61,33.91-15.5,17.32-8.59,36.15-19,42.67-20.94,29.63-8.8,89.42-4,131.3-15.38S312.82,524.15,360,523V800Z" transform="translate(0 -15.17)"/><path class="cls-2" d="M360,544.07h-.06a34.43,34.43,0,0,0-5.46,0,12.77,12.77,0,0,0-7.65,3.89c-2.07,3.36-2.67,4.22-2.62,5.1a14.21,14.21,0,0,0,.84,2.81.73.73,0,0,1-.55.82c-1.93.62-8.22,2.84-7.65,5.13.74,2.93,7.7,5.77,6.45,7.38-2.63,3.39-14.33,2.1-19.92,4.36-5.83,2.36.16,7.13-10,6.39-18.08-1.32-27.42-2-29.88,1.6-2.23,3.28,1.15,5.52,4.2,8.28,2.66,2.41,12.82,11.41,12.63,11.75s-1.82,3.74-1.12,5.41c.79,1.9,6.53,2.78,6.53,2.78s-4.8,3.51-3.36,6.83c2.62,6.09,9.55,5.42,9,7.53-2,8.31-21.56,11.3-30.63,5.84-1-.58,7.82-17.45,7.82-17.45l-16.49-1.14s-.87,2.49-5.53,13.36l-2.92-1.07c-.71-.25-2.08-.89-2.51-1s7.47-10.95,7.47-10.95l-11.39-.57-5.63,8.75c-2.05-.58-3.54-1-3.86-1-.94-.25,3.88-7.6,3.88-7.6l-9.09,1s-2,4.77-3.11,4.53c0,0-2.34-.52-4.56-.95-32.52-6.39-41.5,1.35-41.5,1.35-15.44,7.95,1.05,34.2-12.44,35.12-18.16,1.24-25.6-17.09-48-20.55-24.34-3.76-44.44-1.24-52.38,1.49-13.46,4.63,17.92,7,5.44,8.47-15.7,1.85-11.09,8-6.83,10.45,3.48,2,16.73,15.92,5.64,38C78.69,702.45,31.35,800,31.35,800h127.2s-40.63-98.1-43.1-107.31C104.57,652.09,97,651.63,97,649.15c0-4.25,3.88-1.89,13-4.47,13.58-3.82-20.54-9.62-14.94-10.77,4.79-1,16.28-1.22,21.19-.3,14.28,2.68,24.21,13.62,29.07,17.79,8.3,7.1,16.47,17,35.91,17,4.81,0,13-2.72,15.24-4.6,12.75-10.56-11.17-32.92-1.93-42.63,9.11-7.06,28.9-3.84,28.9-3.84s26.74,5,57.61,21.7,44.19-1.7,41.33-11.37c-1.66-5.58-.24-8.39-12.48-12-.47-.14,6.08-2.72,2.31-8.19-1.77-2.58-6-1.8-8-2.63-1.43-.58,1.61-3-1.78-5.82-6.75-5.72-18.7-13.66-17.8-16.36,0-.06,1.75-1.46,1.81-1.48,4.15-1.35,4.5-1.18,32.09,2.13,9.05,1.08,5.16-5.58,6.54-6.54,1.07-.75,22.85-1.86,25.93-5.64,1.1-1.36-7.41-7.44-6.81-9,1-2.55,8-3.51,6.25-6.57-1.29-2.18-3.41-2.65-2.31-6.63C349.38,543.11,360,544.07,360,544.07Z" transform="translate(0 -15.17)"/><path class="cls-3" d="M46.8,640.42h.94V643l1.2-2.53h.94l-1.12,2.2,1.14,3.8h-1l-.8-2.67-.38.76v1.91H46.8Z" transform="translate(0 -15.17)"/><path class="cls-3" d="M50.14,645v-3.15a1.43,1.43,0,1,1,2.86,0V645a1.43,1.43,0,1,1-2.86,0Zm.35-5.85h.84V640h-.84Zm1.57,5.91v-3.27c0-.43-.19-.59-.49-.59s-.49.16-.49.59v3.27c0,.42.19.59.49.59S52.06,645.48,52.06,645.06Zm-.25-5.91h.84V640h-.84Z" transform="translate(0 -15.17)"/><path class="cls-3" d="M53.64,640.42h.94v5.14h1.55v.86H53.64Z" transform="translate(0 -15.17)"/><path class="cls-3" d="M56.58,640.42h1.19l.91,3.59h0v-3.59h.84v6h-1L57.44,642h0v4.38h-.84Z" transform="translate(0 -15.17)"/><path class="cls-3" d="M157,541.58h1.44a1.29,1.29,0,0,1,1.41,1.48v3a1.29,1.29,0,0,1-1.41,1.48H157Zm1.43,5.13c.29,0,.47-.15.47-.58V543c0-.43-.18-.59-.47-.59H158v4.28Z" transform="translate(0 -15.17)"/><path class="cls-3" d="M160.45,546.15v-4.57h.94v4.64c0,.43.18.58.48.58s.48-.15.48-.58v-4.64h.91v4.57c0,1-.48,1.51-1.41,1.51S160.45,547.11,160.45,546.15Zm.32-5.85h.84v.87h-.84Zm1.32,0h.84v.87h-.84Z" transform="translate(0 -15.17)"/><path class="cls-3" d="M163.76,546.15v-.34h.89v.41c0,.43.19.58.49.58s.49-.15.49-.6-.19-.81-.81-1.35a2.34,2.34,0,0,1-1-1.87,1.31,1.31,0,0,1,1.4-1.49c.92,0,1.37.55,1.37,1.51v.25h-.89v-.31c0-.43-.17-.59-.47-.59s-.47.16-.47.57.2.75.82,1.29a2.35,2.35,0,0,1,1,1.92,1.33,1.33,0,0,1-1.42,1.53C164.23,547.66,163.76,547.11,163.76,546.15Z" transform="translate(0 -15.17)"/><path class="cls-3" d="M167,546.15v-.34h.89v.41c0,.43.19.58.49.58s.49-.15.49-.6-.19-.81-.81-1.35a2.32,2.32,0,0,1-1-1.87,1.31,1.31,0,0,1,1.4-1.49c.92,0,1.37.55,1.37,1.51v.25h-.89v-.31c0-.43-.17-.59-.47-.59s-.47.16-.47.57.2.75.81,1.29a2.33,2.33,0,0,1,1,1.92,1.33,1.33,0,0,1-1.42,1.53C167.41,547.66,167,547.11,167,546.15Z" transform="translate(0 -15.17)"/><path class="cls-3" d="M170.3,541.58h2.57v.85h-1.63V544h1.29v.85h-1.29v1.84h1.63v.86H170.3Z" transform="translate(0 -15.17)"/><path class="cls-3" d="M173.41,541.58h.94v5.13h1.55v.86h-2.49Z" transform="translate(0 -15.17)"/><path class="cls-3" d="M176.36,541.58h1.43c1,0,1.41.52,1.41,1.48v3c0,1-.46,1.48-1.41,1.48h-1.43Zm1.42,5.13c.3,0,.48-.15.48-.58V543c0-.43-.18-.59-.48-.59h-.48v4.28Z" transform="translate(0 -15.17)"/><path class="cls-3" d="M179.76,546.15V543a1.43,1.43,0,1,1,2.86,0v3.15a1.43,1.43,0,1,1-2.86,0Zm1.92.06v-3.27c0-.43-.19-.59-.49-.59s-.48.16-.48.59v3.27c0,.43.18.59.48.59S181.68,546.64,181.68,546.21Z" transform="translate(0 -15.17)"/><path class="cls-3" d="M183.26,541.58h1.4c1,0,1.39.45,1.39,1.38v.36a1.14,1.14,0,0,1-.62,1.19h0c.48.15.63.59.63,1.27v1.05a1.85,1.85,0,0,0,.1.73h-1a1.92,1.92,0,0,1-.08-.74v-1.09c0-.56-.17-.74-.59-.74h-.33v2.57h-.94Zm1.28,2.57c.35,0,.57-.16.57-.64v-.46c0-.43-.15-.62-.48-.62h-.43v1.72Z" transform="translate(0 -15.17)"/><path class="cls-3" d="M186.71,541.58h2.49v.85h-1.55v1.67h1.22V545h-1.22v2.61h-.94Z" transform="translate(0 -15.17)"/><path class="cls-3" d="M302.92,667.55V664.4a1.43,1.43,0,1,1,2.86,0v3.15a1.43,1.43,0,1,1-2.86,0Zm1.92.06v-3.27c0-.43-.19-.59-.49-.59s-.49.16-.49.59v3.27c0,.43.19.59.49.59S304.84,668,304.84,667.61Z" transform="translate(0 -15.17)"/><path class="cls-3" d="M306.41,663h1.42c1,0,1.4.45,1.4,1.38v.24c0,.61-.19,1-.61,1.17v0c.51.17.7.61.7,1.25v.51a1.27,1.27,0,0,1-1.43,1.42h-1.48Zm1.31,2.44c.35,0,.57-.16.57-.64v-.33c0-.43-.15-.62-.48-.62h-.46v1.59Zm.17,2.69c.32,0,.49-.14.49-.59V667c0-.56-.18-.73-.61-.73h-.42v1.84Z" transform="translate(0 -15.17)"/><path class="cls-3" d="M309.87,663h2.57v.85h-1.62v1.59h1.29v.85h-1.29v1.84h1.62V669h-2.57Z" transform="translate(0 -15.17)"/><path class="cls-3" d="M313,663h1.4c1,0,1.39.45,1.39,1.38v.36c0,.62-.19,1-.61,1.19h0c.47.15.62.59.62,1.27v1a1.68,1.68,0,0,0,.11.73h-1a1.84,1.84,0,0,1-.09-.74v-1.09c0-.56-.16-.74-.59-.74h-.33V669H313Zm1.29,2.57c.35,0,.56-.16.56-.64v-.46c0-.43-.14-.62-.48-.62h-.43v1.72Z" transform="translate(0 -15.17)"/><path class="cls-3" d="M316.44,663h.94v2.44h1V663h.94v6h-.94v-2.7h-1V669h-.94Z" transform="translate(0 -15.17)"/><path class="cls-3" d="M320.76,663H322l1,6h-.94l-.17-1.19v0h-1.07l-.17,1.17h-.87Zm1,4-.42-3h0l-.41,3Z" transform="translate(0 -15.17)"/><path class="cls-3" d="M323.42,667.55V663h.94v4.64c0,.43.18.58.48.58s.48-.15.48-.58V663h.91v4.57c0,1-.48,1.51-1.41,1.51S323.42,668.51,323.42,667.55Z" transform="translate(0 -15.17)"/><path class="cls-3" d="M326.73,667.55v-.34h.89v.41c0,.43.19.58.49.58s.49-.15.49-.6-.19-.81-.81-1.35a2.34,2.34,0,0,1-1-1.87,1.31,1.31,0,0,1,1.4-1.49c.92,0,1.37.55,1.37,1.51v.25h-.89v-.31c0-.43-.17-.59-.47-.59s-.47.16-.47.57.2.75.81,1.29a2.33,2.33,0,0,1,1,1.92,1.33,1.33,0,0,1-1.42,1.53C327.19,669.06,326.73,668.51,326.73,667.55Z" transform="translate(0 -15.17)"/><path class="cls-3" d="M330.08,663h2.57v.85H331v1.59h1.3v.85H331v1.84h1.63V669h-2.57Z" transform="translate(0 -15.17)"/><path class="cls-3" d="M333.19,663h1.18l.92,3.58h0V663h.83v6h-1l-1.13-4.37h0V669h-.84Z" transform="translate(0 -15.17)"/><path class="cls-3" d="M244.22,583.48h1.44c.94,0,1.4.53,1.4,1.49v3c0,1-.46,1.48-1.4,1.48h-1.44Zm1.42,5.14c.3,0,.48-.15.48-.58v-3.12c0-.43-.18-.58-.48-.58h-.48v4.28Z" transform="translate(0 -15.17)"/><path class="cls-3" d="M247.67,588.06v-4.58h.94v4.64c0,.43.18.59.48.59s.48-.16.48-.59v-4.64h.9v4.58a1.31,1.31,0,0,1-1.4,1.5C248.14,589.56,247.67,589,247.67,588.06Z" transform="translate(0 -15.17)"/><path class="cls-3" d="M251.14,583.48h.94v6h-.94Z" transform="translate(0 -15.17)"/><path class="cls-3" d="M252.63,588.06v-.35h.89v.41c0,.43.18.59.48.59s.49-.16.49-.6-.19-.82-.8-1.36a2.32,2.32,0,0,1-1.05-1.86,1.31,1.31,0,0,1,1.41-1.49c.91,0,1.37.55,1.37,1.51v.24h-.89v-.3c0-.43-.18-.6-.48-.6s-.47.17-.47.58.2.75.82,1.29a2.3,2.3,0,0,1,1,1.92,1.33,1.33,0,0,1-1.42,1.52C253.09,589.56,252.63,589,252.63,588.06Z" transform="translate(0 -15.17)"/><path class="cls-3" d="M256,583.48h1.43a1.21,1.21,0,0,1,1.39,1.38v.24c0,.62-.19,1-.61,1.18h0c.51.17.71.62.71,1.25v.52a1.28,1.28,0,0,1-1.43,1.42H256Zm1.31,2.44c.36,0,.57-.15.57-.63V585c0-.43-.15-.62-.48-.62h-.45v1.58Zm.18,2.7c.31,0,.48-.14.48-.59v-.52c0-.56-.18-.73-.6-.73h-.42v1.84Z" transform="translate(0 -15.17)"/><path class="cls-3" d="M259.4,588.06v-4.58h.94v4.64c0,.43.18.59.48.59s.48-.16.48-.59v-4.64h.91v4.58a1.41,1.41,0,1,1-2.81,0Z" transform="translate(0 -15.17)"/><path class="cls-3" d="M262.88,583.48h1.39c1,0,1.4.46,1.4,1.38v.37c0,.62-.2,1-.62,1.18v0c.47.14.63.59.63,1.27v1a1.87,1.87,0,0,0,.1.73h-1a2,2,0,0,1-.08-.74v-1.09c0-.56-.17-.74-.59-.74h-.33v2.57h-.94Zm1.28,2.57c.35,0,.57-.15.57-.63V585c0-.43-.15-.62-.48-.62h-.43v1.71Z" transform="translate(0 -15.17)"/><path class="cls-3" d="M266.26,588.06v-3.15c0-1,.48-1.51,1.41-1.51s1.4.55,1.4,1.51v.51h-.89v-.57c0-.43-.19-.6-.49-.6s-.49.17-.49.6v3.27c0,.43.19.59.49.59s.49-.16.49-.59V587h-.47v-.85h1.36v2a1.41,1.41,0,1,1-2.81,0Z" transform="translate(0 -15.17)"/><path class="cls-3" d="M269.54,586.05h1.89v.86h-1.89Z" transform="translate(0 -15.17)"/><path class="cls-3" d="M272,583.48h.95v2.44h1v-2.44h.94v6H274v-2.7h-1v2.7H272Z" transform="translate(0 -15.17)"/><path class="cls-3" d="M276.32,583.48h1.28l1,6h-.94l-.17-1.19h-1.07l-.17,1.18h-.88Zm1,4-.42-3h0l-.41,3Z" transform="translate(0 -15.17)"/><path class="cls-3" d="M279,583.48h2.49v.86H280V586h1.21v.86H280v2.61H279Z" transform="translate(0 -15.17)"/><path class="cls-3" d="M282,583.48h2.57v.86h-1.62v1.58h1.29v.86h-1.29v1.84h1.62v.86H282Z" transform="translate(0 -15.17)"/><path class="cls-3" d="M285.08,583.48h1.18l.92,3.59h0v-3.59H288v6h-1l-1.13-4.38h0v4.38h-.84Z" transform="translate(0 -15.17)"/><path class="cls-3" d="M325,537.22h2.57v.85h-1.63v1.59h1.29v.85h-1.29v1.84h1.63v.86H325Z" transform="translate(0 -15.17)"/><path class="cls-3" d="M328,541.79v-.34h.89v.41c0,.43.19.58.49.58s.49-.15.49-.6-.19-.81-.8-1.35a2.33,2.33,0,0,1-1-1.87,1.31,1.31,0,0,1,1.41-1.49c.91,0,1.36.55,1.36,1.51v.25h-.89v-.31c0-.43-.17-.59-.47-.59s-.47.16-.47.57.2.76.82,1.29a2.35,2.35,0,0,1,1,1.92c0,1-.49,1.53-1.42,1.53S328,542.75,328,541.79Z" transform="translate(0 -15.17)"/><path class="cls-3" d="M331.14,541.79v-.34H332v.41c0,.43.19.58.49.58s.49-.15.49-.6-.19-.81-.81-1.35a2.32,2.32,0,0,1-1-1.87,1.31,1.31,0,0,1,1.4-1.49c.92,0,1.37.55,1.37,1.51v.25H333v-.31c0-.43-.17-.59-.47-.59s-.47.16-.47.57.2.76.81,1.29a2.33,2.33,0,0,1,1,1.92,1.33,1.33,0,0,1-1.42,1.53C331.6,543.3,331.14,542.75,331.14,541.79Z" transform="translate(0 -15.17)"/><path class="cls-3" d="M334.49,537.22h2.57v.85h-1.63v1.59h1.29v.85h-1.29v1.84h1.63v.86h-2.57Z" transform="translate(0 -15.17)"/><path class="cls-3" d="M337.6,537.22h1.18l.92,3.58h0v-3.58h.84v6h-1l-1.13-4.37h0v4.37h-.84Z" transform="translate(0 -15.17)"/><path class="cls-3" d="M84.21,585.7h1.11l.5,3.55h0l.5-3.55h1.11v4.95H86.7V586.9h0l-.57,3.75h-.65l-.56-3.75h0v3.75h-.68Z" transform="translate(0 -15.17)"/><path class="cls-3" d="M88,589.48v-2.6a1.18,1.18,0,1,1,2.36,0v2.6a1.18,1.18,0,1,1-2.36,0Zm.29-4.83H89v.72h-.69Zm1.29,4.88v-2.7c0-.36-.16-.49-.4-.49s-.41.13-.41.49v2.7c0,.35.16.49.41.49S89.55,589.88,89.55,589.53Zm-.21-4.88H90v.72h-.7Z" transform="translate(0 -15.17)"/><path class="cls-3" d="M90.85,585.7h1l.76,3h0v-3h.7v4.95h-.8L91.56,587h0v3.61h-.7Z" transform="translate(0 -15.17)"/><path class="cls-3" d="M93.83,589.51v-2.66a1.15,1.15,0,1,1,2.29,0v.52h-.74v-.57c0-.33-.15-.46-.38-.46s-.39.13-.39.46v2.76c0,.33.15.46.39.46s.38-.13.38-.46v-.75h.74v.7a1.15,1.15,0,1,1-2.29,0Z" transform="translate(0 -15.17)"/><path class="cls-3" d="M96.59,585.7h.78v2h.83v-2H99v4.95H98.2v-2.23h-.83v2.23h-.78Z" transform="translate(0 -15.17)"/><path class="cls-3" d="M99.56,585.7h2.13v.71h-1.35v1.31h1.07v.7h-1.07V590h1.35v.7H99.56Z" transform="translate(0 -15.17)"/><path class="cls-3" d="M102.13,585.7h1l.76,3h0v-3h.69v4.95h-.8l-.93-3.61h0v3.61h-.7Z" transform="translate(0 -15.17)"/><path class="cls-3" d="M105.1,589.48v-2.6c0-.8.4-1.25,1.16-1.25s1.16.45,1.16,1.25v.42h-.74v-.47c0-.36-.15-.49-.4-.49s-.4.13-.4.49v2.71c0,.35.15.48.4.48s.4-.13.4-.48v-1h-.38v-.71h1.12v1.62a1.16,1.16,0,1,1-2.32,0Z" transform="translate(0 -15.17)"/><path class="cls-3" d="M107.92,585.7h.78V590H110v.7h-2.06Z" transform="translate(0 -15.17)"/><path class="cls-3" d="M111,585.7H112l.81,4.95h-.78l-.14-1h-.88l-.14,1h-.73Zm.85,3.31-.35-2.45h0l-.34,2.45Z" transform="translate(0 -15.17)"/><path class="cls-3" d="M113.23,585.7h1.19a1.06,1.06,0,0,1,1.16,1.22v2.51a1.06,1.06,0,0,1-1.16,1.22h-1.19ZM114.4,590c.25,0,.4-.13.4-.48v-2.58c0-.35-.15-.48-.4-.48H114V590Z" transform="translate(0 -15.17)"/><path class="cls-3" d="M116.1,585.7h1.18a1,1,0,0,1,1.15,1.14v.2c0,.51-.16.83-.5,1h0c.42.14.58.51.58,1v.43a1.05,1.05,0,0,1-1.18,1.17H116.1Zm1.08,2c.29,0,.47-.13.47-.53v-.27c0-.36-.12-.51-.39-.51h-.38v1.31Zm.15,2.23c.26,0,.4-.12.4-.49V589c0-.46-.15-.61-.5-.61h-.35V590Z" transform="translate(0 -15.17)"/><path class="cls-3" d="M119.56,585.7h1.06l.81,4.95h-.78l-.14-1h-.89l-.14,1h-.72Zm.85,3.31-.34-2.45h0l-.34,2.45Z" transform="translate(0 -15.17)"/><path class="cls-3" d="M121.74,589.51v-2.66a1.15,1.15,0,1,1,2.29,0v.52h-.73v-.57c0-.33-.16-.46-.39-.46s-.39.13-.39.46v2.76c0,.33.15.46.39.46s.39-.13.39-.46v-.75H124v.7a1.15,1.15,0,1,1-2.29,0Z" transform="translate(0 -15.17)"/><path class="cls-3" d="M124.5,585.7h.78v2h.83v-2h.78v4.95h-.78v-2.23h-.83v2.23h-.78Z" transform="translate(0 -15.17)"/><path class="cls-4" d="M40.08,645.57c.68-1.14,3-5.08,3-6.55a3.15,3.15,0,1,0-6.29,0c0,1.47,2.27,5.41,3,6.55-.78,0-1.39.23-1.39.47s.71.48,1.58.48,1.58-.21,1.58-.48S40.86,645.6,40.08,645.57ZM37.68,639a2.21,2.21,0,1,1,2.21,2.21A2.21,2.21,0,0,1,37.68,639Z" transform="translate(0 -15.17)"/><path class="cls-4" d="M173.12,560.52c.68-1.15,2.95-5.08,2.95-6.56a3.14,3.14,0,1,0-6.28,0c0,1.48,2.27,5.41,3,6.56-.78,0-1.39.22-1.39.47s.71.47,1.58.47,1.58-.21,1.58-.47S173.9,560.54,173.12,560.52Zm-2.4-6.57a2.21,2.21,0,1,1,2.21,2.21A2.21,2.21,0,0,1,170.72,554Z" transform="translate(0 -15.17)"/><path class="cls-4" d="M252.28,579.4c.68-1.15,2.95-5.08,2.95-6.56a3.15,3.15,0,0,0-6.29,0c0,1.48,2.27,5.41,2.95,6.56-.78,0-1.38.23-1.38.47s.7.47,1.57.47,1.58-.21,1.58-.47S253.06,579.43,252.28,579.4Zm-2.41-6.57a2.22,2.22,0,1,1,2.21,2.22A2.21,2.21,0,0,1,249.87,572.83Z" transform="translate(0 -15.17)"/><path class="cls-4" d="M308.76,660.25c.68-1.14,3-5.08,3-6.55a3.15,3.15,0,1,0-6.29,0c0,1.47,2.27,5.41,2.95,6.55-.78,0-1.39.23-1.39.47s.71.48,1.58.48,1.58-.21,1.58-.48S309.54,660.28,308.76,660.25Zm-2.4-6.56a2.21,2.21,0,1,1,2.21,2.21A2.22,2.22,0,0,1,306.36,653.69Z" transform="translate(0 -15.17)"/><path class="cls-4" d="M349.54,536.24c.68-1.15,3-5.08,3-6.56a3.15,3.15,0,0,0-6.29,0c0,1.48,2.27,5.41,3,6.56-.78,0-1.39.23-1.39.47s.71.47,1.58.47,1.58-.21,1.58-.47S350.32,536.27,349.54,536.24Zm-2.4-6.57a2.21,2.21,0,1,1,2.21,2.21A2.21,2.21,0,0,1,347.14,529.67Z" transform="translate(0 -15.17)"/><path class="cls-4" d="M79.38,599.32c.68-1.14,3-5.08,3-6.55a3.15,3.15,0,1,0-6.29,0c0,1.47,2.27,5.41,3,6.55-.78,0-1.39.23-1.39.48s.71.47,1.58.47,1.58-.21,1.58-.47S80.16,599.35,79.38,599.32ZM77,592.76A2.21,2.21,0,1,1,79.19,595,2.21,2.21,0,0,1,77,592.76Z" transform="translate(0 -15.17)"/><path class="cls-3" d="M173.65,582.8l.15,3.25.12,2.75.15,3.34c0,.87.08,1.75.11,2.62,0,1,.09,2.07.14,3.1l.15,3.37.12,2.84.15,3.21.12,2.77c0,.27,0,.55,0,.82a.12.12,0,0,1-.08.13,7.14,7.14,0,0,1-1,.33l-.64.08c-.22,0-.43,0-.64,0a4.81,4.81,0,0,1-1.3-.35c-.18-.08-.18-.08-.18-.27v0c0-.9.07-1.8.1-2.7l.18-4.89.15-4.35c.06-1.74.13-3.48.19-5.23l.15-4c0-1.32.09-2.64.14-4,0-.92.07-1.84.1-2.75a.32.32,0,0,0-.05-.19" transform="translate(0 -15.17)"/><path class="cls-3" d="M172,582.62l-1.85-3.46a.35.35,0,0,0-.05-.08l-1-2L169,577c-.08-.16-.08-.16.08-.25a6.26,6.26,0,0,1,.75-.32s.1-.06.15-.07a8,8,0,0,1,1.46-.28A11.78,11.78,0,0,1,173,576a12.85,12.85,0,0,1,2.9.35c.05,0,.11,0,.14.06a4.52,4.52,0,0,1,.47.18l.14.08a.13.13,0,0,1,0,.19l-3,5.78a.29.29,0,0,0,0,.16" transform="translate(0 -15.17)"/><path class="cls-3" d="M174.3,572.89a5.53,5.53,0,0,1,1,.4c.13,0,.15.14.16.26a1.18,1.18,0,0,1-.2.71s-.06.07-.11,0a.26.26,0,0,1-.15,0,7.46,7.46,0,0,0-1.33-.18c-.26,0-.51,0-.76,0a13.69,13.69,0,0,0-2.31.22c-.24,0-.27,0-.38-.17a.64.64,0,0,1-.13-.42c0-.34,0-.34.31-.47a7.32,7.32,0,0,1,1.71-.51.08.08,0,0,0,.08-.09c0-.5.06-1,.08-1.5,0-.72.07-1.45.12-2.18a5,5,0,0,1,.18-.74,1,1,0,0,0,0-.24c0-1.41,0-2.81,0-4.21a.18.18,0,0,1,.11-.19c.07,0,.13,0,.19,0s0,.09,0,.14c0,.78,0,1.57,0,2.35l0,1.9a1.52,1.52,0,0,0,.1.48,5.67,5.67,0,0,1,.15,1.16l.15,1.89c0,.35.06.71.08,1.07,0,.08,0,.11.11.12Z" transform="translate(0 -15.17)"/><path class="cls-5" d="M169.85,576a1.49,1.49,0,0,1-.48-.85c0-.11,0-.17.11-.2l.39-.15s.08-.06.13-.08a9.59,9.59,0,0,1,2.05-.43,9.89,9.89,0,0,1,1.44,0,7.13,7.13,0,0,1,1.52.21.2.2,0,0,1,.13.06,9,9,0,0,1,1,.36l.13.06c.15.08.17.1.13.28a1.67,1.67,0,0,1-.41.69l-.08.08a.26.26,0,0,1-.33.16,15.61,15.61,0,0,0-1.67-.24,13,13,0,0,0-1.65-.06,7.48,7.48,0,0,0-2,.3A.34.34,0,0,1,169.85,576Z" transform="translate(0 -15.17)"/><path class="cls-3" d="M328.75,639.25a3.25,3.25,0,0,0-6.48,0h-4v.63h-1V637.8h-1.54v23.31h1.54v-.43h1v.43h14.57V639.25Zm-10.53,1v.85h-1v-.85Zm-1,17.68v-.84h1v.84Zm1,.36v.85h-1v-.85Zm-1-1.56v-.85h1v.85Zm0-1.2v-.85h1v.85Zm0-1.21v-.84h1v.84Zm0-1.2v-.84h1v.84Zm0-1.2v-.85h1v.85Zm0-1.2v-.85h1v.85Zm0-1.21v-.84h1v.84Zm0-1.2v-.84h1v.84Zm0-1.2v-.85h1v.85Zm0-1.2v-.85h1v.85Zm0-1.2v-.85h1v.85Zm0-1.21v-.84h1v.84Zm0-1.2v-.85h1v.85Zm0,18v-.85h1v.85Z" transform="translate(0 -15.17)"/><path class="cls-3" d="M336.11,519.81a16.22,16.22,0,0,1,0-2.59,19.22,19.22,0,0,1,1.95-.29l.29-1.49v-.38H327.23v.38l.28,1.49a18.82,18.82,0,0,1,1.95.29,17.38,17.38,0,0,1,0,2.59c-.05.29-7.1,15.22-7.1,15.22h1.49l4.44-9.24h3.55v9.29h1.9v-9.29h3.55l4.44,9.24h1.49S336.16,520.1,336.11,519.81Zm.46-4.08a6.51,6.51,0,0,0,1.21-.18l-.15.92H336A.54.54,0,0,1,336.57,515.73Zm-6.37.38c0-.28.36-.33.36-.33h4.36s.34.05.37.34a.88.88,0,0,1,0,.35H330.2S330.16,516.4,330.2,516.11Zm-.71.36h-1.61l-.16-.92a6.51,6.51,0,0,0,1.21.18C329.73,515.78,329.49,516.47,329.49,516.47Zm2.38,7.86H329l1.17-2.33a.72.72,0,0,1,.63-.38c.45,0,1.11,0,1.11,0Zm.69-5.16h-2a.29.29,0,0,1-.27-.21s0-1.05,0-1.4a.34.34,0,0,1,.36-.33h4.15a.33.33,0,0,1,.35.33c0,.35,0,1.4,0,1.4a.3.3,0,0,1-.27.22Zm1.05,5.16v-2.71s.66,0,1.11,0a.74.74,0,0,1,.63.38l1.17,2.33Z" transform="translate(0 -15.17)"/><path class="cls-5" d="M330,517.64a1.63,1.63,0,1,0,1.63,1.63A1.63,1.63,0,0,0,330,517.64Zm.18.37a1.34,1.34,0,0,1,.59.24l-.59.59Zm-.36.83-.58-.59a1.35,1.35,0,0,1,.58-.24Zm-.25.25h-.82a1.16,1.16,0,0,1,.24-.58Zm0,.36L329,520a1.2,1.2,0,0,1-.24-.58Zm.25.25v.83a1.26,1.26,0,0,1-.58-.25Zm.36,0,.59.58a1.25,1.25,0,0,1-.59.25Zm.25-.25h.83a1.3,1.3,0,0,1-.24.58Zm0-.36.59-.58a1.26,1.26,0,0,1,.24.58Z" transform="translate(0 -15.17)"/><path class="cls-5" d="M337.25,519.22a1.63,1.63,0,1,0-1.63,1.63A1.64,1.64,0,0,0,337.25,519.22Zm-1.2.17h.83a1.34,1.34,0,0,1-.24.59Zm.33.84a1.16,1.16,0,0,1-.58.24v-.82Zm-.33-1.19.59-.59a1.34,1.34,0,0,1,.24.59Zm-.25-.25V518a1.16,1.16,0,0,1,.58.24Zm-.36,0-.58-.58a1.2,1.2,0,0,1,.58-.24Zm-.25.26h-.83a1.25,1.25,0,0,1,.25-.59Zm0,.35-.58.59a1.25,1.25,0,0,1-.25-.59Zm.25.26v.82a1.2,1.2,0,0,1-.58-.24Z" transform="translate(0 -15.17)"/><path class="cls-5" d="M327.86,522.88a2.18,2.18,0,1,0,2.18,2.17A2.17,2.17,0,0,0,327.86,522.88Zm.18.37a1.83,1.83,0,0,1,1,.4l-1,1Zm-.35,1.37-1-1a1.83,1.83,0,0,1,1-.4Zm-.26.26h-1.37a1.83,1.83,0,0,1,.4-1Zm0,.35-1,1a1.83,1.83,0,0,1-.4-1Zm.26.25v1.37a1.69,1.69,0,0,1-1-.4Zm.35,0,1,1a1.69,1.69,0,0,1-1,.4Zm.26-.25h1.37a1.77,1.77,0,0,1-.41,1Zm0-.35,1-1a1.77,1.77,0,0,1,.41,1Z" transform="translate(0 -15.17)"/><path class="cls-5" d="M337.44,522.88a2.18,2.18,0,1,0,2.17,2.17A2.18,2.18,0,0,0,337.44,522.88Zm.18.37a1.83,1.83,0,0,1,1,.4l-1,1Zm-.36,1.37-1-1a1.83,1.83,0,0,1,1-.4Zm-.25.26h-1.37a1.69,1.69,0,0,1,.4-1Zm0,.35-1,1a1.69,1.69,0,0,1-.4-1Zm.25.25v1.37a1.69,1.69,0,0,1-1-.4Zm.36,0,1,1a1.69,1.69,0,0,1-1,.4Zm.25-.25h1.37a1.83,1.83,0,0,1-.4,1Zm0-.35,1-1a1.83,1.83,0,0,1,.4,1Z" transform="translate(0 -15.17)"/><rect class="cls-3" x="327.88" y="513.42" width="9.62" height="6.54"/><path class="cls-6" d="M271.3,566.32a29,29,0,0,0,1.55-3.33,2.27,2.27,0,0,0-.59-1.53,1.43,1.43,0,0,0,.64-1.19,1.37,1.37,0,0,0-2.74-.06,1.08,1.08,0,0,0-.92-.51,1.1,1.1,0,0,0-1.09,1.11v.12a1.8,1.8,0,0,0-1.11-.38,1.88,1.88,0,0,0-1.86,1.9,2,2,0,0,0,.08.56h-.2a2.21,2.21,0,0,0-2.19,2.23,2.31,2.31,0,0,0,.28,1.08c3.73.06,6.77.06,8.13.06A.08.08,0,0,0,271.3,566.32Z" transform="translate(0 -15.17)"/><path class="cls-6" d="M275.28,560.26a1.19,1.19,0,1,0-1.17-1.19A1.17,1.17,0,0,0,275.28,560.26Z" transform="translate(0 -15.17)"/><path class="cls-6" d="M279.67,569.88a1.46,1.46,0,0,0,.69-1.18,1.45,1.45,0,0,0,.56-1.12,1.4,1.4,0,0,0-.48-1.05.94.94,0,0,0,.52-.82,1,1,0,0,0-1.1-1,1.06,1.06,0,0,0-1.11.92.93.93,0,0,0-.74-.35.82.82,0,0,0-.88.76.19.19,0,0,0,0,.08,1.67,1.67,0,0,0-.9-.26,1.42,1.42,0,0,0-1.5,1.31,1,1,0,0,0,.07.39h-.17a1.66,1.66,0,0,0-1.76,1.54,1.43,1.43,0,0,0,.47,1c2.72,0,5,0,6.15.05A1.54,1.54,0,0,0,279.67,569.88Z" transform="translate(0 -15.17)"/><path class="cls-6" d="M283,564.36h0a1,1,0,1,0,.94,1,.89.89,0,0,0-.18-.53h-.07A.78.78,0,0,1,283,564.36Z" transform="translate(0 -15.17)"/><path class="cls-6" d="M284.44,564a.78.78,0,1,0-1.56,0,.87.87,0,0,0,.09.36.93.93,0,0,1,.76.43A.79.79,0,0,0,284.44,564Z" transform="translate(0 -15.17)"/><path class="cls-6" d="M283,564.36a.78.78,0,0,0,.69.44h.07A.93.93,0,0,0,283,564.36Z" transform="translate(0 -15.17)"/><path class="cls-3" d="M273,581.31c-.14-.94-.34-2.53-.51-4.94s-.33-5.7-.4-10h-.78c-1.36,0-4.4,0-8.13-.06h-.52c-.27,13.71-1.54,16.16-1.54,16.16h12.08S273.09,582.11,273,581.31Z" transform="translate(0 -15.17)"/><path class="cls-3" d="M280.38,570.21h-.88c-1.17,0-3.43,0-6.15-.05h-.56c-.06,2.63-.18,4.66-.33,6.21.17,2.41.37,4,.51,4.94h8.3S280.53,578.61,280.38,570.21Z" transform="translate(0 -15.17)"/><path class="cls-3" d="M59.51,623.74,59,620.25l-.59-3.7-.2,1.49-.2-1.29-.39-2.4-.11.87-1.2-8a.54.54,0,0,0,.27-.47.52.52,0,0,0-.24-.45s0,0,0-.08a.3.3,0,0,0-.24-.29l-.07-.48-.09.49a.3.3,0,0,0-.2.28.14.14,0,0,0,0,.07.53.53,0,0,0-.27.46.56.56,0,0,0,.22.44l-2.13,11.65-.91-3.05v0h0v0l-.9,3.05-2.14-11.65a.54.54,0,0,0,.23-.44.53.53,0,0,0-.25-.45s0,0,0-.08a.28.28,0,0,0-.22-.28l-.09-.49-.07.49a.29.29,0,0,0-.22.28.19.19,0,0,0,0,.07.53.53,0,0,0-.27.46.55.55,0,0,0,.28.47l-1.27,8.47-.21-1.33-.33,2.41-.15,1.14-.22-1.35-.51,3.71-.48,3.48H44.19v12.37H61.31V623.74Z" transform="translate(0 -15.17)"/><path class="cls-5" d="M50.09,619.07a.53.53,0,0,0,0-.13v-2.43a.67.67,0,1,0-1.34,0v2.43a.53.53,0,0,0,0,.13Z" transform="translate(0 -15.17)"/><path class="cls-5" d="M50.09,623.91a.57.57,0,0,0,0-.13v-2.43a.67.67,0,1,0-1.34,0v2.43a.57.57,0,0,0,0,.13Z" transform="translate(0 -15.17)"/><path class="cls-5" d="M56.68,619.07a.53.53,0,0,0,0-.13v-2.43a.67.67,0,0,0-1.34,0v2.43a.53.53,0,0,0,0,.13Z" transform="translate(0 -15.17)"/><path class="cls-5" d="M56.68,623.91a.57.57,0,0,0,0-.13v-2.43a.67.67,0,1,0-1.34,0v2.43a.57.57,0,0,0,0,.13Z" transform="translate(0 -15.17)"/><path class="cls-5" d="M47,628.5a.59.59,0,0,0,0-.13v-2.43a.68.68,0,0,0-1.35,0v2.43a.59.59,0,0,0,0,.13Z" transform="translate(0 -15.17)"/><path class="cls-5" d="M49,628.5s0-.09,0-.13v-2.43a.67.67,0,0,0-.67-.67.68.68,0,0,0-.68.67v2.43a.59.59,0,0,0,0,.13Z" transform="translate(0 -15.17)"/><path class="cls-5" d="M57.71,628.5a.57.57,0,0,0,0-.13v-2.43a.67.67,0,0,0-1.34,0v2.43a.57.57,0,0,0,0,.13Z" transform="translate(0 -15.17)"/><path class="cls-5" d="M59.75,628.5a.57.57,0,0,0,0-.13v-2.43a.67.67,0,1,0-1.34,0v2.43a.57.57,0,0,0,0,.13Z" transform="translate(0 -15.17)"/><path class="cls-5" d="M52.52,635.43a1.48,1.48,0,0,0,0-.21v-3.81c0-.59-.3-1.06-.67-1.06s-.67.47-.67,1.06v3.81c0,.07,0,.14,0,.21Z" transform="translate(0 -15.17)"/><path class="cls-5" d="M54.56,635.43a1.49,1.49,0,0,0,0-.21v-3.81c0-.59-.3-1.06-.68-1.06s-.67.47-.67,1.06v3.81a1.49,1.49,0,0,0,0,.21Z" transform="translate(0 -15.17)"/><path class="cls-5" d="M53.92,628.5a.59.59,0,0,0,0-.13v-2.43c0-.37-.52-.67-1.16-.67s-1.15.3-1.15.67v2.43a.59.59,0,0,0,0,.13Z" transform="translate(0 -15.17)"/><path class="cls-5" d="M53.33,623.91s0-.07,0-.1v-1.9a.53.53,0,0,0-.53-.53.52.52,0,0,0-.52.53v1.9a.34.34,0,0,0,0,.1Z" transform="translate(0 -15.17)"/><path class="cls-5" d="M47,633.91a.57.57,0,0,0,0-.13v-2.43a.67.67,0,1,0-1.34,0v2.43a.57.57,0,0,0,0,.13Z" transform="translate(0 -15.17)"/><path class="cls-5" d="M49.05,633.91a.57.57,0,0,0,0-.13v-2.43a.67.67,0,1,0-1.34,0v2.43s0,.09,0,.13Z" transform="translate(0 -15.17)"/><path class="cls-5" d="M57.75,633.91a.59.59,0,0,0,0-.13v-2.43a.68.68,0,0,0-1.35,0v2.43a.59.59,0,0,0,0,.13Z" transform="translate(0 -15.17)"/><path class="cls-5" d="M59.8,633.91s0-.09,0-.13v-2.43a.67.67,0,0,0-.67-.67.68.68,0,0,0-.68.67v2.43a.59.59,0,0,0,0,.13Z" transform="translate(0 -15.17)"/><rect class="cls-3" x="93.16" y="581.44" width="2.75" height="0.69"/><rect class="cls-3" x="104.17" y="581.44" width="2.75" height="0.69"/><rect class="cls-3" x="109.68" y="581.44" width="2.75" height="0.69"/><rect class="cls-3" x="98.67" y="581.44" width="2.75" height="0.69"/><rect class="cls-3" x="115.19" y="581.44" width="2.75" height="0.69"/><rect class="cls-3" x="86.49" y="581.54" width="6.42" height="0.36"/><rect class="cls-3" x="86.49" y="580.82" width="6.42" height="0.36"/><rect class="cls-3" x="86.49" y="582.97" width="6.42" height="0.36"/><rect class="cls-3" x="86.49" y="579.4" width="6.42" height="0.36"/><rect class="cls-3" x="86.49" y="583.68" width="6.42" height="0.36"/><rect class="cls-3" x="86.49" y="580.11" width="6.42" height="0.36"/><rect class="cls-3" x="86.49" y="582.25" width="6.42" height="0.36"/><rect class="cls-3" x="118.28" y="582.25" width="6.42" height="0.36"/><rect class="cls-3" x="118.28" y="580.11" width="6.42" height="0.36"/><rect class="cls-3" x="118.28" y="579.4" width="6.42" height="0.36"/><rect class="cls-3" x="118.28" y="581.54" width="6.42" height="0.36"/><rect class="cls-3" x="118.28" y="583.68" width="6.42" height="0.36"/><rect class="cls-3" x="118.28" y="580.82" width="6.42" height="0.36"/><rect class="cls-3" x="118.28" y="582.97" width="6.42" height="0.36"/><polygon class="cls-3" points="84.7 578.33 84.7 579.04 86.49 579.04 92.91 579.04 118.28 579.04 124.7 579.04 126.97 579.04 126.97 578.33 84.7 578.33"/><rect class="cls-3" x="84.7" y="584.22" width="42.27" height="0.71"/><polygon class="cls-7" points="157.42 760.75 157 760.75 135.04 760.75 134.04 760.75 134.75 760.04 140.03 754.75 134.69 749.41 133.97 748.7 134.98 748.7 157 748.7 157.42 748.7 157.42 749.11 157.42 760.33 157.42 760.75 157.42 760.75"/><polygon class="cls-1" points="149.78 755.96 157.52 755.96 157.52 761.11 149.78 755.96"/><polygon class="cls-1" points="210.58 755.96 202.84 755.96 202.84 761.11 210.58 755.96"/><polygon class="cls-3" points="210.8 749.51 226.03 749.5 219.97 755.55 225.96 761.55 202.96 761.33 210.8 756.06 210.8 749.51"/><rect class="cls-3" x="149.6" y="743.77" width="61.21" height="12.05"/><path class="cls-1" d="M155.23,760.45h1.28v7h2.11v1.16h-3.39Z" transform="translate(0 -15.17)"/><path class="cls-1" d="M159.09,766.67v-4.28a1.95,1.95,0,1,1,3.89,0v4.28a1.95,1.95,0,1,1-3.89,0Zm2.61.08V762.3c0-.58-.25-.8-.66-.8s-.67.22-.67.8v4.45c0,.58.26.81.67.81S161.7,767.33,161.7,766.75Z" transform="translate(0 -15.17)"/><path class="cls-1" d="M163.76,766.72v-4.38a1.89,1.89,0,1,1,3.77,0v.86h-1.21v-.94c0-.54-.25-.76-.64-.76s-.64.22-.64.76v4.55c0,.54.26.75.64.75s.64-.21.64-.75v-1.25h1.21v1.16a1.89,1.89,0,1,1-3.77,0Z" transform="translate(0 -15.17)"/><path class="cls-1" d="M169.29,760.45H171l1.33,8.15h-1.29l-.23-1.61v0h-1.45l-.24,1.59H168Zm1.4,5.45-.57-4h0l-.56,4Z" transform="translate(0 -15.17)"/><path class="cls-1" d="M173.44,761.62H172.1v-1.17h4v1.17h-1.34v7h-1.28Z" transform="translate(0 -15.17)"/><path class="cls-1" d="M176.67,760.45H178v8.15h-1.29Z" transform="translate(0 -15.17)"/><path class="cls-1" d="M178.82,766.67v-4.28a1.95,1.95,0,1,1,3.89,0v4.28a1.95,1.95,0,1,1-3.89,0Zm2.6.08V762.3c0-.58-.25-.8-.66-.8s-.66.22-.66.8v4.45c0,.58.25.81.66.81S181.42,767.33,181.42,766.75Z" transform="translate(0 -15.17)"/><path class="cls-1" d="M183.57,760.45h1.6l1.25,4.88h0v-4.88h1.14v8.15h-1.31l-1.54-6h0v6h-1.14Z" transform="translate(0 -15.17)"/><path class="cls-1" d="M190.4,760.45h1.83l.81,5.84h0l.81-5.84h1.83v8.15H194.5v-6.17h0l-.93,6.17h-1.08l-.93-6.17h0v6.17H190.4Z" transform="translate(0 -15.17)"/><path class="cls-1" d="M197.66,760.45h1.73l1.33,8.15h-1.28L199.2,767v0h-1.45l-.23,1.59h-1.19Zm1.39,5.45-.57-4h0l-.56,4Z" transform="translate(0 -15.17)"/><path class="cls-1" d="M201.33,760.45h1.89c1.28,0,1.91.71,1.91,2v.8c0,1.3-.63,2-1.91,2h-.6v3.32h-1.29Zm1.89,3.67c.41,0,.63-.19.63-.77v-1c0-.59-.22-.77-.63-.77h-.6v2.5Z" transform="translate(0 -15.17)"/><path class="cls-3" d="M125.59,525.71c.23.27-.39,2-.39,2l3,0A13.06,13.06,0,0,1,131,523.5s21.68,0,24.14,1.89a43.16,43.16,0,0,0,8.22,4.41h-.28l0,6H160v.56c.44,0,7.34,0,12.31,0,2.61,0,4.68,0,5-.08a1.92,1.92,0,0,0,1.54-1.06l-.52-.22a1.34,1.34,0,0,1-1.09.72c-.25,0-1.6.05-3.49.07l0-3.76h-.56l0,3.75c-2.7,0-6.31,0-9.47,0l0-5.83c1.38.59,2.53,1,3.15,1.24,1.83.62,9.08.79,9.08.79s7.23-.27,6.31-3.84c-1-3.77-8.91-8.18-10.11-8.8s-4-.26-5.08-.75a1.2,1.2,0,0,1-.64-1.61l-3.59-.4c-3.36,3.54-10,4.18-10,4.18s-21,.67-21.73.45-2.39-5-3-6-3.18-.71-3.18-.71a23.18,23.18,0,0,1,.75,3.32c0,.77-2.82.7-2.75,3.88A4.38,4.38,0,0,0,125.59,525.71Zm-2-3.71a3,3,0,1,1,3,2.94A3,3,0,0,1,123.62,522Z" transform="translate(0 -15.17)"/><path class="cls-5" d="M182.3,528.78c0-.31-4.52-.14-4.67,0s-.33,1,1.28,2.71C180.21,531.32,182.31,530.19,182.3,528.78Z" transform="translate(0 -15.17)"/><path class="cls-5" d="M182,527.59s-4.68.13-5.23,0-5.64-8.59-5.64-8.59l.6.14a37.11,37.11,0,0,1,6.51,4.15C181.48,525.85,182,527.59,182,527.59Z" transform="translate(0 -15.17)"/><path class="cls-5" d="M168.81,520.14c.42,0,1.27,0,1.79,0s3.72,5.4,4,5.92,0,1.06-.81,1a28.2,28.2,0,0,1-4.14-.71,3,3,0,0,1-1.27-2,30.48,30.48,0,0,1-.34-3.45C168.13,520.72,168.42,520.16,168.81,520.14Z" transform="translate(0 -15.17)"/><path class="cls-3" d="M137.28,513.77l6.54-.06c4.36,0,8.71,0,13.07,0l7.08,0a.31.31,0,0,1,.31-.28h.32a.31.31,0,0,1,.31.29l5.06.06,6.54.09c2.18.06,4.36.09,6.54.16-2.18.06-4.36.08-6.54.12l-6.54.06-5.06,0,0,2.41a.31.31,0,0,1-.31.32h-.32a.31.31,0,0,1-.31-.31l0-2.41h-7.08c-4.36,0-8.72,0-13.08-.11l-6.53-.09c-2.18-.06-4.36-.09-6.54-.16C132.92,513.83,135.1,513.81,137.28,513.77Z" transform="translate(0 -15.17)"/><path class="cls-5" d="M123.62,522a3,3,0,1,0,2.94-3A3,3,0,0,0,123.62,522Zm1-2a2.78,2.78,0,0,1,1.8-.76v2a.88.88,0,0,0-.41.17Zm2-.76a2.79,2.79,0,0,1,1.81.74l-1.39,1.4a.8.8,0,0,0-.4-.17Zm1.94.87a2.76,2.76,0,0,1,.76,1.79h-2a.8.8,0,0,0-.17-.4Zm.76,2a2.78,2.78,0,0,1-.74,1.8l-1.4-1.38a.88.88,0,0,0,.17-.41Zm-.87,1.93a2.76,2.76,0,0,1-1.79.76v-2a.8.8,0,0,0,.4-.17Zm-2,.76a2.77,2.77,0,0,1-1.8-.73l1.38-1.4a.77.77,0,0,0,.41.16Zm-1.93-.86a2.78,2.78,0,0,1-.76-1.8h2a.88.88,0,0,0,.17.41Zm-.76-2a2.78,2.78,0,0,1,.73-1.81l1.4,1.39a.71.71,0,0,0-.16.4Z" transform="translate(0 -15.17)"/><text class="cls-8" transform="translate(318.82 7.85)"><tspan class="cls-9">K</tspan><tspan x="3.76" y="0">on</tspan><tspan class="cls-10" x="11.36" y="0">t</tspan><tspan x="14.29" y="0">akt</tspan></text><path class="cls-3" d="M319.93,29.26c.1.12-.17.82-.17.82H321a5.47,5.47,0,0,1,1.2-1.73s9,.06,10.06.85a17.54,17.54,0,0,0,3.41,1.86h-.11v2.49h-1.33v.23l5.14,0c1.08,0,1.95,0,2.09,0a.79.79,0,0,0,.65-.44l-.22-.09a.56.56,0,0,1-.46.3c-.1,0-.66,0-1.45,0V32h-.23v1.57H335.8V31.11c.57.25,1.05.44,1.31.53a24.87,24.87,0,0,0,3.78.35s3-.09,2.64-1.58-3.69-3.43-4.19-3.7-1.64-.12-2.11-.32a.51.51,0,0,1-.27-.68l-1.49-.17a7.58,7.58,0,0,1-4.16,1.71s-8.78.23-9.06.14-1-2.09-1.25-2.52-1.33-.31-1.33-.31A9.42,9.42,0,0,1,320,26c0,.32-1.17.28-1.15,1.61A1.83,1.83,0,0,0,319.93,29.26Zm-.81-1.55A1.24,1.24,0,1,1,320.35,29,1.23,1.23,0,0,1,319.12,27.71Z" transform="translate(0 -15.17)"/><path class="cls-5" d="M343.57,30.69a6.37,6.37,0,0,0-1.95,0c-.07.07-.14.42.53,1.12C342.69,31.74,343.57,31.27,343.57,30.69Z" transform="translate(0 -15.17)"/><path class="cls-5" d="M343.46,30.19s-1.95,0-2.18,0a35.78,35.78,0,0,1-2.33-3.6l.25.06a15.34,15.34,0,0,1,2.71,1.75A4.62,4.62,0,0,1,343.46,30.19Z" transform="translate(0 -15.17)"/><path class="cls-5" d="M338,27.05c.17,0,.52,0,.74,0a15.54,15.54,0,0,1,1.67,2.48c.13.22,0,.44-.34.42a10.72,10.72,0,0,1-1.72-.31,1.22,1.22,0,0,1-.53-.84,12.42,12.42,0,0,1-.13-1.44C337.68,27.29,337.8,27.06,338,27.05Z" transform="translate(0 -15.17)"/><path class="cls-3" d="M324.84,24.32h2.72c1.82,0,3.64,0,5.45,0l2.95,0a.13.13,0,0,1,.13-.11h.14a.12.12,0,0,1,.12.12l2.11,0,2.73.05,2.73.08-2.73,0h-4.84v1a.12.12,0,0,1-.12.13h-.14a.13.13,0,0,1-.13-.13v-1l-2.95,0c-1.82,0-3.63,0-5.45-.07l-2.73-.06-2.72-.08C323,24.33,323.93,24.33,324.84,24.32Z" transform="translate(0 -15.17)"/><path class="cls-5" d="M319.12,27.71a1.24,1.24,0,1,0,1.23-1.23A1.24,1.24,0,0,0,319.12,27.71Zm.45-.84a1.11,1.11,0,0,1,.75-.31v.82a.29.29,0,0,0-.17.07Zm.82-.31a1.11,1.11,0,0,1,.75.31l-.58.58a.29.29,0,0,0-.17-.07Zm.81.36a1.18,1.18,0,0,1,.31.75h-.82a.36.36,0,0,0-.07-.17Zm.31.83a1.18,1.18,0,0,1-.31.75l-.58-.58a.36.36,0,0,0,.07-.17Zm-.37.8a1.12,1.12,0,0,1-.75.32V28a.24.24,0,0,0,.17-.07Zm-.82.32a1.12,1.12,0,0,1-.75-.32l.58-.58a.24.24,0,0,0,.17.07Zm-.81-.37a1.18,1.18,0,0,1-.31-.75H320a.36.36,0,0,0,.07.17Zm-.31-.83a1.18,1.18,0,0,1,.31-.75l.58.58a.36.36,0,0,0-.07.17Z" transform="translate(0 -15.17)"/><path class="cls-3" d="M250.28,649.32v-1.85h0a.37.37,0,0,1-.56,0h0v1.85l-.19,5.75v.82h.94v-.82Z" transform="translate(0 -15.17)"/><ellipse class="cls-3" cx="252.57" cy="646.45" rx="2.72" ry="0.3" transform="translate(-177.68 86.69) rotate(-16.97)"/><ellipse class="cls-3" cx="248.02" cy="645.37" rx="0.3" ry="2.72" transform="translate(-392.99 371.11) rotate(-46.97)"/><ellipse class="cls-3" cx="249.34" cy="649.85" rx="2.72" ry="0.3" transform="translate(-439.99 731.08) rotate(-76.97)"/><circle class="cls-4" cx="250" cy="631.99" r="0.37"/><path class="cls-3" d="M239.24,655.22v-1.85h0a.37.37,0,0,1-.28.13.34.34,0,0,1-.28-.13h0v1.85l-.19,5.75v.82h.94V661Z" transform="translate(0 -15.17)"/><ellipse class="cls-3" cx="241.67" cy="637.91" rx="2.72" ry="0.3"/><ellipse class="cls-3" cx="237.64" cy="650.72" rx="0.3" ry="2.72" transform="translate(-293.52 190.83) rotate(-30)"/><ellipse class="cls-3" cx="237.6" cy="655.39" rx="2.72" ry="0.3" transform="translate(-448.78 518.29) rotate(-60)"/><circle class="cls-4" cx="238.96" cy="637.89" r="0.37"/><path class="cls-3" d="M254.28,651.84V650h0a.34.34,0,0,1-.27.13.37.37,0,0,1-.28-.13h0v1.82l-.19,5.68v.81h.93v-.81Z" transform="translate(0 -15.17)"/><ellipse class="cls-3" cx="252.04" cy="651.44" rx="2.68" ry="0.3" transform="translate(-367.98 314.6) rotate(-41.43)"/><ellipse class="cls-3" cx="253.49" cy="647.06" rx="0.3" ry="2.68" transform="translate(-123.18 47.89) rotate(-11.43)"/><ellipse class="cls-3" cx="256.57" cy="650.49" rx="0.3" ry="2.68" transform="matrix(0.32, -0.95, 0.95, 0.32, -441.76, 671.35)"/><circle class="cls-4" cx="254.01" cy="634.54" r="0.36"/><path class="cls-3" d="M227.19,562.55v-1.84h0a.37.37,0,0,1-.56,0h0v1.84l-.19,5.75v.82h.94v-.82Z" transform="translate(0 -15.17)"/><ellipse class="cls-3" cx="229.48" cy="559.68" rx="2.72" ry="0.3" transform="translate(-153.36 76.18) rotate(-16.97)"/><ellipse class="cls-3" cx="224.93" cy="558.61" rx="0.3" ry="2.72" transform="translate(-336.89 326.67) rotate(-46.97)"/><ellipse class="cls-3" cx="226.26" cy="563.08" rx="2.72" ry="0.3" transform="translate(-373.34 641.39) rotate(-76.97)"/><circle class="cls-4" cx="226.91" cy="545.23" r="0.37"/><path class="cls-3" d="M211.4,569.81V568h0a.37.37,0,0,1-.56,0h0v1.84l-.19,5.75v.83h.94v-.83Z" transform="translate(0 -15.17)"/><ellipse class="cls-3" cx="213.84" cy="552.51" rx="2.72" ry="0.3"/><ellipse class="cls-3" cx="209.8" cy="565.32" rx="0.3" ry="2.72" transform="translate(-254.55 165.47) rotate(-30)"/><ellipse class="cls-3" cx="209.76" cy="569.99" rx="2.72" ry="0.3" transform="translate(-388.74 451.48) rotate(-60)"/><circle class="cls-4" cx="211.12" cy="552.49" r="0.37"/><path class="cls-3" d="M220.21,569.26v-1.82h0a.38.38,0,0,1-.28.12.36.36,0,0,1-.27-.12h0v1.82l-.19,5.68v.82h.93v-.82Z" transform="translate(0 -15.17)"/><ellipse class="cls-3" cx="217.97" cy="568.86" rx="2.68" ry="0.3" transform="translate(-321.87 271.39) rotate(-41.43)"/><ellipse class="cls-3" cx="219.42" cy="564.48" rx="0.3" ry="2.68" transform="translate(-107.49 39.5) rotate(-11.43)"/><ellipse class="cls-3" cx="222.5" cy="567.91" rx="0.3" ry="2.68" transform="translate(-386.71 582.78) rotate(-71.43)"/><circle class="cls-4" cx="219.93" cy="551.97" r="0.36"/><path class="cls-3" d="M21.43,611v-1.85h0a.37.37,0,0,1-.28.13.34.34,0,0,1-.28-.13h0V611l-.2,5.75v.82h.95v-.82Z" transform="translate(0 -15.17)"/><ellipse class="cls-3" cx="23.71" cy="608.11" rx="2.72" ry="0.3" transform="translate(-176.45 18.23) rotate(-16.97)"/><ellipse class="cls-3" cx="19.17" cy="607.03" rx="0.3" ry="2.72" transform="translate(-437.65 191.64) rotate(-46.97)"/><ellipse class="cls-3" cx="20.49" cy="611.51" rx="2.72" ry="0.3" transform="translate(-579.89 478.43) rotate(-76.97)"/><circle class="cls-4" cx="21.15" cy="593.65" r="0.37"/><path class="cls-3" d="M10.38,616.87V615h0a.37.37,0,0,1-.56,0h0v1.84l-.19,5.76v.82h.94v-.82Z" transform="translate(0 -15.17)"/><ellipse class="cls-3" cx="12.82" cy="599.57" rx="2.72" ry="0.3"/><ellipse class="cls-3" cx="8.78" cy="612.38" rx="0.3" ry="2.72" transform="translate(-305.01 71.27) rotate(-30)"/><ellipse class="cls-3" cx="8.74" cy="617.05" rx="2.72" ry="0.3" transform="translate(-530.01 300.93) rotate(-60)"/><circle class="cls-4" cx="10.1" cy="599.55" r="0.37"/><path class="cls-3" d="M25.43,613.49v-1.81h0a.39.39,0,0,1-.56,0h0v1.81l-.18,5.68V620h.93v-.82Z" transform="translate(0 -15.17)"/><ellipse class="cls-3" cx="23.19" cy="613.09" rx="2.68" ry="0.3" transform="translate(-399.87 153.58) rotate(-41.43)"/><ellipse class="cls-3" cx="24.63" cy="608.71" rx="0.3" ry="2.68" transform="translate(-120.12 1.78) rotate(-11.43)"/><ellipse class="cls-3" cx="27.72" cy="612.15" rx="0.3" ry="2.68" transform="translate(-561.38 428.28) rotate(-71.43)"/><circle class="cls-4" cx="25.15" cy="596.2" r="0.36"/><rect class="cls-3" x="303.48" y="634.16" width="1.52" height="2.18" transform="translate(-130.7 66.07) rotate(-12.54)"/><rect class="cls-3" x="306.04" y="633.59" width="1.52" height="2.18" transform="translate(-130.52 66.61) rotate(-12.54)"/><path class="cls-4" d="M302,636.87l.87,3.89,7.22-1.61-.87-3.89Zm1.41,1.19a.48.48,0,0,1-.21-.94.49.49,0,0,1,.58.37A.48.48,0,0,1,303.37,638.06Zm1.67-.37a.49.49,0,0,1-.58-.37.48.48,0,0,1,.37-.57.48.48,0,0,1,.57.37A.47.47,0,0,1,305,637.69Zm1.66-.37a.48.48,0,0,1-.57-.37.47.47,0,0,1,.36-.57.49.49,0,0,1,.58.37A.48.48,0,0,1,306.7,637.32Zm1.67-.37a.48.48,0,1,1-.21-.94.47.47,0,0,1,.57.36A.48.48,0,0,1,308.37,637Z" transform="translate(0 -15.17)"/><polygon class="cls-3" points="311.06 622.34 311.34 625.82 301.96 627.9 299.38 624.25 303.22 623.39 311.06 622.34"/><rect class="cls-3" x="87.64" y="737.94" width="2.33" height="3.34" transform="translate(252.6 1451.14) rotate(174.15)"/><rect class="cls-3" x="83.65" y="738.35" width="2.33" height="3.34" transform="translate(244.67 1452.36) rotate(174.15)"/><path class="cls-4" d="M81.64,742l.62,6.08L93.54,747l-.62-6.08Zm9,.6a.74.74,0,1,1,.81.66A.73.73,0,0,1,90.63,742.62Zm-2.6.27a.74.74,0,1,1,.81.66A.74.74,0,0,1,88,742.89Zm-2.6.27a.73.73,0,0,1,.66-.81.74.74,0,1,1-.66.81Zm-2.6.26a.73.73,0,1,1,.81.66A.72.72,0,0,1,82.83,743.42Z" transform="translate(0 -15.17)"/><polygon class="cls-3" points="79.99 731.02 81.27 736.22 95.92 734.72 97.91 728.15 91.9 728.77 79.99 731.02"/><path class="cls-11" d="M144.3,540.3c-18.94,15.17-15,43.1,20,49.75,17.64,3.36,26.26,1,28.17-3.14s-17.12-13.62-52,8.62c-29.38,18.75-91.26,8.53-105.57,22.85-4.74,4.75-2,12.2,31.48,10.94s84.28-13.1,103.38-12.92,39.45,10.37,62.84,10.37c36.21,0,93-59.95,108-26.67C352.5,626.77,307.51,638,276,626c-24.09-9.18-42.85-28.57-41.48-46.13,1.67-21.42,22.93-29.93,41.94-30.2s48.72,6.56,64.58,4.11c12.8-2,17.12-20.3,11.63-35.25C288,342.56,281.69,54,304,44.34" transform="translate(0 -15.17)"/><path class="cls-3" d="M272.8,727.52v-3.64h0a.73.73,0,0,0,.55.25.77.77,0,0,0,.56-.25h0v3.64l.37,11.37v1.62h-1.86v-1.62Z" transform="translate(0 -15.17)"/><ellipse class="cls-3" cx="268.28" cy="721.86" rx="0.59" ry="5.37" transform="translate(-500.45 752.61) rotate(-73.03)"/><ellipse class="cls-3" cx="277.27" cy="719.73" rx="5.37" ry="0.59" transform="translate(-416.55 367.65) rotate(-43.03)"/><ellipse class="cls-3" cx="274.65" cy="728.58" rx="0.59" ry="5.37" transform="translate(-157.2 65.52) rotate(-13.03)"/><circle class="cls-4" cx="273.35" cy="708.1" r="0.73"/><path class="cls-3" d="M304,741.87v-3.66a.74.74,0,0,0,.56.26.71.71,0,0,0,.55-.26v3.66l.38,11.37v1.62h-1.86v-1.62Z" transform="translate(0 -15.17)"/><ellipse class="cls-3" cx="299.19" cy="722.48" rx="5.37" ry="0.59"/><ellipse class="cls-3" cx="307.16" cy="732.99" rx="5.37" ry="0.59" transform="translate(-481.2 617.34) rotate(-60)"/><ellipse class="cls-3" cx="307.24" cy="742.22" rx="0.59" ry="5.37" transform="translate(-329.95 237.89) rotate(-30)"/><circle class="cls-4" cx="304.56" cy="722.45" r="0.73"/><path class="cls-3" d="M286.59,740.79v-3.6h0a.73.73,0,0,0,.55.25.75.75,0,0,0,.55-.25h0v3.6l.37,11.23v1.6h-1.84V752Z" transform="translate(0 -15.17)"/><ellipse class="cls-3" cx="291.02" cy="740" rx="0.59" ry="5.3" transform="translate(-456.39 453.4) rotate(-48.57)"/><ellipse class="cls-3" cx="288.16" cy="731.34" rx="5.3" ry="0.59" transform="translate(-485.78 853.72) rotate(-78.57)"/><ellipse class="cls-3" cx="282.07" cy="738.12" rx="5.3" ry="0.59" transform="translate(-220.4 113.11) rotate(-18.57)"/><circle class="cls-4" cx="287.14" cy="721.42" r="0.72"/></svg>