<svg id="Ebene_1" data-name="Ebene 1" xmlns="http://www.w3.org/2000/svg" viewBox="0 0 320 550.63"><defs><style>.cls-1{fill:#079;}.cls-2{fill:#43afe0;}.cls-3,.cls-7,.cls-8{fill:#fff;}.cls-4{fill:#ef8619;}.cls-5{fill:#e2a558;}.cls-6{fill:#e9f2f0;}.cls-7{fill-rule:evenodd;}.cls-8{font-size:8.21px;font-family:BebasNeueBold, Bebas Neue;}.cls-9{letter-spacing:-0.01em;}.cls-10{letter-spacing:-0.04em;}.cls-11{fill:none;stroke:#ef8619;stroke-miterlimit:10;}</style></defs><path class="cls-1" d="M0,560V406.6c4.17-4.53,23.18-10.31,30.14-13.77,15.39-7.64,32.14-16.9,37.93-18.62,26.34-7.82,79.49-3.55,116.71-13.67S278.06,314.8,320,313.77V560Z" transform="translate(0 -9.37)"/><path class="cls-2" d="M320,332.51H320a30.86,30.86,0,0,0-4.86,0,11.33,11.33,0,0,0-6.8,3.45c-1.84,3-2.37,3.76-2.32,4.54a11.64,11.64,0,0,0,.74,2.49.66.66,0,0,1-.49.74c-1.71.55-7.31,2.52-6.8,4.55.66,2.61,6.84,5.14,5.74,6.56-2.34,3-12.75,1.87-17.71,3.88-5.18,2.1.14,6.34-8.88,5.68-16.08-1.18-24.38-1.78-26.56,1.42-2,2.92,1,4.91,3.73,7.36,2.36,2.15,11.4,10.15,11.23,10.45s-1.62,3.32-1,4.81c.7,1.68,5.81,2.47,5.81,2.47s-4.27,3.12-3,6.07c2.33,5.41,8.49,4.82,8,6.69-1.77,7.39-19.16,10.05-27.23,5.19-.86-.51,7-15.51,7-15.51l-14.65-1s-.78,2.22-4.92,11.88l-2.6-1c-.63-.22-1.85-.79-2.23-.92s6.64-9.72,6.64-9.72l-10.12-.52-5,7.79c-1.82-.52-3.14-.87-3.43-.94-.83-.22,3.45-6.75,3.45-6.75l-8.08.93s-1.78,4.24-2.76,4c0,0-2.08-.46-4.06-.85-28.9-5.68-36.89,1.2-36.89,1.2-13.72,7.06.93,30.4-11,31.22-16.15,1.1-22.76-15.2-42.66-18.27-21.63-3.34-39.5-1.1-46.56,1.33-12,4.11,15.93,6.22,4.83,7.53-14,1.64-9.85,7.07-6.07,9.28,3.1,1.81,14.88,14.16,5,33.81C69.94,473.29,27.87,560,27.87,560H140.93s-36.12-87.2-38.31-95.38c-9.67-36.1-16.38-36.5-16.38-38.71,0-3.78,3.44-1.68,11.59-4,12.07-3.4-18.26-8.56-13.28-9.57,4.26-.87,14.48-1.09,18.84-.27,12.69,2.38,21.52,12.1,25.84,15.81,7.37,6.31,14.64,15.13,31.92,15.13,4.27,0,11.53-2.42,13.54-4.09,11.34-9.39-9.93-29.26-1.71-37.9,8.1-6.27,25.69-3.4,25.69-3.4s23.76,4.48,51.21,19.29,39.28-1.52,36.73-10.11c-1.47-5-.21-7.46-11.09-10.64-.41-.12,5.4-2.41,2.06-7.27-1.58-2.3-5.31-1.6-7.14-2.35-1.28-.51,1.42-2.62-1.58-5.17-6-5.08-16.63-12.14-15.82-14.54a20.27,20.27,0,0,1,1.6-1.31c3.69-1.2,4-1.05,28.53,1.89,8,1,4.58-5,5.8-5.81,1-.67,20.32-1.66,23-5,1-1.2-6.58-6.61-6-8,.87-2.27,7.16-3.13,5.56-5.84-1.15-1.94-3-2.36-2.06-5.9C310.56,331.65,320,332.51,320,332.51Z" transform="translate(0 -9.37)"/><path class="cls-3" d="M41.6,418.15h.84v2.25l1.06-2.25h.84l-1,2,1,3.37h-.88l-.71-2.37-.33.68v1.69H41.6Z" transform="translate(0 -9.37)"/><path class="cls-3" d="M44.57,422.22v-2.8a1.27,1.27,0,1,1,2.54,0v2.8a1.27,1.27,0,1,1-2.54,0Zm.31-5.2h.75v.78h-.75Zm1.4,5.25v-2.91c0-.38-.17-.52-.44-.52s-.43.14-.43.52v2.91c0,.38.17.53.43.53S46.28,422.65,46.28,422.27ZM46.06,417h.74v.78h-.74Z" transform="translate(0 -9.37)"/><path class="cls-3" d="M47.68,418.15h.84v4.57h1.37v.76H47.68Z" transform="translate(0 -9.37)"/><path class="cls-3" d="M50.3,418.15h1.05l.81,3.19h0v-3.19h.74v5.33h-.86l-1-3.89h0v3.89H50.3Z" transform="translate(0 -9.37)"/><path class="cls-3" d="M139.56,330.29h1.28c.83,0,1.25.46,1.25,1.32v2.69a1.15,1.15,0,0,1-1.25,1.32h-1.28Zm1.26,4.57c.27,0,.43-.14.43-.52v-2.77c0-.38-.16-.52-.43-.52h-.42v3.81Z" transform="translate(0 -9.37)"/><path class="cls-3" d="M142.62,334.35v-4.06h.84v4.13c0,.38.16.51.42.51s.43-.13.43-.51v-4.13h.81v4.06c0,.86-.43,1.34-1.25,1.34S142.62,335.21,142.62,334.35Zm.29-5.19h.75v.77h-.75Zm1.17,0h.75v.77h-.75Z" transform="translate(0 -9.37)"/><path class="cls-3" d="M145.57,334.35v-.3h.79v.37c0,.38.17.51.43.51s.44-.13.44-.53-.17-.72-.72-1.2a2.07,2.07,0,0,1-.93-1.66,1.17,1.17,0,0,1,1.25-1.33c.81,0,1.22.49,1.22,1.34v.22h-.79v-.27c0-.38-.16-.52-.42-.52s-.42.14-.42.51.17.66.72,1.14a2.07,2.07,0,0,1,.92,1.71c0,.87-.44,1.35-1.26,1.35S145.57,335.21,145.57,334.35Z" transform="translate(0 -9.37)"/><path class="cls-3" d="M148.4,334.35v-.3h.79v.37c0,.38.17.51.43.51s.44-.13.44-.53-.17-.72-.72-1.2a2.07,2.07,0,0,1-.93-1.66,1.17,1.17,0,0,1,1.25-1.33c.82,0,1.22.49,1.22,1.34v.22h-.79v-.27c0-.38-.15-.52-.42-.52s-.42.14-.42.51.18.66.72,1.14a2.06,2.06,0,0,1,.93,1.71,1.18,1.18,0,0,1-1.27,1.35C148.81,335.69,148.4,335.21,148.4,334.35Z" transform="translate(0 -9.37)"/><path class="cls-3" d="M151.38,330.29h2.28v.76h-1.45v1.41h1.15v.76h-1.15v1.64h1.45v.76h-2.28Z" transform="translate(0 -9.37)"/><path class="cls-3" d="M154.14,330.29H155v4.57h1.38v.76h-2.22Z" transform="translate(0 -9.37)"/><path class="cls-3" d="M156.76,330.29H158c.84,0,1.25.46,1.25,1.32v2.69c0,.85-.41,1.32-1.25,1.32h-1.28Zm1.26,4.57c.27,0,.43-.14.43-.52v-2.77c0-.38-.16-.52-.43-.52h-.42v3.81Z" transform="translate(0 -9.37)"/><path class="cls-3" d="M159.79,334.35v-2.8a1.27,1.27,0,1,1,2.54,0v2.8a1.27,1.27,0,1,1-2.54,0Zm1.71.06V331.5c0-.38-.17-.52-.44-.52s-.43.14-.43.52v2.91c0,.38.17.52.43.52S161.5,334.79,161.5,334.41Z" transform="translate(0 -9.37)"/><path class="cls-3" d="M162.9,330.29h1.24c.87,0,1.24.4,1.24,1.23v.32c0,.55-.18.9-.55,1.05v0c.42.13.56.52.56,1.12V335a1.49,1.49,0,0,0,.09.65h-.86a1.85,1.85,0,0,1-.07-.66v-1c0-.5-.15-.66-.53-.66h-.29v2.29h-.83Zm1.14,2.28c.31,0,.5-.13.5-.56v-.41c0-.38-.13-.55-.43-.55h-.38v1.52Z" transform="translate(0 -9.37)"/><path class="cls-3" d="M166,330.29h2.21v.76H166.8v1.49h1.08v.76H166.8v2.32H166Z" transform="translate(0 -9.37)"/><path class="cls-3" d="M269.26,442.27v-2.8a1.27,1.27,0,1,1,2.54,0v2.8a1.27,1.27,0,1,1-2.54,0Zm1.7.05v-2.91c0-.38-.16-.52-.43-.52s-.43.14-.43.52v2.91c0,.38.16.52.43.52S271,442.7,271,442.32Z" transform="translate(0 -9.37)"/><path class="cls-3" d="M272.37,438.2h1.26c.87,0,1.24.41,1.24,1.23v.21c0,.55-.17.89-.54,1v0c.45.15.62.55.62,1.11v.46a1.13,1.13,0,0,1-1.27,1.26h-1.31Zm1.16,2.17c.31,0,.5-.14.5-.56v-.3c0-.38-.13-.55-.42-.55h-.41v1.41Zm.15,2.4c.28,0,.44-.13.44-.53v-.46c0-.5-.16-.65-.54-.65h-.38v1.64Z" transform="translate(0 -9.37)"/><path class="cls-3" d="M275.44,438.2h2.29V439h-1.45v1.41h1.15v.76h-1.15v1.64h1.45v.76h-2.29Z" transform="translate(0 -9.37)"/><path class="cls-3" d="M278.21,438.2h1.24c.87,0,1.24.41,1.24,1.23v.32c0,.55-.18.9-.55,1.05v0c.42.13.56.52.56,1.13v.93a1.49,1.49,0,0,0,.09.65h-.86a1.85,1.85,0,0,1-.07-.66v-1c0-.49-.15-.65-.53-.65H279v2.28h-.83Zm1.14,2.29c.31,0,.5-.14.5-.57v-.41c0-.38-.13-.55-.43-.55H279v1.53Z" transform="translate(0 -9.37)"/><path class="cls-3" d="M281.28,438.2h.83v2.17h.9V438.2h.84v5.33H283v-2.4h-.9v2.4h-.83Z" transform="translate(0 -9.37)"/><path class="cls-3" d="M285.12,438.2h1.13l.87,5.33h-.83l-.16-1.06v0h-.95l-.15,1h-.78Zm.91,3.56-.37-2.63h0l-.37,2.63Z" transform="translate(0 -9.37)"/><path class="cls-3" d="M287.48,442.27V438.2h.84v4.13c0,.38.16.51.42.51s.43-.13.43-.51V438.2H290v4.07a1.25,1.25,0,1,1-2.5,0Z" transform="translate(0 -9.37)"/><path class="cls-3" d="M290.43,442.27V442h.79v.37c0,.38.17.51.43.51s.44-.13.44-.53-.17-.72-.72-1.2a2.07,2.07,0,0,1-.93-1.66,1.16,1.16,0,0,1,1.25-1.32c.82,0,1.22.48,1.22,1.34v.22h-.79v-.28c0-.38-.15-.52-.42-.52s-.42.14-.42.51.18.67.72,1.15a2,2,0,0,1,.92,1.7c0,.87-.44,1.36-1.26,1.36S290.43,443.12,290.43,442.27Z" transform="translate(0 -9.37)"/><path class="cls-3" d="M293.41,438.2h2.28V439h-1.45v1.41h1.15v.76h-1.15v1.64h1.45v.76h-2.28Z" transform="translate(0 -9.37)"/><path class="cls-3" d="M296.17,438.2h1.05l.81,3.19h0V438.2h.75v5.33h-.86l-1-3.89h0v3.89h-.75Z" transform="translate(0 -9.37)"/><path class="cls-3" d="M217.09,367.54h1.27c.84,0,1.25.47,1.25,1.32v2.69c0,.85-.41,1.32-1.25,1.32h-1.27Zm1.26,4.57c.27,0,.43-.14.43-.52v-2.77c0-.38-.16-.52-.43-.52h-.43v3.81Z" transform="translate(0 -9.37)"/><path class="cls-3" d="M220.15,371.61v-4.07H221v4.13c0,.38.16.51.43.51s.43-.13.43-.51v-4.13h.8v4.07c0,.85-.42,1.33-1.24,1.33S220.15,372.46,220.15,371.61Z" transform="translate(0 -9.37)"/><path class="cls-3" d="M223.24,367.54h.84v5.33h-.84Z" transform="translate(0 -9.37)"/><path class="cls-3" d="M224.56,371.61v-.31h.79v.37c0,.38.16.51.43.51s.43-.13.43-.53-.16-.72-.71-1.2a2.07,2.07,0,0,1-.93-1.66,1.16,1.16,0,0,1,1.25-1.32c.81,0,1.22.48,1.22,1.33V369h-.8v-.28c0-.38-.15-.52-.41-.52s-.42.14-.42.51.17.67.72,1.15a2,2,0,0,1,.92,1.7c0,.87-.44,1.35-1.26,1.35S224.56,372.46,224.56,371.61Z" transform="translate(0 -9.37)"/><path class="cls-3" d="M227.53,367.54h1.27c.86,0,1.24.4,1.24,1.23V369c0,.55-.17.89-.54,1v0c.45.15.62.55.62,1.11v.46a1.13,1.13,0,0,1-1.27,1.26h-1.32Zm1.17,2.17c.31,0,.5-.14.5-.56v-.3c0-.38-.13-.55-.43-.55h-.4v1.41Zm.15,2.4c.28,0,.43-.13.43-.53v-.46c0-.5-.16-.65-.54-.65h-.37v1.64Z" transform="translate(0 -9.37)"/><path class="cls-3" d="M230.58,371.61v-4.07h.84v4.13c0,.38.16.51.42.51s.43-.13.43-.51v-4.13h.81v4.07a1.16,1.16,0,0,1-1.25,1.33C231,372.94,230.58,372.46,230.58,371.61Z" transform="translate(0 -9.37)"/><path class="cls-3" d="M233.67,367.54h1.24c.87,0,1.24.4,1.24,1.23v.32c0,.55-.17.9-.55,1.05v0c.42.13.56.52.56,1.13v.93a1.65,1.65,0,0,0,.09.65h-.85a1.55,1.55,0,0,1-.08-.66v-1c0-.49-.14-.65-.52-.65h-.29v2.28h-.84Zm1.14,2.28c.31,0,.5-.13.5-.56v-.41c0-.38-.13-.55-.42-.55h-.38v1.52Z" transform="translate(0 -9.37)"/><path class="cls-3" d="M236.68,371.61V368.8c0-.85.42-1.33,1.25-1.33s1.24.48,1.24,1.33v.46h-.79v-.51c0-.38-.16-.52-.43-.52s-.43.14-.43.52v2.92c0,.38.16.51.43.51s.43-.13.43-.51v-1.05H238v-.76h1.21v1.75c0,.85-.42,1.33-1.24,1.33S236.68,372.46,236.68,371.61Z" transform="translate(0 -9.37)"/><path class="cls-3" d="M239.59,369.82h1.68v.77h-1.68Z" transform="translate(0 -9.37)"/><path class="cls-3" d="M241.77,367.54h.84v2.17h.9v-2.17h.83v5.33h-.83v-2.4h-.9v2.4h-.84Z" transform="translate(0 -9.37)"/><path class="cls-3" d="M245.62,367.54h1.13l.87,5.33h-.84l-.15-1.06v0h-.95l-.15,1h-.78Zm.91,3.56-.37-2.63h0l-.36,2.63Z" transform="translate(0 -9.37)"/><path class="cls-3" d="M248,367.54h2.22v.76h-1.38v1.49h1.08v.76h-1.08v2.32H248Z" transform="translate(0 -9.37)"/><path class="cls-3" d="M250.64,367.54h2.29v.76h-1.45v1.41h1.15v.76h-1.15v1.64h1.45v.76h-2.29Z" transform="translate(0 -9.37)"/><path class="cls-3" d="M253.41,367.54h1.05l.81,3.19h0v-3.19H256v5.33h-.86l-1-3.89h0v3.89h-.74Z" transform="translate(0 -9.37)"/><path class="cls-3" d="M288.88,326.42h2.28v.76h-1.44v1.4h1.15v.77h-1.15V331h1.44v.76h-2.28Z" transform="translate(0 -9.37)"/><path class="cls-3" d="M291.51,330.48v-.3h.8v.36c0,.38.16.52.43.52s.43-.14.43-.53-.16-.73-.71-1.21a2.06,2.06,0,0,1-.93-1.66,1.16,1.16,0,0,1,1.25-1.32c.81,0,1.22.49,1.22,1.34v.22h-.8v-.27c0-.38-.15-.53-.41-.53s-.42.15-.42.51.17.67.72,1.15a2.06,2.06,0,0,1,.92,1.7c0,.87-.44,1.36-1.26,1.36S291.51,331.33,291.51,330.48Z" transform="translate(0 -9.37)"/><path class="cls-3" d="M294.35,330.48v-.3h.79v.36c0,.38.17.52.43.52s.44-.14.44-.53-.17-.73-.72-1.21a2.06,2.06,0,0,1-.93-1.66,1.17,1.17,0,0,1,1.25-1.32c.81,0,1.22.49,1.22,1.34v.22H296v-.27c0-.38-.16-.53-.42-.53s-.42.15-.42.51.17.67.72,1.15a2.06,2.06,0,0,1,.92,1.7c0,.87-.44,1.36-1.26,1.36S294.35,331.33,294.35,330.48Z" transform="translate(0 -9.37)"/><path class="cls-3" d="M297.32,326.42h2.29v.76h-1.45v1.4h1.15v.77h-1.15V331h1.45v.76h-2.29Z" transform="translate(0 -9.37)"/><path class="cls-3" d="M300.09,326.42h1.05l.81,3.18h0v-3.18h.74v5.32h-.86l-1-3.89h0v3.89h-.74Z" transform="translate(0 -9.37)"/><path class="cls-3" d="M74.86,369.51h1l.44,3.15h0l.44-3.15h1v4.4h-.65v-3.33h0l-.51,3.33H76l-.5-3.33h0v3.33h-.6Z" transform="translate(0 -9.37)"/><path class="cls-3" d="M78.19,372.87v-2.31a1.05,1.05,0,1,1,2.1,0v2.31a1.05,1.05,0,1,1-2.1,0Zm.26-4.3h.62v.65h-.62Zm1.15,4.34v-2.4c0-.31-.14-.43-.36-.43s-.36.12-.36.43v2.4c0,.32.14.44.36.44S79.6,373.23,79.6,372.91Zm-.18-4.34H80v.65h-.61Z" transform="translate(0 -9.37)"/><path class="cls-3" d="M80.76,369.51h.87l.67,2.64h0v-2.64h.62v4.4h-.71l-.83-3.21h0v3.21h-.62Z" transform="translate(0 -9.37)"/><path class="cls-3" d="M83.4,372.9v-2.37a1,1,0,1,1,2,0V371h-.65v-.51c0-.29-.14-.41-.35-.41s-.35.12-.35.41V373c0,.28.14.4.35.4s.35-.12.35-.4v-.68h.65v.63a1,1,0,1,1-2,0Z" transform="translate(0 -9.37)"/><path class="cls-3" d="M85.86,369.51h.69v1.79h.74v-1.79H88v4.4h-.69v-2h-.74v2h-.69Z" transform="translate(0 -9.37)"/><path class="cls-3" d="M88.5,369.51h1.89v.63h-1.2v1.16h1v.63h-1v1.36h1.2v.62H88.5Z" transform="translate(0 -9.37)"/><path class="cls-3" d="M90.78,369.51h.87l.68,2.64h0v-2.64H93v4.4h-.71l-.83-3.21h0v3.21h-.62Z" transform="translate(0 -9.37)"/><path class="cls-3" d="M93.42,372.87v-2.31c0-.71.35-1.11,1-1.11s1,.4,1,1.11v.37h-.65v-.42c0-.31-.14-.43-.36-.43s-.36.12-.36.43v2.41c0,.31.14.43.36.43s.36-.12.36-.43v-.86h-.35v-.63h1v1.44c0,.7-.35,1.11-1,1.11S93.42,373.57,93.42,372.87Z" transform="translate(0 -9.37)"/><path class="cls-3" d="M95.93,369.51h.69v3.78h1.14v.62H95.93Z" transform="translate(0 -9.37)"/><path class="cls-3" d="M98.66,369.51h.94l.71,4.4h-.69l-.13-.87h-.78l-.13.86h-.64Zm.75,2.95-.31-2.18h0l-.3,2.18Z" transform="translate(0 -9.37)"/><path class="cls-3" d="M100.65,369.51h1c.7,0,1,.38,1,1.09v2.23a.94.94,0,0,1-1,1.08h-1Zm1,3.78c.22,0,.35-.12.35-.43v-2.29c0-.32-.13-.43-.35-.43h-.35v3.15Z" transform="translate(0 -9.37)"/><path class="cls-3" d="M103.2,369.51h1c.71,0,1,.33,1,1v.18c0,.45-.14.74-.45.86h0c.38.13.52.46.52.92v.38a.93.93,0,0,1-1,1H103.2Zm1,1.79c.26,0,.42-.11.42-.46v-.25c0-.31-.11-.45-.35-.45h-.34v1.16Zm.13,2c.23,0,.36-.11.36-.44v-.38c0-.41-.13-.54-.45-.54h-.31v1.36Z" transform="translate(0 -9.37)"/><path class="cls-3" d="M106.28,369.51h.94l.71,4.4h-.69l-.12-.87h-.79l-.13.86h-.64Zm.75,2.95-.3-2.18h0l-.3,2.18Z" transform="translate(0 -9.37)"/><path class="cls-3" d="M108.21,372.9v-2.37a1,1,0,1,1,2,0V371h-.65v-.51c0-.29-.14-.41-.35-.41s-.35.12-.35.41V373c0,.28.14.4.35.4s.35-.12.35-.4v-.68h.65v.63a1,1,0,1,1-2,0Z" transform="translate(0 -9.37)"/><path class="cls-3" d="M110.67,369.51h.69v1.79h.74v-1.79h.69v4.4h-.69v-2h-.74v2h-.69Z" transform="translate(0 -9.37)"/><path class="cls-4" d="M35.63,422.73c.6-1,2.62-4.51,2.62-5.83a2.8,2.8,0,0,0-5.59,0c0,1.32,2,4.81,2.63,5.83-.7,0-1.23.2-1.23.42s.62.42,1.4.42,1.4-.19,1.4-.42S36.32,422.76,35.63,422.73Zm-2.14-5.83a2,2,0,1,1,2,2A2,2,0,0,1,33.49,416.9Z" transform="translate(0 -9.37)"/><path class="cls-4" d="M153.89,347.13c.6-1,2.62-4.52,2.62-5.83a2.8,2.8,0,1,0-5.59,0c0,1.31,2,4.81,2.63,5.83-.7,0-1.24.2-1.24.41s.63.43,1.41.43,1.4-.19,1.4-.43S154.58,347.15,153.89,347.13Zm-2.14-5.84a2,2,0,1,1,2,2A2,2,0,0,1,151.75,341.29Z" transform="translate(0 -9.37)"/><path class="cls-4" d="M224.25,363.91c.6-1,2.62-4.52,2.62-5.83a2.8,2.8,0,0,0-5.59,0c0,1.31,2,4.81,2.63,5.83-.7,0-1.24.2-1.24.42s.63.42,1.41.42,1.4-.19,1.4-.42S224.94,363.94,224.25,363.91Zm-2.14-5.84a2,2,0,1,1,2,2A2,2,0,0,1,222.11,358.07Z" transform="translate(0 -9.37)"/><path class="cls-4" d="M274.46,435.78c.6-1,2.62-4.52,2.62-5.83a2.8,2.8,0,0,0-5.59,0c0,1.31,2,4.81,2.63,5.83-.7,0-1.24.2-1.24.42s.63.42,1.41.42,1.4-.19,1.4-.42S275.15,435.81,274.46,435.78Zm-2.14-5.84a2,2,0,1,1,2,2A2,2,0,0,1,272.32,429.94Z" transform="translate(0 -9.37)"/><path class="cls-4" d="M310.7,325.54c.61-1,2.63-4.51,2.63-5.82a2.8,2.8,0,1,0-5.59,0c0,1.31,2,4.81,2.62,5.82-.69,0-1.23.21-1.23.42s.63.42,1.4.42,1.41-.18,1.41-.42S311.4,325.57,310.7,325.54Zm-2.13-5.83a2,2,0,1,1,2,2A2,2,0,0,1,308.57,319.71Z" transform="translate(0 -9.37)"/><path class="cls-4" d="M70.56,381.62c.61-1,2.63-4.51,2.63-5.83a2.8,2.8,0,0,0-5.59,0c0,1.32,2,4.81,2.62,5.83-.69,0-1.23.2-1.23.42s.63.42,1.4.42,1.41-.19,1.41-.42S71.26,381.65,70.56,381.62Zm-2.13-5.83a2,2,0,1,1,2,2A2,2,0,0,1,68.43,375.79Z" transform="translate(0 -9.37)"/><path class="cls-3" d="M154.36,366.93c0,1,.09,1.93.13,2.89s.07,1.63.11,2.44c0,1,.08,2,.13,3,0,.78.07,1.56.1,2.34l.12,2.75c.05,1,.09,2,.13,3,0,.84.08,1.68.11,2.52s.09,1.9.13,2.85.07,1.64.11,2.46l0,.74c0,.06,0,.09-.07.11a5.56,5.56,0,0,1-.9.29c-.19,0-.38.06-.57.07a5.42,5.42,0,0,1-.57,0,3.91,3.91,0,0,1-1.16-.31c-.15-.07-.16-.06-.15-.23v-.05c0-.8.05-1.6.08-2.4.06-1.45.11-2.9.16-4.34.05-1.29.09-2.59.14-3.88.06-1.54.11-3.09.17-4.64,0-1.2.08-2.39.13-3.59s.08-2.35.13-3.53c0-.81.05-1.63.08-2.44a.25.25,0,0,0,0-.17" transform="translate(0 -9.37)"/><path class="cls-3" d="M152.89,366.77l-1.65-3.07a.16.16,0,0,0,0-.07l-.92-1.74-.07-.13c-.08-.15-.08-.15.07-.22a4.88,4.88,0,0,1,.66-.29.22.22,0,0,1,.14-.06,6.25,6.25,0,0,1,1.29-.24,9.37,9.37,0,0,1,1.4-.06,11.24,11.24,0,0,1,2.58.31s.09,0,.12.05.28.09.42.16l.12.08a.12.12,0,0,1,0,.17l-2.66,5.13a.32.32,0,0,0,0,.14" transform="translate(0 -9.37)"/><path class="cls-3" d="M154.93,358.12a5.56,5.56,0,0,1,.91.36.21.21,0,0,1,.14.23,1,1,0,0,1-.18.64s-.05.06-.09,0a.23.23,0,0,1-.14,0,7.8,7.8,0,0,0-1.18-.17h-.67a11.88,11.88,0,0,0-2.06.2c-.21,0-.23,0-.34-.16a.54.54,0,0,1-.11-.37c0-.3,0-.3.28-.42A6.65,6.65,0,0,1,153,358c.05,0,.06,0,.07-.08,0-.45,0-.89.07-1.33,0-.65.06-1.29.11-1.94a3.17,3.17,0,0,1,.16-.66,1.52,1.52,0,0,0,0-.21c0-1.25,0-2.5,0-3.75a.19.19,0,0,1,.09-.17c.07,0,.12,0,.18,0s0,.08,0,.13l0,2.09c0,.56,0,1.12,0,1.68a2.29,2.29,0,0,0,.09.44,5,5,0,0,1,.14,1c0,.56.09,1.12.13,1.68,0,.32,0,.63.07.95,0,.07,0,.1.1.11Z" transform="translate(0 -9.37)"/><path class="cls-5" d="M151,360.85a1.4,1.4,0,0,1-.42-.75c0-.1,0-.15.1-.18l.34-.14a.17.17,0,0,1,.12-.06,8.68,8.68,0,0,1,1.82-.39,10.94,10.94,0,0,1,1.28,0,6.29,6.29,0,0,1,1.36.2s.08,0,.11.05a5.77,5.77,0,0,1,.91.32l.12.05c.14.07.15.09.11.25a1.36,1.36,0,0,1-.36.61l-.07.07a.24.24,0,0,1-.29.15c-.49-.1-1-.17-1.48-.22a12.13,12.13,0,0,0-1.48,0,6.55,6.55,0,0,0-1.81.26A.3.3,0,0,1,151,360.85Z" transform="translate(0 -9.37)"/><path class="cls-3" d="M292.22,417.11a2.89,2.89,0,0,0-5.76,0h-3.6v.57H282v-1.85h-1.36v20.71H282v-.38h.88v.38h13V417.11Zm-9.36.88v.75H282V418ZM282,433.71V433h.88v.75Zm.88.32v.75H282V434Zm-.88-1.39v-.75h.88v.75Zm0-1.07v-.75h.88v.75Zm0-1.07v-.75h.88v.75Zm0-1.07v-.75h.88v.75Zm0-1.07v-.75h.88v.75Zm0-1.06v-.76h.88v.76Zm0-1.07v-.75h.88v.75Zm0-1.07v-.75h.88v.75Zm0-1.07v-.75h.88v.75Zm0-1.07v-.75h.88V423Zm0-1.07v-.75h.88V422Zm0-1.07v-.75h.88v.75Zm0-1.07v-.75h.88v.75Zm0,16v-.75h.88v.75Z" transform="translate(0 -9.37)"/><path class="cls-3" d="M298.76,310.94a14.86,14.86,0,0,1,0-2.3,17.18,17.18,0,0,1,1.73-.25l.26-1.33v-.34h-9.86v.34l.25,1.33a17.35,17.35,0,0,1,1.74.25,15,15,0,0,1,0,2.3c0,.26-6.3,13.53-6.3,13.53h1.32l3.95-8.21H295v8.26h1.69v-8.26h3.16l3.94,8.21h1.33S298.81,311.2,298.76,310.94Zm.42-3.63a4.55,4.55,0,0,0,1.07-.16l-.14.82h-1.44S298.47,307.36,299.18,307.31Zm-5.67.35c0-.25.33-.3.33-.3h3.87s.3.05.33.3a.69.69,0,0,1,0,.31h-4.53A.69.69,0,0,1,293.51,307.66Zm-.63.31h-1.44l-.13-.82a4.55,4.55,0,0,0,1.07.16C293.09,307.36,292.88,308,292.88,308Zm2.11,7H292.4l1.05-2.07a.64.64,0,0,1,.56-.34c.4,0,1,0,1,0Zm.62-4.59h-1.76a.27.27,0,0,1-.24-.19s0-.94,0-1.24a.3.3,0,0,1,.32-.3h3.69a.3.3,0,0,1,.31.3c0,.3,0,1.24,0,1.24a.27.27,0,0,1-.24.19Zm.93,4.59v-2.4s.59,0,1,0a.66.66,0,0,1,.56.34l1,2.07Z" transform="translate(0 -9.37)"/><path class="cls-5" d="M293.31,309a1.45,1.45,0,1,0,1.45,1.45A1.45,1.45,0,0,0,293.31,309Zm.16.33a1.21,1.21,0,0,1,.52.22l-.52.52Zm-.32.74-.52-.52a1.21,1.21,0,0,1,.52-.22Zm-.22.22h-.74a1.1,1.1,0,0,1,.22-.52Zm0,.32-.52.52a1.1,1.1,0,0,1-.22-.52Zm.22.22v.74a1.1,1.1,0,0,1-.52-.22Zm.32,0,.52.52a1.1,1.1,0,0,1-.52.22Zm.22-.22h.74a1.21,1.21,0,0,1-.22.52Zm0-.32.52-.52a1.21,1.21,0,0,1,.22.52Z" transform="translate(0 -9.37)"/><path class="cls-5" d="M299.78,310.41a1.45,1.45,0,1,0-1.45,1.45A1.45,1.45,0,0,0,299.78,310.41Zm-1.07.16h.74a1.16,1.16,0,0,1-.22.52Zm.3.75a1.19,1.19,0,0,1-.52.21v-.73Zm-.3-1.07.52-.51a1.12,1.12,0,0,1,.22.51Zm-.22-.22v-.73a1.08,1.08,0,0,1,.52.21Zm-.32,0-.52-.52a1.08,1.08,0,0,1,.52-.21Zm-.22.22h-.74a1,1,0,0,1,.22-.51Zm0,.32-.52.52a1.06,1.06,0,0,1-.22-.52Zm.22.23v.73a1.19,1.19,0,0,1-.52-.21Z" transform="translate(0 -9.37)"/><path class="cls-5" d="M291.44,313.67a1.94,1.94,0,1,0,1.93,1.93A1.94,1.94,0,0,0,291.44,313.67Zm.15.33a1.58,1.58,0,0,1,.87.36l-.87.86Zm-.31,1.22-.86-.86a1.55,1.55,0,0,1,.86-.36Zm-.23.22h-1.22a1.66,1.66,0,0,1,.36-.86Zm0,.32-.86.86a1.62,1.62,0,0,1-.36-.86Zm.23.23v1.21a1.61,1.61,0,0,1-.86-.35Zm.31,0,.87.86a1.64,1.64,0,0,1-.87.35Zm.23-.23H293a1.62,1.62,0,0,1-.36.86Zm0-.32.86-.86a1.66,1.66,0,0,1,.36.86Z" transform="translate(0 -9.37)"/><path class="cls-5" d="M299.94,313.67a1.94,1.94,0,1,0,1.94,1.93A1.94,1.94,0,0,0,299.94,313.67Zm.16.33a1.55,1.55,0,0,1,.86.36l-.86.86Zm-.32,1.22-.86-.86a1.58,1.58,0,0,1,.86-.36Zm-.22.22h-1.22a1.58,1.58,0,0,1,.36-.86Zm0,.32-.86.86a1.55,1.55,0,0,1-.36-.86Zm.22.23v1.21a1.64,1.64,0,0,1-.86-.35Zm.32,0,.86.86a1.61,1.61,0,0,1-.86.35Zm.23-.23h1.21a1.61,1.61,0,0,1-.35.86Zm0-.32.86-.86a1.64,1.64,0,0,1,.35.86Z" transform="translate(0 -9.37)"/><rect class="cls-3" x="291.45" y="309.38" width="8.55" height="5.81"/><path class="cls-6" d="M241.16,352.29A3,3,0,0,0,242,348a1.24,1.24,0,0,0-.64-2.29,1.22,1.22,0,0,0-1.22,1.18,1,1,0,0,0-.82-.45,1,1,0,0,0-1,1,.34.34,0,0,0,0,.1,1.64,1.64,0,0,0-1-.33,1.68,1.68,0,0,0-1.58,2.19h-.18a2,2,0,0,0-2,2,2,2,0,0,0,.25.95c3.32.06,6,.06,7.23.06Z" transform="translate(0 -9.37)"/><path class="cls-6" d="M244.69,346.9a1.06,1.06,0,1,0-1-1.06A1.06,1.06,0,0,0,244.69,346.9Z" transform="translate(0 -9.37)"/><path class="cls-6" d="M248.6,355.45a19.82,19.82,0,0,0,1.11-2,1.28,1.28,0,0,0-.43-.94.83.83,0,0,0,.46-.73,1,1,0,0,0-2,0,.84.84,0,0,0-.66-.31.74.74,0,0,0-.78.68v.08a1.39,1.39,0,0,0-.79-.23,1.26,1.26,0,0,0-1.34,1.16,1,1,0,0,0,.06.34h-.14a1.48,1.48,0,0,0-1.57,1.36,1.28,1.28,0,0,0,.42.93c2.42,0,4.42,0,5.46,0A1.24,1.24,0,0,0,248.6,355.45Z" transform="translate(0 -9.37)"/><path class="cls-6" d="M251.53,350.54h0a.86.86,0,1,0,.84.86.89.89,0,0,0-.16-.48l-.07,0A.7.7,0,0,1,251.53,350.54Z" transform="translate(0 -9.37)"/><path class="cls-6" d="M252.84,350.22a.7.7,0,1,0-1.39,0,.66.66,0,0,0,.08.32.83.83,0,0,1,.68.38A.7.7,0,0,0,252.84,350.22Z" transform="translate(0 -9.37)"/><path class="cls-6" d="M251.53,350.54a.7.7,0,0,0,.61.4l.07,0A.83.83,0,0,0,251.53,350.54Z" transform="translate(0 -9.37)"/><path class="cls-3" d="M242.64,365.61c-.13-.84-.3-2.25-.45-4.39s-.3-5.06-.36-8.89h-.69c-1.21,0-3.91,0-7.23-.06h-.46c-.24,12.18-1.37,14.36-1.37,14.36h10.74S242.74,366.32,242.64,365.61Z" transform="translate(0 -9.37)"/><path class="cls-3" d="M249.23,355.75h-.79c-1,0-3,0-5.46,0h-.5c0,2.34-.16,4.14-.29,5.52.15,2.14.32,3.55.45,4.39H250S249.36,363.21,249.23,355.75Z" transform="translate(0 -9.37)"/><path class="cls-3" d="M52.9,403.33l-.49-3.11-.52-3.29-.18,1.33-.18-1.15L51.19,395l-.11.77L50,388.63a.48.48,0,0,0,.25-.42.48.48,0,0,0-.22-.4.14.14,0,0,0,0-.07.27.27,0,0,0-.22-.25l-.06-.43-.08.43a.28.28,0,0,0-.18.25s0,0,0,.06a.48.48,0,0,0,0,.8L47.6,399l-.81-2.71v0h0v0L46,399l-1.9-10.36a.47.47,0,0,0,.2-.39.48.48,0,0,0-.22-.4.15.15,0,0,0,0-.07.26.26,0,0,0-.19-.25l-.08-.43-.07.43a.26.26,0,0,0-.19.25s0,0,0,.06a.48.48,0,0,0,0,.83l-1.12,7.53L42.25,395,42,397.12l-.14,1-.19-1.2-.45,3.3-.43,3.1H39.28v11H54.5v-11Z" transform="translate(0 -9.37)"/><path class="cls-5" d="M44.52,399.17a.36.36,0,0,0,0-.11V396.9a.6.6,0,0,0-1.2,0v2.16a.37.37,0,0,0,0,.11Z" transform="translate(0 -9.37)"/><path class="cls-5" d="M44.52,403.48a.5.5,0,0,0,0-.12V401.2a.6.6,0,0,0-1.2,0v2.16a.49.49,0,0,0,0,.12Z" transform="translate(0 -9.37)"/><path class="cls-5" d="M50.38,399.17a.37.37,0,0,0,0-.11V396.9a.59.59,0,0,0-.59-.6.6.6,0,0,0-.6.6v2.16a.37.37,0,0,0,0,.11Z" transform="translate(0 -9.37)"/><path class="cls-5" d="M50.38,403.48a.49.49,0,0,0,0-.12V401.2a.59.59,0,0,0-.59-.6.6.6,0,0,0-.6.6v2.16a.49.49,0,0,0,0,.12Z" transform="translate(0 -9.37)"/><path class="cls-5" d="M41.74,407.55a.36.36,0,0,0,0-.11v-2.16a.6.6,0,0,0-1.2,0v2.16s0,.08,0,.11Z" transform="translate(0 -9.37)"/><path class="cls-5" d="M43.56,407.55a.37.37,0,0,0,0-.11v-2.16a.6.6,0,0,0-.6-.6.59.59,0,0,0-.59.6v2.16a.37.37,0,0,0,0,.11Z" transform="translate(0 -9.37)"/><path class="cls-5" d="M51.3,407.55s0-.07,0-.11v-2.16a.6.6,0,0,0-1.2,0v2.16s0,.08,0,.11Z" transform="translate(0 -9.37)"/><path class="cls-5" d="M53.11,407.55a.37.37,0,0,0,0-.11v-2.16a.6.6,0,0,0-.6-.6.59.59,0,0,0-.59.6v2.16a.37.37,0,0,0,0,.11Z" transform="translate(0 -9.37)"/><path class="cls-5" d="M46.69,413.71c0-.06,0-.12,0-.18v-3.39c0-.52-.27-.94-.6-.94s-.6.42-.6.94v3.39c0,.06,0,.12,0,.18Z" transform="translate(0 -9.37)"/><path class="cls-5" d="M48.5,413.71a1.09,1.09,0,0,0,0-.18v-3.39c0-.52-.26-.94-.59-.94s-.6.42-.6.94v3.39a1.09,1.09,0,0,0,0,.18Z" transform="translate(0 -9.37)"/><path class="cls-5" d="M47.93,407.55a.36.36,0,0,0,0-.11v-2.16c0-.33-.46-.6-1-.6s-1,.27-1,.6v2.16a.36.36,0,0,0,0,.11Z" transform="translate(0 -9.37)"/><path class="cls-5" d="M47.4,403.48a.31.31,0,0,0,0-.1V401.7a.47.47,0,0,0-.47-.47.46.46,0,0,0-.46.47v1.78Z" transform="translate(0 -9.37)"/><path class="cls-5" d="M41.79,412.36s0-.07,0-.11v-2.16a.6.6,0,1,0-1.2,0v2.16s0,.07,0,.11Z" transform="translate(0 -9.37)"/><path class="cls-5" d="M43.6,412.36a.41.41,0,0,0,0-.11v-2.16a.59.59,0,0,0-.59-.6.6.6,0,0,0-.6.6v2.16a.41.41,0,0,0,0,.11Z" transform="translate(0 -9.37)"/><path class="cls-5" d="M51.34,412.36s0-.07,0-.11v-2.16a.6.6,0,0,0-1.2,0v2.16a.43.43,0,0,0,0,.11Z" transform="translate(0 -9.37)"/><path class="cls-5" d="M53.15,412.36a.41.41,0,0,0,0-.11v-2.16a.59.59,0,0,0-.59-.6.6.6,0,0,0-.6.6v2.16a.41.41,0,0,0,0,.11Z" transform="translate(0 -9.37)"/><rect class="cls-3" x="82.81" y="369.84" width="2.45" height="0.61"/><rect class="cls-3" x="92.6" y="369.84" width="2.45" height="0.61"/><rect class="cls-3" x="97.49" y="369.84" width="2.45" height="0.61"/><rect class="cls-3" x="87.7" y="369.84" width="2.45" height="0.61"/><rect class="cls-3" x="102.39" y="369.84" width="2.45" height="0.61"/><rect class="cls-3" x="76.88" y="369.93" width="5.71" height="0.32"/><rect class="cls-3" x="76.88" y="369.29" width="5.71" height="0.32"/><rect class="cls-3" x="76.88" y="371.2" width="5.71" height="0.32"/><rect class="cls-3" x="76.88" y="368.02" width="5.71" height="0.32"/><rect class="cls-3" x="76.88" y="371.83" width="5.71" height="0.32"/><rect class="cls-3" x="76.88" y="368.66" width="5.71" height="0.32"/><rect class="cls-3" x="76.88" y="370.56" width="5.71" height="0.32"/><rect class="cls-3" x="105.14" y="370.56" width="5.71" height="0.32"/><rect class="cls-3" x="105.14" y="368.66" width="5.71" height="0.32"/><rect class="cls-3" x="105.14" y="368.02" width="5.71" height="0.32"/><rect class="cls-3" x="105.14" y="369.93" width="5.71" height="0.32"/><rect class="cls-3" x="105.14" y="371.83" width="5.71" height="0.32"/><rect class="cls-3" x="105.14" y="369.29" width="5.71" height="0.32"/><rect class="cls-3" x="105.14" y="371.2" width="5.71" height="0.32"/><polygon class="cls-3" points="75.29 367.07 75.29 367.71 76.88 367.71 82.59 367.71 105.14 367.71 110.85 367.71 112.86 367.71 112.86 367.07 75.29 367.07"/><rect class="cls-3" x="75.29" y="372.31" width="37.57" height="0.63"/><polygon class="cls-7" points="139.93 529.23 139.56 529.23 120.04 529.23 119.14 529.23 119.78 528.59 124.47 523.9 119.72 519.15 119.09 518.51 119.98 518.51 139.56 518.51 139.93 518.51 139.93 518.88 139.93 528.86 139.93 529.23 139.93 529.23"/><polygon class="cls-1" points="133.14 524.97 140.02 524.97 140.02 529.55 133.14 524.97"/><polygon class="cls-1" points="187.18 524.97 180.3 524.97 180.3 529.55 187.18 524.97"/><polygon class="cls-3" points="187.38 519.23 200.91 519.22 195.53 524.61 200.86 529.93 180.41 529.74 187.38 525.06 187.38 519.23"/><rect class="cls-3" x="132.98" y="514.13" width="54.41" height="10.71"/><path class="cls-1" d="M138,524.85h1.14v6.21H141v1h-3Z" transform="translate(0 -9.37)"/><path class="cls-1" d="M141.42,530.37v-3.81a1.73,1.73,0,1,1,3.45,0v3.81a1.73,1.73,0,1,1-3.45,0Zm2.31.08v-4c0-.52-.22-.71-.59-.71s-.59.19-.59.71v4c0,.51.23.71.59.71S143.73,531,143.73,530.45Z" transform="translate(0 -9.37)"/><path class="cls-1" d="M145.57,530.42v-3.9a1.68,1.68,0,1,1,3.35,0v.77h-1.08v-.84c0-.48-.22-.67-.57-.67s-.57.19-.57.67v4c0,.47.23.66.57.66s.57-.19.57-.66v-1.11h1.08v1a1.68,1.68,0,1,1-3.35,0Z" transform="translate(0 -9.37)"/><path class="cls-1" d="M150.48,524.85H152l1.18,7.24h-1.13l-.21-1.44v0h-1.29l-.21,1.42H149.3Zm1.24,4.84-.5-3.58h0l-.5,3.58Z" transform="translate(0 -9.37)"/><path class="cls-1" d="M154.17,525.88H153v-1h3.52v1h-1.19v6.21h-1.14Z" transform="translate(0 -9.37)"/><path class="cls-1" d="M157,524.85h1.14v7.24H157Z" transform="translate(0 -9.37)"/><path class="cls-1" d="M159,530.37v-3.81a1.73,1.73,0,1,1,3.46,0v3.81a1.73,1.73,0,1,1-3.46,0Zm2.32.08v-4c0-.52-.23-.71-.59-.71s-.59.19-.59.71v4c0,.51.22.71.59.71S161.27,531,161.27,530.45Z" transform="translate(0 -9.37)"/><path class="cls-1" d="M163.17,524.85h1.43l1.11,4.33h0v-4.33h1v7.24h-1.17l-1.36-5.29h0v5.29h-1Z" transform="translate(0 -9.37)"/><path class="cls-1" d="M169.25,524.85h1.62l.73,5.18h0l.72-5.18H174v7.24h-1.08v-5.48h0l-.83,5.48h-.95l-.83-5.48h0v5.48h-1Z" transform="translate(0 -9.37)"/><path class="cls-1" d="M175.69,524.85h1.55l1.18,7.24h-1.14l-.21-1.44v0h-1.29l-.21,1.42h-1.06Zm1.25,4.84-.51-3.58h0l-.5,3.58Z" transform="translate(0 -9.37)"/><path class="cls-1" d="M179,524.85h1.68c1.14,0,1.7.63,1.7,1.79v.71c0,1.16-.56,1.79-1.7,1.79h-.54v3H179Zm1.68,3.26c.36,0,.56-.17.56-.69v-.86c0-.51-.2-.68-.56-.68h-.54v2.23Z" transform="translate(0 -9.37)"/><path class="cls-3" d="M111.64,316.19c.2.24-.35,1.74-.35,1.74l2.66,0a11.76,11.76,0,0,1,2.53-3.69s19.27,0,21.46,1.68a38.2,38.2,0,0,0,7.3,3.92H145l0,5.29h-2.83v.5c.39,0,6.52,0,10.94,0,2.32,0,4.16,0,4.47-.07a1.73,1.73,0,0,0,1.37-.94l-.46-.2a1.21,1.21,0,0,1-1,.64c-.23,0-1.42.05-3.1.06l0-3.34h-.5l0,3.34-8.42,0,0-5.18c1.23.52,2.26.92,2.8,1.1,1.63.55,8.08.7,8.08.7s6.43-.24,5.6-3.41c-.86-3.35-7.92-7.27-9-7.83s-3.5-.23-4.51-.66a1.07,1.07,0,0,1-.57-1.43l-3.19-.36c-3,3.15-8.85,3.72-8.85,3.72s-18.71.6-19.32.4-2.12-4.43-2.7-5.36-2.83-.63-2.83-.63a20.75,20.75,0,0,1,.67,2.95c0,.68-2.51.62-2.45,3.45A3.9,3.9,0,0,0,111.64,316.19Zm-1.76-3.3a2.64,2.64,0,1,1,2.65,2.62A2.64,2.64,0,0,1,109.88,312.89Z" transform="translate(0 -9.37)"/><path class="cls-5" d="M162.05,318.91c0-.27-4-.12-4.16,0s-.29.9,1.14,2.4C160.18,321.18,162.06,320.17,162.05,318.91Z" transform="translate(0 -9.37)"/><path class="cls-5" d="M161.82,317.85s-4.17.12-4.66,0-5-7.63-5-7.63l.53.12a33,33,0,0,1,5.8,3.69C161.31,316.31,161.82,317.85,161.82,317.85Z" transform="translate(0 -9.37)"/><path class="cls-5" d="M150.06,311.24c.37,0,1.12,0,1.59,0s3.3,4.8,3.58,5.26,0,.94-.72.89a24.29,24.29,0,0,1-3.67-.63A2.61,2.61,0,0,1,149.7,315a27.43,27.43,0,0,1-.29-3.06C149.45,311.76,149.71,311.25,150.06,311.24Z" transform="translate(0 -9.37)"/><path class="cls-3" d="M122,305.57l5.82-.05c3.87,0,7.75,0,11.62,0l6.29,0a.27.27,0,0,1,.27-.25h.29a.28.28,0,0,1,.28.26l4.5,0,5.81.09c1.94,0,3.87.07,5.81.13-1.94.05-3.87.07-5.81.11l-5.82.05-4.49,0v2.15a.28.28,0,0,1-.27.28H146a.27.27,0,0,1-.27-.28l0-2.14h-6.29c-3.87,0-7.75,0-11.62-.09l-5.82-.09c-1.93-.05-3.87-.08-5.81-.14C118.15,305.63,120.09,305.61,122,305.57Z" transform="translate(0 -9.37)"/><path class="cls-5" d="M109.88,312.89a2.64,2.64,0,1,0,2.62-2.65A2.65,2.65,0,0,0,109.88,312.89Zm.94-1.81a2.53,2.53,0,0,1,1.6-.67v1.75a.73.73,0,0,0-.36.15Zm1.76-.67a2.46,2.46,0,0,1,1.6.65L113,312.31a.73.73,0,0,0-.36-.15Zm1.72.77a2.42,2.42,0,0,1,.67,1.6h-1.75a.65.65,0,0,0-.15-.36Zm.68,1.76a2.46,2.46,0,0,1-.66,1.6l-1.24-1.23a.73.73,0,0,0,.15-.36Zm-.77,1.72a2.42,2.42,0,0,1-1.6.67v-1.75a.65.65,0,0,0,.36-.15Zm-1.76.68a2.51,2.51,0,0,1-1.61-.66l1.23-1.24a.7.7,0,0,0,.37.14Zm-1.72-.77a2.48,2.48,0,0,1-.68-1.6h1.75a.73.73,0,0,0,.15.36Zm-.68-1.76a2.5,2.5,0,0,1,.65-1.61l1.25,1.23a.77.77,0,0,0-.15.36Z" transform="translate(0 -9.37)"/><text class="cls-8" transform="translate(285.02 6.98)"><tspan class="cls-9">K</tspan><tspan x="3.34" y="0">on</tspan><tspan class="cls-10" x="10.09" y="0">t</tspan><tspan x="12.7" y="0">akt</tspan></text><path class="cls-3" d="M286,21.9c.08.1-.15.72-.15.72H287A4.72,4.72,0,0,1,288,21.09s8,.05,8.94.75a16.24,16.24,0,0,0,3,1.66h-.11v2.2h-1.18v.21l4.56,0c1,0,1.74,0,1.86,0a.69.69,0,0,0,.58-.39l-.19-.08a.54.54,0,0,1-.41.27h-1.29V24.32h-.21v1.39h-3.51V23.54c.51.22.94.39,1.17.47a22.16,22.16,0,0,0,3.36.31s2.68-.08,2.35-1.41-3.29-3.05-3.73-3.28-1.46-.11-1.88-.29a.44.44,0,0,1-.23-.6l-1.33-.16a6.78,6.78,0,0,1-3.7,1.53s-7.8.2-8.06.12A14.59,14.59,0,0,1,287,18c-.23-.39-1.18-.27-1.18-.27A8.27,8.27,0,0,1,286,19c0,.28-1,.25-1,1.43A1.63,1.63,0,0,0,286,21.9Zm-.73-1.38a1.1,1.1,0,1,1,1.1,1.09A1.1,1.1,0,0,1,285.28,20.52Z" transform="translate(0 -9.37)"/><path class="cls-5" d="M307,23.16a6,6,0,0,0-1.74,0c-.06.06-.12.37.47,1C306.23,24.1,307,23.68,307,23.16Z" transform="translate(0 -9.37)"/><path class="cls-5" d="M306.92,22.72s-1.73,0-1.94,0a33.12,33.12,0,0,1-2.07-3.2l.22.06a13.33,13.33,0,0,1,2.41,1.55A4,4,0,0,1,306.92,22.72Z" transform="translate(0 -9.37)"/><path class="cls-5" d="M302,19.93h.66a14.8,14.8,0,0,1,1.48,2.2c.12.2,0,.39-.3.37a9.94,9.94,0,0,1-1.53-.27,1.09,1.09,0,0,1-.47-.75,11.23,11.23,0,0,1-.12-1.28C301.78,20.14,301.89,19.94,302,19.93Z" transform="translate(0 -9.37)"/><path class="cls-3" d="M290.37,17.5h2.42l4.84,0,2.63,0a.1.1,0,0,1,.11-.1h.12a.1.1,0,0,1,.11.11l1.88,0,2.42.05,2.43.07-2.43,0h-4.3v.89a.11.11,0,0,1-.11.11h-.12a.11.11,0,0,1-.11-.11v-.9h-2.63l-4.84-.07-2.43,0-2.42-.07Z" transform="translate(0 -9.37)"/><path class="cls-5" d="M285.28,20.52a1.1,1.1,0,1,0,1.1-1.1A1.1,1.1,0,0,0,285.28,20.52Zm.4-.75a1,1,0,0,1,.67-.28v.73a.34.34,0,0,0-.15.06Zm.74-.28a1,1,0,0,1,.66.28l-.51.51a.47.47,0,0,0-.15-.06Zm.71.33a1,1,0,0,1,.28.66h-.73a.34.34,0,0,0-.06-.15Zm.28.73a1,1,0,0,1-.28.67l-.51-.52a.34.34,0,0,0,.06-.15Zm-.33.72a1,1,0,0,1-.66.27v-.73a.32.32,0,0,0,.15-.06Zm-.73.27a1.06,1.06,0,0,1-.67-.27l.52-.52a.25.25,0,0,0,.15.06Zm-.72-.32a1,1,0,0,1-.27-.67h.73a.2.2,0,0,0,.06.15Zm-.27-.74a1,1,0,0,1,.27-.66l.52.51a.2.2,0,0,0-.06.15Z" transform="translate(0 -9.37)"/><path class="cls-3" d="M222.47,426.06v-1.64h0a.32.32,0,0,1-.5,0h0v1.64l-.17,5.11v.73h.84v-.73Z" transform="translate(0 -9.37)"/><ellipse class="cls-3" cx="224.5" cy="423.51" rx="2.41" ry="0.27" transform="translate(-113.83 74.6) rotate(-16.97)"/><ellipse class="cls-3" cx="220.46" cy="422.55" rx="0.27" ry="2.41" transform="translate(-238.86 286) rotate(-46.97)"/><ellipse class="cls-3" cx="221.64" cy="426.53" rx="2.41" ry="0.27" transform="translate(-243.88 536.93) rotate(-76.97)"/><circle class="cls-4" cx="222.22" cy="414.78" r="0.33"/><path class="cls-3" d="M212.65,431.3v-1.64h0a.3.3,0,0,1-.24.11.33.33,0,0,1-.25-.11h0v1.64l-.17,5.12v.73h.83v-.73Z" transform="translate(0 -9.37)"/><ellipse class="cls-3" cx="214.82" cy="420.03" rx="2.41" ry="0.27"/><ellipse class="cls-3" cx="211.24" cy="427.31" rx="0.27" ry="2.41" transform="translate(-185.35 153.5) rotate(-30)"/><ellipse class="cls-3" cx="211.2" cy="431.46" rx="2.41" ry="0.27" transform="translate(-268.05 389.27) rotate(-60)"/><circle class="cls-4" cx="212.41" cy="420.02" r="0.33"/><path class="cls-3" d="M226,428.3v-1.62h0a.33.33,0,0,1-.25.12.33.33,0,0,1-.24-.12h0v1.62l-.17,5.05v.72h.83v-.72Z" transform="translate(0 -9.37)"/><ellipse class="cls-3" cx="224.04" cy="427.94" rx="2.38" ry="0.26" transform="translate(-227.1 245.95) rotate(-41.43)"/><ellipse class="cls-3" cx="225.32" cy="424.05" rx="0.26" ry="2.38" transform="translate(-79.55 43.68) rotate(-11.43)"/><ellipse class="cls-3" cx="228.06" cy="427.1" rx="0.26" ry="2.38" transform="translate(-249.43 497.89) rotate(-71.43)"/><circle class="cls-4" cx="225.78" cy="417.04" r="0.32"/><path class="cls-3" d="M202,348.93V347.3h0a.34.34,0,0,1-.5,0h0v1.63l-.17,5.12v.73h.84v-.73Z" transform="translate(0 -9.37)"/><ellipse class="cls-3" cx="203.98" cy="346.39" rx="2.41" ry="0.27" transform="translate(-92.22 65.25) rotate(-16.97)"/><ellipse class="cls-3" cx="199.94" cy="345.43" rx="0.27" ry="2.41" transform="translate(-189 246.5) rotate(-46.97)"/><ellipse class="cls-3" cx="201.12" cy="349.41" rx="2.41" ry="0.27" transform="translate(-184.64 457.2) rotate(-76.97)"/><circle class="cls-4" cx="201.7" cy="337.65" r="0.33"/><path class="cls-3" d="M187.91,355.39v-1.64h0a.32.32,0,0,1-.5,0h0v1.64l-.17,5.11v.73h.84v-.73Z" transform="translate(0 -9.37)"/><ellipse class="cls-3" cx="190.08" cy="344.12" rx="2.41" ry="0.27"/><ellipse class="cls-3" cx="186.49" cy="351.39" rx="0.27" ry="2.41" transform="translate(-150.71 130.96) rotate(-30)"/><ellipse class="cls-3" cx="186.46" cy="355.54" rx="2.41" ry="0.27" transform="translate(-214.68 329.88) rotate(-60)"/><circle class="cls-4" cx="187.66" cy="344.11" r="0.33"/><path class="cls-3" d="M195.74,354.9v-1.62h0a.3.3,0,0,1-.24.11.33.33,0,0,1-.25-.11h0v1.62l-.17,5.05v.72h.83V360Z" transform="translate(0 -9.37)"/><ellipse class="cls-3" cx="193.75" cy="354.55" rx="2.38" ry="0.26" transform="translate(-186.12 207.55) rotate(-41.43)"/><ellipse class="cls-3" cx="195.04" cy="350.65" rx="0.26" ry="2.38" transform="translate(-65.61 36.23) rotate(-11.43)"/><ellipse class="cls-3" cx="197.78" cy="353.7" rx="0.26" ry="2.38" transform="translate(-200.5 419.16) rotate(-71.43)"/><circle class="cls-4" cx="195.5" cy="343.64" r="0.32"/><path class="cls-3" d="M19.05,392v-1.64h0a.32.32,0,0,1-.5,0h0V392l-.17,5.11v.73h.84v-.73Z" transform="translate(0 -9.37)"/><ellipse class="cls-3" cx="21.08" cy="389.43" rx="2.41" ry="0.27" transform="translate(-112.74 13.74) rotate(-16.97)"/><ellipse class="cls-3" cx="17.04" cy="388.47" rx="0.27" ry="2.41" transform="translate(-278.56 126.47) rotate(-46.97)"/><ellipse class="cls-3" cx="18.21" cy="392.45" rx="2.41" ry="0.27" transform="translate(-368.24 312.34) rotate(-76.97)"/><circle class="cls-4" cx="18.8" cy="380.7" r="0.33"/><path class="cls-3" d="M9.23,397.22v-1.64h0a.34.34,0,0,1-.5,0h0v1.64l-.17,5.11v.73H9.4v-.73Z" transform="translate(0 -9.37)"/><ellipse class="cls-3" cx="11.39" cy="385.95" rx="2.41" ry="0.27"/><ellipse class="cls-3" cx="7.81" cy="393.22" rx="0.27" ry="2.41" transform="translate(-195.57 47.22) rotate(-30)"/><ellipse class="cls-3" cx="7.77" cy="397.38" rx="2.41" ry="0.27" transform="translate(-340.25 196.05) rotate(-60)"/><circle class="cls-4" cx="8.98" cy="385.94" r="0.33"/><path class="cls-3" d="M22.6,394.22V392.6h0a.31.31,0,0,1-.24.12.33.33,0,0,1-.25-.12h0v1.62l-.17,5V400h.83v-.72Z" transform="translate(0 -9.37)"/><ellipse class="cls-3" cx="20.61" cy="393.86" rx="2.38" ry="0.26" transform="translate(-255.45 102.82) rotate(-41.43)"/><ellipse class="cls-3" cx="21.9" cy="389.97" rx="0.26" ry="2.38" transform="translate(-76.83 2.7) rotate(-11.43)"/><ellipse class="cls-3" cx="24.64" cy="393.02" rx="0.26" ry="2.38" transform="translate(-355.76 281.83) rotate(-71.43)"/><circle class="cls-4" cx="22.36" cy="382.96" r="0.32"/><rect class="cls-3" x="266.13" y="411.95" width="1.35" height="1.94" transform="translate(-83.31 58.43) rotate(-12.54)"/><rect class="cls-3" x="268.41" y="411.44" width="1.35" height="1.94" transform="translate(-83.14 58.92) rotate(-12.54)"/><path class="cls-4" d="M264.78,414.36l.77,3.46,6.42-1.43-.77-3.46Zm1.25,1.06a.44.44,0,0,1-.51-.33.43.43,0,0,1,.84-.18A.42.42,0,0,1,266,415.42Zm1.49-.33a.44.44,0,0,1-.52-.33.43.43,0,1,1,.84-.18A.43.43,0,0,1,267.52,415.09Zm1.48-.33a.44.44,0,0,1-.52-.33.43.43,0,1,1,.84-.18A.43.43,0,0,1,269,414.76Zm1.48-.33a.44.44,0,0,1-.52-.33.43.43,0,0,1,.84-.18A.43.43,0,0,1,270.48,414.43Z" transform="translate(0 -9.37)"/><polygon class="cls-3" points="272.87 405.56 273.12 408.65 264.78 410.5 262.48 407.25 265.9 406.49 272.87 405.56"/><rect class="cls-3" x="77.91" y="504.84" width="2.07" height="2.97" transform="translate(209.12 992.58) rotate(174.15)"/><rect class="cls-3" x="74.35" y="505.2" width="2.07" height="2.97" transform="translate(202.07 993.67) rotate(174.15)"/><path class="cls-4" d="M72.57,508.47l.55,5.4,10-1-.56-5.4Zm8,.53a.66.66,0,0,1,1.31-.13.66.66,0,1,1-1.31.13Zm-2.31.24a.65.65,0,1,1,.72.58A.65.65,0,0,1,78.25,509.24Zm-2.31.23a.65.65,0,0,1,.58-.72.67.67,0,0,1,.72.59.65.65,0,0,1-.59.72A.65.65,0,0,1,75.94,509.47Zm-2.32.24a.67.67,0,0,1,.59-.72.66.66,0,0,1,.13,1.31A.67.67,0,0,1,73.62,509.71Z" transform="translate(0 -9.37)"/><polygon class="cls-3" points="71.1 502.8 72.23 507.43 85.26 506.09 87.03 500.25 81.69 500.8 71.1 502.8"/><path class="cls-11" d="M128.27,329.16C111.44,342.64,115,367.47,146,373.38c15.68,3,23.34.91,25-2.79s-15.21-12.11-46.18,7.66C98.75,394.92,43.74,385.83,31,398.56c-4.22,4.22-1.79,10.85,28,9.72s74.92-11.64,91.89-11.48S186,406,206.75,406c32.19,0,82.72-53.29,96-23.71,10.62,23.71-29.37,33.67-57.34,23-21.41-8.15-38.09-25.39-36.88-41,1.49-19,20.39-26.6,37.29-26.85s43.31,5.83,57.4,3.66c11.38-1.75,15.22-18.05,10.34-31.33C256,153.39,256.71,33.32,278.21,31.52" transform="translate(0 -9.37)"/><path class="cls-3" d="M242.49,495.58v-3.26a.64.64,0,0,0,1,0v3.26l.34,10.1v1.44h-1.66v-1.44Z" transform="translate(0 -9.37)"/><ellipse class="cls-3" cx="238.47" cy="490.54" rx="0.53" ry="4.77" transform="translate(-300.31 566.09) rotate(-73.03)"/><ellipse class="cls-3" cx="246.46" cy="488.65" rx="4.77" ry="0.53" transform="translate(-267.15 290.27) rotate(-43.03)"/><ellipse class="cls-3" cx="244.13" cy="496.51" rx="0.53" ry="4.77" transform="translate(-105.66 58.46) rotate(-13.03)"/><circle class="cls-4" cx="242.98" cy="482.42" r="0.65"/><path class="cls-3" d="M270.23,508.33v-3.24h0a.62.62,0,0,0,.49.23.64.64,0,0,0,.49-.23h0v3.24l.34,10.1v1.45h-1.66v-1.45Z" transform="translate(0 -9.37)"/><ellipse class="cls-3" cx="265.95" cy="495.21" rx="4.77" ry="0.53"/><ellipse class="cls-3" cx="273.03" cy="500.43" rx="4.77" ry="0.53" transform="translate(-296.87 477.3) rotate(-60)"/><ellipse class="cls-3" cx="273.1" cy="508.64" rx="0.53" ry="4.77" transform="translate(-217.73 195.33) rotate(-30)"/><circle class="cls-4" cx="270.72" cy="495.18" r="0.65"/><path class="cls-3" d="M254.75,507.37v-3.2h0a.64.64,0,0,0,1,0h0v3.2l.33,10v1.42h-1.63v-1.42Z" transform="translate(0 -9.37)"/><ellipse class="cls-3" cx="258.68" cy="506.67" rx="0.52" ry="4.71" transform="translate(-292.37 356.01) rotate(-48.57)"/><ellipse class="cls-3" cx="256.14" cy="498.97" rx="4.71" ry="0.52" transform="translate(-283.69 641.81) rotate(-78.57)"/><ellipse class="cls-3" cx="250.73" cy="505" rx="4.71" ry="0.52" transform="translate(-147.78 96.79) rotate(-18.57)"/><circle class="cls-4" cx="255.23" cy="494.27" r="0.64"/></svg>