<svg id="Ebene_1" data-name="Ebene 1" xmlns="http://www.w3.org/2000/svg" viewBox="0 0 744 1113.13"><defs><style>.cls-1{fill:#079;}.cls-2{fill:#43afe0;}.cls-3,.cls-7,.cls-8{fill:#fff;}.cls-4{fill:#ef8619;}.cls-5{fill:#e2a558;}.cls-6{fill:#e9f2f0;}.cls-7{fill-rule:evenodd;}.cls-8{font-size:19.08px;font-family:BebasNeueBold, Bebas Neue;letter-spacing:-0.01em;}.cls-9{letter-spacing:0em;}.cls-10{letter-spacing:-0.04em;}.cls-11{fill:none;stroke:#ef8619;stroke-miterlimit:10;}</style></defs><path class="cls-1" d="M0,1133V776.35c9.71-10.53,53.88-24,70.07-32,35.8-17.76,74.72-39.29,88.19-43.28,61.24-18.19,184.81-8.27,271.36-31.78S646.49,562.91,744,560.52V1133Z" transform="translate(0 -19.87)"/><path class="cls-2" d="M744,604.08c-.08,0,0,0-.13,0a71.64,71.64,0,0,0-11.29,0,26.3,26.3,0,0,0-15.8,8c-4.27,7-5.51,8.73-5.4,10.55.15,2.5,1.47,4.46,1.72,5.8a1.53,1.53,0,0,1-1.13,1.71c-4,1.28-17,5.85-15.81,10.59,1.53,6.06,15.9,11.94,13.33,15.25-5.44,7-29.63,4.34-41.16,9-12.06,4.89.32,14.74-20.66,13.21-37.37-2.73-56.67-4.14-61.75,3.31-4.6,6.77,2.39,11.4,8.68,17.11,5.49,5,26.5,23.59,26.1,24.28s-3.76,7.72-2.32,11.19c1.64,3.92,13.51,5.75,13.51,5.75s-9.92,7.24-7,14.1c5.43,12.58,19.74,11.21,18.69,15.57-4.11,17.18-44.55,23.36-63.3,12.07-2-1.2,16.17-36.06,16.17-36.06l-34.08-2.37S560.6,748.34,551,770.8l-6.05-2.21c-1.45-.52-4.29-1.84-5.17-2.14-.6-.2,15.44-22.61,15.44-22.61l-23.55-1.2L520,760.74c-4.23-1.2-7.31-2-8-2.19-1.94-.51,8-15.69,8-15.69L501.26,745s-4.14,9.87-6.41,9.37c0,0-4.84-1.07-9.44-2-67.19-13.21-85.76,2.79-85.76,2.79-31.9,16.43,2.17,70.68-25.71,72.58-37.53,2.56-52.91-35.32-99.18-42.47-50.29-7.77-91.84-2.56-108.25,3.08-27.82,9.57,37,14.48,11.24,17.52-32.45,3.82-22.91,16.44-14.12,21.58,7.21,4.2,34.59,32.91,11.67,78.6C162.62,931.4,64.8,1133,64.8,1133H327.67s-84-202.73-89.08-221.77c-22.47-83.92-38.09-84.86-38.09-90,0-8.79,8-3.91,27-9.24,28.06-7.89-42.45-19.88-30.89-22.24,9.92-2,33.67-2.54,43.8-.64,29.52,5.54,50,28.15,60.09,36.77,17.14,14.68,34,35.18,74.21,35.18,9.94,0,26.8-5.63,31.49-9.51,26.36-21.82-23.09-68-4-88.11,18.82-14.58,59.73-7.92,59.73-7.92S517.16,766,581,800.38s91.33-3.52,85.41-23.5c-3.42-11.55-.48-17.34-25.79-24.73-1-.28,12.57-5.61,4.79-16.91-3.68-5.35-12.35-3.72-16.61-5.45-3-1.21,3.32-6.11-3.67-12-14-11.81-38.66-28.23-36.78-33.8,0-.14,3.6-3,3.73-3.06,8.57-2.8,9.31-2.44,66.32,4.39,18.7,2.24,10.67-11.53,13.51-13.51,2.21-1.54,47.22-3.85,53.59-11.66,2.28-2.8-15.31-15.36-14.08-18.61,2-5.28,16.65-7.26,12.93-13.57-2.67-4.52-7-5.5-4.79-13.72C722,602.09,744,604.08,744,604.08Z" transform="translate(0 -19.87)"/><path class="cls-3" d="M96.72,803.21h2v5.22l2.48-5.22h1.94l-2.31,4.55,2.35,7.84h-2l-1.64-5.53-.78,1.58v4h-2Z" transform="translate(0 -19.87)"/><path class="cls-3" d="M103.63,812.66v-6.51c0-2,1-3.12,3-3.12s3,1.14,3,3.12v6.51c0,2-1.05,3.11-3,3.11S103.63,814.64,103.63,812.66Zm.72-12.09h1.74v1.81h-1.74Zm3.24,12.21V806c0-.88-.39-1.22-1-1.22s-1,.34-1,1.22v6.76c0,.89.38,1.22,1,1.22S107.59,813.67,107.59,812.78Zm-.51-12.21h1.73v1.81h-1.73Z" transform="translate(0 -19.87)"/><path class="cls-3" d="M110.85,803.21h2v10.62H116v1.77h-5.15Z" transform="translate(0 -19.87)"/><path class="cls-3" d="M116.94,803.21h2.44l1.9,7.41h0v-7.41h1.74V815.6h-2l-2.34-9h0v9h-1.74Z" transform="translate(0 -19.87)"/><path class="cls-3" d="M324.47,598.92h3c1.94,0,2.9,1.09,2.9,3.07v6.26c0,2-1,3.06-2.9,3.06h-3Zm2.94,10.62c.62,0,1-.32,1-1.2V601.9c0-.89-.37-1.2-1-1.2h-1v8.84Z" transform="translate(0 -19.87)"/><path class="cls-3" d="M331.59,608.37v-9.45h2v9.6c0,.88.37,1.2,1,1.2s1-.32,1-1.2v-9.6h1.88v9.45c0,2-1,3.12-2.91,3.12S331.59,610.36,331.59,608.37Zm.67-12.08H334v1.8h-1.74Zm2.73,0h1.73v1.8H335Z" transform="translate(0 -19.87)"/><path class="cls-3" d="M338.44,608.37v-.7h1.84v.85c0,.88.39,1.2,1,1.2s1-.32,1-1.24-.39-1.68-1.66-2.8c-1.63-1.43-2.16-2.44-2.16-3.85,0-2,1-3.08,2.9-3.08s2.83,1.13,2.83,3.11v.52h-1.84v-.64c0-.89-.35-1.22-1-1.22s-1,.33-1,1.18.41,1.56,1.69,2.67c1.62,1.44,2.14,2.43,2.14,4,0,2-1,3.15-2.94,3.15S338.44,610.36,338.44,608.37Z" transform="translate(0 -19.87)"/><path class="cls-3" d="M345,608.37v-.7h1.84v.85c0,.88.39,1.2,1,1.2s1-.32,1-1.24-.39-1.68-1.67-2.8c-1.63-1.43-2.16-2.44-2.16-3.85,0-2,1-3.08,2.91-3.08s2.83,1.13,2.83,3.11v.52H349v-.64c0-.89-.36-1.22-1-1.22s-1,.33-1,1.18.41,1.56,1.68,2.67c1.63,1.44,2.14,2.43,2.14,4,0,2-1,3.15-2.94,3.15S345,610.36,345,608.37Z" transform="translate(0 -19.87)"/><path class="cls-3" d="M352,598.92h5.31v1.78H353.9V604h2.67v1.77H353.9v3.8h3.36v1.77H352Z" transform="translate(0 -19.87)"/><path class="cls-3" d="M358.38,598.92h1.94v10.62h3.21v1.77h-5.15Z" transform="translate(0 -19.87)"/><path class="cls-3" d="M364.47,598.92h3c1.95,0,2.9,1.09,2.9,3.07v6.26c0,2-.95,3.06-2.9,3.06h-3Zm2.93,10.62c.62,0,1-.32,1-1.2V601.9c0-.89-.38-1.2-1-1.2h-1v8.84Z" transform="translate(0 -19.87)"/><path class="cls-3" d="M371.51,608.37v-6.51c0-2,1.05-3.11,3-3.11s2.95,1.13,2.95,3.11v6.51c0,2-1,3.12-2.95,3.12S371.51,610.36,371.51,608.37Zm4,.13v-6.76c0-.89-.39-1.22-1-1.22s-1,.33-1,1.22v6.76c0,.88.39,1.22,1,1.22S375.48,609.38,375.48,608.5Z" transform="translate(0 -19.87)"/><path class="cls-3" d="M378.74,598.92h2.88c2,0,2.88.94,2.88,2.85v.77c0,1.27-.4,2.08-1.27,2.44v0c1,.3,1.29,1.22,1.29,2.62v2.18a3.71,3.71,0,0,0,.21,1.5h-2a4,4,0,0,1-.17-1.52v-2.27c0-1.15-.34-1.52-1.23-1.52h-.67v5.31h-1.94Zm2.65,5.31c.73,0,1.17-.31,1.17-1.31V602c0-.89-.3-1.27-1-1.27h-.89v3.53Z" transform="translate(0 -19.87)"/><path class="cls-3" d="M385.87,598.92H391v1.78h-3.2v3.44h2.51v1.77h-2.51v5.4h-1.95Z" transform="translate(0 -19.87)"/><path class="cls-3" d="M626,859.27v-6.51c0-2,1-3.12,3-3.12s3,1.13,3,3.12v6.51c0,2-1,3.11-3,3.11S626,861.25,626,859.27Zm4,.12v-6.76c0-.88-.39-1.22-1-1.22s-1,.34-1,1.22v6.76c0,.89.39,1.22,1,1.22S630,860.28,630,859.39Z" transform="translate(0 -19.87)"/><path class="cls-3" d="M633.25,849.82h2.94c2,0,2.88.94,2.88,2.85v.49c0,1.28-.38,2.07-1.25,2.43v0c1,.36,1.45,1.28,1.45,2.59v1.06a2.64,2.64,0,0,1-3,2.94h-3.06Zm2.71,5c.73,0,1.17-.32,1.17-1.31v-.69c0-.88-.3-1.27-1-1.27h-.94v3.27Zm.35,5.58c.66,0,1-.3,1-1.23v-1.07c0-1.15-.37-1.51-1.25-1.51h-.87v3.81Z" transform="translate(0 -19.87)"/><path class="cls-3" d="M640.41,849.82h5.3v1.77h-3.36v3.27H645v1.77h-2.67v3.81h3.36v1.77h-5.3Z" transform="translate(0 -19.87)"/><path class="cls-3" d="M646.83,849.82h2.89c2,0,2.88.94,2.88,2.85v.76c0,1.27-.41,2.09-1.27,2.44v0c1,.3,1.29,1.22,1.29,2.62v2.17a3.76,3.76,0,0,0,.21,1.51h-2a3.76,3.76,0,0,1-.18-1.53v-2.26c0-1.15-.33-1.52-1.22-1.52h-.67v5.31h-1.95Zm2.66,5.31c.72,0,1.16-.32,1.16-1.31v-1c0-.88-.3-1.27-1-1.27h-.88v3.54Z" transform="translate(0 -19.87)"/><path class="cls-3" d="M654,849.82h1.94v5H658v-5h2v12.39h-2v-5.58h-2.09v5.58H654Z" transform="translate(0 -19.87)"/><path class="cls-3" d="M662.91,849.82h2.63l2,12.39h-1.95l-.35-2.46v0h-2.21l-.36,2.43h-1.8ZM665,858.1l-.87-6.12h0l-.85,6.12Z" transform="translate(0 -19.87)"/><path class="cls-3" d="M668.4,859.27v-9.45h1.94v9.59c0,.88.37,1.2,1,1.2s1-.32,1-1.2v-9.59h1.88v9.45c0,2-1,3.11-2.9,3.11S668.4,861.25,668.4,859.27Z" transform="translate(0 -19.87)"/><path class="cls-3" d="M675.25,859.27v-.71h1.84v.85c0,.88.38,1.2,1,1.2s1-.32,1-1.24-.39-1.68-1.66-2.79c-1.63-1.43-2.16-2.44-2.16-3.86,0-2,1-3.08,2.9-3.08s2.83,1.13,2.83,3.12v.51h-1.84v-.64c0-.88-.35-1.22-1-1.22s-1,.34-1,1.19.4,1.55,1.68,2.67c1.63,1.43,2.14,2.42,2.14,4,0,2-1,3.15-2.94,3.15S675.25,861.25,675.25,859.27Z" transform="translate(0 -19.87)"/><path class="cls-3" d="M682.17,849.82h5.31v1.77h-3.36v3.27h2.67v1.77h-2.67v3.81h3.36v1.77h-5.31Z" transform="translate(0 -19.87)"/><path class="cls-3" d="M688.59,849.82H691l1.89,7.41h0v-7.41h1.73v12.39h-2l-2.34-9.05h0v9.05h-1.74Z" transform="translate(0 -19.87)"/><path class="cls-3" d="M504.73,685.53h3c1.94,0,2.9,1.08,2.9,3.06v6.27c0,2-1,3.06-2.9,3.06h-3Zm2.93,10.62c.62,0,1-.32,1-1.2v-6.44c0-.89-.37-1.21-1-1.21h-1v8.85Z" transform="translate(0 -19.87)"/><path class="cls-3" d="M511.84,695v-9.45h1.95v9.59c0,.89.37,1.21,1,1.21s1-.32,1-1.21v-9.59h1.88V695c0,2-1,3.12-2.91,3.12S511.84,697,511.84,695Z" transform="translate(0 -19.87)"/><path class="cls-3" d="M519,685.53h2v12.39h-2Z" transform="translate(0 -19.87)"/><path class="cls-3" d="M522.09,695v-.71h1.84v.85c0,.89.39,1.21,1,1.21s1-.32,1-1.24-.39-1.68-1.66-2.8c-1.63-1.43-2.16-2.44-2.16-3.86,0-1.94,1-3.07,2.9-3.07s2.83,1.13,2.83,3.11V689H526v-.63c0-.89-.35-1.22-1-1.22s-1,.33-1,1.18.41,1.56,1.68,2.67c1.63,1.44,2.15,2.43,2.15,4,0,2-1,3.15-2.94,3.15S522.09,697,522.09,695Z" transform="translate(0 -19.87)"/><path class="cls-3" d="M529,685.53H532c2,0,2.89.94,2.89,2.85v.5c0,1.27-.39,2.07-1.26,2.42v0c1,.35,1.45,1.27,1.45,2.58V695a2.64,2.64,0,0,1-3,2.94H529Zm2.71,5.05c.73,0,1.17-.32,1.17-1.31v-.69c0-.89-.3-1.28-1-1.28H531v3.28Zm.35,5.57c.66,0,1-.3,1-1.22v-1.08c0-1.15-.37-1.5-1.25-1.5H531v3.8Z" transform="translate(0 -19.87)"/><path class="cls-3" d="M536.1,695v-9.45H538v9.59c0,.89.37,1.21,1,1.21s1-.32,1-1.21v-9.59h1.88V695c0,2-1,3.12-2.9,3.12S536.1,697,536.1,695Z" transform="translate(0 -19.87)"/><path class="cls-3" d="M543.28,685.53h2.89c2,0,2.88.94,2.88,2.85v.76a2.34,2.34,0,0,1-1.27,2.45v0c1,.3,1.29,1.22,1.29,2.62v2.18a3.71,3.71,0,0,0,.21,1.5h-2a3.7,3.7,0,0,1-.18-1.52v-2.27c0-1.15-.33-1.52-1.22-1.52h-.67v5.31h-2Zm2.66,5.31c.72,0,1.16-.32,1.16-1.31v-.95c0-.89-.3-1.28-1-1.28h-.88v3.54Z" transform="translate(0 -19.87)"/><path class="cls-3" d="M550.28,695v-6.51c0-2,1-3.11,2.9-3.11s2.9,1.13,2.9,3.11v1.06h-1.84v-1.18c0-.89-.39-1.22-1-1.22s-1,.33-1,1.22v6.77c0,.89.39,1.21,1,1.21s1-.32,1-1.21V692.7h-1v-1.77h2.81V695c0,2-1,3.12-2.9,3.12S550.28,697,550.28,695Z" transform="translate(0 -19.87)"/><path class="cls-3" d="M557.06,690.84H561v1.77h-3.89Z" transform="translate(0 -19.87)"/><path class="cls-3" d="M562.12,685.53h2v5.05h2.08v-5.05h2v12.39h-2v-5.57h-2.08v5.57h-2Z" transform="translate(0 -19.87)"/><path class="cls-3" d="M571.06,685.53h2.64l2,12.39h-1.94l-.36-2.46v0H571.2l-.35,2.42H569Zm2.12,8.28-.86-6.12h0l-.85,6.12Z" transform="translate(0 -19.87)"/><path class="cls-3" d="M576.65,685.53h5.15v1.77h-3.2v3.45h2.51v1.77H578.6v5.4h-2Z" transform="translate(0 -19.87)"/><path class="cls-3" d="M582.74,685.53h5.31v1.77h-3.36v3.28h2.67v1.77h-2.67v3.8h3.36v1.77h-5.31Z" transform="translate(0 -19.87)"/><path class="cls-3" d="M589.17,685.53h2.44l1.9,7.42h0v-7.42h1.73v12.39h-2l-2.34-9h0v9h-1.74Z" transform="translate(0 -19.87)"/><path class="cls-3" d="M671.65,589.92H677v1.77h-3.36V595h2.67v1.77h-2.67v3.8H677v1.77h-5.3Z" transform="translate(0 -19.87)"/><path class="cls-3" d="M677.77,599.37v-.71h1.84v.85c0,.88.39,1.2,1,1.2s1-.32,1-1.24-.39-1.68-1.66-2.79c-1.63-1.44-2.16-2.45-2.16-3.86,0-2,1-3.08,2.9-3.08s2.83,1.13,2.83,3.11v.52H681.7v-.64c0-.88-.35-1.22-1-1.22s-1,.34-1,1.19.41,1.55,1.68,2.67c1.63,1.43,2.15,2.42,2.15,4,0,2-1,3.15-2.94,3.15S677.77,601.35,677.77,599.37Z" transform="translate(0 -19.87)"/><path class="cls-3" d="M684.36,599.37v-.71h1.84v.85c0,.88.39,1.2,1,1.2s1-.32,1-1.24-.38-1.68-1.66-2.79c-1.63-1.44-2.16-2.45-2.16-3.86,0-2,1-3.08,2.9-3.08s2.84,1.13,2.84,3.11v.52h-1.84v-.64c0-.88-.36-1.22-1-1.22s-1,.34-1,1.19.41,1.55,1.68,2.67c1.63,1.43,2.14,2.42,2.14,4,0,2-1,3.15-2.94,3.15S684.36,601.35,684.36,599.37Z" transform="translate(0 -19.87)"/><path class="cls-3" d="M691.28,589.92h5.31v1.77h-3.36V595h2.67v1.77h-2.67v3.8h3.36v1.77h-5.31Z" transform="translate(0 -19.87)"/><path class="cls-3" d="M697.71,589.92h2.44l1.89,7.41h0v-7.41h1.73V602.3h-2l-2.33-9h0v9h-1.73Z" transform="translate(0 -19.87)"/><path class="cls-3" d="M174,690.11h2.29l1,7.33h0l1-7.33h2.3v10.24h-1.52V692.6h0L178,700.35h-1.35l-1.17-7.75h0v7.75H174Z" transform="translate(0 -19.87)"/><path class="cls-3" d="M181.79,697.92v-5.38a2.45,2.45,0,1,1,4.89,0v5.38a2.45,2.45,0,1,1-4.89,0Zm.6-10h1.44v1.5h-1.44Zm2.68,10.1v-5.59c0-.73-.32-1-.83-1s-.84.28-.84,1V698c0,.73.32,1,.84,1S185.07,698.76,185.07,698Zm-.42-10.1h1.43v1.5h-1.43Z" transform="translate(0 -19.87)"/><path class="cls-3" d="M187.76,690.11h2l1.57,6.13h0v-6.13h1.43v10.24h-1.65l-1.93-7.47h0v7.47h-1.44Z" transform="translate(0 -19.87)"/><path class="cls-3" d="M193.91,698v-5.5a2.37,2.37,0,1,1,4.74,0v1.08h-1.52v-1.18c0-.67-.32-1-.81-1s-.8.28-.8,1v5.72c0,.67.32.93.8.93s.81-.26.81-.93v-1.57h1.52V698a2.37,2.37,0,1,1-4.74,0Z" transform="translate(0 -19.87)"/><path class="cls-3" d="M199.62,690.11h1.61v4.17H203v-4.17h1.61v10.24H203v-4.61h-1.72v4.61h-1.61Z" transform="translate(0 -19.87)"/><path class="cls-3" d="M205.76,690.11h4.39v1.47h-2.78v2.7h2.21v1.46h-2.21v3.15h2.78v1.46h-4.39Z" transform="translate(0 -19.87)"/><path class="cls-3" d="M211.07,690.11h2l1.57,6.13h0v-6.13h1.43v10.24h-1.65l-1.93-7.47h0v7.47h-1.44Z" transform="translate(0 -19.87)"/><path class="cls-3" d="M217.21,697.92v-5.38c0-1.64.81-2.57,2.39-2.57s2.4.93,2.4,2.57v.88h-1.52v-1c0-.73-.32-1-.83-1s-.84.28-.84,1V698c0,.73.33,1,.84,1s.83-.26.83-1v-2h-.8v-1.47H222v3.35c0,1.64-.82,2.58-2.4,2.58S217.21,699.56,217.21,697.92Z" transform="translate(0 -19.87)"/><path class="cls-3" d="M223,690.11h1.61v8.78h2.65v1.46H223Z" transform="translate(0 -19.87)"/><path class="cls-3" d="M229.38,690.11h2.18l1.67,10.24h-1.61l-.3-2v0H229.5l-.3,2h-1.49Zm1.75,6.85-.71-5.06h0l-.7,5.06Z" transform="translate(0 -19.87)"/><path class="cls-3" d="M234,690.11h2.46c1.61,0,2.4.9,2.4,2.53v5.18c0,1.64-.79,2.53-2.4,2.53H234Zm2.43,8.78c.51,0,.82-.26.82-1v-5.32c0-.73-.31-1-.82-1h-.82v7.31Z" transform="translate(0 -19.87)"/><path class="cls-3" d="M239.94,690.11h2.43c1.67,0,2.39.78,2.39,2.36v.41c0,1-.33,1.71-1,2v0c.86.29,1.2,1.05,1.2,2.14v.87a2.18,2.18,0,0,1-2.45,2.43h-2.53Zm2.24,4.17c.6,0,1-.26,1-1.08v-.57c0-.73-.25-1-.82-1h-.78v2.7Zm.29,4.61c.55,0,.84-.25.84-1V697c0-1-.31-1.25-1-1.25h-.72v3.15Z" transform="translate(0 -19.87)"/><path class="cls-3" d="M247.1,690.11h2.18L251,700.35h-1.61l-.3-2v0h-1.82l-.3,2h-1.49Zm1.75,6.85-.71-5.06h0l-.7,5.06Z" transform="translate(0 -19.87)"/><path class="cls-3" d="M251.59,698v-5.5a2.37,2.37,0,1,1,4.74,0v1.08h-1.52v-1.18c0-.67-.32-1-.8-1s-.81.28-.81,1v5.72c0,.67.32.93.81.93s.8-.26.8-.93v-1.57h1.52V698a2.37,2.37,0,1,1-4.74,0Z" transform="translate(0 -19.87)"/><path class="cls-3" d="M257.3,690.11h1.61v4.17h1.72v-4.17h1.61v10.24h-1.61v-4.61h-1.72v4.61H257.3Z" transform="translate(0 -19.87)"/><path class="cls-4" d="M82.84,813.85c1.4-2.37,6.1-10.5,6.1-13.55a6.5,6.5,0,0,0-13,0c0,3.05,4.7,11.18,6.11,13.55-1.62.06-2.87.47-2.87,1s1.46,1,3.26,1,3.26-.43,3.26-1S84.45,813.91,82.84,813.85Zm-5-13.57a4.57,4.57,0,1,1,4.57,4.58A4.58,4.58,0,0,1,77.87,800.28Z" transform="translate(0 -19.87)"/><path class="cls-4" d="M357.78,638.07c1.41-2.37,6.11-10.5,6.11-13.55a6.5,6.5,0,0,0-13,0c0,3.05,4.7,11.18,6.1,13.55-1.61.06-2.86.47-2.86,1s1.46,1,3.26,1,3.26-.44,3.26-1S359.4,638.13,357.78,638.07Zm-5-13.57a4.57,4.57,0,1,1,4.57,4.57A4.56,4.56,0,0,1,352.82,624.5Z" transform="translate(0 -19.87)"/><path class="cls-4" d="M521.37,677.09c1.41-2.37,6.1-10.5,6.1-13.55a6.5,6.5,0,1,0-13,0c0,3.05,4.69,11.18,6.1,13.55-1.61.06-2.87.47-2.87,1s1.46,1,3.27,1,3.26-.44,3.26-1S523,677.15,521.37,677.09Zm-5-13.57A4.58,4.58,0,1,1,521,668.1,4.58,4.58,0,0,1,516.4,663.52Z" transform="translate(0 -19.87)"/><path class="cls-4" d="M638.11,844.19c1.41-2.37,6.1-10.5,6.1-13.55a6.5,6.5,0,1,0-13,0c0,3.05,4.69,11.18,6.1,13.55-1.61.06-2.87.47-2.87,1s1.46,1,3.27,1,3.26-.44,3.26-1S639.73,844.25,638.11,844.19Zm-5-13.57a4.58,4.58,0,1,1,4.58,4.57A4.58,4.58,0,0,1,633.14,830.62Z" transform="translate(0 -19.87)"/><path class="cls-4" d="M722.39,587.89c1.41-2.37,6.1-10.5,6.1-13.55a6.5,6.5,0,1,0-13,0c0,3,4.7,11.18,6.11,13.55-1.62.06-2.87.47-2.87,1s1.46,1,3.26,1,3.26-.44,3.26-1S724,588,722.39,587.89Zm-5-13.57a4.57,4.57,0,1,1,4.57,4.57A4.58,4.58,0,0,1,717.42,574.32Z" transform="translate(0 -19.87)"/><path class="cls-4" d="M164.06,718.27c1.4-2.37,6.1-10.5,6.1-13.55a6.5,6.5,0,0,0-13,0c0,3,4.7,11.18,6.11,13.55-1.62.06-2.87.47-2.87,1s1.46,1,3.26,1,3.26-.44,3.26-1S165.67,718.33,164.06,718.27Zm-5-13.57a4.57,4.57,0,1,1,4.57,4.57A4.58,4.58,0,0,1,159.09,704.7Z" transform="translate(0 -19.87)"/><path class="cls-3" d="M358.88,684.11q.17,3.36.31,6.72c.08,1.89.16,3.79.25,5.68l.3,6.9.24,5.43c.09,2.14.19,4.27.28,6.4.11,2.32.21,4.65.31,7,.09,2,.17,3.91.25,5.87l.3,6.63c.09,1.91.17,3.82.25,5.73,0,.56.05,1.13.08,1.7a.23.23,0,0,1-.16.27,14.2,14.2,0,0,1-2.1.66c-.44.06-.88.14-1.33.17s-.89,0-1.33,0a9,9,0,0,1-2.68-.72c-.37-.16-.37-.16-.36-.55a.37.37,0,0,0,0-.11l.21-5.57.36-10.11c.11-3,.21-6,.32-9q.21-5.4.4-10.79c.1-2.79.19-5.57.3-8.36s.2-5.46.3-8.19c.07-1.9.13-3.79.2-5.69a.69.69,0,0,0-.1-.39" transform="translate(0 -19.87)"/><path class="cls-3" d="M355.47,683.74l-3.83-7.15a1.19,1.19,0,0,0-.09-.15l-2.16-4.05-.16-.3c-.18-.34-.18-.34.16-.52a14.78,14.78,0,0,1,1.54-.65c.08-.11.21-.12.33-.16a16,16,0,0,1,3-.56,23.64,23.64,0,0,1,3.26-.14,27.41,27.41,0,0,1,6,.72c.1,0,.22,0,.29.14.31.13.65.2,1,.36a2.82,2.82,0,0,1,.29.18.27.27,0,0,1,.09.39L359,683.78a.64.64,0,0,0-.08.33" transform="translate(0 -19.87)"/><path class="cls-3" d="M360.22,663.64a11.81,11.81,0,0,1,2.11.82c.27.09.32.3.32.55a2.38,2.38,0,0,1-.41,1.47c-.06.08-.12.14-.22.1a.51.51,0,0,1-.32,0,18,18,0,0,0-2.75-.38c-.52,0-1,0-1.56,0a28.23,28.23,0,0,0-4.77.46c-.5.08-.56.07-.79-.37a1.27,1.27,0,0,1-.27-.86c0-.7,0-.7.64-1a15,15,0,0,1,3.54-1c.12,0,.16-.08.16-.2.06-1,.12-2,.17-3.08.08-1.5.15-3,.25-4.5a10.16,10.16,0,0,1,.37-1.54,2.15,2.15,0,0,0,.07-.5q0-4.35,0-8.71a.38.38,0,0,1,.23-.38c.15-.08.27,0,.4.08s.08.19.09.29c0,1.62,0,3.24.07,4.86l.06,3.92a4.32,4.32,0,0,0,.21,1,11.27,11.27,0,0,1,.32,2.39l.3,3.9c.06.73.12,1.47.16,2.2,0,.17.06.24.24.27C359.27,663.43,359.74,663.54,360.22,663.64Z" transform="translate(0 -19.87)"/><path class="cls-5" d="M351,670a3.28,3.28,0,0,1-1-1.74.32.32,0,0,1,.25-.43c.27-.08.52-.21.78-.31.06-.11.18-.13.28-.16a20.37,20.37,0,0,1,4.24-.89,21,21,0,0,1,3-.07,14.77,14.77,0,0,1,3.16.45.42.42,0,0,1,.27.12,16,16,0,0,1,2.11.74l.27.13c.32.15.35.21.27.57a3.28,3.28,0,0,1-.85,1.42l-.15.17a.58.58,0,0,1-.7.34,30.47,30.47,0,0,0-3.43-.5,28.1,28.1,0,0,0-3.43-.13,15.44,15.44,0,0,0-4.22.62A.71.71,0,0,1,351,670Z" transform="translate(0 -19.87)"/><path class="cls-3" d="M679.41,800.79a6.71,6.71,0,0,0-13.39,0h-8.36v1.31H655.6v-4.3h-3.16V846h3.16v-.88h2.06V846h30.11V800.79Zm-21.75,2v1.75H655.6v-1.75Zm-2.06,36.54v-1.74h2.06v1.74Zm2.06.74v1.75H655.6v-1.75Zm-2.06-3.22v-1.75h2.06v1.75Zm0-2.49v-1.74h2.06v1.74Zm0-2.48v-1.75h2.06v1.75Zm0-2.49v-1.75h2.06v1.75Zm0-2.48V825.2h2.06V827Zm0-2.49v-1.75h2.06v1.75Zm0-2.48v-1.75h2.06V822Zm0-2.49v-1.75h2.06v1.75Zm0-2.48v-1.75h2.06V817Zm0-2.49v-1.75h2.06v1.75Zm0-2.48v-1.75h2.06V812Zm0-2.49V807.8h2.06v1.75Zm0-2.48v-1.75h2.06v1.75Zm0,37.27V842.6h2.06v1.74Z" transform="translate(0 -19.87)"/><path class="cls-3" d="M694.62,554a37.58,37.58,0,0,1-.06-5.37c.16-.16,4-.58,4-.58l.59-3.09v-.79H676.27v.79l.58,3.09s3.88.42,4,.58a36.06,36.06,0,0,1,0,5.37c-.11.58-14.66,31.45-14.66,31.45h3.08l9.17-19.09h7.33V585.5h3.93V566.31H697l9.17,19.09h3.08S694.72,554.53,694.62,554Zm1-8.45a12.21,12.21,0,0,0,2.49-.37l-.32,1.91h-3.34A1.13,1.13,0,0,1,695.59,545.5Zm-13.19.8c.07-.58.77-.68.77-.68h9s.7.1.77.68a2,2,0,0,1,0,.74H682.4A2,2,0,0,1,682.4,546.3ZM681,547h-3.35l-.32-1.91a12.24,12.24,0,0,0,2.5.37A1.14,1.14,0,0,1,681,547Zm4.9,16.25h-6l2.43-4.82a1.53,1.53,0,0,1,1.3-.8c.93,0,2.29,0,2.29,0Zm1.43-10.68h-4.08a.63.63,0,0,1-.56-.44s0-2.19,0-2.9a.7.7,0,0,1,.74-.68H692a.7.7,0,0,1,.73.69c0,.71,0,2.89,0,2.89a.6.6,0,0,1-.55.44Zm2.18,10.68v-5.6s1.35-.06,2.29,0a1.53,1.53,0,0,1,1.29.8l2.43,4.82Z" transform="translate(0 -19.87)"/><path class="cls-5" d="M681.94,549.45a3.38,3.38,0,1,0,3.38,3.37A3.37,3.37,0,0,0,681.94,549.45Zm.37.77a2.71,2.71,0,0,1,1.21.5l-1.21,1.21Zm-.74,1.71-1.2-1.21a2.63,2.63,0,0,1,1.2-.5Zm-.52.52h-1.71a2.63,2.63,0,0,1,.5-1.2Zm0,.74-1.21,1.21a2.71,2.71,0,0,1-.5-1.21Zm.52.52v1.71a2.52,2.52,0,0,1-1.2-.5Zm.74,0,1.21,1.21a2.6,2.6,0,0,1-1.21.5Zm.52-.52h1.71a2.6,2.6,0,0,1-.5,1.21Zm0-.74,1.21-1.2a2.52,2.52,0,0,1,.5,1.2Z" transform="translate(0 -19.87)"/><path class="cls-5" d="M697,552.71a3.38,3.38,0,1,0-3.37,3.37A3.37,3.37,0,0,0,697,552.71Zm-2.48.37h1.71a2.62,2.62,0,0,1-.51,1.21Zm.68,1.73a2.56,2.56,0,0,1-1.21.5V553.6Zm-.68-2.47,1.21-1.21a2.71,2.71,0,0,1,.5,1.21Zm-.53-.52v-1.71a2.67,2.67,0,0,1,1.21.5Zm-.73,0L692,550.61a2.71,2.71,0,0,1,1.21-.5Zm-.52.52H691a2.6,2.6,0,0,1,.5-1.21Zm0,.74-1.21,1.21a2.6,2.6,0,0,1-.5-1.21Zm.52.52v1.71a2.6,2.6,0,0,1-1.21-.5Z" transform="translate(0 -19.87)"/><path class="cls-5" d="M677.59,560.28a4.5,4.5,0,1,0,4.49,4.5A4.51,4.51,0,0,0,677.59,560.28Zm.37.78a3.76,3.76,0,0,1,2,.82l-2,2Zm-.74,2.83-2-2a3.69,3.69,0,0,1,2-.82Zm-.52.52h-2.84a3.78,3.78,0,0,1,.83-2Zm0,.74-2,2a3.85,3.85,0,0,1-.83-2Zm.52.52v2.83a3.7,3.7,0,0,1-2-.83Zm.74,0,2,2a3.77,3.77,0,0,1-2,.83Zm.52-.52h2.83a3.77,3.77,0,0,1-.83,2Zm0-.74,2-2a3.7,3.7,0,0,1,.83,2Z" transform="translate(0 -19.87)"/><path class="cls-5" d="M697.37,560.28a4.5,4.5,0,1,0,4.5,4.5A4.51,4.51,0,0,0,697.37,560.28Zm.37.78a3.72,3.72,0,0,1,2,.82l-2,2Zm-.74,2.83-2-2a3.66,3.66,0,0,1,2-.83Zm-.52.52h-2.83a3.63,3.63,0,0,1,.83-2Zm0,.74-2,2a3.69,3.69,0,0,1-.83-2Zm.52.52v2.83a3.73,3.73,0,0,1-2-.83Zm.74,0,2,2a3.73,3.73,0,0,1-2,.83Zm.52-.52h2.83a3.69,3.69,0,0,1-.83,2Zm0-.74,2-2a3.63,3.63,0,0,1,.83,2Z" transform="translate(0 -19.87)"/><rect class="cls-3" x="677.61" y="552.21" width="19.89" height="13.51"/><path class="cls-6" d="M560.69,650.07a7.07,7.07,0,0,0,2-10.05,2.93,2.93,0,0,0,1.34-2.46,2.84,2.84,0,0,0-5.67-.13,2.25,2.25,0,0,0-1.9-1,2.28,2.28,0,0,0-2.26,2.3,1.93,1.93,0,0,0,0,.24,3.81,3.81,0,0,0-2.29-.78,3.89,3.89,0,0,0-3.85,3.92,4.09,4.09,0,0,0,.17,1.17l-.43,0a4.56,4.56,0,0,0-4.52,4.6,4.61,4.61,0,0,0,.58,2.22c7.71.13,14,.14,16.81.14Z" transform="translate(0 -19.87)"/><path class="cls-6" d="M568.91,637.53a2.45,2.45,0,1,0-2.41-2.45A2.42,2.42,0,0,0,568.91,637.53Z" transform="translate(0 -19.87)"/><path class="cls-6" d="M578,657.43a3.09,3.09,0,0,0,1.42-2.44,3,3,0,0,0,1.16-2.32,3,3,0,0,0-1-2.18,1.93,1.93,0,0,0,1.08-1.69,2.31,2.31,0,0,0-4.56-.09,1.93,1.93,0,0,0-1.53-.73,1.72,1.72,0,0,0-1.82,1.59,1,1,0,0,0,0,.17,3.38,3.38,0,0,0-1.85-.54,2.92,2.92,0,0,0-3.1,2.71,2.36,2.36,0,0,0,.14.8h-.35a3.43,3.43,0,0,0-3.64,3.17,2.93,2.93,0,0,0,1,2.15c5.62.08,10.28.09,12.7.09A3,3,0,0,0,578,657.43Z" transform="translate(0 -19.87)"/><path class="cls-6" d="M584.81,646h0a2,2,0,1,0,1.94,2,2,2,0,0,0-.37-1.1s-.09,0-.15,0A1.6,1.6,0,0,1,584.81,646Z" transform="translate(0 -19.87)"/><path class="cls-6" d="M587.85,645.27a1.62,1.62,0,1,0-3.23,0,1.69,1.69,0,0,0,.19.74,1.91,1.91,0,0,1,1.57.89A1.63,1.63,0,0,0,587.85,645.27Z" transform="translate(0 -19.87)"/><path class="cls-6" d="M584.81,646a1.6,1.6,0,0,0,1.42.92c.06,0,.1,0,.15,0A1.91,1.91,0,0,0,584.81,646Z" transform="translate(0 -19.87)"/><path class="cls-3" d="M564.13,681.05c-.29-2-.69-5.24-1-10.21s-.69-11.78-.82-20.67h-1.61c-2.82,0-9.1,0-16.81-.14h-1.06c-.57,28.34-3.19,33.4-3.19,33.4h25S564.38,682.7,564.13,681.05Z" transform="translate(0 -19.87)"/><path class="cls-3" d="M579.46,658.11h-1.83c-2.42,0-7.08,0-12.7-.09l-1.16,0c-.13,5.43-.38,9.62-.69,12.84.36,5,.76,8.25,1,10.21H581.3S579.76,675.46,579.46,658.11Z" transform="translate(0 -19.87)"/><path class="cls-3" d="M123,768.74l-1.14-7.22-1.21-7.65-.42,3.08-.42-2.66-.79-5-.25,1.79-2.48-16.55a1.1,1.1,0,0,0,.58-1,1.13,1.13,0,0,0-.51-.94.76.76,0,0,0,0-.16.61.61,0,0,0-.49-.59l-.15-1-.19,1a.62.62,0,0,0-.41.58.8.8,0,0,0,0,.15,1.09,1.09,0,0,0-.55,1,1.1,1.1,0,0,0,.46.9l-4.42,24.08-1.87-6.3v0l-1.87,6.3-4.42-24.08a1.1,1.1,0,0,0,0-1.84.76.76,0,0,0,0-.16.6.6,0,0,0-.45-.58l-.19-1-.15,1a.6.6,0,0,0-.45.58.58.58,0,0,0,0,.14,1.13,1.13,0,0,0-.54,1,1.1,1.1,0,0,0,.57,1l-2.62,17.51-.44-2.74-.68,5-.32,2.35-.45-2.79-1,7.67-1,7.2H91.32V794.3h35.39V768.74Z" transform="translate(0 -19.87)"/><path class="cls-5" d="M103.52,759.08a2.45,2.45,0,0,0,0-.27v-5a1.39,1.39,0,1,0-2.77,0v5a2.45,2.45,0,0,0,0,.27Z" transform="translate(0 -19.87)"/><path class="cls-5" d="M103.52,769.08a2.45,2.45,0,0,0,0-.27v-5a1.39,1.39,0,1,0-2.77,0v5a2.45,2.45,0,0,0,0,.27Z" transform="translate(0 -19.87)"/><path class="cls-5" d="M117.14,759.08a2.45,2.45,0,0,0,0-.27v-5a1.39,1.39,0,0,0-2.78,0v5a1.24,1.24,0,0,0,0,.27Z" transform="translate(0 -19.87)"/><path class="cls-5" d="M117.14,769.08a2.45,2.45,0,0,0,0-.27v-5a1.39,1.39,0,0,0-2.78,0v5a1.24,1.24,0,0,0,0,.27Z" transform="translate(0 -19.87)"/><path class="cls-5" d="M97.06,778.56a2.13,2.13,0,0,0,0-.27v-5a1.39,1.39,0,1,0-2.77,0v5a2.13,2.13,0,0,0,0,.27Z" transform="translate(0 -19.87)"/><path class="cls-5" d="M101.28,778.56a2.13,2.13,0,0,0,0-.27v-5a1.39,1.39,0,1,0-2.77,0v5a2.13,2.13,0,0,0,0,.27Z" transform="translate(0 -19.87)"/><path class="cls-5" d="M119.26,778.56a1.12,1.12,0,0,0,0-.27v-5a1.39,1.39,0,0,0-2.78,0v5a1.12,1.12,0,0,0,0,.27Z" transform="translate(0 -19.87)"/><path class="cls-5" d="M123.48,778.56a1.12,1.12,0,0,0,0-.27v-5a1.39,1.39,0,0,0-2.78,0v5a1.12,1.12,0,0,0,0,.27Z" transform="translate(0 -19.87)"/><path class="cls-5" d="M108.54,792.88a3,3,0,0,0,0-.42v-7.89c0-1.2-.62-2.18-1.39-2.18s-1.39,1-1.39,2.18v7.89a3,3,0,0,0,0,.42Z" transform="translate(0 -19.87)"/><path class="cls-5" d="M112.76,792.88a3,3,0,0,0,0-.42v-7.89c0-1.2-.62-2.18-1.39-2.18s-1.39,1-1.39,2.18v7.89a3,3,0,0,0,0,.42Z" transform="translate(0 -19.87)"/><path class="cls-5" d="M111.43,778.56a.76.76,0,0,0,0-.27v-5c0-.76-1.07-1.39-2.39-1.39s-2.39.63-2.39,1.39v5a1.1,1.1,0,0,0,0,.27Z" transform="translate(0 -19.87)"/><path class="cls-5" d="M110.21,769.08a1.49,1.49,0,0,0,0-.21v-3.93a1.09,1.09,0,0,0-2.17,0v3.93a.75.75,0,0,0,0,.21Z" transform="translate(0 -19.87)"/><path class="cls-5" d="M97.15,789.74a1.24,1.24,0,0,0,0-.27v-5a1.39,1.39,0,1,0-2.78,0v5a1.24,1.24,0,0,0,0,.27Z" transform="translate(0 -19.87)"/><path class="cls-5" d="M101.37,789.74a1.24,1.24,0,0,0,0-.27v-5a1.39,1.39,0,1,0-2.78,0v5a1.24,1.24,0,0,0,0,.27Z" transform="translate(0 -19.87)"/><path class="cls-5" d="M119.36,789.74a2.45,2.45,0,0,0,0-.27v-5a1.39,1.39,0,1,0-2.77,0v5a2.45,2.45,0,0,0,0,.27Z" transform="translate(0 -19.87)"/><path class="cls-5" d="M123.58,789.74a2.45,2.45,0,0,0,0-.27v-5a1.39,1.39,0,1,0-2.77,0v5a2.45,2.45,0,0,0,0,.27Z" transform="translate(0 -19.87)"/><rect class="cls-3" x="192.53" y="692.77" width="5.69" height="1.42"/><rect class="cls-3" x="215.29" y="692.77" width="5.69" height="1.42"/><rect class="cls-3" x="226.67" y="692.77" width="5.69" height="1.42"/><rect class="cls-3" x="203.91" y="692.77" width="5.69" height="1.42"/><rect class="cls-3" x="238.05" y="692.77" width="5.69" height="1.42"/><rect class="cls-3" x="178.74" y="692.99" width="13.28" height="0.74"/><rect class="cls-3" x="178.74" y="691.51" width="13.28" height="0.74"/><rect class="cls-3" x="178.74" y="695.94" width="13.28" height="0.74"/><rect class="cls-3" x="178.74" y="688.56" width="13.28" height="0.74"/><rect class="cls-3" x="178.74" y="697.41" width="13.28" height="0.74"/><rect class="cls-3" x="178.74" y="690.04" width="13.28" height="0.74"/><rect class="cls-3" x="178.74" y="694.46" width="13.28" height="0.74"/><rect class="cls-3" x="244.44" y="694.46" width="13.28" height="0.74"/><rect class="cls-3" x="244.44" y="690.04" width="13.28" height="0.74"/><rect class="cls-3" x="244.44" y="688.56" width="13.28" height="0.74"/><rect class="cls-3" x="244.44" y="692.99" width="13.28" height="0.74"/><rect class="cls-3" x="244.44" y="697.41" width="13.28" height="0.74"/><rect class="cls-3" x="244.44" y="691.51" width="13.28" height="0.74"/><rect class="cls-3" x="244.44" y="695.94" width="13.28" height="0.74"/><polygon class="cls-3" points="175.04 686.35 175.04 687.82 178.75 687.82 192.02 687.82 244.44 687.82 257.72 687.82 262.4 687.82 262.4 686.35 175.04 686.35"/><rect class="cls-3" x="175.04" y="698.53" width="87.36" height="1.48"/><polygon class="cls-7" points="325.33 1063.35 324.46 1063.35 279.09 1063.35 277.01 1063.35 278.48 1061.88 289.39 1050.97 278.35 1039.92 276.88 1038.45 278.96 1038.45 324.46 1038.45 325.33 1038.45 325.33 1039.31 325.33 1062.49 325.33 1063.35 325.33 1063.35"/><polygon class="cls-1" points="309.55 1053.45 325.54 1053.45 325.54 1064.1 309.55 1053.45"/><polygon class="cls-1" points="435.19 1053.45 419.2 1053.45 419.2 1064.1 435.19 1053.45"/><polygon class="cls-3" points="435.65 1040.13 467.12 1040.1 454.61 1052.62 466.99 1065 419.45 1064.55 435.65 1053.67 435.65 1040.13"/><rect class="cls-3" x="309.18" y="1028.26" width="126.51" height="24.91"/><path class="cls-1" d="M320.8,1051.27h2.65v14.44h4.36v2.4h-7Z" transform="translate(0 -19.87)"/><path class="cls-1" d="M328.79,1064.12v-8.86c0-2.69,1.42-4.23,4-4.23s4,1.54,4,4.23v8.86c0,2.69-1.42,4.23-4,4.23S328.79,1066.81,328.79,1064.12Zm5.39.17v-9.2c0-1.2-.53-1.66-1.37-1.66s-1.37.46-1.37,1.66v9.2c0,1.2.53,1.66,1.37,1.66S334.18,1065.49,334.18,1064.29Z" transform="translate(0 -19.87)"/><path class="cls-1" d="M338.44,1064.22v-9c0-2.6,1.35-4.14,3.9-4.14s3.9,1.54,3.9,4.14V1057h-2.5v-2c0-1.11-.53-1.57-1.33-1.57s-1.32.46-1.32,1.57v9.41c0,1.11.53,1.54,1.32,1.54s1.33-.43,1.33-1.54v-2.58h2.5v2.39c0,2.59-1.35,4.13-3.9,4.13S338.44,1066.81,338.44,1064.22Z" transform="translate(0 -19.87)"/><path class="cls-1" d="M349.87,1051.27h3.59l2.74,16.84h-2.65l-.48-3.34v0h-3l-.48,3.29h-2.45Zm2.89,11.26-1.18-8.33h-.05l-1.15,8.33Z" transform="translate(0 -19.87)"/><path class="cls-1" d="M358.44,1053.67h-2.77v-2.4h8.18v2.4h-2.76v14.44h-2.65Z" transform="translate(0 -19.87)"/><path class="cls-1" d="M365.13,1051.27h2.64v16.84h-2.64Z" transform="translate(0 -19.87)"/><path class="cls-1" d="M369.55,1064.12v-8.86c0-2.69,1.42-4.23,4-4.23s4,1.54,4,4.23v8.86c0,2.69-1.42,4.23-4,4.23S369.55,1066.81,369.55,1064.12Zm5.39.17v-9.2c0-1.2-.52-1.66-1.37-1.66s-1.37.46-1.37,1.66v9.2c0,1.2.53,1.66,1.37,1.66S374.94,1065.49,374.94,1064.29Z" transform="translate(0 -19.87)"/><path class="cls-1" d="M379.37,1051.27h3.32l2.58,10.08h.05v-10.08h2.36v16.84H385l-3.17-12.29h0v12.29h-2.36Z" transform="translate(0 -19.87)"/><path class="cls-1" d="M393.5,1051.27h3.77l1.69,12.06H399l1.68-12.06h3.78v16.84H402v-12.75h-.05L400,1068.11h-2.21l-1.93-12.75h0v12.75H393.5Z" transform="translate(0 -19.87)"/><path class="cls-1" d="M408.49,1051.27h3.58l2.75,16.84h-2.65l-.48-3.34v0h-3l-.48,3.29h-2.46Zm2.89,11.26-1.18-8.33h-.05l-1.16,8.33Z" transform="translate(0 -19.87)"/><path class="cls-1" d="M416.09,1051.27H420c2.65,0,3.95,1.47,3.95,4.16v1.66c0,2.7-1.3,4.17-3.95,4.17h-1.25v6.85h-2.65Zm3.9,7.58c.84,0,1.3-.39,1.3-1.59v-2c0-1.2-.46-1.59-1.3-1.59h-1.25v5.18Z" transform="translate(0 -19.87)"/><path class="cls-3" d="M259.56,566.14c.47.56-.82,4.05-.82,4.05l6.2,0a27.06,27.06,0,0,1,5.87-8.59s44.82,0,49.9,3.91c4.24,3.26,11.39,6.71,17,9.12h-.58l.08,12.3h-6.59v1.16c.9,0,15.16,0,25.44,0,5.38,0,9.67-.09,10.38-.17a3.94,3.94,0,0,0,3.19-2.19l-1.07-.46a2.78,2.78,0,0,1-2.25,1.5c-.53.06-3.31.1-7.22.14l0-7.77h-1.16l0,7.76c-5.58,0-13,.06-19.56.07l-.08-12.06c2.86,1.22,5.25,2.13,6.52,2.57,3.79,1.28,18.77,1.63,18.77,1.63s14.95-.56,13-7.94c-2-7.79-18.43-16.9-20.91-18.19s-8.14-.53-10.48-1.54a2.48,2.48,0,0,1-1.33-3.33l-7.42-.83c-6.95,7.32-20.58,8.64-20.58,8.64s-43.49,1.39-44.9.93-5-10.31-6.28-12.46-6.59-1.46-6.59-1.46,1.54,5.25,1.55,6.85-5.82,1.44-5.69,8S259.09,565.58,259.56,566.14Zm-4.08-7.67a6.12,6.12,0,1,1,6.15,6.08A6.11,6.11,0,0,1,255.48,558.47Z" transform="translate(0 -19.87)"/><path class="cls-5" d="M376.76,572.47c0-.62-9.34-.29-9.67.06s-.66,2.09,2.66,5.58C372.43,577.73,376.78,575.39,376.76,572.47Z" transform="translate(0 -19.87)"/><path class="cls-5" d="M376.22,570s-9.68.28-10.82.07-11.64-17.76-11.64-17.76l1.22.29s9,4.5,13.48,8.58C375.06,566.43,376.22,570,376.22,570Z" transform="translate(0 -19.87)"/><path class="cls-5" d="M348.88,554.63c.87,0,2.61-.07,3.7,0s7.68,11.16,8.34,12.24,0,2.18-1.67,2.08a56.49,56.49,0,0,1-8.55-1.47,6.1,6.1,0,0,1-2.64-4.17,62.86,62.86,0,0,1-.69-7.12C347.47,555.83,348.07,554.66,348.88,554.63Z" transform="translate(0 -19.87)"/><path class="cls-3" d="M283.71,541.46l13.51-.12c9-.08,18-.07,27-.06l14.62.08a.64.64,0,0,1,.64-.59h.66a.63.63,0,0,1,.64.61c3.49,0,7,.06,10.46.12l13.52.2c4.5.1,9,.17,13.51.32-4.5.11-9,.16-13.51.24l-13.52.12c-3.48,0-7,0-10.45.06l0,5a.65.65,0,0,1-.64.65h-.66a.65.65,0,0,1-.65-.64l0-5H324.24c-9,0-18-.08-27-.21L283.7,542c-4.5-.11-9-.18-13.51-.32C274.7,541.59,279.2,541.54,283.71,541.46Z" transform="translate(0 -19.87)"/><path class="cls-5" d="M255.48,558.47a6.12,6.12,0,1,0,6.08-6.16A6.12,6.12,0,0,0,255.48,558.47Zm2.18-4.2a5.69,5.69,0,0,1,3.71-1.56l0,4.07a1.7,1.7,0,0,0-.84.35Zm4.09-1.56a5.67,5.67,0,0,1,3.73,1.51l-2.86,2.9a1.6,1.6,0,0,0-.84-.34Zm4,1.79a5.67,5.67,0,0,1,1.57,3.7l-4.07,0a1.64,1.64,0,0,0-.36-.84Zm1.57,4.09a5.7,5.7,0,0,1-1.52,3.72l-2.89-2.85a1.78,1.78,0,0,0,.34-.85Zm-1.79,4a5.69,5.69,0,0,1-3.71,1.56l0-4.07a1.7,1.7,0,0,0,.84-.35Zm-4.09,1.56a5.67,5.67,0,0,1-3.73-1.51l2.86-2.9a1.6,1.6,0,0,0,.84.34Zm-4-1.79a5.67,5.67,0,0,1-1.57-3.7l4.07,0a1.71,1.71,0,0,0,.35.84Zm-1.57-4.09a5.7,5.7,0,0,1,1.52-3.72l2.89,2.85a1.68,1.68,0,0,0-.34.85Z" transform="translate(0 -19.87)"/><text class="cls-8" transform="translate(669.27 16.22)">K<tspan class="cls-9" x="7.77" y="0">on</tspan><tspan class="cls-10" x="23.47" y="0">t</tspan><tspan class="cls-9" x="29.54" y="0">akt</tspan></text><path class="cls-3" d="M671.57,49c.2.24-.35,1.69-.35,1.69h2.58a11.26,11.26,0,0,1,2.47-3.57s18.68.12,20.79,1.76a36.86,36.86,0,0,0,7.05,3.84h-.24v5.13h-2.74v.48c.38,0,6.32,0,10.61,0,2.24,0,4,0,4.33,0a1.62,1.62,0,0,0,1.33-.91l-.44-.19a1.18,1.18,0,0,1-1,.62c-.22,0-1.37,0-3,0V54.64h-.49v3.24l-8.15,0v-5c1.18.51,2.18.9,2.71,1.08,1.57.55,7.82.73,7.82.73s6.23-.19,5.45-3.27c-.82-3.26-7.64-7.1-8.67-7.64s-3.39-.24-4.36-.67a1,1,0,0,1-.55-1.39l-3.09-.37c-2.91,3-8.6,3.55-8.6,3.55s-18.13.47-18.72.28-2-4.31-2.59-5.21-2.74-.63-2.74-.63a19.31,19.31,0,0,1,.63,2.86c0,.66-2.43.59-2.39,3.33A3.77,3.77,0,0,0,671.57,49Zm-1.68-3.21a2.55,2.55,0,1,1,2.55,2.56A2.55,2.55,0,0,1,669.89,45.79Z" transform="translate(0 -19.87)"/><path class="cls-5" d="M720.41,51.94c0-.26-3.89-.14-4,0s-.28.87,1.09,2.34C718.59,54.12,720.41,53.16,720.41,51.94Z" transform="translate(0 -19.87)"/><path class="cls-5" d="M720.19,50.92s-4,.09-4.51,0-4.81-7.44-4.81-7.44l.51.13a31.84,31.84,0,0,1,5.6,3.61C719.71,49.42,720.19,50.92,720.19,50.92Z" transform="translate(0 -19.87)"/><path class="cls-5" d="M708.83,44.43c.37,0,1.09,0,1.54,0s3.18,4.67,3.45,5.13,0,.9-.7.86a24,24,0,0,1-3.56-.64A2.53,2.53,0,0,1,708.47,48a24.84,24.84,0,0,1-.27-3C708.24,44.93,708.49,44.45,708.83,44.43Z" transform="translate(0 -19.87)"/><path class="cls-3" d="M681.7,38.78l5.63,0c3.76,0,7.51,0,11.27.05l6.1.07a.26.26,0,0,1,.26-.25h.28a.26.26,0,0,1,.26.26l4.36.07,5.64.12c1.87.06,3.75.1,5.63.17-1.88,0-3.76,0-5.63.07h-5.64c-1.45,0-2.9,0-4.36,0v2.08a.27.27,0,0,1-.26.27H705a.27.27,0,0,1-.27-.27V39.33l-6.1,0c-3.75,0-7.51-.08-11.26-.16L681.7,39c-1.88,0-3.76-.09-5.64-.16C677.94,38.81,679.82,38.8,681.7,38.78Z" transform="translate(0 -19.87)"/><path class="cls-5" d="M669.89,45.79a2.55,2.55,0,1,0,2.55-2.55A2.56,2.56,0,0,0,669.89,45.79Zm.92-1.74a2.39,2.39,0,0,1,1.55-.64v1.7a.64.64,0,0,0-.35.14Zm1.71-.64a2.39,2.39,0,0,1,1.55.64l-1.2,1.2a.64.64,0,0,0-.35-.14Zm1.66.76a2.36,2.36,0,0,1,.64,1.54h-1.69a.73.73,0,0,0-.15-.35Zm.64,1.71a2.36,2.36,0,0,1-.64,1.54L673,46.23a.73.73,0,0,0,.15-.35Zm-.75,1.66a2.39,2.39,0,0,1-1.55.64v-1.7a.64.64,0,0,0,.35-.14Zm-1.71.64a2.39,2.39,0,0,1-1.55-.64l1.2-1.2a.64.64,0,0,0,.35.14Zm-1.67-.76a2.36,2.36,0,0,1-.64-1.54h1.7a.64.64,0,0,0,.14.35Zm-.64-1.71a2.36,2.36,0,0,1,.64-1.54l1.2,1.19a.64.64,0,0,0-.14.35Z" transform="translate(0 -19.87)"/><path class="cls-3" d="M517.25,821.59v-3.83a.76.76,0,0,1-1.16,0v3.83l-.39,11.89v1.69h1.94v-1.69Z" transform="translate(0 -19.87)"/><ellipse class="cls-3" cx="521.97" cy="815.66" rx="5.61" ry="0.62" transform="translate(-215.33 167.98) rotate(-16.97)"/><ellipse class="cls-3" cx="512.58" cy="813.44" rx="0.62" ry="5.61" transform="translate(-431.81 613.17) rotate(-46.97)"/><ellipse class="cls-3" cx="515.31" cy="822.69" rx="5.61" ry="0.62" transform="translate(-402.38 1119.37) rotate(-76.97)"/><circle class="cls-4" cx="516.67" cy="797.26" r="0.76"/><path class="cls-3" d="M494.42,833.78V830a.73.73,0,0,1-.58.27.75.75,0,0,1-.58-.27v3.83l-.39,11.89v1.69h1.95v-1.69Z" transform="translate(0 -19.87)"/><ellipse class="cls-3" cx="499.46" cy="809.49" rx="5.61" ry="0.62"/><ellipse class="cls-3" cx="491.12" cy="824.49" rx="0.62" ry="5.61" transform="translate(-346.44 336.15) rotate(-30)"/><ellipse class="cls-3" cx="491.04" cy="834.14" rx="5.61" ry="0.62" transform="translate(-476.87 822.45) rotate(-60)"/><circle class="cls-4" cx="493.84" cy="809.45" r="0.76"/><path class="cls-3" d="M525.52,826.79V823h0a.75.75,0,0,1-.57.26.73.73,0,0,1-.57-.26h0v3.76L524,838.53v1.68h1.92v-1.68Z" transform="translate(0 -19.87)"/><ellipse class="cls-3" cx="520.89" cy="825.97" rx="5.54" ry="0.61" transform="translate(-416.19 531.45) rotate(-41.43)"/><ellipse class="cls-3" cx="523.88" cy="816.91" rx="0.61" ry="5.54" transform="translate(-151.47 100.12) rotate(-11.43)"/><ellipse class="cls-3" cx="530.25" cy="824.01" rx="0.61" ry="5.54" transform="translate(-419.73 1044.32) rotate(-71.43)"/><circle class="cls-4" cx="524.95" cy="802.53" r="0.75"/><path class="cls-3" d="M469.53,642.27v-3.81h0a.78.78,0,0,1-1.16,0h0v3.81L468,654.16v1.7h1.94v-1.7Z" transform="translate(0 -19.87)"/><ellipse class="cls-3" cx="474.25" cy="636.35" rx="5.61" ry="0.62" transform="matrix(0.96, -0.29, 0.29, 0.96, -165.08, 146.25)"/><ellipse class="cls-3" cx="464.86" cy="634.12" rx="0.62" ry="5.61" transform="translate(-315.89 521.34) rotate(-46.97)"/><ellipse class="cls-3" cx="467.59" cy="643.38" rx="5.61" ry="0.62" transform="translate(-264.64 933.99) rotate(-76.97)"/><circle class="cls-4" cx="468.95" cy="617.95" r="0.76"/><path class="cls-3" d="M436.89,657.28v-3.83a.75.75,0,0,1-1.15,0v3.83l-.4,11.88v1.7h2v-1.7Z" transform="translate(0 -19.87)"/><ellipse class="cls-3" cx="441.93" cy="632.98" rx="5.61" ry="0.62"/><ellipse class="cls-3" cx="433.59" cy="647.98" rx="0.62" ry="5.61" transform="translate(-265.9 283.74) rotate(-30)"/><ellipse class="cls-3" cx="433.51" cy="657.64" rx="5.61" ry="0.62" transform="translate(-352.78 684.38) rotate(-60)"/><circle class="cls-4" cx="436.32" cy="632.95" r="0.76"/><path class="cls-3" d="M455.1,656.15v-3.78a.73.73,0,0,1-.57.26.75.75,0,0,1-.57-.26v3.78l-.39,11.74v1.67h1.92v-1.67Z" transform="translate(0 -19.87)"/><ellipse class="cls-3" cx="450.47" cy="655.32" rx="5.54" ry="0.61" transform="translate(-320.9 442.16) rotate(-41.43)"/><ellipse class="cls-3" cx="453.46" cy="646.27" rx="0.61" ry="5.54" transform="translate(-119.06 82.79) rotate(-11.43)"/><ellipse class="cls-3" cx="459.83" cy="653.36" rx="0.61" ry="5.54" transform="matrix(0.32, -0.95, 0.95, 0.32, -305.96, 861.28)"/><circle class="cls-4" cx="454.53" cy="631.88" r="0.75"/><path class="cls-3" d="M44.28,742.35v-3.83a.76.76,0,0,1-1.16,0v3.83l-.39,11.89v1.7h2v-1.7Z" transform="translate(0 -19.87)"/><ellipse class="cls-3" cx="49" cy="736.42" rx="5.61" ry="0.62" transform="translate(-212.8 26.49) rotate(-16.97)"/><ellipse class="cls-3" cx="39.61" cy="734.2" rx="0.62" ry="5.61" transform="translate(-524.11 242.27) rotate(-46.97)"/><ellipse class="cls-3" cx="42.34" cy="743.45" rx="5.61" ry="0.62" transform="translate(-691.51 597.21) rotate(-76.97)"/><circle class="cls-4" cx="43.7" cy="718.02" r="0.76"/><path class="cls-3" d="M21.45,754.54v-3.83a.75.75,0,0,1-1.15,0v3.83l-.4,11.89v1.7h2v-1.7Z" transform="translate(0 -19.87)"/><ellipse class="cls-3" cx="26.49" cy="730.25" rx="5.61" ry="0.62"/><ellipse class="cls-3" cx="18.15" cy="745.25" rx="0.62" ry="5.61" transform="translate(-370.19 89.05) rotate(-30)"/><ellipse class="cls-3" cx="18.07" cy="754.9" rx="5.61" ry="0.62" transform="translate(-644.73 373.23) rotate(-60)"/><circle class="cls-4" cx="20.88" cy="730.21" r="0.76"/><path class="cls-3" d="M52.55,747.56v-3.78a.75.75,0,0,1-1.14,0v3.78L51,759.29V761h1.92v-1.68Z" transform="translate(0 -19.87)"/><ellipse class="cls-3" cx="47.92" cy="746.73" rx="5.54" ry="0.61" transform="translate(-482.1 198.68) rotate(-41.43)"/><ellipse class="cls-3" cx="50.91" cy="737.68" rx="0.61" ry="5.54" transform="translate(-145.15 4.84) rotate(-11.43)"/><ellipse class="cls-3" cx="57.28" cy="744.77" rx="0.61" ry="5.54" transform="translate(-666.95 541.98) rotate(-71.43)"/><circle class="cls-4" cx="51.98" cy="723.29" r="0.75"/><rect class="cls-3" x="626.78" y="790.29" width="3.14" height="4.5" transform="translate(-157.12 135.51) rotate(-12.54)"/><rect class="cls-3" x="632.06" y="789.11" width="3.14" height="4.5" transform="translate(-156.74 136.63) rotate(-12.54)"/><path class="cls-4" d="M623.63,795.89l1.79,8.05,14.92-3.32-1.79-8Zm2.92,2.46a1,1,0,1,1,.75-1.18A1,1,0,0,1,626.55,798.35Zm3.44-.76a1,1,0,0,1-1.19-.76,1,1,0,0,1,2-.43A1,1,0,0,1,630,797.59Zm3.44-.77a1,1,0,1,1,.76-1.19A1,1,0,0,1,633.43,796.82Zm3.44-.76a1,1,0,0,1-.43-1.95,1,1,0,1,1,.43,1.95Z" transform="translate(0 -19.87)"/><polygon class="cls-3" points="642.43 777.33 643.01 784.52 623.63 788.83 618.29 781.28 626.24 779.51 642.43 777.33"/><rect class="cls-3" x="181.13" y="1004.74" width="4.82" height="6.9" transform="translate(468.97 1972.54) rotate(174.15)"/><rect class="cls-3" x="172.87" y="1005.59" width="4.82" height="6.9" transform="translate(452.58 1975.07) rotate(174.15)"/><path class="cls-4" d="M168.72,1013.18l1.28,12.57,23.32-2.39L192,1010.79Zm18.58,1.24a1.53,1.53,0,1,1,1.68,1.37A1.54,1.54,0,0,1,187.3,1014.42Zm-5.37.56a1.52,1.52,0,1,1,1.67,1.36A1.53,1.53,0,0,1,181.93,1015Zm-5.38.55a1.52,1.52,0,1,1,1.67,1.36A1.53,1.53,0,0,1,176.55,1015.53Zm-5.38.55a1.53,1.53,0,1,1,1.68,1.36A1.53,1.53,0,0,1,171.17,1016.08Z" transform="translate(0 -19.87)"/><polygon class="cls-3" points="165.32 1001.92 167.95 1012.67 198.22 1009.56 202.34 995.99 189.93 997.26 165.32 1001.92"/><path class="cls-11" d="M298.23,596.29c-39.14,31.36-30.91,89.07,41.26,102.82,36.45,6.95,54.26,2.11,58.21-6.5s-35.37-28.15-107.39,17.82c-60.72,38.76-188.62,17.62-218.18,47.21-9.81,9.83-4.14,25.23,65.06,22.61s174.17-27.07,213.64-26.69S432.36,775,480.7,775C555.54,775,673,651.1,703.81,719.88c24.68,55.11-68.29,78.28-133.34,53.5-49.77-19-88.55-59-85.72-95.34,3.46-44.26,47.4-61.85,86.68-62.41s100.7,13.55,133.47,8.5c26.44-4.07,35.38-42,24-72.85C595.27,187.62,590.46,56,640.45,51.79" transform="translate(0 -19.87)"/><path class="cls-3" d="M563.78,983.21v-7.56a1.5,1.5,0,0,0,2.29,0v7.56l.78,23.5v3.35H563v-3.35Z" transform="translate(0 -19.87)"/><ellipse class="cls-3" cx="554.45" cy="971.5" rx="1.23" ry="11.09" transform="translate(-536.58 1198.4) rotate(-73.03)"/><ellipse class="cls-3" cx="573.01" cy="967.1" rx="11.09" ry="1.23" transform="translate(-505.79 631.31) rotate(-43.03)"/><ellipse class="cls-3" cx="567.61" cy="985.4" rx="1.23" ry="11.09" transform="translate(-207.56 133.48) rotate(-13.03)"/><circle class="cls-4" cx="564.93" cy="954.54" r="1.51"/><path class="cls-3" d="M628.27,1012.87v-7.56a1.53,1.53,0,0,0,1.15.53,1.49,1.49,0,0,0,1.14-.53s0,0,0,0v7.53l.77,23.49v3.36h-3.85v-3.36Z" transform="translate(0 -19.87)"/><ellipse class="cls-3" cx="618.33" cy="984.26" rx="11.09" ry="1.23"/><ellipse class="cls-3" cx="634.8" cy="994.5" rx="11.09" ry="1.23" transform="translate(-543.87 1027.13) rotate(-60)"/><ellipse class="cls-3" cx="634.96" cy="1013.58" rx="1.23" ry="11.09" transform="translate(-421.72 433.41) rotate(-30)"/><circle class="cls-4" cx="629.42" cy="984.2" r="1.51"/><path class="cls-3" d="M592.29,1010.63v-7.46a1.49,1.49,0,0,0,2.26,0v7.46l.77,23.2v3.32h-3.8v-3.32Z" transform="translate(0 -19.87)"/><ellipse class="cls-3" cx="601.44" cy="1009" rx="1.21" ry="10.96" transform="translate(-553.06 772.45) rotate(-48.57)"/><ellipse class="cls-3" cx="595.53" cy="991.11" rx="10.96" ry="1.21" transform="translate(-493.92 1358.59) rotate(-78.57)"/><ellipse class="cls-3" cx="582.95" cy="1005.12" rx="10.96" ry="1.21" transform="translate(-289.77 218.14) rotate(-18.57)"/><circle class="cls-4" cx="593.42" cy="982.07" r="1.49"/></svg>