<svg id="Ebene_1" data-name="Ebene 1" xmlns="http://www.w3.org/2000/svg" viewBox="0 0 1730.42 67.27"><defs><style>.cls-1{fill:#d1ddde;}</style></defs><path class="cls-1" d="M555.55,43.14a7,7,0,0,0-6.89-4.85,7.75,7.75,0,0,0-2.7.49c-1.36-5.89-7.08-10.31-13.94-10.31a15.82,15.82,0,0,0-3.1.31A14.39,14.39,0,0,0,516,21.3,14.22,14.22,0,0,0,502.62,30a15.43,15.43,0,0,0-4.6-.71c-7.87,0-14.24,5.82-14.24,13,0,.3,0,.59,0,.88Z"/><path class="cls-1" d="M643.62,63.78a9,9,0,0,0-17-.4,7.75,7.75,0,0,0-13.37,3.89H644A8.92,8.92,0,0,0,643.62,63.78Z"/><path class="cls-1" d="M30.36,29.3a9,9,0,0,0-17-.41A7.75,7.75,0,0,0,0,32.79H30.72A8.88,8.88,0,0,0,30.36,29.3Z"/><path class="cls-1" d="M1285.66,44.55a9,9,0,0,1,17-.4A7.74,7.74,0,0,1,1316,48h-30.72A8.75,8.75,0,0,1,1285.66,44.55Z"/><path class="cls-1" d="M1730.42,21.84a7,7,0,0,0-6.88-4.85,7.49,7.49,0,0,0-2.7.49c-1.36-5.89-7.08-10.32-13.94-10.32a15.74,15.74,0,0,0-3.1.32A14.39,14.39,0,0,0,1690.92,0a14.22,14.22,0,0,0-13.42,8.67,15.49,15.49,0,0,0-4.61-.71c-7.86,0-14.24,5.82-14.24,13,0,.3,0,.59,0,.88Z"/><path class="cls-1" d="M1658.25,28.73a9,9,0,0,0-17-.4,7.75,7.75,0,0,0-13.37,3.89h30.72A8.92,8.92,0,0,0,1658.25,28.73Z"/></svg>