<svg width="1700" height="734" viewBox="0 0 1700 734" fill="none" xmlns="http://www.w3.org/2000/svg">
<style>#Heli {
  animation: hover 1.5s ease-in-out infinite alternate;
}

@keyframes hover {
  0% {
    transform: translateY(-10px);
  }

  100% {
    transform: translateY(10px);
  }
}

</style>
<g id="Group 22">
<path id="Vector" d="M0 733.01V528.19C22.17 504.19 123.1 473.4 160.08 455.05C241.86 414.46 330.79 365.29 361.56 356.16C501.46 314.6 783.76 337.26 981.5 283.55C1179.24 229.84 1476.97 40.5501 1699.73 35.1201V733.01H0Z" fill="#007799"></path>
<path id="Vector_2" d="M1699.73 133.43C1699.56 133.43 1699.61 133.43 1699.44 133.43C1699.44 133.43 1684.55 132.53 1673.65 133.43C1662.75 134.33 1648.51 138.29 1637.54 146.81C1627.78 158.39 1624.95 161.35 1625.2 164.39C1625.55 168.54 1628.56 171.8 1629.14 174.04C1629.45 175.27 1628.38 176.46 1626.56 176.88C1617.45 179.02 1587.72 186.63 1590.44 194.53C1593.92 204.63 1626.77 214.41 1620.89 219.94C1608.46 231.61 1553.2 227.16 1526.89 234.94C1499.34 243.08 1527.64 259.5 1479.69 256.94C1394.32 252.39 1350.22 250.04 1338.63 262.45C1328.11 273.73 1344.08 281.45 1358.45 290.96C1371 299.26 1418.99 330.25 1418.08 331.41C1417.33 332.41 1409.49 344.27 1412.79 350.05C1416.52 356.58 1443.64 359.62 1443.64 359.62C1443.64 359.62 1420.99 371.69 1427.74 383.11C1440.15 404.11 1472.84 401.78 1470.45 409.05C1461.06 437.67 1368.67 447.96 1325.83 429.16C1321.26 427.16 1362.76 369.09 1362.76 369.09L1284.91 365.15C1284.91 365.15 1280.78 373.74 1258.8 411.15L1244.98 407.47C1241.66 406.61 1235.17 404.4 1233.16 403.9C1231.79 403.57 1268.43 366.23 1268.43 366.23L1214.64 364.23L1188.04 394.38C1178.39 392.38 1171.34 391.03 1169.82 390.74C1165.39 389.89 1188.13 364.59 1188.13 364.59L1145.22 368.19C1145.22 368.19 1135.75 384.64 1130.57 383.8C1130.57 383.8 1119.57 382.03 1109.01 380.52C955.49 358.52 913.01 385.17 913.01 385.17C840.15 412.53 918.01 502.91 854.3 506.08C768.55 510.34 733.41 447.24 627.7 435.33C512.81 422.33 417.89 431.06 380.4 440.46C316.84 456.4 465.01 464.59 406.07 469.65C331.96 476.01 353.73 497.06 373.82 505.61C390.29 512.61 446.7 518.61 400.5 551.61C354.3 584.61 148.03 733.01 148.03 733.01H748.59C748.59 733.01 573.2 585.78 545.08 560.14C520.73 537.93 458.08 503.73 458.08 495.14C458.08 480.51 476.39 488.63 519.67 479.76C583.77 466.61 422.67 446.63 449.1 442.7C471.75 439.32 526.01 438.47 549.17 441.64C616.59 450.87 663.48 488.54 686.45 502.89C725.6 527.35 764.18 561.49 855.98 561.49C878.69 561.49 917.22 552.12 927.93 545.65C988.15 509.3 875.18 432.32 918.83 398.88C961.83 374.59 1055.28 385.68 1055.28 385.68C1055.28 385.68 1181.51 403.05 1327.28 460.4C1473.05 517.75 1535.91 454.53 1522.39 421.24C1514.58 402.01 1521.3 392.36 1463.47 380.06C1461.28 379.59 1492.19 370.71 1474.47 351.88C1466.07 342.98 1446.27 345.68 1436.53 342.8C1429.77 340.8 1444.11 332.63 1428.14 322.8C1396.25 303.12 1339.82 275.8 1344.14 266.48C1344.24 266.26 1352.36 261.48 1352.65 261.38C1372.24 256.73 1373.92 257.32 1504.18 268.71C1546.9 272.44 1528.55 249.49 1535.03 246.2C1540.03 243.63 1642.93 239.78 1657.46 226.77C1662.68 222.11 1622.46 201.18 1625.31 195.77C1629.91 186.97 1663.31 183.66 1654.84 173.15C1648.75 165.62 1638.73 163.99 1643.9 150.3C1649.57 130.12 1699.73 133.43 1699.73 133.43Z" fill="#43AFE0"></path>
<path id="Vector_3" d="M220.97 592.13H225.42V604.01L231.08 592.09H235.53L230.23 602.48L235.61 620.38H230.96L227.2 607.77L225.42 611.37V620.37H220.97V592.13Z" fill="white"></path>
<path id="Vector_4" d="M236.73 613.72V598.84C236.73 594.31 239.11 591.73 243.48 591.73C247.85 591.73 250.23 594.31 250.23 598.84V613.72C250.23 618.24 247.84 620.83 243.48 620.83C239.12 620.83 236.73 618.24 236.73 613.72ZM238.38 586.1H242.38V590.23H238.38V586.1ZM245.78 614V598.56C245.78 596.56 244.89 595.77 243.48 595.77C242.07 595.77 241.17 596.53 241.17 598.56V614.01C241.17 616.01 242.06 616.8 243.48 616.8C244.9 616.8 245.8 616.01 245.8 614.01L245.78 614ZM244.61 586.1H248.61V590.23H244.61V586.1Z" fill="white"></path>
<path id="Vector_5" d="M253.25 592.13H257.73V616.38H265.05V620.38H253.25V592.13Z" fill="white"></path>
<path id="Vector_6" d="M267.16 592.13H272.73L277.05 609.07H277.14V592.13H281.14V620.42H276.57L271.23 599.77H271.15V620.42H267.15L267.16 592.13Z" fill="white"></path>
<path id="Vector_7" d="M741.29 125.42H748.08C752.52 125.42 754.71 127.89 754.71 132.42V146.74C754.71 151.26 752.52 153.74 748.08 153.74H741.29V125.42ZM748 149.68C749.41 149.68 750.26 148.95 750.26 146.93V132.21C750.26 130.21 749.41 129.47 748 129.47H745.73V149.68H748Z" fill="white"></path>
<path id="Vector_8" d="M757.55 147.01V125.42H761.99V147.33C761.99 149.33 762.84 150.08 764.26 150.08C765.68 150.08 766.52 149.35 766.52 147.33V125.42H770.81V147.01C770.81 151.54 768.54 154.12 764.18 154.12C759.82 154.12 757.55 151.54 757.55 147.01ZM759.08 119.4H763.08V123.52H759.08V119.4ZM765.31 119.4H769.31V123.52H765.31V119.4Z" fill="white"></path>
<path id="Vector_9" d="M773.2 147.01V145.39H777.4V147.33C777.4 149.33 778.29 150.08 779.71 150.08C781.13 150.08 782.01 149.35 782.01 147.25C782.01 144.91 781.12 143.41 778.21 140.86C774.49 137.59 773.28 135.29 773.28 132.05C773.28 127.61 775.59 125.05 779.91 125.05C784.23 125.05 786.38 127.64 786.38 132.16V133.33H782.17V131.88C782.17 129.88 781.37 129.09 779.95 129.09C778.53 129.09 777.73 129.86 777.73 131.8C777.73 133.74 778.66 135.35 781.57 137.9C785.29 141.18 786.46 143.44 786.46 146.96C786.46 151.57 784.11 154.15 779.75 154.15C775.39 154.15 773.2 151.54 773.2 147.01Z" fill="white"></path>
<path id="Vector_10" d="M788.24 147.01V145.39H792.45V147.33C792.45 149.33 793.34 150.08 794.75 150.08C796.16 150.08 797.06 149.35 797.06 147.25C797.06 144.91 796.17 143.41 793.26 140.86C789.54 137.59 788.33 135.29 788.33 132.05C788.33 127.61 790.63 125.05 794.96 125.05C799.29 125.05 801.42 127.64 801.42 132.16V133.33H797.22V131.88C797.22 129.88 796.41 129.09 795 129.09C793.59 129.09 792.77 129.86 792.77 131.8C792.77 133.74 793.7 135.35 796.61 137.9C800.33 141.18 801.5 143.44 801.5 146.96C801.5 151.57 799.16 154.15 794.79 154.15C790.42 154.15 788.24 151.54 788.24 147.01Z" fill="white"></path>
<path id="Vector_11" d="M804.06 125.42H816.19V129.42H808.51V136.89H814.61V141.01H808.51V149.7H816.19V153.7H804.06V125.42Z" fill="white"></path>
<path id="Vector_12" d="M818.73 125.42H823.18V149.68H830.49V153.68H818.73V125.42Z" fill="white"></path>
<path id="Vector_13" d="M832.65 125.42H839.45C843.89 125.42 846.07 127.89 846.07 132.42V146.74C846.07 151.26 843.89 153.74 839.45 153.74H832.65V125.42ZM839.36 149.68C840.78 149.68 841.63 148.95 841.63 146.93V132.21C841.63 130.21 840.78 129.47 839.36 129.47H837.1V149.68H839.36Z" fill="white"></path>
<path id="Vector_14" d="M848.73 147.01V132.13C848.73 127.61 851.12 125.02 855.48 125.02C859.84 125.02 862.23 127.61 862.23 132.13V147.01C862.23 151.54 859.85 154.12 855.48 154.12C851.11 154.12 848.73 151.54 848.73 147.01ZM857.79 147.29V131.85C857.79 129.85 856.9 129.06 855.48 129.06C854.06 129.06 853.18 129.83 853.18 131.85V147.29C853.18 149.29 854.07 150.08 855.48 150.08C856.89 150.08 857.81 149.31 857.81 147.29H857.79Z" fill="white"></path>
<path id="Vector_15" d="M865.25 125.42H871.84C876.45 125.42 878.43 127.56 878.43 131.93V133.67C878.43 136.58 877.5 138.44 875.52 139.25V139.33C877.74 140.02 878.52 142.12 878.52 145.33V150.33C878.437 151.498 878.604 152.671 879.01 153.77H874.43C874.059 152.65 873.92 151.466 874.02 150.29V145.12C874.02 142.49 873.26 141.64 871.24 141.64H869.73V153.77H865.28L865.25 125.42ZM871.32 137.55C872.97 137.55 873.99 136.82 873.99 134.55V132.37C873.99 130.37 873.3 129.46 871.72 129.46H869.72V137.54L871.32 137.55Z" fill="white"></path>
<path id="Vector_16" d="M881.55 125.42H893.32V129.42H886V137.3H891.73V141.3H885.99V153.63H881.54L881.55 125.42Z" fill="white"></path>
<path id="Vector_17" d="M1436.4 639.56V624.68C1436.4 620.15 1438.79 617.57 1443.15 617.57C1447.51 617.57 1449.9 620.15 1449.9 624.68V639.56C1449.9 644.09 1447.52 646.67 1443.15 646.67C1438.78 646.67 1436.4 644.09 1436.4 639.56ZM1445.46 639.84V624.4C1445.46 622.4 1444.57 621.61 1443.15 621.61C1441.73 621.61 1440.85 622.38 1440.85 624.4V639.84C1440.85 641.84 1441.74 642.63 1443.15 642.63C1444.56 642.63 1445.46 641.86 1445.46 639.84Z" fill="white"></path>
<path id="Vector_18" d="M1452.9 618.01H1459.61C1464.22 618.01 1466.2 620.15 1466.2 624.52V625.65C1466.2 628.56 1465.31 630.38 1463.33 631.19V631.27C1465.72 632.08 1466.65 634.18 1466.65 637.17V639.6C1466.65 643.97 1464.34 646.31 1459.9 646.31H1452.9V618.01ZM1459.09 629.53C1460.75 629.53 1461.76 628.8 1461.76 626.53V624.96C1461.76 622.96 1461.07 622.04 1459.49 622.04H1457.35V629.52L1459.09 629.53ZM1459.9 642.27C1461.39 642.27 1462.2 641.58 1462.2 639.48V637.01C1462.2 634.38 1461.35 633.57 1459.33 633.57H1457.33V642.27H1459.9Z" fill="white"></path>
<path id="Vector_19" d="M1469.24 618.01H1481.37V622.01H1473.73V629.49H1479.83V633.49H1473.73V642.19H1481.41V646.19H1469.28L1469.24 618.01Z" fill="white"></path>
<path id="Vector_20" d="M1483.92 618.01H1490.51C1495.12 618.01 1497.1 620.15 1497.1 624.52V626.26C1497.1 629.17 1496.18 631.03 1494.19 631.84V631.92C1496.42 632.61 1497.19 634.71 1497.19 637.92V642.92C1497.11 644.088 1497.28 645.26 1497.68 646.36H1493.15C1492.78 645.238 1492.65 644.055 1492.75 642.88V637.71C1492.75 635.08 1491.98 634.23 1489.96 634.23H1488.42V646.36H1483.97L1483.92 618.01ZM1489.99 630.14C1491.65 630.14 1492.66 629.41 1492.66 627.14V624.96C1492.66 622.96 1491.97 622.04 1490.39 622.04H1488.39V630.13L1489.99 630.14Z" fill="white"></path>
<path id="Vector_21" d="M1500.22 618.01H1504.67V629.53H1509.44V618.01H1513.89V646.31H1509.44V633.57H1504.67V646.31H1500.22V618.01Z" fill="white"></path>
<path id="Vector_22" d="M1520.65 618.01H1526.65L1531.26 646.31H1526.81L1526.01 640.69V640.77H1520.95L1520.14 646.31H1516.02L1520.65 618.01ZM1525.5 636.93L1523.5 622.93H1523.42L1521.48 636.93H1525.5Z" fill="white"></path>
<path id="Vector_23" d="M1533.19 639.56V618.01H1537.64V639.92C1537.64 641.92 1538.49 642.67 1539.9 642.67C1541.31 642.67 1542.16 641.94 1542.16 639.92V618.01H1546.45V639.6C1546.45 644.13 1544.18 646.71 1539.82 646.71C1535.46 646.71 1533.19 644.09 1533.19 639.56Z" fill="white"></path>
<path id="Vector_24" d="M1548.84 639.56V637.94H1553.04V639.88C1553.04 641.88 1553.93 642.63 1555.35 642.63C1556.77 642.63 1557.65 641.9 1557.65 639.8C1557.65 637.46 1556.76 635.96 1553.85 633.42C1550.13 630.14 1548.92 627.84 1548.92 624.6C1548.92 620.15 1551.23 617.6 1555.55 617.6C1559.87 617.6 1562.02 620.18 1562.02 624.71V625.89H1557.81V624.43C1557.81 622.43 1557.01 621.64 1555.59 621.64C1554.17 621.64 1553.37 622.41 1553.37 624.35C1553.37 626.29 1554.3 627.91 1557.21 630.45C1560.93 633.73 1562.1 635.99 1562.1 639.51C1562.1 644.12 1559.75 646.7 1555.39 646.7C1551.03 646.7 1548.84 644.09 1548.84 639.56Z" fill="white"></path>
<path id="Vector_25" d="M1564.66 618.01H1576.78V622.01H1569.1V629.49H1575.21V633.49H1569.1V642.19H1576.78V646.19H1564.66V618.01Z" fill="white"></path>
<path id="Vector_26" d="M1579.34 618.01H1584.92L1589.24 634.95H1589.32V618.01H1593.32V646.31H1588.73L1583.39 625.65H1583.31V646.31H1579.31L1579.34 618.01Z" fill="white"></path>
<path id="Vector_27" d="M1153.09 323.29H1159.88C1164.32 323.29 1166.51 325.75 1166.51 330.29V344.6C1166.51 349.13 1164.32 351.6 1159.88 351.6H1153.09V323.29ZM1159.79 347.54C1161.21 347.54 1162.06 346.81 1162.06 344.79V330.08C1162.06 328.08 1161.21 327.33 1159.79 327.33H1157.53V347.54H1159.79Z" fill="white"></path>
<path id="Vector_28" d="M1169.35 344.87V323.29H1173.79V345.2C1173.79 347.2 1174.64 347.95 1176.05 347.95C1177.46 347.95 1178.32 347.22 1178.32 345.2V323.29H1182.6V344.87C1182.6 349.4 1180.34 351.99 1175.97 351.99C1171.6 351.99 1169.35 349.4 1169.35 344.87Z" fill="white"></path>
<path id="Vector_29" d="M1185.73 323.29H1190.18V351.58H1185.73V323.29Z" fill="white"></path>
<path id="Vector_30" d="M1192.73 344.87V343.26H1196.93V345.2C1196.93 347.2 1197.82 347.95 1199.24 347.95C1200.66 347.95 1201.54 347.22 1201.54 345.11C1201.54 342.77 1200.65 341.28 1197.74 338.73C1194.03 335.45 1192.81 333.15 1192.81 329.91C1192.81 325.47 1195.12 322.91 1199.44 322.91C1203.76 322.91 1205.91 325.5 1205.91 330.03V331.2H1201.73V329.71C1201.73 327.71 1200.93 326.93 1199.51 326.93C1198.09 326.93 1197.29 327.69 1197.29 329.63C1197.29 331.57 1198.22 333.19 1201.13 335.74C1204.85 339.01 1206.02 341.28 1206.02 344.74C1206.02 349.35 1203.68 351.94 1199.31 351.94C1194.94 351.94 1192.73 349.4 1192.73 344.87Z" fill="white"></path>
<path id="Vector_31" d="M1208.57 323.29H1215.29C1219.89 323.29 1221.88 325.43 1221.88 329.8V330.93C1221.88 333.84 1220.99 335.65 1219 336.46V336.55C1221.39 337.35 1222.32 339.46 1222.32 342.45V344.87C1222.32 349.24 1220.02 351.58 1215.57 351.58H1208.57V323.29ZM1214.73 334.81C1216.39 334.81 1217.4 334.08 1217.4 331.81V330.23C1217.4 328.23 1216.71 327.32 1215.13 327.32H1212.99V334.8L1214.73 334.81ZM1215.54 347.54C1217.03 347.54 1217.84 346.85 1217.84 344.75V342.29C1217.84 339.66 1216.99 338.85 1214.97 338.85H1212.97V347.54H1215.54Z" fill="white"></path>
<path id="Vector_32" d="M1224.73 344.87V323.29H1229.17V345.2C1229.17 347.2 1230.02 347.95 1231.43 347.95C1232.84 347.95 1233.7 347.22 1233.7 345.2V323.29H1237.98V344.87C1237.98 349.4 1235.72 351.99 1231.35 351.99C1226.98 351.99 1224.73 349.4 1224.73 344.87Z" fill="white"></path>
<path id="Vector_33" d="M1241.17 323.29H1247.73C1252.34 323.29 1254.32 325.43 1254.32 329.8V331.53C1254.32 334.44 1253.39 336.3 1251.41 337.11V337.19C1253.63 337.88 1254.41 339.98 1254.41 343.19V348.19C1254.33 349.355 1254.49 350.524 1254.9 351.62H1250.37C1250 350.502 1249.87 349.322 1249.97 348.15V342.97C1249.97 340.35 1249.2 339.5 1247.18 339.5H1245.64V351.62H1241.19L1241.17 323.29ZM1247.24 335.41C1248.9 335.41 1249.91 334.69 1249.91 332.41V330.23C1249.91 328.23 1249.22 327.32 1247.64 327.32H1245.64V335.4L1247.24 335.41Z" fill="white"></path>
<path id="Vector_34" d="M1257.15 344.87V330.01C1257.15 325.48 1259.42 322.89 1263.78 322.89C1268.14 322.89 1270.41 325.48 1270.41 330.01V332.43H1266.21V329.71C1266.21 327.71 1265.32 326.93 1263.9 326.93C1262.48 326.93 1261.6 327.69 1261.6 329.71V345.2C1261.6 347.2 1262.49 347.95 1263.9 347.95C1265.31 347.95 1266.21 347.22 1266.21 345.2V339.66H1263.98V335.66H1270.41V344.91C1270.41 349.44 1268.15 352.03 1263.78 352.03C1259.41 352.03 1257.15 349.4 1257.15 344.87Z" fill="white"></path>
<path id="Vector_35" d="M1272.64 335.41H1281.53V339.46H1272.64V335.41Z" fill="white"></path>
<path id="Vector_36" d="M1284.21 323.29H1288.66V334.81H1293.43V323.29H1297.87V351.58H1293.43V338.85H1288.66V351.58H1284.21V323.29Z" fill="white"></path>
<path id="Vector_37" d="M1304.63 323.29H1310.63L1315.24 351.58H1310.79L1309.98 345.96V346.01H1304.98L1304.17 351.54H1300.05L1304.63 323.29ZM1309.48 342.21L1307.48 328.21H1307.4L1305.46 342.21H1309.48Z" fill="white"></path>
<path id="Vector_38" d="M1317.41 323.29H1329.18V327.29H1321.86V335.17H1327.6V339.17H1321.86V351.5H1317.41V323.29Z" fill="white"></path>
<path id="Vector_39" d="M1331.33 323.29H1343.45V327.29H1335.78V334.77H1341.88V338.77H1335.78V347.46H1343.45V351.46H1331.33V323.29Z" fill="white"></path>
<path id="Vector_40" d="M1346.01 323.29H1351.59L1355.91 340.22H1355.99V323.29H1359.99V351.58H1355.43L1350.09 330.93H1350.01V351.58H1346.01V323.29Z" fill="white"></path>
<path id="Vector_41" d="M1534.43 104.84H1546.56V108.84H1538.88V116.32H1544.98V120.32H1538.88V129H1546.56V133.05H1534.43V104.84Z" fill="white"></path>
<path id="Vector_42" d="M1548.42 126.43V124.81H1552.63V126.75C1552.63 128.75 1553.52 129.5 1554.93 129.5C1556.34 129.5 1557.24 128.77 1557.24 126.67C1557.24 124.33 1556.35 122.83 1553.44 120.28C1549.72 117.01 1548.51 114.7 1548.51 111.47C1548.51 107.03 1550.81 104.47 1555.14 104.47C1559.47 104.47 1561.6 107.06 1561.6 111.58V112.75H1557.4V111.3C1557.4 109.3 1556.59 108.51 1555.17 108.51C1553.75 108.51 1552.95 109.28 1552.95 111.22C1552.95 113.16 1553.88 114.77 1556.79 117.32C1560.51 120.6 1561.69 122.86 1561.69 126.38C1561.69 130.98 1559.34 133.57 1554.97 133.57C1550.6 133.57 1548.42 130.95 1548.42 126.43Z" fill="white"></path>
<path id="Vector_43" d="M1563.47 126.43V124.81H1567.73V126.75C1567.73 128.75 1568.61 129.5 1570.03 129.5C1571.45 129.5 1572.33 128.77 1572.33 126.67C1572.33 124.33 1571.45 122.83 1568.53 120.28C1564.81 117.01 1563.6 114.7 1563.6 111.47C1563.6 107.03 1565.91 104.47 1570.23 104.47C1574.55 104.47 1576.7 107.06 1576.7 111.58V112.75H1572.5V111.3C1572.5 109.3 1571.69 108.51 1570.27 108.51C1568.85 108.51 1568.05 109.28 1568.05 111.22C1568.05 113.16 1568.98 114.77 1571.89 117.32C1575.61 120.6 1576.78 122.86 1576.78 126.38C1576.78 130.98 1574.43 133.57 1570.07 133.57C1565.71 133.57 1563.47 130.95 1563.47 126.43Z" fill="white"></path>
<path id="Vector_44" d="M1579.29 104.84H1591.41V108.84H1583.73V116.32H1589.83V120.32H1583.73V129H1591.41V133.05H1579.29V104.84Z" fill="white"></path>
<path id="Vector_45" d="M1593.97 104.84H1599.54L1603.87 121.78H1603.95V104.84H1607.95V133.14H1603.39L1598.05 112.48H1597.97V133.14H1593.97V104.84Z" fill="white"></path>
<path id="Vector_46" d="M397.6 333.75H402.85L405.19 350.49H405.25L407.59 333.75H412.84V357.14H409.36V339.43H409.3L406.62 357.14H403.55L400.88 339.43H400.81V357.14H397.6V333.75Z" fill="white"></path>
<path id="Vector_47" d="M415.32 351.59V339.299C415.32 335.549 417.32 333.419 420.9 333.419C424.48 333.419 426.48 335.549 426.48 339.299V351.59C426.48 355.33 424.48 357.47 420.9 357.47C417.32 357.47 415.32 355.33 415.32 351.59ZM416.73 328.77H420.01V332.18H416.73V328.77ZM422.85 351.83V339.06C422.85 337.39 422.11 336.76 420.94 336.76C419.77 336.76 419.04 337.39 419.04 339.06V351.83C419.04 353.5 419.77 354.13 420.94 354.13C422.11 354.13 422.81 353.5 422.81 351.83H422.85ZM421.85 328.77H425.12V332.18H421.85V328.77Z" fill="white"></path>
<path id="Vector_48" d="M428.96 333.75H433.57L437.15 347.75H437.21V333.75H440.49V357.14H436.73L432.32 340.06H432.25V357.14H428.98L428.96 333.75Z" fill="white"></path>
<path id="Vector_49" d="M443 351.72V339.16C443 335.55 444.87 333.42 448.41 333.42C451.95 333.42 453.83 335.55 453.83 339.16V341.63H450.35V338.93C450.35 337.39 449.62 336.76 448.51 336.76C447.4 336.76 446.68 337.39 446.68 338.93V352.01C446.68 353.55 447.41 354.15 448.51 354.15C449.61 354.15 450.35 353.55 450.35 352.01V348.44H453.83V351.74C453.83 355.35 451.96 357.49 448.41 357.49C444.86 357.49 443 355.33 443 351.72Z" fill="white"></path>
<path id="Vector_50" d="M456.04 333.75H459.73V343.27H463.68V333.75H467.35V357.14H463.68V346.61H459.73V357.14H456.06L456.04 333.75Z" fill="white"></path>
<path id="Vector_51" d="M470.08 333.75H480.08V337.09H473.73V343.27H478.78V346.61H473.73V353.8H480.08V357.14H470.08V333.75Z" fill="white"></path>
<path id="Vector_52" d="M482.21 333.75H486.83L490.4 347.75H490.47V333.75H493.73V357.14H489.96L485.55 340.06H485.48V357.14H482.2L482.21 333.75Z" fill="white"></path>
<path id="Vector_53" d="M496.22 351.59V339.3C496.22 335.55 498.09 333.42 501.7 333.42C505.31 333.42 507.18 335.55 507.18 339.3V341.3H503.73V339.06C503.73 337.39 502.99 336.76 501.82 336.76C500.65 336.76 499.92 337.39 499.92 339.06V351.86C499.92 353.53 500.65 354.13 501.82 354.13C502.99 354.13 503.73 353.53 503.73 351.86V347.28H501.89V343.94H507.2V351.59C507.2 355.33 505.33 357.47 501.72 357.47C498.11 357.47 496.22 355.33 496.22 351.59Z" fill="white"></path>
<path id="Vector_54" d="M509.56 333.75H513.24V353.75H519.24V357.09H509.52L509.56 333.75Z" fill="white"></path>
<path id="Vector_55" d="M524.03 333.75H529.03L532.84 357.14H529.17L528.5 352.49V352.56H524.32L523.65 357.14H520.25L524.03 333.75ZM528.03 349.39L526.4 337.83H526.33L524.73 349.39H528.03Z" fill="white"></path>
<path id="Vector_56" d="M534.6 333.75H540.21C543.89 333.75 545.69 335.75 545.69 339.53V351.36C545.69 355.1 543.89 357.14 540.21 357.14H534.6V333.75ZM540.14 353.75C541.31 353.75 542.02 353.15 542.02 351.48V339.36C542.02 337.69 541.31 337.09 540.14 337.09H538.27V353.8L540.14 353.75Z" fill="white"></path>
<path id="Vector_57" d="M548.17 333.75H553.73C557.54 333.75 559.17 335.52 559.17 339.13V340.06C559.17 342.47 558.44 343.97 556.8 344.64V344.71C558.8 345.38 559.54 347.11 559.54 349.59V351.59C559.54 355.2 557.64 357.14 553.96 357.14H548.18L548.17 333.75ZM553.28 343.27C554.65 343.27 555.49 342.67 555.49 340.8V339.5C555.49 337.83 554.92 337.09 553.62 337.09H551.85V343.27H553.28ZM553.95 353.8C555.19 353.8 555.86 353.23 555.86 351.49V349.49C555.86 347.32 555.15 346.65 553.48 346.65H551.85V353.84L553.95 353.8Z" fill="white"></path>
<path id="Vector_58" d="M564.52 333.75H569.52L573.33 357.14H569.63L568.96 352.49V352.56H564.78L564.11 357.14H560.73L564.52 333.75ZM568.52 349.39L566.89 337.83H566.82L565.22 349.39H568.52Z" fill="white"></path>
<path id="Vector_59" d="M574.78 351.72V339.16C574.78 335.55 576.65 333.42 580.19 333.42C583.73 333.42 585.61 335.55 585.61 339.16V341.63H582.13V338.93C582.13 337.39 581.4 336.76 580.29 336.76C579.18 336.76 578.46 337.39 578.46 338.93V352.01C578.46 353.55 579.19 354.15 580.29 354.15C581.39 354.15 582.13 353.55 582.13 352.01V348.44H585.61V351.74C585.61 355.35 583.74 357.49 580.19 357.49C576.64 357.49 574.78 355.33 574.78 351.72Z" fill="white"></path>
<path id="Vector_60" d="M587.82 333.75H591.49V343.27H595.49V333.75H599.16V357.14H595.49V346.61H591.49V357.14H587.82V333.75Z" fill="white"></path>
<path id="Vector_61" d="M189.24 616.44C192.46 611.03 203.24 592.44 203.24 585.44C203.24 581.501 201.675 577.724 198.891 574.939C196.106 572.154 192.329 570.59 188.39 570.59C184.452 570.59 180.674 572.154 177.89 574.939C175.105 577.724 173.54 581.501 173.54 585.44C173.54 592.44 184.27 610.99 187.54 616.44C183.85 616.58 180.99 617.52 180.99 618.66C180.99 619.8 184.33 620.9 188.44 620.9C192.55 620.9 195.89 619.9 195.89 618.66C195.89 617.42 192.93 616.58 189.24 616.44ZM177.9 585.44C177.9 583.373 178.513 581.352 179.662 579.633C180.811 577.914 182.443 576.575 184.353 575.784C186.263 574.994 188.365 574.787 190.392 575.191C192.42 575.595 194.282 576.592 195.743 578.054C197.204 579.517 198.198 581.38 198.6 583.407C199.003 585.435 198.794 587.536 198.002 589.446C197.209 591.355 195.868 592.986 194.148 594.134C192.429 595.281 190.407 595.892 188.34 595.89C186.968 595.891 185.609 595.622 184.341 595.097C183.073 594.572 181.921 593.802 180.951 592.831C179.982 591.861 179.213 590.708 178.689 589.44C178.166 588.171 177.897 586.812 177.9 585.44Z" fill="#EF8619"></path>
<path id="Vector_62" d="M817.38 214.85C820.6 209.43 831.38 190.85 831.38 183.85C831.279 179.98 829.671 176.302 826.898 173.6C824.125 170.898 820.407 169.386 816.535 169.386C812.663 169.386 808.945 170.898 806.172 173.6C803.398 176.302 801.79 179.98 801.69 183.85C801.69 190.85 812.41 209.4 815.63 214.85C811.94 214.98 809.08 215.92 809.08 217.07C809.08 218.22 812.42 219.31 816.53 219.31C820.64 219.31 823.98 218.31 823.98 217.07C823.98 215.83 821.07 215.01 817.38 214.85ZM806.04 183.85C806.038 181.783 806.649 179.761 807.797 178.041C808.944 176.321 810.576 174.98 812.486 174.188C814.396 173.396 816.498 173.188 818.526 173.591C820.554 173.994 822.417 174.989 823.879 176.451C825.341 177.913 826.337 179.776 826.74 181.804C827.143 183.832 826.935 185.934 826.143 187.844C825.35 189.754 824.009 191.386 822.289 192.533C820.569 193.681 818.548 194.292 816.48 194.29C813.711 194.29 811.056 193.19 809.098 191.233C807.14 189.275 806.04 186.619 806.04 183.85Z" fill="#EF8619"></path>
<path id="Vector_63" d="M1191.11 304.01C1194.33 298.6 1205.06 280.01 1205.06 273.01C1205.06 269.072 1203.5 265.294 1200.71 262.51C1197.93 259.725 1194.15 258.16 1190.21 258.16C1186.27 258.16 1182.49 259.725 1179.71 262.51C1176.92 265.294 1175.36 269.072 1175.36 273.01C1175.36 280.01 1186.09 298.56 1189.31 304.01C1185.62 304.15 1182.76 305.09 1182.76 306.24C1182.76 307.39 1186.09 308.47 1190.21 308.47C1194.33 308.47 1197.66 307.47 1197.66 306.24C1197.66 305.01 1194.8 304.14 1191.11 304.01ZM1179.73 273.01C1179.73 270.943 1180.34 268.922 1181.49 267.203C1182.64 265.485 1184.27 264.145 1186.18 263.355C1188.09 262.564 1190.19 262.358 1192.22 262.762C1194.25 263.166 1196.11 264.162 1197.57 265.624C1199.03 267.087 1200.03 268.95 1200.43 270.978C1200.83 273.005 1200.62 275.107 1199.83 277.016C1199.04 278.925 1197.7 280.557 1195.98 281.704C1194.26 282.851 1192.24 283.462 1190.17 283.46C1188.8 283.461 1187.44 283.192 1186.17 282.667C1184.9 282.142 1183.75 281.372 1182.78 280.402C1181.81 279.431 1181.04 278.278 1180.52 277.01C1180 275.742 1179.73 274.382 1179.73 273.01Z" fill="#EF8619"></path>
<path id="Vector_64" d="M1464 605.11C1467.22 599.7 1478 581.11 1478 574.11C1478 570.171 1476.44 566.394 1473.65 563.609C1470.87 560.824 1467.09 559.26 1463.15 559.26C1459.21 559.26 1455.43 560.824 1452.65 563.609C1449.86 566.394 1448.3 570.171 1448.3 574.11C1448.3 581.11 1459.03 599.66 1462.3 605.11C1458.61 605.24 1455.75 606.19 1455.75 607.33C1455.75 608.47 1459.08 609.57 1463.2 609.57C1467.32 609.57 1470.65 608.57 1470.65 607.33C1470.65 606.09 1467.73 605.24 1464 605.11ZM1452.65 574.11C1452.65 572.043 1453.26 570.023 1454.41 568.304C1455.56 566.586 1457.19 565.246 1459.1 564.455C1461.01 563.664 1463.11 563.457 1465.14 563.861C1467.17 564.264 1469.03 565.259 1470.49 566.721C1471.95 568.182 1472.95 570.044 1473.35 572.071C1473.75 574.098 1473.55 576.199 1472.75 578.109C1471.96 580.018 1470.62 581.65 1468.91 582.799C1467.19 583.947 1465.17 584.56 1463.1 584.56C1460.33 584.56 1457.67 583.459 1455.71 581.499C1453.75 579.539 1452.65 576.881 1452.65 574.11Z" fill="#EF8619"></path>
<path id="Vector_65" d="M1650.35 100.21C1653.57 94.8 1664.35 76.21 1664.35 69.21C1664.4 67.2281 1664.06 65.2559 1663.33 63.4099C1662.61 61.5638 1661.52 59.8812 1660.14 58.4612C1658.76 57.0413 1657.1 55.9127 1655.28 55.1422C1653.45 54.3716 1651.49 53.9746 1649.51 53.9746C1647.52 53.9746 1645.56 54.3716 1643.73 55.1422C1641.91 55.9127 1640.25 57.0413 1638.87 58.4612C1637.49 59.8812 1636.4 61.5638 1635.68 63.4099C1634.95 65.2559 1634.61 67.2281 1634.66 69.21C1634.66 76.21 1645.38 94.76 1648.6 100.21C1644.91 100.35 1642.05 101.29 1642.05 102.43C1642.05 103.57 1645.39 104.67 1649.5 104.67C1653.61 104.67 1656.96 103.67 1656.96 102.43C1656.96 101.19 1654.04 100.35 1650.35 100.21ZM1639.01 69.21C1639.01 67.1427 1639.62 65.1219 1640.77 63.4032C1641.92 61.6845 1643.55 60.3451 1645.46 59.5544C1647.37 58.7638 1649.48 58.5575 1651.5 58.9615C1653.53 59.3655 1655.39 60.3618 1656.85 61.8242C1658.31 63.2867 1659.31 65.1496 1659.71 67.1774C1660.11 69.2052 1659.9 71.3066 1659.11 73.2159C1658.32 75.1252 1656.98 76.7566 1655.26 77.9037C1653.54 79.0507 1651.52 79.6619 1649.45 79.6599C1648.08 79.6613 1646.72 79.3918 1645.45 78.867C1644.18 78.3422 1643.03 77.5723 1642.06 76.6015C1641.09 75.6308 1640.32 74.4782 1639.8 73.2098C1639.28 71.9414 1639.01 70.5822 1639.01 69.21Z" fill="#EF8619"></path>
<path id="Vector_66" d="M374.8 398.08C378.01 392.67 388.74 374.08 388.74 367.08C388.791 365.098 388.445 363.126 387.723 361.28C387 359.434 385.914 357.751 384.531 356.331C383.147 354.911 381.493 353.783 379.667 353.012C377.84 352.242 375.877 351.845 373.895 351.845C371.912 351.845 369.95 352.242 368.123 353.012C366.296 353.783 364.643 354.911 363.259 356.331C361.875 357.751 360.79 359.434 360.067 361.28C359.344 363.126 358.998 365.098 359.05 367.08C359.05 374.08 369.78 392.63 372.99 398.08C369.3 398.21 366.44 399.16 366.44 400.3C366.44 401.44 369.78 402.54 373.9 402.54C378.02 402.54 381.35 401.54 381.35 400.3C381.35 399.06 378.49 398.21 374.8 398.08ZM363.45 367.08C363.448 365.013 364.059 362.991 365.206 361.272C366.353 359.552 367.985 358.211 369.894 357.418C371.803 356.626 373.905 356.418 375.932 356.82C377.96 357.222 379.823 358.216 381.286 359.677C382.748 361.138 383.744 363 384.148 365.028C384.552 367.055 384.346 369.157 383.555 371.067C382.765 372.977 381.425 374.61 379.707 375.758C377.988 376.907 375.967 377.52 373.9 377.52C371.13 377.52 368.474 376.42 366.514 374.463C364.555 372.505 363.453 369.85 363.45 367.08Z" fill="#EF8619"></path>
<path id="Vector_67" d="M819.9 320.01C820.13 325.12 820.37 330.24 820.59 335.35C820.79 339.68 820.97 344.01 821.16 348.35C821.393 353.604 821.627 358.86 821.86 364.12L822.4 376.52C822.62 381.394 822.837 386.264 823.05 391.13C823.277 396.464 823.51 401.774 823.75 407.06C823.95 411.53 824.13 416 824.33 420.47C824.55 425.51 824.777 430.554 825.01 435.6L825.58 448.69C825.64 449.99 825.68 451.29 825.76 452.58C825.79 452.713 825.767 452.852 825.696 452.968C825.625 453.084 825.512 453.167 825.38 453.2C823.827 453.827 822.229 454.335 820.6 454.72C819.6 454.84 818.6 455.03 817.6 455.1C816.6 455.17 815.6 455.1 814.6 455.1C812.484 454.853 810.415 454.297 808.46 453.45C807.63 453.08 807.62 453.09 807.64 452.18C807.645 452.094 807.645 452.007 807.64 451.92C807.8 447.68 807.957 443.44 808.11 439.2C808.383 431.5 808.66 423.804 808.94 416.11C809.18 409.264 809.427 402.41 809.68 395.55C809.98 387.33 810.28 379.11 810.58 370.89C810.82 364.53 811.02 358.16 811.25 351.8C811.48 345.44 811.72 339.32 811.95 333.08C812.11 328.75 812.25 324.42 812.41 320.08C812.418 319.769 812.342 319.462 812.19 319.19" fill="white"></path>
<path id="Vector_68" d="M812.11 319.19C809.19 313.737 806.273 308.294 803.36 302.86L803.14 302.51C801.5 299.424 799.856 296.34 798.21 293.26C798.09 293.02 797.97 292.79 797.84 292.56C797.43 291.8 797.44 291.81 798.22 291.39C799.356 290.815 800.528 290.314 801.73 289.89C801.91 289.64 802.21 289.62 802.47 289.54C804.712 288.902 807.008 288.47 809.33 288.25C811.804 287.984 814.292 287.877 816.78 287.93C821.39 287.982 825.981 288.539 830.47 289.59C830.716 289.607 830.948 289.714 831.12 289.89C831.868 290.13 832.602 290.411 833.32 290.73C833.552 290.848 833.776 290.982 833.99 291.13C834.066 291.173 834.132 291.231 834.184 291.301C834.235 291.371 834.271 291.452 834.289 291.537C834.307 291.622 834.307 291.71 834.288 291.796C834.269 291.881 834.232 291.961 834.18 292.03L820.07 319.29C819.948 319.521 819.889 319.78 819.9 320.04" fill="white"></path>
<path id="Vector_69" d="M822.94 273.26C824.602 273.739 826.216 274.371 827.76 275.15C828.38 275.34 828.49 275.82 828.51 276.39C828.578 277.585 828.244 278.768 827.56 279.75C827.43 279.94 827.3 280.08 827.06 279.99C826.82 280.046 826.568 280.025 826.34 279.93C824.271 279.471 822.167 279.18 820.05 279.06C818.86 278.98 817.68 278.97 816.49 278.98C812.832 279.008 809.183 279.343 805.58 279.98C804.45 280.18 804.32 280.16 803.77 279.15C803.333 278.58 803.123 277.867 803.18 277.15C803.13 275.55 803.13 275.54 804.64 274.91C807.227 273.801 809.936 272.999 812.71 272.52C813 272.47 813.07 272.35 813.09 272.08C813.21 269.73 813.34 267.39 813.47 265.08C813.66 261.65 813.8 258.21 814.04 254.78C814.225 253.589 814.509 252.415 814.89 251.27C814.99 250.898 815.043 250.515 815.05 250.13C815.05 243.497 815.02 236.867 814.96 230.24C814.943 230.058 814.983 229.874 815.074 229.715C815.165 229.555 815.304 229.428 815.47 229.35C815.82 229.17 816.1 229.35 816.38 229.55C816.66 229.75 816.59 229.98 816.59 230.21C816.65 233.92 816.7 237.62 816.76 241.32C816.76 244.32 816.86 247.32 816.9 250.26C816.958 251.048 817.12 251.825 817.38 252.57C817.807 254.361 818.052 256.19 818.11 258.03C818.344 261.004 818.57 263.974 818.79 266.94C818.92 268.62 819.06 270.3 819.16 271.94C819.16 272.32 819.3 272.47 819.7 272.54C820.78 272.8 821.86 273.01 822.94 273.26Z" fill="white"></path>
<path id="Vector_70" d="M801.92 287.76C800.76 286.7 799.965 285.3 799.65 283.76C799.606 283.658 799.586 283.547 799.592 283.435C799.598 283.324 799.63 283.215 799.685 283.118C799.741 283.021 799.818 282.938 799.91 282.876C800.003 282.814 800.109 282.774 800.22 282.76C800.83 282.57 801.41 282.29 802.01 282.05C802.15 281.81 802.4 281.77 802.63 281.7C805.781 280.674 809.033 279.986 812.33 279.65C814.584 279.442 816.849 279.389 819.11 279.49C821.545 279.574 823.964 279.909 826.33 280.49C826.556 280.514 826.77 280.609 826.94 280.76C828.585 281.222 830.198 281.79 831.77 282.46L832.38 282.75C833.13 283.1 833.19 283.23 832.99 284.05C832.637 285.285 831.972 286.407 831.06 287.31C830.94 287.43 830.83 287.56 830.71 287.69C830.595 287.997 830.367 288.247 830.074 288.392C829.781 288.537 829.443 288.565 829.13 288.47C826.532 287.947 823.909 287.564 821.27 287.32C818.671 287.069 816.06 286.972 813.45 287.03C810.183 287.051 806.935 287.529 803.8 288.45C803.455 288.563 803.082 288.556 802.741 288.431C802.4 288.306 802.111 288.07 801.92 287.76Z" fill="#E2A558"></path>
<path id="Vector_71" d="M1558.36 506.01C1558.08 502.144 1556.35 498.526 1553.51 495.886C1550.67 493.245 1546.94 491.777 1543.06 491.777C1539.18 491.777 1535.45 493.245 1532.61 495.886C1529.77 498.526 1528.04 502.144 1527.76 506.01H1508.66V509.01H1503.95V499.19H1496.73V609.19H1503.95V607.19H1508.66V609.19H1577.46V506.01H1558.36ZM1508.66 510.68V514.68H1503.95V510.68H1508.66ZM1503.95 594.16V590.16H1508.66V594.16H1503.95ZM1508.66 595.84V599.84H1503.95V595.84H1508.66ZM1503.95 588.48V584.48H1508.66V588.48H1503.95ZM1503.95 582.8V578.8H1508.66V582.8H1503.95ZM1503.95 577.12V573.12H1508.66V577.12H1503.95ZM1503.95 571.45V567.45H1508.66V571.45H1503.95ZM1503.95 565.77V561.77H1508.66V565.77H1503.95ZM1503.95 560.09V556.09H1508.66V560.09H1503.95ZM1503.95 554.41V550.41H1508.66V554.41H1503.95ZM1503.95 548.74V544.74H1508.66V548.74H1503.95ZM1503.95 543.06V539.06H1508.66V543.06H1503.95ZM1503.95 537.38V533.38H1508.66V537.38H1503.95ZM1503.95 531.7V527.7H1508.66V531.7H1503.95ZM1503.95 526.03V522.03H1508.66V526.03H1503.95ZM1503.95 520.35V516.35H1508.66V520.35H1503.95ZM1503.95 605.51V601.51H1508.66V605.51H1503.95Z" fill="white"></path>
<path id="Vector_72" d="M1586.91 22.6599C1586.67 21.3299 1586.43 10.77 1586.79 10.4C1587.15 10.03 1596.02 9.06995 1596.02 9.06995L1597.35 2.06995V0.209961H1545V2.00995L1546.33 9.00995C1546.33 9.00995 1555.19 10.0099 1555.56 10.3399C1555.93 10.6699 1555.68 21.2699 1555.43 22.5999C1555.18 23.9299 1521.94 94.45 1521.94 94.45H1528.94L1549.94 50.8399H1566.73V94.6899H1575.73V50.9H1592.49L1613.49 94.5099H1620.49C1620.49 94.5099 1587.16 24.0099 1586.91 22.6599ZM1589.12 3.36993C1591.05 3.2938 1592.96 3.00883 1594.83 2.51996L1594.1 6.88995H1586.45C1586.45 6.88995 1585.36 3.60993 1589.12 3.36993ZM1559.01 5.19995C1559.16 3.86995 1560.75 3.62994 1560.75 3.62994H1581.33C1581.33 3.62994 1582.92 3.86995 1583.07 5.19995C1583.18 5.7541 1583.18 6.3258 1583.07 6.87994H1559.01C1558.89 6.32589 1558.89 5.75401 1559.01 5.19995ZM1555.7 6.88995H1548.05L1547.33 2.51996C1549.19 3.00834 1551.1 3.29332 1553.03 3.36993C1556.79 3.60993 1555.73 6.88995 1555.73 6.88995H1555.7ZM1566.9 44.0099H1553.15L1558.71 33.0099C1559 32.4687 1559.44 32.0152 1559.96 31.6955C1560.49 31.3758 1561.09 31.2014 1561.71 31.1899C1563.85 31.0999 1566.95 31.1899 1566.95 31.1899L1566.9 44.0099ZM1570.18 19.61C1567.03 19.61 1561.55 19.61 1560.84 19.61C1560.55 19.595 1560.27 19.4909 1560.05 19.3118C1559.82 19.1327 1559.65 18.8875 1559.57 18.61C1559.57 18.61 1559.51 13.6099 1559.57 11.9999C1559.57 11.7859 1559.62 11.5748 1559.71 11.3793C1559.8 11.1838 1559.92 11.0079 1560.08 10.8622C1560.23 10.7166 1560.42 10.6041 1560.62 10.5315C1560.82 10.4589 1561.04 10.4278 1561.25 10.4399H1580.83C1581.04 10.4278 1581.26 10.4589 1581.46 10.5315C1581.66 10.6041 1581.85 10.7166 1582 10.8622C1582.16 11.0079 1582.28 11.1838 1582.37 11.3793C1582.46 11.5748 1582.51 11.7859 1582.51 11.9999C1582.57 13.6299 1582.51 18.61 1582.51 18.61C1582.43 18.8882 1582.26 19.1342 1582.04 19.3135C1581.81 19.4928 1581.53 19.5965 1581.24 19.61C1580.37 19.63 1572.24 19.61 1570.18 19.61ZM1575.18 44.0099V31.2199C1575.18 31.2199 1578.28 31.0799 1580.42 31.2199C1581.03 31.2401 1581.62 31.4186 1582.14 31.7378C1582.65 32.0571 1583.08 32.5059 1583.37 33.0399L1588.93 44.0399L1575.18 44.0099Z" fill="white"></path>
<path id="Vector_73" d="M1557.95 12.3896C1556.43 12.3896 1554.93 12.8418 1553.67 13.689C1552.4 14.5362 1551.41 15.7403 1550.83 17.1491C1550.24 18.558 1550.09 20.1082 1550.39 21.6038C1550.69 23.0994 1551.42 24.4732 1552.5 25.5514C1553.58 26.6297 1554.95 27.364 1556.45 27.6615C1557.94 27.959 1559.49 27.8063 1560.9 27.2227C1562.31 26.6392 1563.51 25.651 1564.36 24.3831C1565.21 23.1152 1565.66 21.6245 1565.66 20.0996C1565.66 18.0556 1564.84 16.0961 1563.4 14.6508C1561.95 13.2055 1559.99 12.3923 1557.95 12.3896ZM1558.8 14.1596C1559.8 14.301 1560.75 14.6931 1561.56 15.2997L1558.8 18.0596V14.1596ZM1557.11 18.0596L1554.35 15.2997C1555.16 14.6931 1556.11 14.301 1557.11 14.1596V18.0596ZM1555.92 19.2496H1552.02C1552.16 18.2483 1552.55 17.2989 1553.16 16.4897L1555.92 19.2496ZM1555.92 20.9396L1553.16 23.6996C1552.55 22.8904 1552.16 21.941 1552.02 20.9396H1555.92ZM1557.11 22.1296V26.0096C1556.11 25.8683 1555.16 25.4762 1554.35 24.8696L1557.11 22.1296ZM1558.8 22.1296L1561.56 24.8896C1560.75 25.4962 1559.8 25.8883 1558.8 26.0296V22.1296ZM1559.99 20.9396H1563.89C1563.75 21.941 1563.36 22.8904 1562.75 23.6996L1559.99 20.9396ZM1559.99 19.2496L1562.75 16.4897C1563.36 17.2989 1563.75 18.2483 1563.89 19.2496H1559.99Z" fill="#E2A558"></path>
<path id="Vector_74" d="M1592.33 19.8399C1592.33 18.315 1591.88 16.8243 1591.03 15.5564C1590.18 14.2885 1588.98 13.3003 1587.57 12.7168C1586.16 12.1332 1584.61 11.9805 1583.12 12.278C1581.62 12.5755 1580.25 13.3098 1579.17 14.3881C1578.09 15.4663 1577.36 16.8402 1577.06 18.3357C1576.76 19.8313 1576.91 21.3815 1577.5 22.7904C1578.08 24.1992 1579.07 25.4033 1580.34 26.2505C1581.6 27.0977 1583.1 27.5499 1584.62 27.5499C1585.63 27.5499 1586.64 27.3505 1587.57 26.963C1588.51 26.5755 1589.36 26.0076 1590.07 25.2917C1590.79 24.5757 1591.36 23.7258 1591.74 22.7904C1592.13 21.8549 1592.33 20.8524 1592.33 19.8399ZM1586.66 20.6799H1590.56C1590.42 21.6856 1590.03 22.6393 1589.42 23.4499L1586.66 20.6799ZM1588.23 24.6799C1587.42 25.2809 1586.47 25.6724 1585.47 25.8199V21.9199L1588.23 24.6799ZM1586.66 19.0399L1589.42 16.2799C1590.03 17.0858 1590.43 18.0367 1590.56 19.0399H1586.66ZM1585.47 17.8499V13.9499C1586.47 14.0882 1587.42 14.4807 1588.23 15.0899L1585.47 17.8499ZM1583.78 17.8499L1581.02 15.0899C1581.83 14.4775 1582.78 14.0847 1583.78 13.9499V17.8499ZM1582.59 19.0399H1578.73C1578.87 18.0367 1579.26 17.0858 1579.87 16.2799L1582.59 19.0399ZM1582.59 20.7199L1579.83 23.4899C1579.22 22.6793 1578.83 21.7255 1578.69 20.7199H1582.59ZM1583.78 21.9199V25.8199C1582.78 25.676 1581.83 25.2842 1581.02 24.6799L1583.78 21.9199Z" fill="#E2A558"></path>
<path id="Vector_75" d="M1548 37.1396C1545.97 37.1416 1543.98 37.7456 1542.3 38.8753C1540.61 40.005 1539.29 41.6096 1538.52 43.4864C1537.74 45.3632 1537.54 47.4278 1537.94 49.4193C1538.34 51.4109 1539.32 53.2399 1540.75 54.6752C1542.19 56.1105 1544.02 57.0876 1546.01 57.483C1548 57.8785 1550.07 57.6745 1551.94 56.8969C1553.82 56.1193 1555.42 54.803 1556.55 53.1143C1557.68 51.4256 1558.28 49.4404 1558.28 47.4096C1558.28 44.6849 1557.19 42.0728 1555.27 40.1471C1553.34 38.2214 1550.72 37.1396 1548 37.1396ZM1548.85 38.9096C1550.53 39.0686 1552.12 39.7269 1553.42 40.7997L1548.85 45.3696V38.9096ZM1547.16 45.3696L1542.59 40.7997C1543.89 39.7269 1545.48 39.0686 1547.16 38.9096V45.3696ZM1545.97 46.5696H1539.5C1539.66 44.8896 1540.32 43.2957 1541.39 41.9897L1545.97 46.5696ZM1545.97 48.2496L1541.39 52.8297C1540.32 51.5224 1539.67 49.9291 1539.5 48.2496H1545.97ZM1547.16 49.4396V55.9096C1545.48 55.7507 1543.89 55.0924 1542.59 54.0197L1547.16 49.4396ZM1548.85 49.4396L1553.42 54.0197C1552.12 55.0887 1550.53 55.7465 1548.85 55.9096V49.4396ZM1550.04 48.2496H1556.51C1556.35 49.9312 1555.68 51.5257 1554.61 52.8297L1550.04 48.2496ZM1550.04 46.5696L1554.61 41.9897C1555.68 43.2936 1556.35 44.8881 1556.51 46.5696H1550.04Z" fill="#E2A558"></path>
<path id="Vector_76" d="M1593.2 37.1396C1591.17 37.1396 1589.18 37.742 1587.49 38.8705C1585.81 39.9989 1584.49 41.6029 1583.71 43.4795C1582.93 45.3561 1582.73 47.421 1583.13 49.4132C1583.52 51.4054 1584.5 53.2353 1585.94 54.6716C1587.37 56.1079 1589.2 57.086 1591.2 57.4823C1593.19 57.8786 1595.25 57.6752 1597.13 56.8979C1599.01 56.1206 1600.61 54.8042 1601.74 53.1154C1602.87 51.4265 1603.47 49.4409 1603.47 47.4096C1603.47 44.6867 1602.38 42.076 1600.46 40.1506C1598.53 38.2251 1595.92 37.1423 1593.2 37.1396ZM1594.04 38.9096C1595.72 39.0686 1597.31 39.7269 1598.61 40.7997L1594.04 45.3696V38.9096ZM1592.35 45.3796L1587.78 40.7997C1589.08 39.7269 1590.67 39.0686 1592.35 38.9096V45.3796ZM1591.16 46.5696H1584.73C1584.89 44.8881 1585.56 43.2936 1586.63 41.9897L1591.16 46.5696ZM1591.16 48.2496L1586.59 52.8297C1585.52 51.5257 1584.85 49.9312 1584.69 48.2496H1591.16ZM1592.35 49.4396V55.9096C1590.67 55.7465 1589.08 55.0887 1587.78 54.0197L1592.35 49.4396ZM1594.04 49.4396L1598.61 54.0197C1597.31 55.0887 1595.72 55.7465 1594.04 55.9096V49.4396ZM1595.23 48.2496H1601.73C1601.56 49.9291 1600.91 51.5224 1599.84 52.8297L1595.23 48.2496ZM1595.23 46.5696L1599.81 41.9897C1600.88 43.2969 1601.53 44.8902 1601.7 46.5696H1595.23Z" fill="#E2A558"></path>
<path id="Vector_77" d="M1593.5 64.0996H1548.07V94.9696H1593.5V64.0996Z" fill="white"></path>
<path id="Vector_78" d="M1280.94 242.26C1282.16 241.293 1283.15 240.068 1283.84 238.673C1284.54 237.278 1284.91 235.747 1284.94 234.19C1286.96 232.267 1288.14 229.626 1288.23 226.839C1288.31 224.052 1287.3 221.343 1285.4 219.3C1286.34 218.7 1287.12 217.873 1287.65 216.894C1288.19 215.915 1288.47 214.816 1288.47 213.7C1288.51 211.976 1287.86 210.307 1286.67 209.059C1285.48 207.812 1283.84 207.089 1282.12 207.05C1280.4 207.01 1278.73 207.657 1277.48 208.847C1276.23 210.038 1275.51 211.676 1275.47 213.4C1275.01 212.664 1274.37 212.057 1273.61 211.636C1272.85 211.215 1272 210.992 1271.13 210.99C1270.4 211.001 1269.68 211.164 1269.02 211.469C1268.35 211.774 1267.76 212.214 1267.28 212.76C1266.79 213.307 1266.43 213.949 1266.21 214.644C1265.99 215.34 1265.91 216.074 1265.99 216.8C1264.49 215.647 1262.64 215.022 1260.75 215.02C1259.36 215.052 1258 215.405 1256.77 216.051C1255.54 216.697 1254.48 217.619 1253.67 218.745C1252.85 219.87 1252.31 221.168 1252.08 222.538C1251.85 223.907 1251.95 225.311 1252.35 226.64C1252.03 226.64 1251.7 226.64 1251.35 226.64C1249.53 226.663 1247.76 227.157 1246.19 228.075C1244.62 228.993 1243.32 230.302 1242.41 231.874C1241.51 233.446 1241.02 235.228 1241.01 237.043C1241 238.859 1241.46 240.646 1242.35 242.23C1259.95 242.51 1274.35 242.55 1280.74 242.55C1280.8 242.448 1280.87 242.351 1280.94 242.26Z" fill="#E9F2F0"></path>
<path id="Vector_79" d="M1299.73 213.62C1300.84 213.64 1301.93 213.328 1302.87 212.725C1303.8 212.122 1304.54 211.255 1304.97 210.233C1305.41 209.212 1305.54 208.083 1305.33 206.99C1305.13 205.897 1304.6 204.89 1303.83 204.097C1303.05 203.304 1302.05 202.76 1300.96 202.536C1299.87 202.312 1298.74 202.417 1297.71 202.837C1296.68 203.258 1295.8 203.976 1295.18 204.899C1294.56 205.822 1294.23 206.908 1294.23 208.02C1294.22 209.491 1294.79 210.907 1295.82 211.956C1296.85 213.006 1298.26 213.604 1299.73 213.62Z" fill="#E9F2F0"></path>
<path id="Vector_80" d="M1320.46 259.07C1321.41 258.47 1322.2 257.651 1322.76 256.682C1323.33 255.712 1323.65 254.621 1323.71 253.5C1324.5 252.911 1325.15 252.151 1325.61 251.278C1326.06 250.406 1326.32 249.441 1326.36 248.456C1326.39 247.471 1326.21 246.491 1325.82 245.586C1325.42 244.682 1324.83 243.877 1324.09 243.23C1324.81 242.869 1325.42 242.32 1325.85 241.64C1326.29 240.96 1326.53 240.176 1326.55 239.37C1326.55 236.86 1324.21 234.82 1321.33 234.82C1318.45 234.82 1316.24 236.75 1316.12 239.17C1315.71 238.64 1315.17 238.213 1314.57 237.923C1313.96 237.633 1313.29 237.488 1312.62 237.5C1311.59 237.434 1310.57 237.779 1309.79 238.459C1309.01 239.139 1308.53 240.099 1308.46 241.13C1308.46 241.26 1308.46 241.38 1308.46 241.51C1307.2 240.699 1305.74 240.272 1304.24 240.28C1300.33 240.28 1297.16 243.05 1297.16 246.46C1297.16 247.088 1297.27 247.71 1297.48 248.3C1297.22 248.3 1296.96 248.3 1296.69 248.3C1292.09 248.3 1288.37 251.55 1288.37 255.56C1288.38 256.488 1288.59 257.403 1288.97 258.248C1289.36 259.092 1289.91 259.849 1290.6 260.47C1303.45 260.64 1314.08 260.68 1319.6 260.68C1319.96 260.186 1320.25 259.644 1320.46 259.07Z" fill="#E9F2F0"></path>
<path id="Vector_81" d="M1336.05 233.01C1334.97 232.941 1333.9 233.24 1333.02 233.858C1332.13 234.477 1331.48 235.378 1331.18 236.413C1330.87 237.449 1330.93 238.558 1331.34 239.558C1331.75 240.557 1332.48 241.389 1333.42 241.915C1334.37 242.442 1335.46 242.633 1336.52 242.456C1337.59 242.279 1338.56 241.745 1339.29 240.942C1340.01 240.139 1340.43 239.114 1340.5 238.036C1340.56 236.958 1340.25 235.891 1339.63 235.01C1339.52 235.035 1339.41 235.056 1339.3 235.07C1338.62 235.063 1337.96 234.867 1337.38 234.503C1336.81 234.139 1336.35 233.622 1336.05 233.01Z" fill="#E9F2F0"></path>
<path id="Vector_82" d="M1343 231.29C1343.03 230.788 1342.95 230.287 1342.78 229.816C1342.6 229.345 1342.33 228.914 1341.99 228.55C1341.64 228.186 1341.23 227.896 1340.77 227.698C1340.3 227.5 1339.81 227.397 1339.3 227.397C1338.8 227.397 1338.31 227.5 1337.84 227.698C1337.38 227.896 1336.97 228.186 1336.62 228.55C1336.28 228.914 1336.01 229.345 1335.83 229.816C1335.66 230.287 1335.58 230.788 1335.61 231.29C1335.62 231.886 1335.77 232.472 1336.05 233C1336.77 233.011 1337.47 233.2 1338.09 233.549C1338.72 233.898 1339.25 234.397 1339.63 235C1340.55 234.91 1341.41 234.481 1342.03 233.795C1342.65 233.109 1343 232.216 1343 231.29Z" fill="#E9F2F0"></path>
<path id="Vector_83" d="M1336.05 233.01C1336.34 233.625 1336.8 234.147 1337.38 234.514C1337.95 234.882 1338.62 235.081 1339.3 235.09C1339.41 235.076 1339.52 235.055 1339.63 235.03C1339.25 234.423 1338.72 233.92 1338.09 233.568C1337.47 233.215 1336.77 233.023 1336.05 233.01Z" fill="#E9F2F0"></path>
<path id="Vector_84" d="M1288.81 313.01C1288.15 308.54 1287.24 301.01 1286.41 289.69C1285.58 278.37 1284.84 262.78 1284.53 242.46H1280.85C1274.41 242.46 1260.06 242.46 1242.46 242.14H1240.02C1238.73 306.89 1232.73 318.46 1232.73 318.46H1289.73C1289.73 318.46 1289.37 316.82 1288.81 313.01Z" fill="white"></path>
<path id="Vector_85" d="M1323.82 260.64H1319.65C1314.1 260.64 1303.47 260.64 1290.65 260.43H1288C1287.71 272.83 1287.13 282.43 1286.44 289.76C1287.27 301.12 1288.18 308.61 1288.84 313.08H1328.06C1328.06 313.08 1324.51 300.26 1323.82 260.64Z" fill="white"></path>
<path id="Vector_86" d="M280.99 513.37L278.38 496.89L275.61 479.41L274.61 486.41L273.61 480.33L271.88 469.01L271.32 473.12L265.66 435.3C266.044 435.087 266.367 434.778 266.596 434.402C266.826 434.027 266.953 433.599 266.968 433.16C266.982 432.72 266.882 432.285 266.677 431.896C266.472 431.507 266.17 431.177 265.8 430.94C265.838 430.823 265.862 430.702 265.87 430.58C265.869 430.259 265.757 429.948 265.553 429.7C265.349 429.452 265.065 429.282 264.75 429.22L264.41 426.96L263.99 429.26C263.713 429.352 263.472 429.53 263.302 429.767C263.131 430.003 263.04 430.288 263.04 430.58C263.048 430.693 263.071 430.804 263.11 430.91C262.743 431.12 262.436 431.418 262.215 431.778C261.995 432.138 261.869 432.548 261.849 432.97C261.829 433.392 261.916 433.812 262.101 434.191C262.287 434.57 262.565 434.897 262.91 435.14L252.81 490.14L248.54 475.75V475.69V475.8L244.27 490.19L234.18 435.19C234.52 434.949 234.795 434.628 234.982 434.255C235.168 433.882 235.259 433.469 235.247 433.053C235.235 432.636 235.121 432.229 234.914 431.867C234.706 431.506 234.413 431.201 234.06 430.98C234.098 430.863 234.122 430.742 234.13 430.62C234.131 430.318 234.034 430.024 233.854 429.783C233.674 429.541 233.419 429.365 233.13 429.28L232.71 427L232.37 429.28C232.08 429.365 231.826 429.541 231.646 429.783C231.465 430.024 231.369 430.318 231.37 430.62C231.38 430.728 231.4 430.835 231.43 430.94C231.049 431.169 230.735 431.493 230.518 431.882C230.302 432.27 230.192 432.708 230.198 433.152C230.204 433.597 230.326 434.031 230.553 434.414C230.78 434.796 231.103 435.112 231.49 435.33L225.49 475.33L224.49 469.07L222.93 480.45L222.19 485.83L221.19 479.46L218.73 496.94L216.47 513.37H208.64V571.76H289.49V513.37H280.99Z" fill="white"></path>
<path id="Vector_87" d="M236.49 491.31C236.53 491.109 236.55 490.904 236.55 490.7V479.23C236.55 478.389 236.216 477.583 235.621 476.988C235.027 476.394 234.221 476.06 233.38 476.06C232.539 476.06 231.733 476.394 231.138 476.988C230.544 477.583 230.21 478.389 230.21 479.23V490.7C230.21 490.904 230.23 491.109 230.27 491.31H236.49Z" fill="#E2A558"></path>
<path id="Vector_88" d="M236.49 514.16C236.53 513.956 236.55 513.749 236.55 513.54V502.07C236.55 501.23 236.216 500.423 235.621 499.829C235.027 499.234 234.221 498.9 233.38 498.9C232.539 498.9 231.733 499.234 231.138 499.829C230.544 500.423 230.21 501.23 230.21 502.07V513.54C230.21 513.749 230.23 513.956 230.27 514.16H236.49Z" fill="#E2A558"></path>
<path id="Vector_89" d="M267.6 491.31C267.64 491.109 267.66 490.904 267.66 490.7V479.23C267.66 478.813 267.578 478.401 267.419 478.016C267.259 477.632 267.026 477.282 266.732 476.988C266.437 476.694 266.088 476.46 265.703 476.301C265.319 476.142 264.906 476.06 264.49 476.06C264.074 476.06 263.662 476.142 263.277 476.301C262.892 476.46 262.543 476.694 262.249 476.988C261.954 477.282 261.721 477.632 261.561 478.016C261.402 478.401 261.32 478.813 261.32 479.23V490.7C261.32 490.904 261.34 491.109 261.38 491.31H267.6Z" fill="#E2A558"></path>
<path id="Vector_90" d="M267.6 514.16C267.64 513.956 267.66 513.749 267.66 513.54V502.07C267.66 501.23 267.326 500.423 266.732 499.829C266.137 499.234 265.331 498.9 264.49 498.9C263.649 498.9 262.843 499.234 262.249 499.829C261.654 500.423 261.32 501.23 261.32 502.07V513.54C261.32 513.749 261.34 513.956 261.38 514.16H267.6Z" fill="#E2A558"></path>
<path id="Vector_91" d="M221.73 535.82C221.771 535.615 221.791 535.408 221.79 535.2V523.73C221.79 522.889 221.456 522.083 220.862 521.488C220.267 520.894 219.461 520.56 218.62 520.56C217.779 520.56 216.973 520.894 216.378 521.488C215.784 522.083 215.45 522.889 215.45 523.73V535.2C215.449 535.408 215.469 535.615 215.51 535.82H221.73Z" fill="#E2A558"></path>
<path id="Vector_92" d="M231.37 535.82C231.414 535.616 231.437 535.409 231.44 535.2V523.73C231.394 522.919 231.04 522.156 230.45 521.598C229.859 521.04 229.077 520.729 228.265 520.729C227.452 520.729 226.671 521.04 226.08 521.598C225.49 522.156 225.135 522.919 225.09 523.73V535.2C225.089 535.408 225.109 535.616 225.15 535.82H231.37Z" fill="#E2A558"></path>
<path id="Vector_93" d="M272.46 535.82C272.501 535.615 272.521 535.408 272.52 535.2V523.73C272.52 522.889 272.186 522.083 271.591 521.488C270.997 520.894 270.191 520.56 269.35 520.56C268.509 520.56 267.703 520.894 267.108 521.488C266.514 522.083 266.18 522.889 266.18 523.73V535.2C266.179 535.408 266.199 535.615 266.24 535.82H272.46Z" fill="#E2A558"></path>
<path id="Vector_94" d="M282.1 535.82C282.141 535.615 282.161 535.408 282.16 535.2V523.73C282.16 522.889 281.826 522.083 281.232 521.488C280.637 520.894 279.831 520.56 278.99 520.56C278.149 520.56 277.343 520.894 276.749 521.488C276.154 522.083 275.82 522.889 275.82 523.73V535.2C275.819 535.408 275.839 535.615 275.88 535.82H282.1Z" fill="#E2A558"></path>
<path id="Vector_95" d="M247.97 568.53C248.016 568.199 248.039 567.865 248.04 567.53V549.53C248.04 546.78 246.62 544.53 244.86 544.53C243.1 544.53 241.69 546.76 241.69 549.53V567.53C241.688 567.865 241.708 568.199 241.75 568.53H247.97Z" fill="#E2A558"></path>
<path id="Vector_96" d="M257.62 568.53C257.662 568.199 257.682 567.865 257.68 567.53V549.53C257.68 546.78 256.26 544.53 254.51 544.53C252.76 544.53 251.33 546.76 251.33 549.53V567.53C251.331 567.865 251.354 568.199 251.4 568.53H257.62Z" fill="#E2A558"></path>
<path id="Vector_97" d="M254.57 535.82C254.642 535.621 254.679 535.411 254.68 535.2V523.73C254.68 521.98 252.23 520.56 249.22 520.56C246.21 520.56 243.73 522.01 243.73 523.73V535.2C243.732 535.41 243.766 535.619 243.83 535.82H254.57Z" fill="#E2A558"></path>
<path id="Vector_98" d="M251.73 514.16C251.762 513.999 251.779 513.834 251.78 513.67V504.67C251.78 504.007 251.517 503.371 251.048 502.902C250.579 502.433 249.943 502.17 249.28 502.17C248.617 502.17 247.981 502.433 247.512 502.902C247.043 503.371 246.78 504.007 246.78 504.67V513.67C246.781 513.834 246.798 513.999 246.83 514.16H251.73Z" fill="#E2A558"></path>
<path id="Vector_99" d="M221.95 561.36C221.99 561.155 222.01 560.948 222.01 560.74V549.27C222.01 548.429 221.676 547.623 221.081 547.028C220.487 546.434 219.681 546.1 218.84 546.1C217.999 546.1 217.193 546.434 216.598 547.028C216.004 547.623 215.67 548.429 215.67 549.27V560.74C215.67 560.948 215.69 561.155 215.73 561.36H221.95Z" fill="#E2A558"></path>
<path id="Vector_100" d="M231.59 561.36C231.63 561.155 231.65 560.948 231.65 560.74V549.27C231.65 548.429 231.316 547.623 230.722 547.028C230.127 546.434 229.321 546.1 228.48 546.1C227.639 546.1 226.833 546.434 226.239 547.028C225.644 547.623 225.31 548.429 225.31 549.27V560.74C225.31 560.948 225.33 561.155 225.37 561.36H231.59Z" fill="#E2A558"></path>
<path id="Vector_101" d="M272.73 561.36C272.77 561.156 272.79 560.948 272.79 560.74V549.27C272.744 548.459 272.39 547.696 271.8 547.138C271.209 546.58 270.427 546.269 269.615 546.269C268.802 546.269 268.021 546.58 267.43 547.138C266.84 547.696 266.485 548.459 266.44 549.27V560.74C266.443 560.949 266.466 561.156 266.51 561.36H272.73Z" fill="#E2A558"></path>
<path id="Vector_102" d="M282.32 561.36C282.36 561.155 282.38 560.948 282.38 560.74V549.27C282.38 548.853 282.298 548.441 282.139 548.056C281.979 547.672 281.746 547.322 281.452 547.028C281.157 546.734 280.808 546.5 280.423 546.341C280.039 546.182 279.626 546.1 279.21 546.1C278.794 546.1 278.382 546.182 277.997 546.341C277.612 546.5 277.263 546.734 276.969 547.028C276.674 547.322 276.441 547.672 276.281 548.056C276.122 548.441 276.04 548.853 276.04 549.27V560.74C276.04 560.948 276.06 561.155 276.1 561.36H282.32Z" fill="#E2A558"></path>
<path id="Vector_103" d="M452.86 385.23H439.86V388.48H452.86V385.23Z" fill="white"></path>
<path id="Vector_104" d="M504.85 385.23H491.85V388.48H504.85V385.23Z" fill="white"></path>
<path id="Vector_105" d="M530.85 385.23H517.85V388.48H530.85V385.23Z" fill="white"></path>
<path id="Vector_106" d="M478.86 385.23H465.86V388.48H478.86V385.23Z" fill="white"></path>
<path id="Vector_107" d="M556.85 385.23H543.85V388.48H556.85V385.23Z" fill="white"></path>
<path id="Vector_108" d="M438.69 385.71H408.36V387.4H438.69V385.71Z" fill="white"></path>
<path id="Vector_109" d="M438.69 382.34H408.36V384.03H438.69V382.34Z" fill="white"></path>
<path id="Vector_110" d="M438.69 392.45H408.36V394.14H438.69V392.45Z" fill="white"></path>
<path id="Vector_111" d="M438.69 375.6H408.36V377.29H438.69V375.6Z" fill="white"></path>
<path id="Vector_112" d="M438.69 395.82H408.36V397.51H438.69V395.82Z" fill="white"></path>
<path id="Vector_113" d="M438.69 378.97H408.36V380.66H438.69V378.97Z" fill="white"></path>
<path id="Vector_114" d="M438.69 389.08H408.36V390.77H438.69V389.08Z" fill="white"></path>
<path id="Vector_115" d="M588.78 389.08H558.45V390.77H588.78V389.08Z" fill="white"></path>
<path id="Vector_116" d="M588.78 378.97H558.45V380.66H588.78V378.97Z" fill="white"></path>
<path id="Vector_117" d="M588.78 375.6H558.45V377.29H588.78V375.6Z" fill="white"></path>
<path id="Vector_118" d="M588.78 385.71H558.45V387.4H588.78V385.71Z" fill="white"></path>
<path id="Vector_119" d="M588.78 395.82H558.45V397.51H588.78V395.82Z" fill="white"></path>
<path id="Vector_120" d="M588.78 382.34H558.45V384.03H588.78V382.34Z" fill="white"></path>
<path id="Vector_121" d="M588.78 392.45H558.45V394.14H588.78V392.45Z" fill="white"></path>
<path id="Vector_122" d="M399.89 370.54V373.91H408.36H438.69H558.45H588.78H599.47V370.54H399.89Z" fill="white"></path>
<path id="Vector_123" d="M599.47 398.38H399.89V401.75H599.47V398.38Z" fill="white"></path>
<path id="Vector_124" fill-rule="evenodd" clip-rule="evenodd" d="M743.11 691.1H741.14H637.47H632.71L636.08 687.74L661.01 662.8L635.78 637.57L632.41 634.2H637.17H741.14H743.11V636.17V689.13V691.1Z" fill="white"></path>
<path id="Vector_125" d="M707.06 668.49H743.59V692.81L707.06 668.49Z" fill="#007799"></path>
<path id="Vector_126" d="M994.1 668.49H957.58V692.81L994.1 668.49Z" fill="#007799"></path>
<path id="Vector_127" d="M995.14 638.03L1067.05 637.97L1038.45 666.57L1066.75 694.87L958.13 693.83L995.14 668.97V638.03Z" fill="white"></path>
<path id="Vector_128" d="M995.24 610.93H706.22V667.83H995.24V610.93Z" fill="white"></path>
<path id="Vector_129" d="M732.73 618.09H738.73V651.09H748.73V656.59H732.73V618.09Z" fill="#007799"></path>
<path id="Vector_130" d="M751.02 647.45V627.22C751.02 621.06 754.26 617.54 760.2 617.54C766.14 617.54 769.38 621.06 769.38 627.22V647.45C769.38 653.61 766.14 657.13 760.2 657.13C754.26 657.13 751.02 653.61 751.02 647.45ZM763.33 647.84V626.84C763.33 624.1 762.12 623.05 760.2 623.05C758.28 623.05 757.07 624.1 757.07 626.84V647.84C757.07 650.59 758.28 651.63 760.2 651.63C762.12 651.63 763.33 650.59 763.33 647.84Z" fill="#007799"></path>
<path id="Vector_131" d="M773.06 647.67V627.01C773.06 621.07 776.14 617.55 781.97 617.55C787.8 617.55 790.88 621.07 790.88 627.01V631.08H785.16V626.63C785.16 624.1 783.95 623.05 782.16 623.05C780.37 623.05 779.16 624.1 779.16 626.63V648.12C779.16 650.65 780.37 651.64 782.16 651.64C783.95 651.64 785.16 650.64 785.16 648.12V642.24H790.88V647.68C790.88 653.62 787.8 657.14 781.97 657.14C776.14 657.14 773.06 653.61 773.06 647.67Z" fill="#007799"></path>
<path id="Vector_132" d="M799.18 618.09H807.37L813.64 656.58H807.64L806.54 648.94V649.05H799.67L798.57 656.58H792.96L799.18 618.09ZM805.77 643.82L803.08 624.82H802.97L800.33 643.82H805.77Z" fill="#007799"></path>
<path id="Vector_133" d="M818.73 623.59H812.4V618.09H831.1V623.59H824.77V656.59H818.77L818.73 623.59Z" fill="#007799"></path>
<path id="Vector_134" d="M834.03 618.09H840.08V656.58H834.03V618.09Z" fill="#007799"></path>
<path id="Vector_135" d="M844.14 647.45V627.22C844.14 621.06 847.39 617.54 853.33 617.54C859.27 617.54 862.51 621.06 862.51 627.22V647.45C862.51 653.61 859.26 657.13 853.33 657.13C847.4 657.13 844.14 653.61 844.14 647.45ZM856.46 647.84V626.84C856.46 624.1 855.25 623.05 853.33 623.05C851.41 623.05 850.19 624.1 850.19 626.84V647.84C850.19 650.59 851.4 651.63 853.33 651.63C855.26 651.63 856.46 650.59 856.46 647.84Z" fill="#007799"></path>
<path id="Vector_136" d="M866.57 618.09H874.16L880.04 641.09H880.15V618.09H885.54V656.58H879.33L872.07 628.48H871.96V656.58H866.57V618.09Z" fill="#007799"></path>
<path id="Vector_137" d="M898.84 618.09H907.47L911.32 645.64H911.43L915.28 618.09H923.91V656.58H918.19V627.44H918.08L913.68 656.58H908.63L904.23 627.44H904.12V656.58H898.84V618.09Z" fill="#007799"></path>
<path id="Vector_138" d="M933.09 618.09H941.28L947.55 656.58H941.5L940.4 648.94V649.05H933.53L932.43 656.58H926.82L933.09 618.09ZM939.69 643.82L936.99 624.82H936.88L934.25 643.82H939.69Z" fill="#007799"></path>
<path id="Vector_139" d="M950.46 618.09H959.37C965.37 618.09 968.37 621.45 968.37 627.6V631.4C968.37 637.55 965.37 640.91 959.37 640.91H956.51V656.58H950.51L950.46 618.09ZM959.37 635.41C961.29 635.41 962.37 634.53 962.37 631.78V627.22C962.37 624.47 961.32 623.59 959.37 623.59H956.51V635.41H959.37Z" fill="#007799"></path>
<g id="Heli">
<path id="Vector_140" d="M287.45 243.59C288.53 244.88 285.57 252.84 285.57 252.84L299.74 252.75C304.18 241.56 313.14 233.13 313.14 233.13C313.14 233.13 415.54 233.13 427.14 242.07C436.82 249.5 453.14 257.4 465.91 262.89H464.59L464.76 290.99H449.73V293.64C451.8 293.64 484.37 293.64 507.85 293.51C520.15 293.44 529.95 293.32 531.57 293.13C533.111 292.992 534.59 292.46 535.866 291.584C537.141 290.708 538.169 289.519 538.85 288.13L536.42 287.13C535.916 288.086 535.179 288.9 534.277 289.496C533.375 290.092 532.337 290.451 531.26 290.54C530.06 290.68 523.71 290.78 514.78 290.86L514.67 273.13H512.03L512.14 290.87C499.39 290.96 482.35 291.01 467.44 291.02L467.27 263.48C473.8 266.25 479.27 268.34 482.16 269.33C490.81 272.27 525.04 273.05 525.04 273.05C525.04 273.05 559.19 271.79 554.83 254.93C550.23 237.12 512.73 216.32 507.06 213.36C501.39 210.4 488.45 212.14 483.12 209.85C477.79 207.56 480.12 202.23 480.12 202.23L463.17 200.34C447.29 217.06 416.17 220.07 416.17 220.07C416.17 220.07 316.79 223.26 313.57 222.2C310.35 221.14 302.26 198.66 299.22 193.74C296.18 188.82 284.22 190.4 284.22 190.4C284.22 190.4 287.72 202.4 287.75 206.05C287.78 209.7 274.46 209.35 274.75 224.37C275.04 239.39 286.37 242.31 287.45 243.59ZM278.12 226.07C278.108 223.301 278.918 220.591 280.446 218.282C281.975 215.973 284.153 214.169 286.707 213.099C289.261 212.028 292.074 211.739 294.792 212.267C297.51 212.796 300.011 214.119 301.977 216.068C303.943 218.018 305.287 220.507 305.839 223.22C306.391 225.933 306.126 228.749 305.077 231.312C304.028 233.875 302.243 236.069 299.948 237.617C297.652 239.165 294.949 239.998 292.18 240.01C290.342 240.018 288.519 239.663 286.818 238.967C285.116 238.271 283.569 237.246 282.263 235.952C280.957 234.657 279.919 233.118 279.209 231.423C278.498 229.727 278.128 227.908 278.12 226.07Z" fill="white"></path>
<path id="Vector_141" d="M555.21 258.01C555.21 256.59 533.87 257.35 533.12 258.15C532.37 258.95 531.6 262.92 539.19 270.91C545.31 270.08 555.25 264.73 555.21 258.01Z" fill="#E2A558"></path>
<path id="Vector_142" d="M553.98 252.44C553.98 252.44 531.86 253.07 529.25 252.59C526.64 252.11 502.66 212.01 502.66 212.01L505.45 212.67C505.45 212.67 525.98 223.01 536.23 232.29C551.31 244.26 553.98 252.44 553.98 252.44Z" fill="#E2A558"></path>
<path id="Vector_143" d="M491.51 217.29C493.51 217.2 497.51 217.13 499.96 217.29C502.41 217.45 517.51 242.77 519.02 245.29C520.53 247.81 519.02 250.29 515.19 250.03C511.36 249.77 497.29 247.54 495.67 246.68C494.062 245.596 492.698 244.189 491.665 242.548C490.632 240.907 489.952 239.068 489.67 237.15C488.9 231.93 487.84 221.63 488.08 220.88C488.32 220.13 489.65 217.37 491.51 217.29Z" fill="#E2A558"></path>
<path id="Vector_144" d="M342.61 187.21L373.49 186.93C394.07 186.75 414.65 186.77 435.24 186.8C446.367 186.853 457.503 186.916 468.65 186.99C468.678 186.624 468.842 186.281 469.111 186.031C469.38 185.781 469.733 185.641 470.1 185.64H471.61C471.989 185.637 472.354 185.781 472.628 186.042C472.902 186.304 473.064 186.661 473.08 187.04C481.08 187.1 489.047 187.186 496.98 187.3L527.85 187.76C538.14 188 548.43 188.16 558.72 188.49C548.43 188.76 538.14 188.86 527.85 189.05L496.98 189.33C489.02 189.403 481.06 189.443 473.1 189.45L473.17 200.84C473.171 201.032 473.135 201.223 473.062 201.401C472.989 201.58 472.882 201.742 472.746 201.879C472.61 202.015 472.449 202.124 472.271 202.198C472.093 202.272 471.903 202.31 471.71 202.31H470.2C470.007 202.311 469.816 202.274 469.637 202.202C469.458 202.129 469.295 202.022 469.158 201.886C469.02 201.751 468.911 201.589 468.836 201.411C468.761 201.234 468.721 201.043 468.72 200.85L468.65 189.45C457.51 189.45 446.37 189.45 435.23 189.45C414.65 189.36 394.06 189.27 373.48 188.97L342.61 188.51C332.32 188.26 322.03 188.1 311.74 187.77C322.03 187.5 332.32 187.4 342.61 187.21Z" fill="white"></path>
<path id="Vector_145" d="M278.12 226.07C278.132 228.841 278.966 231.546 280.516 233.843C282.067 236.14 284.264 237.925 286.83 238.972C289.395 240.019 292.214 240.281 294.929 239.725C297.643 239.169 300.132 237.82 302.079 235.849C304.027 233.878 305.346 231.373 305.868 228.651C306.391 225.93 306.095 223.115 305.017 220.562C303.938 218.01 302.127 215.834 299.811 214.312C297.496 212.789 294.781 211.988 292.01 212.01C288.306 212.039 284.764 213.535 282.16 216.171C279.557 218.806 278.104 222.366 278.12 226.07ZM283.12 216.48C285.414 214.298 288.426 213.029 291.59 212.91V222.2C290.908 222.297 290.265 222.577 289.73 223.01L283.12 216.48ZM292.47 212.9C295.635 212.982 298.66 214.216 300.98 216.37L294.44 223.01C293.887 222.574 293.221 222.303 292.52 222.23L292.47 212.9ZM301.61 216.99C303.792 219.285 305.061 222.296 305.18 225.46L295.88 225.52C295.802 224.817 295.524 224.151 295.08 223.6L301.61 216.99ZM305.19 226.34C305.108 229.505 303.874 232.531 301.72 234.85L295.11 228.32C295.542 227.765 295.812 227.1 295.89 226.4L305.19 226.34ZM301.1 235.48C298.806 237.662 295.794 238.931 292.63 239.05L292.57 229.75C293.273 229.672 293.939 229.394 294.49 228.95L301.1 235.48ZM291.73 239.06C288.565 238.978 285.54 237.744 283.22 235.59L289.73 229.01C290.286 229.443 290.95 229.713 291.65 229.79L291.73 239.06ZM282.6 235.01C280.418 232.716 279.149 229.704 279.03 226.54L288.32 226.48C288.406 227.183 288.687 227.848 289.13 228.4L282.6 235.01ZM279.02 225.66C279.102 222.496 280.336 219.47 282.49 217.15L289.1 223.68C288.663 224.233 288.393 224.899 288.32 225.6L279.02 225.66Z" fill="#E2A558"></path>
</g>
<path id="Vector_146" d="M1272.73 590.95V582.21C1272.57 582.402 1272.36 582.556 1272.13 582.662C1271.91 582.767 1271.66 582.822 1271.4 582.822C1271.15 582.822 1270.9 582.767 1270.67 582.662C1270.45 582.556 1270.24 582.402 1270.08 582.21V590.95L1269.18 618.11V622.01H1273.63V618.11L1272.73 590.95Z" fill="white"></path>
<path id="Vector_147" d="M1283.93 578.749C1290.71 576.681 1296.01 574.396 1295.79 573.646C1295.56 572.896 1289.88 573.964 1283.1 576.033C1276.32 578.101 1271.01 580.385 1271.24 581.136C1271.47 581.886 1277.15 580.817 1283.93 578.749Z" fill="white"></path>
<path id="Vector_148" d="M1271.43 581.075C1271.96 580.502 1268.2 576.118 1263.02 571.282C1257.84 566.447 1253.2 562.992 1252.67 563.565C1252.13 564.139 1255.9 568.523 1261.08 573.358C1266.26 578.194 1270.89 581.649 1271.43 581.075Z" fill="white"></path>
<path id="Vector_149" d="M1269.67 593.779C1271.26 586.876 1271.94 581.136 1271.18 580.959C1270.41 580.783 1268.5 586.236 1266.9 593.139C1265.3 600.042 1264.63 605.782 1265.39 605.959C1266.15 606.136 1268.07 600.683 1269.67 593.779Z" fill="white"></path>
<path id="Vector_150" d="M1271.4 582.52C1272.36 582.52 1273.14 581.741 1273.14 580.78C1273.14 579.819 1272.36 579.04 1271.4 579.04C1270.44 579.04 1269.66 579.819 1269.66 580.78C1269.66 581.741 1270.44 582.52 1271.4 582.52Z" fill="#EF8619"></path>
<path id="Vector_151" d="M1220.57 618.8V610.06C1220.41 610.25 1220.2 610.404 1219.98 610.509C1219.75 610.614 1219.5 610.669 1219.25 610.67C1219 610.669 1218.75 610.615 1218.52 610.509C1218.29 610.404 1218.08 610.251 1217.92 610.06V618.8L1217.02 645.96V649.84H1221.47V646.01L1220.57 618.8Z" fill="white"></path>
<path id="Vector_152" d="M1232.08 610.12C1239.17 610.12 1244.91 609.485 1244.91 608.7C1244.91 607.916 1239.17 607.28 1232.08 607.28C1224.99 607.28 1219.25 607.916 1219.25 608.7C1219.25 609.485 1224.99 610.12 1232.08 610.12Z" fill="white"></path>
<path id="Vector_153" d="M1219.44 608.674C1220.12 608.282 1217.8 602.99 1214.26 596.853C1210.72 590.717 1207.29 586.06 1206.61 586.452C1205.93 586.844 1208.26 592.137 1211.8 598.273C1215.34 604.41 1218.76 609.066 1219.44 608.674Z" fill="white"></path>
<path id="Vector_154" d="M1214.06 620.321C1217.61 614.184 1219.93 608.892 1219.25 608.5C1218.57 608.107 1215.15 612.764 1211.6 618.901C1208.06 625.037 1205.74 630.33 1206.42 630.722C1207.1 631.114 1210.52 626.457 1214.06 620.321Z" fill="white"></path>
<path id="Vector_155" d="M1219.25 610.37C1220.21 610.37 1220.99 609.591 1220.99 608.63C1220.99 607.669 1220.21 606.89 1219.25 606.89C1218.29 606.89 1217.51 607.669 1217.51 608.63C1217.51 609.591 1218.29 610.37 1219.25 610.37Z" fill="#EF8619"></path>
<path id="Vector_156" d="M1291.61 602.85V594.22C1291.45 594.407 1291.25 594.558 1291.03 594.661C1290.8 594.765 1290.56 594.819 1290.31 594.82C1290.06 594.818 1289.82 594.764 1289.59 594.661C1289.36 594.557 1289.16 594.407 1289 594.22V602.85L1288.11 629.67V633.5H1292.5V629.67L1291.61 602.85Z" fill="white"></path>
<path id="Vector_157" d="M1281.96 601.946C1287.21 597.316 1291.05 593.092 1290.54 592.513C1290.03 591.933 1285.36 595.216 1280.11 599.847C1274.87 604.477 1271.03 608.7 1271.54 609.28C1272.05 609.86 1276.72 606.576 1281.96 601.946Z" fill="white"></path>
<path id="Vector_158" d="M1290.4 592.633C1291.16 592.48 1290.65 586.796 1289.26 579.937C1287.88 573.078 1286.14 567.643 1285.38 567.796C1284.62 567.949 1285.13 573.633 1286.52 580.492C1287.91 587.351 1289.65 592.786 1290.4 592.633Z" fill="white"></path>
<path id="Vector_159" d="M1314.38 600.465C1314.63 599.732 1309.45 597.332 1302.82 595.103C1296.19 592.875 1290.61 591.663 1290.36 592.396C1290.12 593.128 1295.29 595.529 1301.93 597.758C1308.56 599.986 1314.14 601.198 1314.38 600.465Z" fill="white"></path>
<path id="Vector_160" d="M1290.31 594.52C1291.26 594.52 1292.03 593.75 1292.03 592.8C1292.03 591.85 1291.26 591.08 1290.31 591.08C1289.36 591.08 1288.59 591.85 1288.59 592.8C1288.59 593.75 1289.36 594.52 1290.31 594.52Z" fill="#EF8619"></path>
<path id="Vector_161" d="M1072.73 224.45V215.71C1072.56 215.901 1072.36 216.054 1072.13 216.16C1071.9 216.265 1071.65 216.32 1071.4 216.32C1071.15 216.319 1070.9 216.265 1070.67 216.159C1070.45 216.054 1070.24 215.901 1070.08 215.71V224.45L1069.18 251.61V255.49H1073.63V251.61L1072.73 224.45Z" fill="white"></path>
<path id="Vector_162" d="M1083.89 212.253C1090.67 210.185 1095.97 207.9 1095.75 207.15C1095.52 206.4 1089.84 207.468 1083.06 209.537C1076.28 211.605 1070.97 213.889 1071.2 214.639C1071.43 215.39 1077.11 214.321 1083.89 212.253Z" fill="white"></path>
<path id="Vector_163" d="M1071.38 214.571C1071.92 213.997 1068.15 209.613 1062.97 204.778C1057.79 199.942 1053.16 196.487 1052.62 197.061C1052.09 197.634 1055.85 202.018 1061.03 206.854C1066.21 211.689 1070.85 215.144 1071.38 214.571Z" fill="white"></path>
<path id="Vector_164" d="M1069.63 227.277C1071.23 220.374 1071.91 214.634 1071.14 214.458C1070.38 214.281 1068.46 219.734 1066.87 226.637C1065.27 233.54 1064.59 239.28 1065.36 239.457C1066.12 239.634 1068.03 234.181 1069.63 227.277Z" fill="white"></path>
<path id="Vector_165" d="M1071.36 216.02C1072.32 216.02 1073.1 215.241 1073.1 214.28C1073.1 213.319 1072.32 212.54 1071.36 212.54C1070.4 212.54 1069.62 213.319 1069.62 214.28C1069.62 215.241 1070.4 216.02 1071.36 216.02Z" fill="#EF8619"></path>
<path id="Vector_166" d="M998.12 258.73V250.01C997.958 250.202 997.756 250.357 997.528 250.462C997.3 250.567 997.051 250.621 996.8 250.62C996.547 250.621 996.297 250.568 996.067 250.462C995.837 250.357 995.633 250.202 995.47 250.01V258.75L994.57 285.91V289.79H999.02V285.91L998.12 258.73Z" fill="white"></path>
<path id="Vector_167" d="M1009.63 250.05C1016.72 250.05 1022.46 249.414 1022.46 248.63C1022.46 247.846 1016.72 247.21 1009.63 247.21C1002.54 247.21 996.8 247.846 996.8 248.63C996.8 249.414 1002.54 250.05 1009.63 250.05Z" fill="white"></path>
<path id="Vector_168" d="M997.001 248.61C997.68 248.218 995.359 242.925 991.816 236.789C988.273 230.652 984.85 225.996 984.171 226.388C983.492 226.78 985.814 232.072 989.356 238.209C992.899 244.345 996.322 249.002 997.001 248.61Z" fill="white"></path>
<path id="Vector_169" d="M991.619 260.253C995.162 254.117 997.484 248.824 996.804 248.432C996.125 248.04 992.703 252.697 989.16 258.833C985.617 264.97 983.295 270.262 983.974 270.654C984.654 271.046 988.076 266.39 991.619 260.253Z" fill="white"></path>
<path id="Vector_170" d="M996.8 250.3C997.761 250.3 998.54 249.521 998.54 248.56C998.54 247.599 997.761 246.82 996.8 246.82C995.839 246.82 995.06 247.599 995.06 248.56C995.06 249.521 995.839 250.3 996.8 250.3Z" fill="#EF8619"></path>
<path id="Vector_171" d="M1039.73 256.15V247.52C1039.57 247.708 1039.37 247.859 1039.14 247.962C1038.92 248.066 1038.67 248.119 1038.42 248.119C1038.18 248.119 1037.93 248.066 1037.71 247.962C1037.48 247.859 1037.28 247.708 1037.12 247.52V256.15L1036.23 282.97V286.799H1040.62V283.01L1039.73 256.15Z" fill="white"></path>
<path id="Vector_172" d="M1030.07 255.265C1035.31 250.635 1039.15 246.412 1038.64 245.832C1038.13 245.252 1033.46 248.536 1028.21 253.166C1022.97 257.796 1019.13 262.02 1019.64 262.599C1020.15 263.179 1024.82 259.896 1030.07 255.265Z" fill="white"></path>
<path id="Vector_173" d="M1038.49 245.955C1039.25 245.802 1038.74 240.118 1037.36 233.259C1035.97 226.401 1034.23 220.965 1033.47 221.118C1032.72 221.271 1033.23 226.956 1034.61 233.814C1036 240.673 1037.74 246.109 1038.49 245.955Z" fill="white"></path>
<path id="Vector_174" d="M1062.51 253.783C1062.75 253.05 1057.57 250.649 1050.94 248.421C1044.31 246.192 1038.73 244.98 1038.49 245.713C1038.24 246.446 1043.42 248.847 1050.05 251.075C1056.68 253.303 1062.26 254.516 1062.51 253.783Z" fill="white"></path>
<path id="Vector_175" d="M1038.42 247.82C1039.37 247.82 1040.14 247.05 1040.14 246.1C1040.14 245.15 1039.37 244.38 1038.42 244.38C1037.47 244.38 1036.7 245.15 1036.7 246.1C1036.7 247.05 1037.47 247.82 1038.42 247.82Z" fill="#EF8619"></path>
<path id="Vector_176" d="M101.16 453.09V444.35C100.997 444.54 100.795 444.694 100.567 444.799C100.339 444.904 100.091 444.959 99.8401 444.96C99.5876 444.959 99.3382 444.905 99.1087 444.799C98.8792 444.694 98.6751 444.541 98.5101 444.35V453.09L97.6101 480.24V484.13H102.06V480.24L101.16 453.09Z" fill="white"></path>
<path id="Vector_177" d="M112.374 440.906C119.151 438.838 124.459 436.553 124.231 435.803C124.002 435.053 118.322 436.122 111.545 438.19C104.768 440.258 99.459 442.543 99.6879 443.293C99.9168 444.043 105.596 442.974 112.374 440.906Z" fill="white"></path>
<path id="Vector_178" d="M99.8787 443.204C100.414 442.631 96.6487 438.247 91.469 433.411C86.2893 428.576 81.6565 425.121 81.1213 425.694C80.5862 426.268 84.3513 430.652 89.531 435.487C94.7107 440.323 99.3436 443.778 99.8787 443.204Z" fill="white"></path>
<path id="Vector_179" d="M98.1254 455.912C99.723 449.009 100.399 443.269 99.6346 443.092C98.8705 442.916 96.9561 448.368 95.3585 455.272C93.7609 462.175 93.0852 467.915 93.8492 468.092C94.6133 468.268 96.5278 462.816 98.1254 455.912Z" fill="white"></path>
<path id="Vector_180" d="M99.8401 444.65C100.801 444.65 101.58 443.871 101.58 442.91C101.58 441.949 100.801 441.17 99.8401 441.17C98.8791 441.17 98.1001 441.949 98.1001 442.91C98.1001 443.871 98.8791 444.65 99.8401 444.65Z" fill="#EF8619"></path>
<path id="Vector_181" d="M49.01 480.94V472.2C48.847 472.391 48.6446 472.544 48.4167 472.65C48.1889 472.755 47.941 472.81 47.69 472.81C47.4375 472.81 47.188 472.755 46.9586 472.65C46.7291 472.545 46.5249 472.391 46.36 472.2V480.94L45.46 508.09V512.01H49.91V508.13L49.01 480.94Z" fill="white"></path>
<path id="Vector_182" d="M60.5199 472.26C67.6058 472.26 73.3499 471.624 73.3499 470.84C73.3499 470.056 67.6058 469.42 60.5199 469.42C53.4341 469.42 47.6899 470.056 47.6899 470.84C47.6899 471.624 53.4341 472.26 60.5199 472.26Z" fill="white"></path>
<path id="Vector_183" d="M47.893 470.825C48.5722 470.433 46.2507 465.14 42.7078 459.004C39.1649 452.867 35.7422 448.21 35.063 448.602C34.3838 448.995 36.7054 454.287 40.2483 460.424C43.7912 466.56 47.2139 471.217 47.893 470.825Z" fill="white"></path>
<path id="Vector_184" d="M42.5139 482.461C46.0568 476.325 48.3783 471.032 47.6991 470.64C47.02 470.248 43.5973 474.905 40.0544 481.041C36.5115 487.178 34.19 492.47 34.8691 492.862C35.5483 493.254 38.971 488.598 42.5139 482.461Z" fill="white"></path>
<path id="Vector_185" d="M47.6899 472.5C48.6509 472.5 49.43 471.72 49.43 470.76C49.43 469.799 48.6509 469.02 47.6899 469.02C46.729 469.02 45.95 469.799 45.95 470.76C45.95 471.72 46.729 472.5 47.6899 472.5Z" fill="#EF8619"></path>
<path id="Vector_186" d="M120.06 465.01V456.38C119.898 456.568 119.697 456.719 119.47 456.823C119.244 456.926 118.999 456.98 118.75 456.98C118.501 456.98 118.256 456.926 118.03 456.823C117.804 456.719 117.602 456.568 117.44 456.38V465.01L116.55 491.83V495.66H120.95V491.83L120.06 465.01Z" fill="white"></path>
<path id="Vector_187" d="M110.431 464.112C115.677 459.482 119.515 455.258 119.004 454.679C118.492 454.099 113.824 457.382 108.578 462.013C103.331 466.643 99.4931 470.866 100.005 471.446C100.516 472.026 105.184 468.742 110.431 464.112Z" fill="white"></path>
<path id="Vector_188" d="M118.848 454.816C119.606 454.663 119.096 448.978 117.71 442.12C116.323 435.261 114.584 429.825 113.827 429.978C113.069 430.132 113.578 435.816 114.965 442.675C116.352 449.533 118.09 454.969 118.848 454.816Z" fill="white"></path>
<path id="Vector_189" d="M142.876 462.605C143.122 461.872 137.944 459.471 131.311 457.243C124.678 455.015 119.101 453.802 118.855 454.535C118.609 455.268 123.786 457.669 130.42 459.897C137.053 462.126 142.63 463.338 142.876 462.605Z" fill="white"></path>
<path id="Vector_190" d="M118.75 456.65C119.7 456.65 120.47 455.88 120.47 454.93C120.47 453.98 119.7 453.21 118.75 453.21C117.8 453.21 117.03 453.98 117.03 454.93C117.03 455.88 117.8 456.65 118.75 456.65Z" fill="#EF8619"></path>
<path id="Vector_191" d="M1432.03 423.082L1425.02 424.641L1427.25 434.685L1434.26 433.126L1432.03 423.082Z" fill="white"></path>
<path id="Vector_192" d="M1444.11 420.393L1437.1 421.952L1439.33 431.997L1446.34 430.438L1444.11 420.393Z" fill="white"></path>
<path id="Vector_193" d="M1418.88 436.46L1422.97 454.83L1457.06 447.25L1452.97 428.88L1418.88 436.46ZM1425.55 442.08C1425.11 442.178 1424.65 442.144 1424.24 441.982C1423.82 441.82 1423.46 441.537 1423.2 441.17C1422.94 440.803 1422.8 440.367 1422.79 439.918C1422.77 439.469 1422.9 439.027 1423.14 438.648C1423.38 438.269 1423.73 437.97 1424.14 437.788C1424.55 437.607 1425 437.551 1425.44 437.628C1425.89 437.706 1426.3 437.912 1426.62 438.222C1426.95 438.532 1427.17 438.932 1427.27 439.37C1427.4 439.957 1427.29 440.573 1426.97 441.081C1426.65 441.589 1426.14 441.949 1425.55 442.08ZM1433.41 440.33C1432.97 440.428 1432.51 440.394 1432.1 440.232C1431.68 440.07 1431.32 439.787 1431.06 439.42C1430.8 439.053 1430.66 438.617 1430.65 438.168C1430.63 437.719 1430.76 437.277 1431 436.898C1431.24 436.519 1431.59 436.22 1432 436.038C1432.41 435.857 1432.86 435.801 1433.3 435.878C1433.75 435.956 1434.16 436.162 1434.48 436.472C1434.81 436.782 1435.03 437.182 1435.13 437.62C1435.2 437.911 1435.2 438.212 1435.15 438.506C1435.1 438.8 1434.99 439.081 1434.83 439.333C1434.67 439.585 1434.47 439.803 1434.22 439.974C1433.98 440.145 1433.7 440.266 1433.41 440.33ZM1441.27 438.58C1440.83 438.676 1440.37 438.64 1439.96 438.476C1439.54 438.313 1439.18 438.029 1438.92 437.661C1438.67 437.293 1438.52 436.858 1438.51 436.409C1438.51 435.96 1438.63 435.519 1438.87 435.141C1439.11 434.763 1439.46 434.465 1439.87 434.284C1440.28 434.104 1440.74 434.049 1441.18 434.127C1441.62 434.205 1442.03 434.412 1442.35 434.722C1442.68 435.033 1442.9 435.432 1443 435.87C1443.06 436.161 1443.07 436.463 1443.02 436.757C1442.97 437.051 1442.86 437.332 1442.7 437.584C1442.54 437.836 1442.33 438.053 1442.08 438.224C1441.84 438.395 1441.56 438.516 1441.27 438.58ZM1449.13 436.83C1448.69 436.926 1448.23 436.89 1447.82 436.726C1447.4 436.563 1447.04 436.279 1446.78 435.911C1446.53 435.543 1446.38 435.108 1446.37 434.659C1446.37 434.21 1446.49 433.769 1446.73 433.391C1446.97 433.013 1447.32 432.715 1447.73 432.534C1448.14 432.354 1448.6 432.299 1449.04 432.377C1449.48 432.455 1449.89 432.662 1450.21 432.972C1450.54 433.283 1450.76 433.682 1450.86 434.12C1450.93 434.412 1450.93 434.713 1450.88 435.008C1450.83 435.303 1450.72 435.584 1450.56 435.836C1450.4 436.088 1450.19 436.306 1449.94 436.477C1449.7 436.647 1449.42 436.767 1449.13 436.83Z" fill="#EF8619"></path>
<path id="Vector_194" d="M1461.83 439.45L1463.17 455.88L1418.89 465.73L1406.69 448.47L1424.84 444.43L1461.83 439.45Z" fill="white"></path>
<path id="Vector_195" d="M402.421 611.825L413.374 610.703L411.767 595.015L400.814 596.137L402.421 611.825Z" fill="white"></path>
<path id="Vector_196" d="M383.555 613.752L394.508 612.63L392.901 596.942L381.948 598.064L383.555 613.752Z" fill="white"></path>
<path id="Vector_197" d="M373.14 614.86L376.08 643.56L429.34 638.1L426.4 609.4L373.14 614.86ZM415.6 617.69C415.531 617.006 415.666 616.316 415.988 615.708C416.31 615.1 416.806 614.602 417.411 614.275C418.017 613.949 418.706 613.809 419.391 613.874C420.076 613.939 420.726 614.206 421.259 614.64C421.793 615.074 422.186 615.657 422.388 616.315C422.591 616.972 422.594 617.675 422.397 618.334C422.2 618.994 421.812 619.58 421.282 620.019C420.753 620.458 420.104 620.73 419.42 620.8C418.965 620.849 418.504 620.807 418.065 620.676C417.626 620.546 417.218 620.33 416.863 620.041C416.507 619.752 416.213 619.395 415.996 618.992C415.78 618.588 415.645 618.146 415.6 617.69ZM403.32 618.95C403.251 618.266 403.386 617.576 403.708 616.968C404.03 616.361 404.526 615.862 405.131 615.535C405.737 615.209 406.426 615.069 407.111 615.134C407.796 615.199 408.446 615.466 408.979 615.9C409.513 616.334 409.906 616.917 410.108 617.575C410.311 618.232 410.314 618.935 410.117 619.594C409.92 620.254 409.532 620.84 409.002 621.279C408.473 621.718 407.825 621.99 407.14 622.06C406.685 622.109 406.224 622.067 405.785 621.936C405.346 621.806 404.938 621.59 404.583 621.301C404.227 621.012 403.933 620.655 403.716 620.252C403.5 619.848 403.365 619.406 403.32 618.95ZM391.03 620.21C390.959 619.524 391.092 618.831 391.414 618.221C391.737 617.61 392.233 617.109 392.84 616.78C393.447 616.451 394.138 616.31 394.825 616.374C395.512 616.438 396.165 616.704 396.701 617.14C397.237 617.575 397.632 618.159 397.836 618.819C398.04 619.478 398.043 620.184 397.846 620.845C397.649 621.507 397.26 622.095 396.729 622.536C396.197 622.976 395.547 623.249 394.86 623.32C394.404 623.369 393.943 623.327 393.504 623.196C393.064 623.066 392.655 622.85 392.299 622.561C391.943 622.272 391.648 621.916 391.43 621.512C391.212 621.109 391.076 620.667 391.03 620.21ZM378.73 621.47C378.661 620.786 378.796 620.096 379.118 619.488C379.44 618.881 379.936 618.382 380.541 618.055C381.147 617.729 381.836 617.589 382.521 617.654C383.206 617.719 383.856 617.986 384.389 618.42C384.923 618.854 385.316 619.437 385.518 620.095C385.721 620.752 385.724 621.455 385.527 622.114C385.33 622.774 384.942 623.36 384.412 623.799C383.883 624.238 383.235 624.51 382.55 624.58C382.095 624.627 381.635 624.584 381.197 624.453C380.758 624.322 380.35 624.106 379.995 623.818C379.64 623.529 379.346 623.173 379.129 622.77C378.912 622.367 378.776 621.926 378.73 621.47Z" fill="#EF8619"></path>
<path id="Vector_198" d="M365.37 634.53L371.38 659.07L440.55 651.98L449.95 620.96L421.6 623.87L365.37 634.53Z" fill="white"></path>
<path id="Vector_199" d="M566.96 255.49C622.46 248.55 690.88 351.14 775.59 354.3C860.3 357.46 908.73 355.01 917.73 335.3C926.73 315.59 772.05 286.41 663.24 380.16C538.56 487.58 232.32 420.42 164.79 488.01C142.38 510.45 155.32 545.65 313.41 539.66C471.5 533.67 711.32 477.81 801.49 478.66C891.66 479.51 987.76 527.66 1098.2 527.66C1269.2 527.66 1537.55 244.66 1607.91 401.75C1664.3 527.66 1451.91 580.6 1303.3 523.98C1189.57 480.65 1100.98 389.08 1107.45 306.16C1115.34 205.04 1215.74 164.87 1305.45 163.58C1395.16 162.29 1481.65 227.07 1556.5 215.5C1616.93 206.19 1668.5 177.5 1648.5 105.5" stroke="#EF8619" stroke-width="2" stroke-miterlimit="10" stroke-dasharray="10 10"></path>
</g>
</svg>
