<svg width="744" height="640" viewBox="0 0 744 640" fill="none" xmlns="http://www.w3.org/2000/svg">
<style>#Heli {
  animation: hover 1.5s ease-in-out infinite alternate;
}

@keyframes hover {
  0% {
    transform: translateY(-7px);
  }

  100% {
    transform: translateY(7px);
  }
}

</style>
<g id="Map_klein">
<path id="Vector" fill-rule="evenodd" clip-rule="evenodd" d="M325.33 589.35H324.46H279.09H277.01L278.48 587.88L289.39 576.97L278.35 565.92L276.88 564.45H278.96H324.46H325.33V565.31V588.49V589.35Z" fill="white"></path>
<path id="Vector_2" d="M309.55 579.45H325.54V590.1L309.55 579.45Z" fill="#007799"></path>
<path id="Vector_3" d="M435.19 579.45H419.2V590.1L435.19 579.45Z" fill="#007799"></path>
<path id="Vector_4" d="M435.65 566.13L467.12 566.1L454.61 578.62L466.99 591L419.45 590.55L435.65 579.67V566.13Z" fill="white"></path>
<path id="Vector_5" d="M435.69 554.26H309.18V579.17H435.69V554.26Z" fill="white"></path>
<path id="Vector_6" d="M320.8 557.4H323.45V571.84H327.81V574.24H320.81L320.8 557.4Z" fill="#007799"></path>
<path id="Vector_7" d="M328.79 570.25V561.39C328.79 558.7 330.21 557.16 332.79 557.16C335.37 557.16 336.79 558.7 336.79 561.39V570.25C336.79 572.94 335.37 574.48 332.79 574.48C330.21 574.48 328.79 572.94 328.79 570.25ZM334.18 570.42V561.22C334.18 560.02 333.65 559.56 332.81 559.56C331.97 559.56 331.44 560.02 331.44 561.22V570.42C331.44 571.62 331.97 572.08 332.81 572.08C333.65 572.08 334.18 571.62 334.18 570.42Z" fill="#007799"></path>
<path id="Vector_8" d="M338.44 570.35V561.35C338.44 558.75 339.79 557.21 342.34 557.21C344.89 557.21 346.24 558.75 346.24 561.35V563.13H343.74V561.13C343.74 560.02 343.21 559.56 342.41 559.56C341.61 559.56 341.09 560.02 341.09 561.13V570.54C341.09 571.65 341.62 572.08 342.41 572.08C343.2 572.08 343.74 571.65 343.74 570.54V567.96H346.24V570.35C346.24 572.94 344.89 574.48 342.34 574.48C339.79 574.48 338.44 572.94 338.44 570.35Z" fill="#007799"></path>
<path id="Vector_9" d="M349.87 557.4H353.46L356.2 574.24H353.55L353.07 570.9H350.07L349.59 574.19H347.14L349.87 557.4ZM352.76 568.66L351.58 560.33H351.53L350.38 568.66H352.76Z" fill="#007799"></path>
<path id="Vector_10" d="M358.44 559.8H355.67V557.4H363.85V559.8H361.09V574.24H358.44V559.8Z" fill="#007799"></path>
<path id="Vector_11" d="M365.13 557.4H367.77V574.24H365.13V557.4Z" fill="#007799"></path>
<path id="Vector_12" d="M369.55 570.25V561.39C369.55 558.7 370.97 557.16 373.55 557.16C376.13 557.16 377.55 558.7 377.55 561.39V570.25C377.55 572.94 376.13 574.48 373.55 574.48C370.97 574.48 369.55 572.94 369.55 570.25ZM374.94 570.42V561.22C374.94 560.02 374.42 559.56 373.57 559.56C372.72 559.56 372.2 560.02 372.2 561.22V570.42C372.2 571.62 372.73 572.08 373.57 572.08C374.41 572.08 374.94 571.62 374.94 570.42Z" fill="#007799"></path>
<path id="Vector_13" d="M379.37 557.4H382.69L385.27 567.48H385.32V557.4H387.68V574.24H385L381.83 561.95V574.24H379.47L379.37 557.4Z" fill="#007799"></path>
<path id="Vector_14" d="M393.5 557.4H397.27L398.96 569.46H399L400.68 557.4H404.46V574.24H402V561.49H401.95L400 574.24H397.79L395.86 561.49V574.24H393.5V557.4Z" fill="#007799"></path>
<path id="Vector_15" d="M408.49 557.4H412.07L414.82 574.24H412.17L411.69 570.9H408.69L408.21 574.19H405.75L408.49 557.4ZM411.38 568.66L410.2 560.33H410.15L408.99 568.66H411.38Z" fill="#007799"></path>
<path id="Vector_16" d="M416.09 557.4H420C422.65 557.4 423.95 558.87 423.95 561.56V563.22C423.95 565.92 422.65 567.39 420 567.39H418.75V574.24H416.1L416.09 557.4ZM419.99 564.98C420.83 564.98 421.29 564.59 421.29 563.39V561.39C421.29 560.19 420.83 559.8 419.99 559.8H418.74V564.98H419.99Z" fill="#007799"></path>
<path id="Vector_17" d="M0 639.48V282.83C9.71 272.3 53.88 258.83 70.07 250.83C105.87 233.07 144.79 211.54 158.26 207.55C219.5 189.36 343.07 199.28 429.62 175.77C516.17 152.26 646.49 69.39 744 67V639.48H0Z" fill="#007799"></path>
<g id="Heli">
<path id="Vector_18" d="M259.56 72.2696C260.03 72.8296 258.74 76.3196 258.74 76.3196H264.94C266.323 73.1035 268.316 70.1862 270.81 67.7295C270.81 67.7295 315.63 67.7296 320.71 71.6396C324.95 74.8996 332.1 78.3496 337.71 80.7596H337.13L337.21 93.0595H330.62V94.2196C331.52 94.2196 345.78 94.2196 356.06 94.2196C361.44 94.2196 365.73 94.1295 366.44 94.0495C367.115 93.9897 367.763 93.7568 368.322 93.3731C368.881 92.9895 369.331 92.4681 369.63 91.8595L368.56 91.3996C368.344 91.8204 368.023 92.1791 367.63 92.4416C367.236 92.7041 366.782 92.8617 366.31 92.8996C365.78 92.9596 363 92.9995 359.09 93.0395V85.2696H357.93V93.0296C352.35 93.0296 344.93 93.0895 338.37 93.0995L338.29 81.0395C341.15 82.2595 343.54 83.1695 344.81 83.6095C348.6 84.8895 363.58 85.2395 363.58 85.2395C363.58 85.2395 378.53 84.6795 376.58 77.2995C374.58 69.5095 358.15 60.3995 355.67 59.1095C353.19 57.8195 347.53 58.5796 345.19 57.5696C344.879 57.4444 344.597 57.2575 344.36 57.0202C344.123 56.7829 343.937 56.5001 343.813 56.1889C343.689 55.8777 343.629 55.5444 343.637 55.2094C343.645 54.8744 343.721 54.5444 343.86 54.2395L336.44 53.4096C329.49 60.7296 315.86 62.0495 315.86 62.0495C315.86 62.0495 272.37 63.4395 270.96 62.9795C269.55 62.5195 265.96 52.6696 264.68 50.5196C263.4 48.3696 258.09 49.0595 258.09 49.0595C258.09 49.0595 259.63 54.3096 259.64 55.9096C259.65 57.5096 253.82 57.3496 253.95 63.9096C254.08 70.4696 259.09 71.7096 259.56 72.2696ZM255.48 64.5995C255.472 63.3887 255.823 62.2028 256.49 61.1918C257.156 60.1808 258.107 59.3902 259.223 58.92C260.339 58.4497 261.569 58.3211 262.758 58.5503C263.947 58.7795 265.041 59.3562 265.902 60.2074C266.764 61.0587 267.353 62.1463 267.595 63.3326C267.838 64.5188 267.724 65.7504 267.266 66.8715C266.809 67.9926 266.029 68.9529 265.026 69.6307C264.023 70.3086 262.841 70.6736 261.63 70.6795C260.827 70.6848 260.03 70.5317 259.286 70.2289C258.542 69.926 257.865 69.4795 257.294 68.9148C256.723 68.3501 256.269 67.6782 255.957 66.9378C255.646 66.1973 255.484 65.4028 255.48 64.5995V64.5995Z" fill="white"></path>
<path id="Vector_19" d="M376.76 78.5996C376.76 77.9796 367.42 78.3096 367.09 78.6596C366.76 79.0096 366.43 80.7496 369.75 84.2396C372.43 83.8596 376.78 81.5196 376.76 78.5996Z" fill="#E2A558"></path>
<path id="Vector_20" d="M376.22 76.1304C376.22 76.1304 366.54 76.4104 365.4 76.2004C364.26 75.9904 353.76 58.4404 353.76 58.4404L354.98 58.7304C354.98 58.7304 363.98 63.2304 368.46 67.3104C375.06 72.5604 376.22 76.1304 376.22 76.1304Z" fill="#E2A558"></path>
<path id="Vector_21" d="M348.88 60.7596C349.75 60.7596 351.49 60.6896 352.58 60.7596C353.67 60.8296 360.26 71.9196 360.92 72.9996C361.58 74.0796 360.92 75.1796 359.25 75.0796C356.367 74.8095 353.508 74.318 350.7 73.6096C349.994 73.1368 349.394 72.5217 348.94 71.8036C348.485 71.0855 348.185 70.2803 348.06 69.4396C347.695 67.0813 347.465 64.7041 347.37 62.3196C347.47 61.9596 348.07 60.7896 348.88 60.7596Z" fill="#E2A558"></path>
<path id="Vector_22" d="M283.71 47.5905L297.22 47.4705C306.22 47.3905 315.22 47.4005 324.22 47.4105L338.84 47.4904C338.853 47.3295 338.926 47.1793 339.044 47.0699C339.163 46.9605 339.319 46.9 339.48 46.9005H340.14C340.305 46.8978 340.465 46.9602 340.585 47.0743C340.705 47.1884 340.775 47.3451 340.78 47.5105C344.27 47.5105 347.78 47.5705 351.24 47.6305L364.76 47.8305C369.26 47.9305 373.76 48.0005 378.27 48.1505C373.77 48.2605 369.27 48.3105 364.76 48.3905L351.24 48.5105C347.76 48.5105 344.24 48.5105 340.79 48.5705V53.5705C340.79 53.7411 340.723 53.905 340.603 54.0266C340.483 54.1482 340.321 54.2179 340.15 54.2205H339.49C339.319 54.2205 339.155 54.1534 339.034 54.0337C338.912 53.9139 338.843 53.7511 338.84 53.5805V48.5805H324.24C315.24 48.5805 306.24 48.5004 297.24 48.3704L283.7 48.1305C279.2 48.0205 274.7 47.9504 270.19 47.8104C274.7 47.7204 279.2 47.6705 283.71 47.5905Z" fill="white"></path>
<path id="Vector_23" d="M255.48 64.5996C255.488 65.8099 255.855 66.9908 256.534 67.9928C257.213 68.9948 258.174 69.773 259.295 70.2288C260.416 70.6847 261.648 70.7978 262.833 70.5539C264.019 70.31 265.105 69.7201 265.956 68.8586C266.806 67.9971 267.382 66.9028 267.61 65.7142C267.838 64.5255 267.709 63.2958 267.239 62.1806C266.768 61.0654 265.978 60.1147 264.967 59.4488C263.956 58.7829 262.77 58.4317 261.56 58.4396C260.756 58.4448 259.962 58.6083 259.221 58.9207C258.481 59.2331 257.809 59.6883 257.244 60.2603C256.68 60.8323 256.233 61.51 255.931 62.2545C255.628 62.9991 255.475 63.7959 255.48 64.5996V64.5996ZM257.66 60.3996C258.665 59.445 259.985 58.8903 261.37 58.8396V62.9096C261.064 62.9478 260.773 63.0688 260.53 63.2596L257.66 60.3996ZM261.75 58.8396C263.136 58.87 264.463 59.4071 265.48 60.3496L262.62 63.2496C262.379 63.0577 262.087 62.9396 261.78 62.9096L261.75 58.8396ZM265.75 60.6296C266.708 61.6298 267.266 62.9459 267.32 64.3296H263.25C263.212 64.0211 263.087 63.7298 262.89 63.4896L265.75 60.6296ZM267.32 64.7196C267.282 66.103 266.742 67.4252 265.8 68.4396L262.91 65.5896C263.096 65.3408 263.213 65.0477 263.25 64.7396L267.32 64.7196ZM265.53 68.7196C264.525 69.6742 263.206 70.2289 261.82 70.2796V66.2096C262.127 66.1714 262.417 66.0504 262.66 65.8596L265.53 68.7196ZM261.44 70.2796C260.054 70.2492 258.727 69.712 257.71 68.7696L260.57 65.8696C260.812 66.0615 261.103 66.1796 261.41 66.2096L261.44 70.2796ZM257.44 68.4896C256.483 67.4893 255.924 66.1732 255.87 64.7896H259.94C259.979 65.096 260.1 65.3863 260.29 65.6296L257.44 68.4896ZM255.87 64.3996C255.908 63.0162 256.449 61.6939 257.39 60.6796L260.28 63.5296C260.09 63.776 259.973 64.0702 259.94 64.3796L255.87 64.3996Z" fill="#E2A558"></path>
</g>
<path id="Vector_24" d="M469.53 148.4V144.59C469.457 144.671 469.367 144.736 469.267 144.781C469.168 144.825 469.059 144.848 468.95 144.848C468.841 144.848 468.732 144.825 468.633 144.781C468.533 144.736 468.443 144.671 468.37 144.59V144.59V148.4L468 160.29V161.99H469.94V160.29L469.53 148.4Z" fill="white"></path>
<path id="Vector_25" d="M474.921 146.209C477.896 145.31 480.226 144.316 480.127 143.987C480.028 143.658 477.536 144.12 474.562 145.019C471.587 145.917 469.257 146.912 469.356 147.241C469.455 147.569 471.947 147.108 474.921 146.209Z" fill="white"></path>
<path id="Vector_26" d="M744 110.21C743.92 110.21 744 110.21 743.87 110.21C740.113 109.913 736.338 109.913 732.58 110.21C726.547 110.97 720.964 113.797 716.78 118.21C712.51 125.21 711.27 126.94 711.38 128.76C711.53 131.26 712.85 133.22 713.1 134.56C713.157 134.934 713.072 135.316 712.864 135.632C712.655 135.948 712.337 136.175 711.97 136.27C707.97 137.55 694.97 142.12 696.16 146.86C697.69 152.92 712.06 158.8 709.49 162.11C704.05 169.11 679.86 166.45 668.33 171.11C656.27 176 668.65 185.85 647.67 184.32C610.3 181.59 591 180.18 585.92 187.63C581.32 194.4 588.31 199.03 594.6 204.74C600.09 209.74 621.1 228.33 620.7 229.02C620.3 229.71 616.94 236.74 618.38 240.21C620.02 244.13 631.89 245.96 631.89 245.96C631.89 245.96 621.97 253.2 624.89 260.06C630.32 272.64 644.63 271.27 643.58 275.63C639.47 292.81 599.03 298.99 580.28 287.7C578.28 286.5 596.45 251.64 596.45 251.64L562.37 249.27C562.37 249.27 560.6 254.47 551 276.93L544.95 274.72C543.5 274.2 540.66 272.88 539.78 272.58C539.18 272.38 555.22 249.97 555.22 249.97L531.67 248.77L520 266.87C515.77 265.67 512.69 264.87 512 264.68C510.06 264.17 520 248.99 520 248.99L501.26 251.13C501.26 251.13 497.12 261 494.85 260.5C494.85 260.5 490.01 259.43 485.41 258.5C418.22 245.29 399.65 261.29 399.65 261.29C367.75 277.72 401.82 331.97 373.94 333.87C336.41 336.43 321.03 298.55 274.76 291.4C224.47 283.63 182.92 288.84 166.51 294.48C138.69 304.05 203.51 308.96 177.75 312C145.3 315.82 154.84 328.44 163.63 333.58C170.84 337.78 198.22 366.49 175.3 412.18C162.62 437.53 64.8 639.13 64.8 639.13H327.67C327.67 639.13 243.67 436.4 238.59 417.36C216.12 333.44 200.5 332.5 200.5 327.36C200.5 318.57 208.5 323.45 227.5 318.12C255.56 310.23 185.05 298.24 196.61 295.88C206.53 293.88 230.28 293.34 240.41 295.24C269.93 300.78 290.41 323.39 300.5 332.01C317.64 346.69 334.5 367.19 374.71 367.19C384.65 367.19 401.51 361.56 406.2 357.68C432.56 335.86 383.11 289.68 402.2 269.57C421.02 254.99 461.93 261.65 461.93 261.65C461.93 261.65 517.16 272.13 581 306.51C644.84 340.89 672.33 302.99 666.41 283.01C662.99 271.46 665.93 265.67 640.62 258.28C639.62 258 653.19 252.67 645.41 241.37C641.73 236.02 633.06 237.65 628.8 235.92C625.8 234.71 632.12 229.81 625.13 223.92C611.13 212.11 586.47 195.69 588.35 190.12C588.35 189.98 591.95 187.12 592.08 187.06C600.65 184.26 601.39 184.62 658.4 191.45C677.1 193.69 669.07 179.92 671.91 177.94C674.12 176.4 719.13 174.09 725.5 166.28C727.78 163.48 710.19 150.92 711.42 147.67C713.42 142.39 728.07 140.41 724.35 134.1C721.68 129.58 717.35 128.6 719.56 120.38C722 108.22 744 110.21 744 110.21Z" fill="#43AFE0"></path>
<path id="Vector_27" d="M468.962 144.068C469.196 143.818 467.549 141.901 465.284 139.787C463.02 137.673 460.994 136.162 460.76 136.412C460.527 136.662 462.173 138.579 464.438 140.693C466.703 142.808 468.729 144.319 468.962 144.068Z" fill="white"></path>
<path id="Vector_28" d="M468.202 149.636C468.9 146.618 469.196 144.108 468.863 144.031C468.529 143.954 467.692 146.338 466.994 149.357C466.295 152.375 465.999 154.885 466.333 154.962C466.667 155.039 467.503 152.655 468.202 149.636Z" fill="white"></path>
<path id="Vector_29" d="M468.95 144.71C469.37 144.71 469.71 144.37 469.71 143.95C469.71 143.531 469.37 143.19 468.95 143.19C468.53 143.19 468.19 143.531 468.19 143.95C468.19 144.37 468.53 144.71 468.95 144.71Z" fill="#EF8619"></path>
<path id="Vector_30" d="M436.89 163.41V159.58C436.82 159.664 436.732 159.732 436.632 159.778C436.533 159.825 436.425 159.849 436.315 159.849C436.205 159.849 436.097 159.825 435.998 159.778C435.898 159.732 435.81 159.664 435.74 159.58V163.41L435.34 175.29V176.99H437.34V175.29L436.89 163.41Z" fill="white"></path>
<path id="Vector_31" d="M441.93 159.6C445.028 159.6 447.54 159.323 447.54 158.98C447.54 158.638 445.028 158.36 441.93 158.36C438.832 158.36 436.32 158.638 436.32 158.98C436.32 159.323 438.832 159.6 441.93 159.6Z" fill="white"></path>
<path id="Vector_32" d="M436.395 158.97C436.692 158.799 435.676 156.485 434.127 153.802C432.578 151.119 431.082 149.082 430.785 149.253C430.488 149.425 431.504 151.739 433.053 154.422C434.602 157.105 436.098 159.142 436.395 158.97Z" fill="white"></path>
<path id="Vector_33" d="M434.045 164.079C435.594 161.396 436.609 159.082 436.313 158.911C436.016 158.739 434.52 160.776 432.971 163.459C431.422 166.142 430.406 168.456 430.703 168.627C430.999 168.799 432.496 166.762 434.045 164.079Z" fill="white"></path>
<path id="Vector_34" d="M436.32 159.71C436.74 159.71 437.08 159.37 437.08 158.95C437.08 158.531 436.74 158.19 436.32 158.19C435.9 158.19 435.56 158.531 435.56 158.95C435.56 159.37 435.9 159.71 436.32 159.71Z" fill="#EF8619"></path>
<path id="Vector_35" d="M455.1 162.28V158.5C455.03 158.583 454.943 158.649 454.844 158.694C454.746 158.739 454.638 158.762 454.53 158.76C454.422 158.76 454.315 158.737 454.217 158.692C454.118 158.648 454.031 158.582 453.96 158.5V162.28L453.57 174.02V175.69H455.49V174.02L455.1 162.28Z" fill="white"></path>
<path id="Vector_36" d="M450.878 161.875C453.172 159.85 454.851 158.004 454.629 157.752C454.406 157.499 452.365 158.936 450.071 160.96C447.777 162.985 446.098 164.831 446.321 165.083C446.544 165.336 448.584 163.899 450.878 161.875Z" fill="white"></path>
<path id="Vector_37" d="M454.576 157.811C454.907 157.744 454.683 155.259 454.076 152.26C453.47 149.261 452.711 146.884 452.381 146.95C452.05 147.017 452.274 149.502 452.881 152.501C453.487 155.5 454.246 157.877 454.576 157.811Z" fill="white"></path>
<path id="Vector_38" d="M467.141 161.289C467.248 160.969 464.979 159.916 462.073 158.937C459.166 157.958 456.722 157.424 456.615 157.744C456.507 158.064 458.776 159.117 461.682 160.096C464.589 161.075 467.033 161.609 467.141 161.289Z" fill="white"></path>
<path id="Vector_39" d="M454.53 158.63C454.944 158.63 455.28 158.294 455.28 157.88C455.28 157.466 454.944 157.13 454.53 157.13C454.116 157.13 453.78 157.466 453.78 157.88C453.78 158.294 454.116 158.63 454.53 158.63Z" fill="#EF8619"></path>
<g id="Windreader_klein">
<path id="Vector_40" d="M517.25 327.72V323.89C517.179 323.974 517.09 324.042 516.99 324.088C516.889 324.134 516.78 324.159 516.67 324.159C516.56 324.159 516.45 324.134 516.35 324.088C516.25 324.042 516.161 323.974 516.09 323.89V327.72L515.7 339.61V341.3H517.64V339.61L517.25 327.72Z" fill="white"></path>
<path id="Vector_41" d="M522.161 322.369C525.124 321.465 527.445 320.466 527.346 320.139C527.246 319.811 524.762 320.279 521.799 321.183C518.835 322.087 516.514 323.086 516.614 323.413C516.714 323.741 519.197 323.273 522.161 322.369Z" fill="white"></path>
<path id="Vector_42" d="M516.688 323.38C516.921 323.13 515.275 321.213 513.01 319.098C510.745 316.984 508.719 315.473 508.486 315.724C508.252 315.974 509.899 317.891 512.164 320.005C514.428 322.119 516.454 323.63 516.688 323.38Z" fill="white"></path>
<path id="Vector_43" d="M515.914 328.953C516.612 325.934 516.908 323.425 516.575 323.347C516.241 323.27 515.404 325.655 514.706 328.673C514.007 331.692 513.711 334.201 514.045 334.278C514.379 334.356 515.215 331.971 515.914 328.953Z" fill="white"></path>
<path id="Vector_44" d="M516.67 324.02C517.09 324.02 517.43 323.68 517.43 323.26C517.43 322.84 517.09 322.5 516.67 322.5C516.25 322.5 515.91 322.84 515.91 323.26C515.91 323.68 516.25 324.02 516.67 324.02Z" fill="#EF8619"></path>
<path id="Vector_45" d="M494.42 339.91V336.13C494.35 336.216 494.262 336.285 494.161 336.332C494.061 336.379 493.951 336.402 493.84 336.4C493.73 336.4 493.62 336.377 493.52 336.33C493.42 336.283 493.331 336.215 493.26 336.13V339.96L492.87 351.85V353.54H494.82V351.85L494.42 339.91Z" fill="white"></path>
<path id="Vector_46" d="M499.46 336.11C502.558 336.11 505.07 335.833 505.07 335.49C505.07 335.148 502.558 334.87 499.46 334.87C496.362 334.87 493.85 335.148 493.85 335.49C493.85 335.833 496.362 336.11 499.46 336.11Z" fill="white"></path>
<path id="Vector_47" d="M493.932 335.478C494.229 335.307 493.213 332.993 491.664 330.31C490.115 327.626 488.619 325.59 488.322 325.761C488.026 325.932 489.041 328.246 490.59 330.93C492.14 333.613 493.636 335.649 493.932 335.478Z" fill="white"></path>
<path id="Vector_48" d="M491.573 340.577C493.123 337.894 494.138 335.58 493.842 335.409C493.545 335.237 492.049 337.274 490.5 339.957C488.95 342.64 487.935 344.954 488.232 345.125C488.528 345.297 490.024 343.26 491.573 340.577Z" fill="white"></path>
<path id="Vector_49" d="M493.84 336.21C494.26 336.21 494.6 335.87 494.6 335.45C494.6 335.031 494.26 334.69 493.84 334.69C493.42 334.69 493.08 335.031 493.08 335.45C493.08 335.87 493.42 336.21 493.84 336.21Z" fill="#EF8619"></path>
<path id="Vector_50" d="M525.52 332.92V329.13C525.449 329.212 525.362 329.277 525.263 329.322C525.165 329.367 525.058 329.39 524.95 329.39C524.842 329.392 524.734 329.369 524.636 329.324C524.537 329.279 524.45 329.213 524.38 329.13V329.13V332.89L524 344.66V346.34H525.92V344.66L525.52 332.92Z" fill="white"></path>
<path id="Vector_51" d="M521.307 332.515C523.601 330.491 525.28 328.645 525.057 328.392C524.834 328.14 522.793 329.576 520.499 331.601C518.205 333.625 516.526 335.471 516.749 335.724C516.972 335.977 519.013 334.54 521.307 332.515Z" fill="white"></path>
<path id="Vector_52" d="M525.006 328.442C525.336 328.375 525.112 325.889 524.506 322.89C523.899 319.892 523.14 317.515 522.81 317.581C522.48 317.648 522.703 320.133 523.31 323.132C523.916 326.131 524.675 328.508 525.006 328.442Z" fill="white"></path>
<path id="Vector_53" d="M535.495 331.859C535.602 331.539 533.338 330.49 530.437 329.516C527.537 328.542 525.099 328.011 524.992 328.33C524.884 328.649 527.149 329.698 530.049 330.673C532.949 331.647 535.387 332.178 535.495 331.859Z" fill="white"></path>
<path id="Vector_54" d="M524.95 329.28C525.364 329.28 525.7 328.944 525.7 328.53C525.7 328.116 525.364 327.78 524.95 327.78C524.536 327.78 524.2 328.116 524.2 328.53C524.2 328.944 524.536 329.28 524.95 329.28Z" fill="#EF8619"></path>
<path id="Vector_55" d="M44.28 248.48V244.65C44.2086 244.735 44.1198 244.802 44.0196 244.849C43.9195 244.895 43.8104 244.919 43.7 244.919C43.5896 244.919 43.4805 244.895 43.3803 244.849C43.2802 244.802 43.1913 244.735 43.12 244.65V248.48L42.73 260.37V262.07H44.73V260.37L44.28 248.48Z" fill="white"></path>
<path id="Vector_56" d="M49.1869 243.136C52.1503 242.231 54.4716 241.233 54.3716 240.905C54.2717 240.578 51.7884 241.045 48.825 241.95C45.8615 242.854 43.5402 243.852 43.6402 244.18C43.7401 244.507 46.2235 244.04 49.1869 243.136Z" fill="white"></path>
<path id="Vector_57" d="M43.7176 244.147C43.9513 243.897 42.3047 241.98 40.0398 239.866C37.7749 237.752 35.7495 236.241 35.5158 236.491C35.2822 236.741 36.9288 238.658 39.1937 240.772C41.4585 242.887 43.4839 244.398 43.7176 244.147Z" fill="white"></path>
<path id="Vector_58" d="M42.9478 249.719C43.6463 246.701 43.9422 244.191 43.6086 244.114C43.275 244.037 42.4382 246.421 41.7397 249.44C41.0411 252.458 40.7453 254.968 41.0789 255.045C41.4125 255.122 42.2492 252.738 42.9478 249.719Z" fill="white"></path>
<path id="Vector_59" d="M43.6999 244.78C44.1197 244.78 44.4599 244.44 44.4599 244.02C44.4599 243.6 44.1197 243.26 43.6999 243.26C43.2802 243.26 42.9399 243.6 42.9399 244.02C42.9399 244.44 43.2802 244.78 43.6999 244.78Z" fill="#EF8619"></path>
<path id="Vector_60" d="M21.4499 260.67V256.84C21.3795 256.924 21.2915 256.991 21.1922 257.038C21.0929 257.084 20.9845 257.108 20.8749 257.108C20.7653 257.108 20.657 257.084 20.5576 257.038C20.4583 256.991 20.3703 256.924 20.2999 256.84V260.67L19.8999 272.56V274.26H21.8999V272.56L21.4499 260.67Z" fill="white"></path>
<path id="Vector_61" d="M26.4899 256.87C29.5882 256.87 32.0999 256.592 32.0999 256.25C32.0999 255.907 29.5882 255.63 26.4899 255.63C23.3916 255.63 20.8799 255.907 20.8799 256.25C20.8799 256.592 23.3916 256.87 26.4899 256.87Z" fill="white"></path>
<path id="Vector_62" d="M20.9584 256.239C21.255 256.068 20.2395 253.754 18.6904 251.07C17.1412 248.387 15.645 246.351 15.3485 246.522C15.0519 246.693 16.0674 249.007 17.6165 251.69C19.1657 254.374 20.6619 256.41 20.9584 256.239Z" fill="white"></path>
<path id="Vector_63" d="M18.6044 261.341C20.1536 258.657 21.1691 256.344 20.8725 256.172C20.576 256.001 19.0797 258.037 17.5306 260.721C15.9814 263.404 14.966 265.718 15.2625 265.889C15.5591 266.06 17.0553 264.024 18.6044 261.341Z" fill="white"></path>
<path id="Vector_64" d="M20.8801 256.97C21.2999 256.97 21.6401 256.63 21.6401 256.21C21.6401 255.79 21.2999 255.45 20.8801 255.45C20.4604 255.45 20.1201 255.79 20.1201 256.21C20.1201 256.63 20.4604 256.97 20.8801 256.97Z" fill="#EF8619"></path>
<path id="Vector_65" d="M52.55 253.69V249.91C52.4796 249.992 52.3922 250.059 52.2938 250.104C52.1954 250.149 52.0883 250.173 51.98 250.173C51.8717 250.173 51.7646 250.149 51.6662 250.104C51.5678 250.059 51.4804 249.992 51.41 249.91V253.69L51 265.42V267.13H52.92V265.45L52.55 253.69Z" fill="white"></path>
<path id="Vector_66" d="M48.347 253.301C50.641 251.276 52.3199 249.43 52.097 249.177C51.8741 248.925 49.8337 250.361 47.5397 252.386C45.2457 254.411 43.5667 256.257 43.7896 256.509C44.0125 256.762 46.053 255.325 48.347 253.301Z" fill="white"></path>
<path id="Vector_67" d="M52.0346 249.232C52.3648 249.165 52.141 246.68 51.5346 243.681C50.9283 240.682 50.1691 238.305 49.8389 238.371C49.5087 238.438 49.7325 240.923 50.3388 243.922C50.9452 246.921 51.7044 249.298 52.0346 249.232Z" fill="white"></path>
<path id="Vector_68" d="M62.537 252.628C62.6443 252.309 60.3801 251.26 57.4797 250.286C54.5794 249.311 52.1412 248.78 52.0339 249.099C51.9266 249.419 54.1908 250.468 57.0912 251.442C59.9916 252.416 62.4297 252.947 62.537 252.628Z" fill="white"></path>
<path id="Vector_69" d="M51.98 250.04C52.3942 250.04 52.73 249.704 52.73 249.29C52.73 248.876 52.3942 248.54 51.98 248.54C51.5658 248.54 51.23 248.876 51.23 249.29C51.23 249.704 51.5658 250.04 51.98 250.04Z" fill="#EF8619"></path>
</g>
<g id="Oberhausen">
<path id="Vector_70" d="M626 365.4V358.89C626 356.89 627 355.77 629 355.77C631 355.77 632 356.9 632 358.89V365.4C632 367.4 631 368.51 629 368.51C627 368.51 626 367.38 626 365.4ZM630 365.52V358.76C630 357.88 629.61 357.539 629 357.539C628.39 357.539 628 357.88 628 358.76V365.52C628 366.41 628.39 366.74 629 366.74C629.61 366.74 630 366.41 630 365.52Z" fill="white"></path>
<path id="Vector_71" d="M633.25 355.95H636.19C638.19 355.95 639.07 356.89 639.07 358.8V359.29C639.07 360.57 638.69 361.36 637.82 361.72C638.82 362.08 639.27 363 639.27 364.31V365.37C639.32 365.774 639.277 366.183 639.143 366.567C639.009 366.951 638.789 367.299 638.498 367.583C638.208 367.868 637.856 368.081 637.469 368.208C637.083 368.334 636.672 368.369 636.27 368.31H633.21L633.25 355.95ZM635.96 360.95C636.69 360.95 637.13 360.63 637.13 359.64V358.95C637.13 358.07 636.83 357.68 636.13 357.68H635.19V360.95H635.96ZM636.31 366.53C636.97 366.53 637.31 366.23 637.31 365.3V364.23C637.31 363.08 636.94 362.72 636.06 362.72H635.19V366.53H636.31Z" fill="white"></path>
<path id="Vector_72" d="M640.41 355.95H645.71V357.72H642.35V360.99H645V362.76H642.33V366.57H645.69V368.34H640.39L640.41 355.95Z" fill="white"></path>
<path id="Vector_73" d="M646.83 355.95H649.72C651.72 355.95 652.6 356.89 652.6 358.8V359.56C652.6 360.83 652.19 361.65 651.33 362C652.33 362.3 652.62 363.22 652.62 364.62V366.79C652.586 367.303 652.658 367.816 652.83 368.3H650.83C650.665 367.808 650.604 367.287 650.65 366.77V364.51C650.65 363.36 650.32 362.99 649.43 362.99H648.76V368.3H646.81L646.83 355.95ZM649.49 361.26C650.21 361.26 650.65 360.94 650.65 359.95V358.95C650.65 358.07 650.35 357.68 649.65 357.68H648.77V361.22L649.49 361.26Z" fill="white"></path>
<path id="Vector_74" d="M654 355.95H655.94V360.95H658V355.95H660V368.34H658V362.76H655.91V368.34H654V355.95Z" fill="white"></path>
<path id="Vector_75" d="M662.91 355.95H665.54L667.54 368.34H665.59L665.24 365.88H663.03L662.67 368.31H660.87L662.91 355.95ZM665 364.23L664.13 358.11L663.28 364.23H665Z" fill="white"></path>
<path id="Vector_76" d="M668.4 365.4V355.95H670.34V365.54C670.34 366.42 670.71 366.74 671.34 366.74C671.97 366.74 672.34 366.42 672.34 365.54V355.95H674.22V365.4C674.22 367.4 673.22 368.51 671.32 368.51C669.42 368.51 668.4 367.38 668.4 365.4Z" fill="white"></path>
<path id="Vector_77" d="M675.25 365.4V364.69H677.09V365.539C677.09 366.419 677.47 366.74 678.09 366.74C678.71 366.74 679.09 366.42 679.09 365.5C679.09 364.58 678.7 363.82 677.43 362.71C675.8 361.28 675.27 360.269 675.27 358.849C675.27 356.849 676.27 355.77 678.17 355.77C680.07 355.77 681 356.9 681 358.89V359.4H679.16V358.76C679.16 357.88 678.81 357.539 678.16 357.539C677.51 357.539 677.16 357.879 677.16 358.729C677.16 359.579 677.56 360.28 678.84 361.4C680.47 362.83 680.98 363.82 680.98 365.4C680.98 367.4 679.98 368.549 678.04 368.549C676.1 368.549 675.25 367.38 675.25 365.4Z" fill="white"></path>
<path id="Vector_78" d="M682.17 355.95H687.48V357.72H684.12V360.99H686.79V362.76H684.12V366.57H687.48V368.34H682.17V355.95Z" fill="white"></path>
<path id="Vector_79" d="M688.59 355.95H691L692.89 363.36V355.95H694.62V368.34H692.62L690.28 359.29V368.34H688.54L688.59 355.95Z" fill="white"></path>
<path id="Vector_80" d="M638.11 350.32C639.52 347.95 644.21 339.82 644.21 336.77C644.21 335.046 643.525 333.392 642.306 332.173C641.087 330.954 639.434 330.27 637.71 330.27C635.986 330.27 634.333 330.954 633.114 332.173C631.895 333.392 631.21 335.046 631.21 336.77C631.21 339.82 635.9 347.95 637.31 350.32C635.7 350.38 634.44 350.79 634.44 351.32C634.44 351.85 635.9 352.32 637.71 352.32C639.52 352.32 640.97 351.88 640.97 351.32C640.97 350.76 639.73 350.38 638.11 350.32ZM633.11 336.75C633.108 335.843 633.375 334.957 633.877 334.202C634.379 333.448 635.094 332.859 635.93 332.511C636.767 332.163 637.688 332.071 638.577 332.246C639.466 332.422 640.283 332.857 640.925 333.497C641.566 334.138 642.004 334.954 642.181 335.842C642.359 336.731 642.269 337.652 641.922 338.49C641.576 339.327 640.989 340.043 640.235 340.547C639.482 341.051 638.596 341.32 637.69 341.32C636.482 341.312 635.326 340.827 634.474 339.971C633.622 339.115 633.143 337.957 633.14 336.75H633.11Z" fill="#EF8619"></path>
<path id="Vector_81" d="M679.41 306.92C679.296 305.222 678.541 303.63 677.298 302.468C676.055 301.305 674.417 300.658 672.715 300.658C671.013 300.658 669.375 301.305 668.132 302.468C666.888 303.63 666.134 305.222 666.02 306.92H657.66V308.23H655.6V303.93H652.44V352.13H655.6V351.25H657.66V352.13H687.77V306.92H679.41ZM657.66 308.92V310.67H655.6V308.92H657.66ZM655.6 345.46V343.72H657.66V345.46H655.6ZM657.66 346.2V347.95H655.6V346.2H657.66ZM655.6 342.98V341.23H657.66V342.98H655.6ZM655.6 340.49V338.75H657.66V340.49H655.6ZM655.6 338.01V336.26H657.66V338.01H655.6ZM655.6 335.52V333.77H657.66V335.52H655.6ZM655.6 333.04V331.33H657.66V333.13L655.6 333.04ZM655.6 330.55V328.8H657.66V330.55H655.6ZM655.6 328.07V326.32H657.66V328.13L655.6 328.07ZM655.6 325.58V323.83H657.66V325.58H655.6ZM655.6 323.1V321.35H657.66V323.13L655.6 323.1ZM655.6 320.61V318.86H657.66V320.61H655.6ZM655.6 318.13V316.38H657.66V318.13H655.6ZM655.6 315.64V313.93H657.66V315.68L655.6 315.64ZM655.6 313.16V311.41H657.66V313.16H655.6ZM655.6 350.43V348.73H657.66V350.47L655.6 350.43Z" fill="white"></path>
<path id="Vector_82" d="M629.362 296.179L626.297 296.86L627.274 301.253L630.339 300.571L629.362 296.179Z" fill="white"></path>
<path id="Vector_83" d="M634.64 295L631.574 295.682L632.552 300.074L635.617 299.393L634.64 295Z" fill="white"></path>
<path id="Vector_84" d="M623.63 302.02L625.42 310.07L640.34 306.75L638.55 298.75L623.63 302.02ZM626.55 304.48C626.356 304.525 626.154 304.512 625.968 304.442C625.782 304.372 625.621 304.248 625.506 304.086C625.391 303.923 625.327 303.731 625.322 303.532C625.317 303.333 625.371 303.138 625.477 302.97C625.584 302.802 625.738 302.67 625.92 302.59C626.102 302.511 626.304 302.487 626.5 302.522C626.695 302.558 626.876 302.651 627.018 302.789C627.161 302.928 627.259 303.106 627.3 303.3C627.354 303.556 627.306 303.822 627.165 304.043C627.025 304.263 626.804 304.42 626.55 304.48V304.48ZM629.99 303.72C629.731 303.777 629.461 303.728 629.238 303.586C629.015 303.443 628.857 303.218 628.8 302.96C628.743 302.695 628.794 302.418 628.941 302.19C629.088 301.962 629.32 301.802 629.585 301.745C629.85 301.688 630.127 301.739 630.355 301.886C630.583 302.033 630.743 302.265 630.8 302.53C630.827 302.661 630.828 302.796 630.803 302.927C630.777 303.058 630.726 303.183 630.651 303.294C630.577 303.405 630.481 303.5 630.369 303.573C630.257 303.646 630.131 303.696 630 303.72H629.99ZM633.43 302.95C633.237 302.993 633.035 302.978 632.851 302.906C632.666 302.834 632.507 302.709 632.394 302.547C632.28 302.385 632.217 302.193 632.213 301.995C632.209 301.797 632.264 301.602 632.37 301.436C632.477 301.269 632.63 301.137 632.812 301.058C632.993 300.978 633.194 300.955 633.389 300.989C633.583 301.024 633.764 301.116 633.906 301.253C634.049 301.39 634.148 301.567 634.19 301.76C634.246 302.019 634.198 302.289 634.056 302.512C633.913 302.735 633.688 302.893 633.43 302.95V302.95ZM636.87 302.19C636.618 302.231 636.359 302.174 636.148 302.03C635.937 301.887 635.788 301.668 635.733 301.418C635.678 301.169 635.721 300.908 635.852 300.689C635.984 300.469 636.194 300.309 636.44 300.24C636.571 300.203 636.708 300.194 636.843 300.212C636.978 300.23 637.107 300.275 637.224 300.345C637.341 300.415 637.442 300.508 637.521 300.619C637.601 300.729 637.657 300.855 637.686 300.988C637.716 301.12 637.717 301.258 637.692 301.391C637.666 301.525 637.613 301.652 637.537 301.765C637.461 301.877 637.362 301.973 637.247 302.046C637.133 302.119 637.004 302.168 636.87 302.19Z" fill="#EF8619"></path>
<path id="Vector_85" d="M642.43 303.33L643.01 310.52L623.63 314.83L618.29 307.28L626.24 305.51L642.43 303.33Z" fill="white"></path>
</g>
<path id="Vector_86" d="M181.581 517.985L186.376 517.494L185.672 510.63L180.878 511.121L181.581 517.985Z" fill="white"></path>
<path id="Vector_87" d="M173.321 518.828L178.116 518.337L177.413 511.473L172.618 511.964L173.321 518.828Z" fill="white"></path>
<path id="Vector_88" d="M168.72 519.31L170 531.88L193.32 529.49L192 516.92L168.72 519.31ZM187.3 520.55C187.27 520.249 187.33 519.946 187.472 519.679C187.614 519.412 187.832 519.193 188.098 519.05C188.365 518.907 188.667 518.846 188.968 518.875C189.269 518.904 189.555 519.021 189.789 519.212C190.024 519.403 190.196 519.66 190.285 519.949C190.374 520.238 190.375 520.547 190.288 520.836C190.202 521.126 190.031 521.384 189.798 521.576C189.566 521.769 189.281 521.889 188.98 521.92C188.576 521.959 188.173 521.837 187.858 521.581C187.543 521.324 187.343 520.954 187.3 520.55ZM181.93 521.11C181.9 520.811 181.959 520.51 182.1 520.245C182.241 519.98 182.458 519.762 182.722 519.62C182.987 519.477 183.287 519.416 183.586 519.445C183.885 519.473 184.169 519.59 184.402 519.78C184.635 519.969 184.807 520.224 184.895 520.511C184.983 520.798 184.985 521.105 184.899 521.392C184.813 521.68 184.644 521.936 184.413 522.128C184.182 522.32 183.899 522.439 183.6 522.47C183.202 522.509 182.804 522.391 182.492 522.141C182.179 521.89 181.978 521.527 181.93 521.13V521.11ZM176.55 521.66C176.52 521.361 176.579 521.06 176.72 520.795C176.861 520.529 177.078 520.312 177.342 520.17C177.607 520.027 177.907 519.967 178.206 519.995C178.505 520.023 178.789 520.14 179.022 520.33C179.255 520.519 179.427 520.774 179.515 521.061C179.603 521.348 179.605 521.655 179.519 521.942C179.433 522.23 179.264 522.486 179.033 522.678C178.802 522.87 178.519 522.989 178.22 523.02C177.819 523.059 177.418 522.938 177.105 522.684C176.792 522.429 176.593 522.061 176.55 521.66V521.66ZM171.17 522.21C171.138 521.909 171.196 521.605 171.337 521.337C171.477 521.069 171.694 520.849 171.96 520.704C172.226 520.559 172.529 520.497 172.831 520.525C173.132 520.552 173.419 520.669 173.654 520.859C173.889 521.049 174.063 521.305 174.153 521.595C174.242 521.884 174.244 522.193 174.158 522.483C174.072 522.774 173.902 523.032 173.669 523.225C173.436 523.419 173.151 523.539 172.85 523.57C172.447 523.612 172.044 523.492 171.729 523.237C171.414 522.982 171.213 522.613 171.17 522.21V522.21Z" fill="#EF8619"></path>
<path id="Vector_89" d="M165.32 527.92L167.95 538.67L198.22 535.56L202.34 521.99L189.93 523.26L165.32 527.92Z" fill="white"></path>
<path id="Vector_90" d="M298.23 102.42C259.09 133.78 267.32 191.49 339.49 205.24C375.94 212.19 393.75 207.35 397.7 198.74C401.65 190.13 362.33 170.59 290.31 216.56C229.59 255.32 101.69 234.18 72.1301 263.77C62.3201 273.6 67.9901 289 137.19 286.38C206.39 283.76 311.36 259.31 350.83 259.69C390.3 260.07 432.36 281.13 480.7 281.13C555.54 281.13 673 157.23 703.81 226.01C728.49 281.12 635.52 304.29 570.47 279.51C520.7 260.51 481.92 220.51 484.75 184.17C488.21 139.91 532.15 122.32 571.43 121.76C610.71 121.2 636.23 146.55 669 141.5C695.44 137.43 717 132 722 96.5" stroke="#EF8619" stroke-width="2" stroke-miterlimit="10" stroke-dasharray="10 10"></path>
<g id="D&#195;&#188;sseldorf">
<path id="Vector_91" d="M324.47 105.05H327.47C329.41 105.05 330.37 106.14 330.37 108.12V114.38C330.37 116.38 329.37 117.44 327.47 117.44H324.47V105.05ZM327.41 115.67C328.03 115.67 328.41 115.35 328.41 114.47V108.03C328.41 107.14 328.04 106.83 327.41 106.83H326.41V115.67H327.41Z" fill="white"></path>
<path id="Vector_92" d="M331.59 114.5V105.05H333.59V114.65C333.59 115.53 333.96 115.85 334.59 115.85C335.22 115.85 335.59 115.53 335.59 114.65V105.05H337.47V114.5C337.47 116.5 336.47 117.62 334.56 117.62C332.65 117.62 331.59 116.49 331.59 114.5ZM332.26 102.42H334V104.22H332.26V102.42ZM334.99 102.42H336.72V104.22H335L334.99 102.42Z" fill="white"></path>
<path id="Vector_93" d="M338.44 114.5V113.8H340.28V114.65C340.28 115.53 340.67 115.85 341.28 115.85C341.89 115.85 342.28 115.53 342.28 114.61C342.28 113.69 341.89 112.93 340.62 111.81C338.99 110.38 338.46 109.37 338.46 107.96C338.46 105.96 339.46 104.88 341.36 104.88C343.26 104.88 344.19 106.01 344.19 107.99V108.51H342.35V107.87C342.35 106.98 342 106.65 341.35 106.65C340.7 106.65 340.35 106.98 340.35 107.83C340.35 108.68 340.76 109.39 342.04 110.5C343.66 111.94 344.18 112.93 344.18 114.5C344.18 116.5 343.18 117.65 341.24 117.65C339.3 117.65 338.44 116.49 338.44 114.5Z" fill="white"></path>
<path id="Vector_94" d="M345 114.5V113.8H346.84V114.65C346.84 115.53 347.23 115.85 347.84 115.85C348.45 115.85 348.84 115.53 348.84 114.61C348.84 113.69 348.45 112.93 347.17 111.81C345.54 110.38 345.01 109.37 345.01 107.96C345.01 105.96 346.01 104.88 347.92 104.88C349.83 104.88 350.75 106.01 350.75 107.99V108.51H349V107.87C349 106.98 348.64 106.65 348 106.65C347.36 106.65 347 106.98 347 107.83C347 108.68 347.41 109.39 348.68 110.5C350.31 111.94 350.82 112.93 350.82 114.5C350.82 116.5 349.82 117.65 347.88 117.65C345.94 117.65 345 116.49 345 114.5Z" fill="white"></path>
<path id="Vector_95" d="M352 105.05H357.31V106.83H353.9V110.13H356.57V111.9H353.9V115.7H357.26V117.47H352V105.05Z" fill="white"></path>
<path id="Vector_96" d="M358.38 105.05H360.32V115.67H363.53V117.44H358.38V105.05Z" fill="white"></path>
<path id="Vector_97" d="M364.47 105.05H367.47C369.42 105.05 370.37 106.14 370.37 108.12V114.38C370.37 116.38 369.42 117.44 367.47 117.44H364.47V105.05ZM367.4 115.67C368.02 115.67 368.4 115.35 368.4 114.47V108.03C368.4 107.14 368.02 106.83 367.4 106.83H366.4V115.67H367.4Z" fill="white"></path>
<path id="Vector_98" d="M371.51 114.5V107.99C371.51 105.99 372.56 104.88 374.51 104.88C376.46 104.88 377.46 106.01 377.46 107.99V114.5C377.46 116.5 376.46 117.62 374.51 117.62C372.56 117.62 371.51 116.49 371.51 114.5ZM375.51 114.63V107.87C375.51 106.98 375.12 106.65 374.51 106.65C373.9 106.65 373.51 106.98 373.51 107.87V114.63C373.51 115.51 373.9 115.85 374.51 115.85C375.12 115.85 375.48 115.51 375.48 114.63H375.51Z" fill="white"></path>
<path id="Vector_99" d="M378.74 105.05H381.62C383.62 105.05 384.5 105.99 384.5 107.9V108.67C384.5 109.94 384.1 110.75 383.23 111.11C384.23 111.41 384.52 112.33 384.52 113.73V115.91C384.486 116.419 384.558 116.93 384.73 117.41H382.73C382.576 116.919 382.518 116.403 382.56 115.89V113.62C382.56 112.47 382.22 112.1 381.33 112.1H380.66V117.41H378.72L378.74 105.05ZM381.39 110.36C382.12 110.36 382.56 110.05 382.56 109.05V108.13C382.56 107.24 382.26 106.86 381.56 106.86H380.67V110.39L381.39 110.36Z" fill="white"></path>
<path id="Vector_100" d="M385.87 105.05H391V106.83H387.8V110.27H390.31V112.04H387.8V117.44H385.85L385.87 105.05Z" fill="white"></path>
<path id="Vector_101" d="M357.78 144.2C359.19 141.83 363.89 133.7 363.89 130.65C363.89 128.926 363.205 127.273 361.986 126.054C360.767 124.835 359.114 124.15 357.39 124.15C355.666 124.15 354.013 124.835 352.794 126.054C351.575 127.273 350.89 128.926 350.89 130.65C350.89 133.7 355.59 141.83 356.99 144.2C355.38 144.26 354.13 144.67 354.13 145.2C354.13 145.73 355.59 146.2 357.39 146.2C359.19 146.2 360.65 145.76 360.65 145.2C360.65 144.64 359.4 144.26 357.78 144.2ZM352.78 130.63C352.78 129.727 353.048 128.843 353.55 128.091C354.052 127.34 354.766 126.754 355.601 126.408C356.436 126.062 357.355 125.972 358.242 126.148C359.128 126.325 359.942 126.76 360.582 127.399C361.221 128.038 361.656 128.852 361.832 129.739C362.009 130.625 361.918 131.544 361.572 132.379C361.226 133.214 360.641 133.928 359.889 134.43C359.138 134.932 358.254 135.2 357.35 135.2C356.144 135.192 354.991 134.707 354.142 133.851C353.293 132.994 352.817 131.836 352.82 130.63H352.78Z" fill="#EF8619"></path>
<path id="Vector_102" d="M358.88 190.24C358.993 192.48 359.097 194.72 359.19 196.96C359.27 198.85 359.35 200.75 359.44 202.64L359.74 209.54L359.98 214.97C360.07 217.11 360.17 219.24 360.26 221.37C360.37 223.69 360.47 226.02 360.57 228.37C360.66 230.37 360.74 232.28 360.82 234.24L361.12 240.87C361.21 242.78 361.29 244.69 361.37 246.6C361.37 247.16 361.42 247.73 361.45 248.3C361.462 248.357 361.453 248.416 361.423 248.466C361.393 248.517 361.346 248.554 361.29 248.57C360.608 248.844 359.906 249.065 359.19 249.23C358.75 249.29 358.31 249.37 357.86 249.4C357.41 249.43 356.97 249.4 356.53 249.4C355.605 249.3 354.701 249.057 353.85 248.68C353.48 248.52 353.48 248.52 353.49 248.13C353.495 248.093 353.495 248.056 353.49 248.02L353.7 242.45L354.06 232.34C354.17 229.34 354.27 226.34 354.38 223.34C354.52 219.74 354.653 216.143 354.78 212.55C354.88 209.76 354.97 206.98 355.08 204.19C355.19 201.4 355.28 198.73 355.38 196C355.45 194.1 355.51 192.21 355.58 190.31C355.586 190.173 355.551 190.037 355.48 189.92" fill="white"></path>
<path id="Vector_103" d="M355.47 189.87L351.64 182.72C351.614 182.668 351.584 182.617 351.55 182.57L349.39 178.52L349.23 178.22C349.05 177.88 349.05 177.88 349.39 177.7C349.891 177.454 350.405 177.237 350.93 177.05C351.01 176.94 351.14 176.93 351.26 176.89C352.24 176.608 353.244 176.42 354.26 176.33C355.342 176.208 356.431 176.161 357.52 176.19C359.54 176.208 361.553 176.449 363.52 176.91C363.62 176.91 363.74 176.91 363.81 177.05C364.12 177.18 364.46 177.25 364.81 177.41C364.91 177.464 365.007 177.524 365.1 177.59C365.133 177.608 365.162 177.633 365.184 177.663C365.207 177.693 365.223 177.728 365.232 177.765C365.24 177.802 365.241 177.84 365.234 177.877C365.226 177.914 365.212 177.949 365.19 177.98L359 189.91C358.944 190.011 358.917 190.125 358.92 190.24" fill="white"></path>
<path id="Vector_104" d="M360.22 169.77C360.948 169.975 361.655 170.25 362.33 170.59C362.6 170.68 362.65 170.89 362.65 171.14C362.678 171.662 362.534 172.179 362.24 172.61C362.18 172.69 362.12 172.75 362.02 172.71C361.916 172.745 361.804 172.745 361.7 172.71C360.795 172.513 359.875 172.386 358.95 172.33C358.43 172.33 357.95 172.33 357.39 172.33C355.79 172.348 354.194 172.502 352.62 172.79C352.12 172.87 352.06 172.86 351.83 172.42C351.638 172.176 351.542 171.87 351.56 171.56C351.56 170.86 351.56 170.86 352.2 170.56C353.335 170.083 354.523 169.747 355.74 169.56C355.86 169.56 355.9 169.48 355.9 169.36C355.96 168.36 356.02 167.36 356.07 166.28C356.15 164.78 356.22 163.28 356.32 161.78C356.403 161.258 356.527 160.743 356.69 160.24C356.733 160.077 356.756 159.909 356.76 159.74C356.76 156.84 356.76 153.937 356.76 151.03C356.754 150.951 356.772 150.871 356.814 150.803C356.855 150.735 356.917 150.682 356.99 150.65C357.14 150.57 357.26 150.65 357.39 150.73C357.52 150.81 357.47 150.92 357.48 151.02C357.48 152.64 357.48 154.26 357.55 155.88L357.61 159.8C357.64 160.141 357.711 160.476 357.82 160.8C358.012 161.583 358.119 162.384 358.14 163.19L358.44 167.09C358.5 167.82 358.56 168.56 358.6 169.29C358.6 169.46 358.66 169.53 358.84 169.56C359.27 169.56 359.74 169.67 360.22 169.77Z" fill="white"></path>
<path id="Vector_105" d="M351 176.13C350.493 175.669 350.143 175.06 350 174.39C349.983 174.346 349.976 174.298 349.98 174.25C349.984 174.203 349.998 174.157 350.022 174.116C350.046 174.074 350.079 174.039 350.119 174.012C350.158 173.985 350.203 173.968 350.25 173.96C350.52 173.88 350.77 173.75 351.03 173.65C351.09 173.54 351.21 173.52 351.31 173.49C352.688 173.044 354.109 172.745 355.55 172.6C356.547 172.505 357.55 172.482 358.55 172.53C359.616 172.566 360.676 172.716 361.71 172.98C361.811 172.986 361.907 173.029 361.98 173.1C362.7 173.297 363.405 173.545 364.09 173.84L364.36 173.97C364.68 174.12 364.71 174.18 364.63 174.54C364.473 175.078 364.18 175.567 363.78 175.96L363.63 176.13C363.576 176.264 363.475 176.372 363.345 176.435C363.216 176.498 363.068 176.51 362.93 176.47C361.797 176.239 360.652 176.072 359.5 175.97C358.36 175.857 357.215 175.814 356.07 175.84C354.641 175.851 353.221 176.059 351.85 176.46C351.692 176.514 351.52 176.51 351.365 176.45C351.21 176.389 351.08 176.276 351 176.13V176.13Z" fill="#E2A558"></path>
</g>
<g id="Essen">
<path id="Vector_106" d="M671.65 96.0498H677V97.8198H673.64V101.13H676.31V102.9H673.64V106.7H677V108.47H671.7L671.65 96.0498Z" fill="white"></path>
<path id="Vector_107" d="M677.77 105.5V104.79H679.61V105.64C679.61 106.52 680 106.84 680.61 106.84C681.22 106.84 681.61 106.52 681.61 105.6C681.61 104.68 681.22 103.92 679.95 102.81C678.32 101.37 677.79 100.36 677.79 98.9501C677.79 96.9501 678.79 95.8701 680.69 95.8701C682.59 95.8701 683.52 97.0001 683.52 98.9801V99.5001H681.7V98.8601C681.7 97.9801 681.35 97.6401 680.7 97.6401C680.05 97.6401 679.7 97.9801 679.7 98.8301C679.7 99.6801 680.11 100.38 681.38 101.5C683.01 102.93 683.53 103.92 683.53 105.5C683.53 107.5 682.53 108.65 680.59 108.65C678.65 108.65 677.77 107.48 677.77 105.5Z" fill="white"></path>
<path id="Vector_108" d="M684.36 105.5V104.79H686.2V105.64C686.2 106.52 686.59 106.84 687.2 106.84C687.81 106.84 688.2 106.52 688.2 105.6C688.2 104.68 687.82 103.92 686.54 102.81C684.91 101.37 684.38 100.36 684.38 98.9501C684.38 96.9501 685.38 95.8701 687.28 95.8701C689.18 95.8701 690.12 97.0001 690.12 98.9801V99.5001H688.28V98.8601C688.28 97.9801 687.92 97.6401 687.28 97.6401C686.64 97.6401 686.28 97.9801 686.28 98.8301C686.28 99.6801 686.69 100.38 687.96 101.5C689.59 102.93 690.1 103.92 690.1 105.5C690.1 107.5 689.1 108.65 687.16 108.65C685.22 108.65 684.36 107.48 684.36 105.5Z" fill="white"></path>
<path id="Vector_109" d="M691.28 96.0498H696.59V97.8198H693.23V101.13H695.9V102.9H693.23V106.7H696.59V108.47H691.28V96.0498Z" fill="white"></path>
<path id="Vector_110" d="M697.71 96.0498H700.15L702.04 103.46V96.0498H703.77V108.43H701.77L699.44 99.4298V108.43H697.71V96.0498Z" fill="white"></path>
<path id="Vector_111" d="M722.39 94.0197C723.8 91.6497 728.49 83.5197 728.49 80.4697C728.49 78.7458 727.805 77.0925 726.586 75.8735C725.367 74.6545 723.714 73.9697 721.99 73.9697C720.266 73.9697 718.613 74.6545 717.394 75.8735C716.175 77.0925 715.49 78.7458 715.49 80.4697C715.49 83.4697 720.19 91.6497 721.6 94.0197C719.98 94.0797 718.73 94.4897 718.73 95.0197C718.73 95.5497 720.19 96.0197 721.99 96.0197C723.79 96.0197 725.25 95.5797 725.25 95.0197C725.25 94.4597 724 94.1297 722.39 94.0197ZM717.39 80.4497C717.39 79.5458 717.658 78.6623 718.16 77.9108C718.662 77.1592 719.376 76.5735 720.211 76.2276C721.046 75.8817 721.965 75.7912 722.852 75.9675C723.738 76.1439 724.552 76.5791 725.191 77.2182C725.831 77.8573 726.266 78.6717 726.442 79.5582C726.619 80.4447 726.528 81.3635 726.182 82.1985C725.836 83.0336 725.25 83.7474 724.499 84.2495C723.747 84.7517 722.864 85.0197 721.96 85.0197C720.754 85.0092 719.601 84.5233 718.751 83.6677C717.901 82.8121 717.423 81.6558 717.42 80.4497H717.39Z" fill="#EF8619"></path>
<path id="Vector_112" d="M694.62 60.1298C694.472 58.3435 694.452 56.549 694.56 54.7598C694.72 54.5998 698.56 54.1798 698.56 54.1798L699.15 51.0898V50.2998H676.27V51.0898L676.85 54.1798C676.85 54.1798 680.73 54.5998 680.85 54.7598C680.983 56.5473 680.983 58.3423 680.85 60.1298C680.74 60.7098 666.19 91.5798 666.19 91.5798H669.27L678.44 72.4898H685.77V91.6298H689.7V72.4398H697L706.17 91.5298H709.25C709.25 91.5298 694.72 60.6598 694.62 60.1298ZM695.62 51.6798C696.46 51.6426 697.295 51.5186 698.11 51.3098L697.79 53.2198H694.45C694.368 53.0392 694.336 52.8403 694.355 52.643C694.375 52.4457 694.446 52.2571 694.561 52.096C694.677 51.9349 694.833 51.807 695.013 51.7252C695.194 51.6433 695.393 51.6105 695.59 51.6298L695.62 51.6798ZM682.43 52.4798C682.5 51.8998 683.2 51.7998 683.2 51.7998H692.2C692.2 51.7998 692.9 51.8998 692.97 52.4798C693.016 52.7243 693.016 52.9753 692.97 53.2198H682.4C682.347 52.9591 682.347 52.6905 682.4 52.4298L682.43 52.4798ZM681 53.1298H677.65L677.33 51.2198C678.148 51.4291 678.986 51.5531 679.83 51.5898C680.023 51.5721 680.217 51.6038 680.394 51.6817C680.571 51.7597 680.725 51.8814 680.842 52.0354C680.959 52.1894 681.035 52.3707 681.062 52.5622C681.09 52.7537 681.069 52.949 681 53.1298V53.1298ZM685.9 69.3798H679.9L682.33 64.5598C682.458 64.3243 682.645 64.1265 682.873 63.9861C683.101 63.8458 683.362 63.7677 683.63 63.7598C684.56 63.7598 685.92 63.7598 685.92 63.7598L685.9 69.3798ZM687.33 58.6998H683.25C683.123 58.6915 683.002 58.6451 682.902 58.5665C682.802 58.488 682.728 58.3811 682.69 58.2598C682.69 58.2598 682.69 56.0698 682.69 55.3598C682.692 55.2661 682.714 55.1739 682.753 55.0886C682.791 55.0033 682.847 54.9266 682.916 54.8632C682.985 54.7998 683.066 54.7509 683.154 54.7194C683.243 54.6879 683.336 54.6744 683.43 54.6798H692C692.094 54.6758 692.187 54.6906 692.275 54.7233C692.362 54.7561 692.443 54.8061 692.511 54.8705C692.579 54.9348 692.633 55.0121 692.671 55.0979C692.709 55.1837 692.729 55.2762 692.73 55.3698C692.73 56.0798 692.73 58.2598 692.73 58.2598C692.696 58.3818 692.625 58.49 692.526 58.569C692.428 58.6481 692.306 58.6938 692.18 58.6998H687.33ZM689.51 69.3798V63.7798C689.51 63.7798 690.86 63.7198 691.8 63.7798C692.066 63.7894 692.325 63.8682 692.551 64.0085C692.777 64.1488 692.963 64.3458 693.09 64.5798L695.52 69.3998L689.51 69.3798Z" fill="white"></path>
<path id="Vector_113" d="M681.94 55.5801C681.271 55.5801 680.617 55.7786 680.061 56.1504C679.505 56.5222 679.072 57.0508 678.816 57.669C678.561 58.2872 678.495 58.9673 678.626 59.6232C678.757 60.2791 679.08 60.8814 679.554 61.3537C680.027 61.826 680.63 62.147 681.287 62.2763C681.943 62.4056 682.623 62.3373 683.24 62.0799C683.858 61.8226 684.385 61.3878 684.755 60.8306C685.126 60.2735 685.322 59.619 685.32 58.9501C685.32 58.5067 685.233 58.0676 685.063 57.6581C684.893 57.2486 684.643 56.8767 684.329 56.5636C684.015 56.2505 683.643 56.0025 683.233 55.8338C682.823 55.665 682.383 55.5788 681.94 55.5801ZM682.31 56.3501C682.748 56.4153 683.164 56.587 683.52 56.8501L682.31 58.0601V56.3501ZM681.57 58.0601L680.37 56.8501C680.722 56.5856 681.135 56.4137 681.57 56.3501V58.0601ZM681.05 58.5801H679.34C679.404 58.1446 679.576 57.7319 679.84 57.3801L681.05 58.5801ZM681.05 59.3201L679.84 60.5301C679.577 60.1737 679.405 59.7582 679.34 59.3201H681.05ZM681.57 59.8401V61.5501C681.133 61.4912 680.719 61.3188 680.37 61.0501L681.57 59.8401ZM682.31 59.8401L683.52 61.0501C683.166 61.3172 682.749 61.4893 682.31 61.5501V59.8401ZM682.83 59.3201H684.54C684.479 59.7595 684.307 60.176 684.04 60.5301L682.83 59.3201ZM682.83 58.5801L684.04 57.3801C684.309 57.7295 684.481 58.1432 684.54 58.5801H682.83Z" fill="#E2A558"></path>
<path id="Vector_114" d="M697 58.8402C697.002 58.1709 696.805 57.516 696.434 56.9586C696.064 56.4013 695.536 55.9665 694.918 55.7094C694.3 55.4524 693.62 55.3846 692.963 55.5147C692.306 55.6448 691.703 55.9669 691.23 56.4402C690.757 56.9135 690.435 57.5166 690.304 58.1732C690.174 58.8298 690.242 59.5103 690.499 60.1283C690.756 60.7463 691.191 61.2741 691.748 61.6447C692.306 62.0154 692.961 62.2122 693.63 62.2102C694.524 62.2102 695.381 61.8551 696.013 61.2231C696.645 60.5911 697 59.734 697 58.8402ZM694.52 59.2102H696.23C696.165 59.6503 695.99 60.0667 695.72 60.4202L694.52 59.2102ZM695.2 60.9402C694.847 61.2089 694.43 61.3812 693.99 61.4402V59.7302L695.2 60.9402ZM694.52 58.4702L695.73 57.2602C695.993 57.6166 696.165 58.0321 696.23 58.4702H694.52ZM693.99 57.9502V56.2402C694.429 56.3038 694.844 56.4757 695.2 56.7402L693.99 57.9502ZM693.26 57.9502L692 56.7402C692.356 56.4771 692.772 56.3054 693.21 56.2402L693.26 57.9502ZM692.74 58.4702H691C691.061 58.0308 691.233 57.6143 691.5 57.2602L692.74 58.4702ZM692.74 59.2102L691.53 60.4202C691.263 60.0661 691.091 59.6496 691.03 59.2102H692.74ZM693.26 59.7302V61.4402C692.821 61.3795 692.404 61.2073 692.05 60.9402L693.26 59.7302Z" fill="#E2A558"></path>
<path id="Vector_115" d="M677.59 66.4102C676.7 66.4082 675.829 66.6704 675.087 67.1636C674.346 67.6569 673.768 68.359 673.426 69.1811C673.083 70.0032 672.993 70.9083 673.165 71.7819C673.338 72.6554 673.766 73.4582 674.395 74.0886C675.024 74.7189 675.825 75.1485 676.699 75.3229C677.572 75.4974 678.477 75.4089 679.3 75.0686C680.123 74.7283 680.826 74.1515 681.321 73.4113C681.816 72.671 682.08 71.8006 682.08 70.9102C682.077 69.7192 681.604 68.5776 680.763 67.7346C679.922 66.8915 678.781 66.4154 677.59 66.4102V66.4102ZM677.96 67.1901C678.693 67.2618 679.388 67.5469 679.96 68.0101L677.96 70.0101V67.1901ZM677.22 70.0202L675.22 68.0202C675.79 67.5533 676.486 67.2677 677.22 67.2001V70.0202ZM676.7 70.5401H673.86C673.936 69.8068 674.224 69.1116 674.69 68.5401L676.7 70.5401ZM676.7 71.2802L674.7 73.2802C674.238 72.7066 673.95 72.0125 673.87 71.2802H676.7ZM677.22 71.8001V74.6301C676.486 74.5591 675.789 74.27 675.22 73.8001L677.22 71.8001ZM677.96 71.8001L679.96 73.8001C679.389 74.2664 678.694 74.555 677.96 74.6301V71.8001ZM678.48 71.2802H681.31C681.235 72.0136 680.946 72.709 680.48 73.2802L678.48 71.2802ZM678.48 70.5401L680.48 68.5401C680.95 69.1091 681.239 69.8056 681.31 70.5401H678.48Z" fill="#E2A558"></path>
<path id="Vector_116" d="M697.37 66.4102C696.48 66.4102 695.61 66.6741 694.87 67.1685C694.13 67.663 693.553 68.3658 693.213 69.188C692.872 70.0103 692.783 70.9151 692.957 71.788C693.13 72.6609 693.559 73.4628 694.188 74.0921C694.817 74.7214 695.619 75.15 696.492 75.3237C697.365 75.4973 698.27 75.4082 699.092 75.0676C699.914 74.727 700.617 74.1502 701.112 73.4102C701.606 72.6702 701.87 71.8002 701.87 70.9102C701.867 69.7175 701.393 68.5744 700.549 67.7311C699.706 66.8877 698.563 66.4128 697.37 66.4102V66.4102ZM697.74 67.1901C698.473 67.2595 699.169 67.5449 699.74 68.0101L697.74 70.0101V67.1901ZM697 70.0201L695 68.0201C695.568 67.5481 696.265 67.2587 697 67.1901V70.0201ZM696.48 70.5401H693.65C693.717 69.8045 694.006 69.1068 694.48 68.5401L696.48 70.5401ZM696.48 71.2802L694.48 73.2802C694.01 72.7115 693.721 72.0148 693.65 71.2802H696.48ZM697 71.8001V74.6301C696.266 74.5573 695.57 74.2685 695 73.8001L697 71.8001ZM697.74 71.8001L699.74 73.8001C699.17 74.2685 698.474 74.5573 697.74 74.6301V71.8001ZM698.26 71.2802H701.09C701.02 72.0148 700.731 72.7115 700.26 73.2802L698.26 71.2802ZM698.26 70.5401L700.26 68.5401C700.734 69.1068 701.023 69.8045 701.09 70.5401H698.26Z" fill="#E2A558"></path>
<path id="Vector_117" d="M697.5 78.21H677.61V91.7199H697.5V78.21Z" fill="white"></path>
</g>
<g id="Duisburg">
<path id="Vector_118" d="M504.73 191.66H507.73C509.67 191.66 510.63 192.74 510.63 194.72V200.99C510.63 202.99 509.63 204.05 507.73 204.05H504.73V191.66ZM507.66 202.28C508.28 202.28 508.66 201.96 508.66 201.08V194.64C508.66 193.75 508.29 193.43 507.66 193.43H506.66V202.28H507.66Z" fill="white"></path>
<path id="Vector_119" d="M511.84 201.13V191.68H513.79V201.27C513.79 202.16 514.16 202.48 514.79 202.48C515.42 202.48 515.79 202.16 515.79 201.27V191.68H517.67V201.13C517.67 203.13 516.67 204.25 514.76 204.25C512.85 204.25 511.84 203.13 511.84 201.13Z" fill="white"></path>
<path id="Vector_120" d="M519 191.66H521V204.05H519V191.66Z" fill="white"></path>
<path id="Vector_121" d="M522.09 201.13V200.42H523.93V201.27C523.93 202.16 524.32 202.48 524.93 202.48C525.54 202.48 525.93 202.16 525.93 201.24C525.93 200.32 525.54 199.56 524.27 198.44C522.64 197.01 522.11 196 522.11 194.58C522.11 192.64 523.11 191.51 525.01 191.51C526.91 191.51 527.84 192.64 527.84 194.62V195.13H526V194.5C526 193.61 525.65 193.28 525 193.28C524.35 193.28 524 193.61 524 194.46C524 195.31 524.41 196.02 525.68 197.13C527.31 198.57 527.83 199.56 527.83 201.13C527.83 203.13 526.83 204.28 524.89 204.28C522.95 204.28 522.09 203.13 522.09 201.13Z" fill="white"></path>
<path id="Vector_122" d="M529 191.66H532C534 191.66 534.89 192.6 534.89 194.51V195.01C534.89 196.28 534.5 197.08 533.63 197.43C534.63 197.78 535.08 198.7 535.08 200.01V201.13C535.13 201.534 535.087 201.943 534.953 202.327C534.819 202.711 534.599 203.059 534.308 203.343C534.018 203.628 533.666 203.841 533.279 203.967C532.893 204.094 532.482 204.129 532.08 204.07H529V191.66ZM531.71 196.71C532.44 196.71 532.88 196.39 532.88 195.4V194.71C532.88 193.82 532.58 193.43 531.88 193.43H531V196.71H531.71ZM532.06 202.28C532.72 202.28 533.06 201.98 533.06 201.06V199.98C533.06 198.83 532.69 198.48 531.81 198.48H531V202.28H532.06Z" fill="white"></path>
<path id="Vector_123" d="M536.1 201.13V191.68H538V201.27C538 202.16 538.37 202.48 539 202.48C539.63 202.48 540 202.16 540 201.27V191.68H541.88V201.13C541.88 203.13 540.88 204.25 538.98 204.25C537.08 204.25 536.1 203.13 536.1 201.13Z" fill="white"></path>
<path id="Vector_124" d="M543.28 191.66H546.17C548.17 191.66 549.05 192.6 549.05 194.51V195.27C549.125 195.76 549.043 196.262 548.815 196.702C548.586 197.143 548.224 197.499 547.78 197.72V197.72C548.78 198.02 549.07 198.94 549.07 200.34V202.52C549.036 203.029 549.108 203.54 549.28 204.02H547.28C547.115 203.532 547.053 203.014 547.1 202.5V200.23C547.1 199.08 546.77 198.71 545.88 198.71H545.21V204.02H543.21L543.28 191.66ZM545.94 196.97C546.66 196.97 547.1 196.65 547.1 195.66V194.71C547.1 193.82 546.8 193.43 546.1 193.43H545.22V196.97H545.94Z" fill="white"></path>
<path id="Vector_125" d="M550.28 201.13V194.62C550.28 192.62 551.28 191.51 553.18 191.51C555.08 191.51 556.08 192.64 556.08 194.62V195.68H554.24V194.5C554.24 193.61 553.85 193.28 553.24 193.28C552.63 193.28 552.24 193.61 552.24 194.5V201.27C552.24 202.16 552.63 202.48 553.24 202.48C553.85 202.48 554.24 202.16 554.24 201.27V198.83H553.24V197.06H556.05V201.13C556.05 203.13 555.05 204.25 553.15 204.25C551.25 204.25 550.28 203.13 550.28 201.13Z" fill="white"></path>
<path id="Vector_126" d="M557.06 196.97H561V198.74H557.11L557.06 196.97Z" fill="white"></path>
<path id="Vector_127" d="M562.12 191.66H564.12V196.71H566.2V191.66H568.2V204.05H566.2V198.48H564.12V204.05H562.12V191.66Z" fill="white"></path>
<path id="Vector_128" d="M571.06 191.66H573.7L575.7 204.05H573.76L573.4 201.59H571.2L570.85 204.01H569L571.06 191.66ZM573.18 199.94L572.32 193.82L571.47 199.94H573.18Z" fill="white"></path>
<path id="Vector_129" d="M576.65 191.66H581.8V193.43H578.6V196.88H581.11V198.65H578.6V204.05H576.6L576.65 191.66Z" fill="white"></path>
<path id="Vector_130" d="M582.74 191.66H588.05V193.43H584.69V196.71H587.36V198.48H584.69V202.28H588.05V204.05H582.74V191.66Z" fill="white"></path>
<path id="Vector_131" d="M589.17 191.66H591.61L593.51 199.08V191.66H595.24V204.05H593.24L590.9 195.05V204.05H589.16L589.17 191.66Z" fill="white"></path>
<path id="Vector_132" d="M521.37 183.22C522.78 180.85 527.47 172.72 527.47 169.67C527.47 167.946 526.785 166.293 525.566 165.074C524.347 163.855 522.694 163.17 520.97 163.17C519.246 163.17 517.593 163.855 516.374 165.074C515.155 166.293 514.47 167.946 514.47 169.67C514.47 172.72 519.16 180.85 520.57 183.22C518.96 183.28 517.7 183.69 517.7 184.22C517.7 184.75 519.16 185.22 520.97 185.22C522.78 185.22 524.23 184.78 524.23 184.22C524.23 183.66 523 183.28 521.37 183.22ZM516.37 169.65C516.37 168.746 516.637 167.863 517.139 167.111C517.64 166.359 518.352 165.772 519.186 165.424C520.02 165.076 520.938 164.982 521.825 165.155C522.712 165.327 523.528 165.759 524.171 166.394C524.813 167.03 525.253 167.841 525.436 168.726C525.618 169.611 525.535 170.531 525.196 171.368C524.857 172.206 524.277 172.925 523.531 173.434C522.784 173.943 521.904 174.22 521 174.23C520.397 174.233 519.799 174.116 519.241 173.887C518.683 173.658 518.176 173.321 517.749 172.896C517.321 172.47 516.982 171.964 516.751 171.407C516.519 170.85 516.4 170.253 516.4 169.65H516.37Z" fill="#EF8619"></path>
<path id="Vector_133" d="M560.69 156.2C561.5 155.688 562.198 155.016 562.74 154.226C563.283 153.436 563.659 152.544 563.846 151.604C564.033 150.664 564.027 149.696 563.828 148.758C563.63 147.821 563.242 146.933 562.69 146.15C563.101 145.885 563.439 145.52 563.673 145.091C563.907 144.661 564.03 144.179 564.03 143.69C564.007 142.964 563.706 142.275 563.191 141.763C562.675 141.252 561.983 140.958 561.256 140.941C560.53 140.925 559.825 141.187 559.287 141.674C558.748 142.161 558.416 142.836 558.36 143.56C558.152 143.248 557.869 142.993 557.537 142.819C557.205 142.644 556.835 142.555 556.46 142.56C556.161 142.563 555.865 142.624 555.589 142.741C555.313 142.858 555.063 143.028 554.854 143.242C554.644 143.456 554.478 143.708 554.366 143.986C554.254 144.264 554.197 144.561 554.2 144.86C554.195 144.94 554.195 145.02 554.2 145.1C553.542 144.598 552.738 144.324 551.91 144.32C550.88 144.331 549.896 144.749 549.174 145.484C548.453 146.219 548.052 147.21 548.06 148.24C548.06 148.636 548.117 149.03 548.23 149.41H547.8C547.201 149.415 546.609 149.538 546.058 149.772C545.507 150.006 545.007 150.347 544.587 150.774C544.167 151.201 543.836 151.707 543.612 152.262C543.387 152.817 543.275 153.411 543.28 154.01C543.283 154.787 543.483 155.551 543.86 156.23C551.57 156.36 557.86 156.37 560.67 156.37L560.69 156.2Z" fill="#E9F2F0"></path>
<path id="Vector_134" d="M568.91 143.66C569.396 143.668 569.874 143.531 570.282 143.267C570.69 143.003 571.01 142.623 571.202 142.176C571.393 141.729 571.448 141.235 571.358 140.757C571.268 140.28 571.038 139.839 570.697 139.493C570.356 139.146 569.919 138.909 569.443 138.811C568.967 138.713 568.472 138.759 568.022 138.943C567.572 139.128 567.187 139.441 566.916 139.845C566.645 140.249 566.5 140.724 566.5 141.21C566.496 141.53 566.555 141.847 566.675 142.143C566.794 142.44 566.97 142.71 567.195 142.937C567.419 143.165 567.686 143.346 567.98 143.47C568.274 143.595 568.59 143.659 568.91 143.66V143.66Z" fill="#E9F2F0"></path>
<path id="Vector_135" d="M578 163.56C578.413 163.295 578.758 162.936 579.005 162.512C579.252 162.087 579.394 161.61 579.42 161.12C579.775 160.845 580.063 160.493 580.264 160.092C580.464 159.69 580.573 159.249 580.58 158.8C580.572 158.387 580.479 157.981 580.307 157.606C580.135 157.231 579.888 156.895 579.58 156.62C579.898 156.464 580.166 156.224 580.357 155.926C580.547 155.628 580.652 155.284 580.66 154.93C580.583 154.387 580.315 153.888 579.905 153.524C579.494 153.16 578.967 152.955 578.418 152.944C577.87 152.933 577.335 153.118 576.91 153.465C576.485 153.813 576.198 154.3 576.1 154.84C575.917 154.61 575.685 154.425 575.419 154.298C575.154 154.172 574.864 154.107 574.57 154.11C574.118 154.083 573.674 154.234 573.334 154.532C572.993 154.829 572.783 155.249 572.75 155.7C572.745 155.757 572.745 155.814 572.75 155.87C572.199 155.514 571.556 155.327 570.9 155.33C570.13 155.281 569.372 155.538 568.791 156.046C568.21 156.553 567.854 157.27 567.8 158.04C567.8 158.313 567.847 158.584 567.94 158.84H567.59C566.688 158.782 565.8 159.083 565.118 159.676C564.436 160.27 564.017 161.109 563.95 162.01C563.958 162.418 564.051 162.821 564.223 163.191C564.395 163.561 564.643 163.891 564.95 164.16C570.57 164.24 575.23 164.25 577.65 164.25C577.796 164.036 577.914 163.804 578 163.56V163.56Z" fill="#E9F2F0"></path>
<path id="Vector_136" d="M584.81 152.13C584.412 152.118 584.02 152.225 583.683 152.437C583.346 152.65 583.081 152.958 582.92 153.322C582.759 153.686 582.711 154.09 582.781 154.482C582.852 154.874 583.037 155.236 583.314 155.521C583.592 155.807 583.948 156.004 584.337 156.086C584.727 156.168 585.132 156.132 585.501 155.983C585.87 155.833 586.186 155.577 586.408 155.247C586.631 154.917 586.75 154.528 586.75 154.13C586.738 153.735 586.609 153.352 586.38 153.03C586.38 153.03 586.29 153.03 586.23 153.03C585.933 153.026 585.643 152.94 585.392 152.781C585.142 152.622 584.94 152.397 584.81 152.13V152.13Z" fill="#E9F2F0"></path>
<path id="Vector_137" d="M587.85 151.4C587.868 151.177 587.839 150.953 587.766 150.742C587.692 150.531 587.576 150.337 587.425 150.173C587.273 150.009 587.089 149.878 586.884 149.788C586.679 149.699 586.458 149.652 586.235 149.652C586.012 149.652 585.79 149.699 585.586 149.788C585.381 149.878 585.197 150.009 585.045 150.173C584.894 150.337 584.778 150.531 584.704 150.742C584.631 150.953 584.602 151.177 584.62 151.4C584.626 151.657 584.691 151.911 584.81 152.14C585.125 152.147 585.433 152.232 585.707 152.387C585.981 152.543 586.212 152.763 586.38 153.03C586.784 152.99 587.159 152.8 587.43 152.499C587.702 152.198 587.852 151.805 587.85 151.4V151.4Z" fill="#E9F2F0"></path>
<path id="Vector_138" d="M584.81 152.13C584.937 152.401 585.137 152.63 585.388 152.793C585.639 152.956 585.931 153.045 586.23 153.05C586.29 153.05 586.33 153.05 586.38 153.05C586.216 152.778 585.986 152.552 585.712 152.391C585.438 152.23 585.128 152.141 584.81 152.13V152.13Z" fill="#E9F2F0"></path>
<path id="Vector_139" d="M564.13 187.18C563.84 185.18 563.44 181.94 563.13 176.97C562.82 172 562.44 165.19 562.31 156.3H560.7C557.88 156.3 551.6 156.3 543.89 156.16H542.83C542.26 184.5 539.64 189.56 539.64 189.56H564.64C564.64 189.56 564.38 188.83 564.13 187.18Z" fill="white"></path>
<path id="Vector_140" d="M579.46 164.24H577.63C575.21 164.24 570.55 164.24 564.93 164.15H563.77C563.64 169.58 563.39 173.77 563.08 176.99C563.44 181.99 563.84 185.24 564.08 187.2H581.3C581.3 187.2 579.76 181.59 579.46 164.24Z" fill="white"></path>
</g>
<g id="K&#195;&#182;ln">
<path id="Vector_141" d="M96.72 309.34H98.72V314.56L101.2 309.34H103.14L100.83 313.89L103.18 321.73H101.18L99.54 316.2L98.76 317.78V321.78H96.76L96.72 309.34Z" fill="white"></path>
<path id="Vector_142" d="M103.63 318.79V312.28C103.63 310.28 104.63 309.16 106.63 309.16C108.63 309.16 109.63 310.3 109.63 312.28V318.79C109.63 320.79 108.58 321.9 106.63 321.9C104.68 321.9 103.63 320.77 103.63 318.79ZM104.35 306.7H106.09V308.51H104.35V306.7ZM107.59 318.91V312.13C107.59 311.25 107.2 310.91 106.59 310.91C105.98 310.91 105.59 311.25 105.59 312.13V318.89C105.59 319.78 105.97 320.11 106.59 320.11C107.21 320.11 107.59 319.8 107.59 318.91V318.91ZM107.08 306.7H108.81V308.51H107.08V306.7Z" fill="white"></path>
<path id="Vector_143" d="M110.85 309.34H112.85V319.96H116V321.73H110.85V309.34Z" fill="white"></path>
<path id="Vector_144" d="M116.94 309.34H119.38L121.28 316.75V309.34H123.02V321.73H121.02L118.68 312.73V321.73H116.94V309.34Z" fill="white"></path>
<path id="Vector_145" d="M82.8399 319.98C84.2399 317.61 88.9399 309.48 88.9399 306.43C88.9399 304.706 88.2551 303.052 87.0361 301.833C85.8171 300.615 84.1638 299.93 82.4399 299.93C80.716 299.93 79.0627 300.615 77.8437 301.833C76.6248 303.052 75.9399 304.706 75.9399 306.43C75.9399 309.48 80.6399 317.61 82.0499 319.98C80.4299 320.04 79.1799 320.45 79.1799 320.98C79.1799 321.51 80.6399 321.98 82.4399 321.98C84.2399 321.98 85.6999 321.55 85.6999 320.98C85.6999 320.41 84.4499 320.04 82.8399 319.98ZM77.8399 306.41C77.8419 305.506 78.1116 304.624 78.615 303.873C79.1183 303.123 79.8328 302.539 80.668 302.195C81.5032 301.85 82.4218 301.761 83.3076 301.939C84.1935 302.116 85.0068 302.552 85.6449 303.192C86.2831 303.831 86.7173 304.646 86.8928 305.532C87.0684 306.418 86.9773 307.336 86.6311 308.171C86.2849 309.005 85.6992 309.718 84.9479 310.22C84.1965 310.722 83.3134 310.99 82.4099 310.99C81.2022 310.979 80.0475 310.492 79.1972 309.634C78.3469 308.776 77.8699 307.618 77.8699 306.41H77.8399Z" fill="#EF8619"></path>
<path id="Vector_146" d="M123 274.87L121.86 267.65L120.65 260L120.23 263.08L119.81 260.42L119.02 255.42L118.77 257.21L116.29 240.66C116.47 240.563 116.62 240.419 116.722 240.242C116.824 240.065 116.876 239.864 116.87 239.66C116.869 239.473 116.822 239.29 116.733 239.126C116.644 238.962 116.516 238.822 116.36 238.72C116.366 238.667 116.366 238.613 116.36 238.56C116.358 238.42 116.309 238.285 116.219 238.178C116.13 238.071 116.007 237.997 115.87 237.97L115.72 236.97L115.53 237.97C115.411 238.013 115.307 238.091 115.234 238.195C115.16 238.299 115.121 238.423 115.12 238.55C115.115 238.6 115.115 238.65 115.12 238.7C114.945 238.799 114.801 238.945 114.704 239.122C114.607 239.298 114.56 239.498 114.57 239.7C114.569 239.876 114.611 240.049 114.691 240.206C114.771 240.362 114.887 240.497 115.03 240.6L110.61 264.68L108.74 258.38L106.87 264.68L102.45 240.6C102.603 240.5 102.728 240.363 102.815 240.203C102.902 240.042 102.947 239.862 102.947 239.68C102.947 239.497 102.902 239.317 102.815 239.157C102.728 238.996 102.603 238.86 102.45 238.76C102.456 238.707 102.456 238.653 102.45 238.6C102.45 238.467 102.406 238.338 102.324 238.233C102.243 238.128 102.129 238.053 102 238.02L101.81 237.02L101.66 238.02C101.531 238.053 101.417 238.128 101.336 238.233C101.255 238.338 101.21 238.467 101.21 238.6C101.204 238.646 101.204 238.693 101.21 238.74C101.04 238.844 100.9 238.991 100.805 239.167C100.71 239.343 100.664 239.54 100.67 239.74C100.663 239.943 100.713 240.144 100.814 240.32C100.914 240.497 101.062 240.642 101.24 240.74L98.6201 258.25L98.1801 255.51L97.5001 260.51L97.1801 262.86L96.7301 260.07L95.7301 267.74L94.7301 274.94H91.3201V300.43H126.71V274.87H123Z" fill="white"></path>
<path id="Vector_147" d="M103.52 265.21C103.525 265.121 103.525 265.03 103.52 264.94V259.94C103.536 259.749 103.513 259.556 103.451 259.373C103.388 259.191 103.289 259.024 103.159 258.882C103.029 258.741 102.87 258.627 102.694 258.55C102.518 258.473 102.328 258.433 102.135 258.433C101.943 258.433 101.752 258.473 101.576 258.55C101.4 258.627 101.242 258.741 101.111 258.882C100.981 259.024 100.882 259.191 100.82 259.373C100.758 259.556 100.734 259.749 100.75 259.94V264.94C100.745 265.03 100.745 265.121 100.75 265.21H103.52Z" fill="#E2A558"></path>
<path id="Vector_148" d="M103.52 275.21C103.525 275.121 103.525 275.03 103.52 274.94V269.94C103.536 269.749 103.513 269.556 103.451 269.373C103.388 269.191 103.289 269.024 103.159 268.882C103.029 268.741 102.87 268.627 102.694 268.55C102.518 268.473 102.328 268.433 102.135 268.433C101.943 268.433 101.752 268.473 101.576 268.55C101.4 268.627 101.242 268.741 101.111 268.882C100.981 269.024 100.882 269.191 100.82 269.373C100.758 269.556 100.734 269.749 100.75 269.94V274.94C100.745 275.03 100.745 275.121 100.75 275.21H103.52Z" fill="#E2A558"></path>
<path id="Vector_149" d="M117.14 265.21C117.145 265.12 117.145 265.03 117.14 264.94V259.94C117.14 259.571 116.993 259.218 116.733 258.957C116.472 258.696 116.119 258.55 115.75 258.55C115.381 258.55 115.028 258.696 114.767 258.957C114.506 259.218 114.36 259.571 114.36 259.94V264.94C114.35 265.03 114.35 265.12 114.36 265.21H117.14Z" fill="#E2A558"></path>
<path id="Vector_150" d="M117.14 275.21C117.145 275.12 117.145 275.03 117.14 274.94V269.94C117.14 269.571 116.993 269.218 116.733 268.957C116.472 268.696 116.119 268.55 115.75 268.55C115.381 268.55 115.028 268.696 114.767 268.957C114.506 269.218 114.36 269.571 114.36 269.94V274.94C114.35 275.03 114.35 275.12 114.36 275.21H117.14Z" fill="#E2A558"></path>
<path id="Vector_151" d="M97.0599 284.69C97.0656 284.6 97.0656 284.51 97.0599 284.42V279.42C97.0762 279.228 97.0525 279.035 96.9903 278.853C96.9281 278.671 96.8288 278.503 96.6986 278.362C96.5684 278.22 96.4102 278.107 96.234 278.029C96.0577 277.952 95.8674 277.912 95.6749 277.912C95.4824 277.912 95.2921 277.952 95.1159 278.029C94.9396 278.107 94.7814 278.22 94.6512 278.362C94.521 278.503 94.4217 278.671 94.3595 278.853C94.2973 279.035 94.2736 279.228 94.2899 279.42V284.42C94.2842 284.51 94.2842 284.6 94.2899 284.69H97.0599Z" fill="#E2A558"></path>
<path id="Vector_152" d="M101.28 284.69C101.286 284.6 101.286 284.51 101.28 284.42V279.42C101.296 279.228 101.272 279.035 101.21 278.853C101.148 278.671 101.049 278.503 100.919 278.362C100.788 278.22 100.63 278.107 100.454 278.029C100.278 277.952 100.087 277.912 99.8949 277.912C99.7024 277.912 99.512 277.952 99.3358 278.029C99.1596 278.107 99.0014 278.22 98.8712 278.362C98.741 278.503 98.6417 278.671 98.5795 278.853C98.5173 279.035 98.4936 279.228 98.5099 279.42V284.42C98.5042 284.51 98.5042 284.6 98.5099 284.69H101.28Z" fill="#E2A558"></path>
<path id="Vector_153" d="M119.26 284.69C119.271 284.601 119.271 284.51 119.26 284.42V279.42C119.26 279.052 119.114 278.698 118.853 278.437C118.592 278.177 118.239 278.03 117.87 278.03C117.501 278.03 117.148 278.177 116.887 278.437C116.627 278.698 116.48 279.052 116.48 279.42V284.42C116.469 284.51 116.469 284.601 116.48 284.69H119.26Z" fill="#E2A558"></path>
<path id="Vector_154" d="M123.48 284.69C123.491 284.601 123.491 284.51 123.48 284.42V279.42C123.48 279.052 123.334 278.698 123.073 278.437C122.812 278.177 122.459 278.03 122.09 278.03C121.721 278.03 121.368 278.177 121.107 278.437C120.847 278.698 120.7 279.052 120.7 279.42V284.42C120.689 284.51 120.689 284.601 120.7 284.69H123.48Z" fill="#E2A558"></path>
<path id="Vector_155" d="M108.54 299.01C108.55 298.87 108.55 298.729 108.54 298.59V290.7C108.54 289.5 107.92 288.52 107.15 288.52C106.38 288.52 105.76 289.52 105.76 290.7V298.59C105.75 298.729 105.75 298.87 105.76 299.01H108.54Z" fill="#E2A558"></path>
<path id="Vector_156" d="M112.76 299.01C112.77 298.87 112.77 298.729 112.76 298.59V290.7C112.76 289.5 112.14 288.52 111.37 288.52C110.6 288.52 109.98 289.52 109.98 290.7V298.59C109.97 298.729 109.97 298.87 109.98 299.01H112.76Z" fill="#E2A558"></path>
<path id="Vector_157" d="M111.43 284.69C111.446 284.601 111.446 284.51 111.43 284.42V279.42C111.43 278.66 110.36 278.03 109.04 278.03C107.72 278.03 106.65 278.66 106.65 279.42V284.42C106.639 284.51 106.639 284.601 106.65 284.69H111.43Z" fill="#E2A558"></path>
<path id="Vector_158" d="M110.21 275.21C110.215 275.14 110.215 275.07 110.21 275V271.07C110.184 270.8 110.059 270.549 109.858 270.367C109.657 270.185 109.396 270.084 109.125 270.084C108.854 270.084 108.593 270.185 108.392 270.367C108.192 270.549 108.066 270.8 108.04 271.07V275C108.03 275.069 108.03 275.14 108.04 275.21H110.21Z" fill="#E2A558"></path>
<path id="Vector_159" d="M97.1499 295.87C97.1597 295.78 97.1597 295.69 97.1499 295.6V290.6C97.1499 290.231 97.0035 289.878 96.7428 289.617C96.4821 289.356 96.1286 289.21 95.7599 289.21C95.3913 289.21 95.0377 289.356 94.777 289.617C94.5164 289.878 94.3699 290.231 94.3699 290.6V295.6C94.3601 295.69 94.3601 295.78 94.3699 295.87H97.1499Z" fill="#E2A558"></path>
<path id="Vector_160" d="M101.37 295.87C101.38 295.78 101.38 295.69 101.37 295.6V290.6C101.37 290.231 101.223 289.878 100.963 289.617C100.702 289.356 100.349 289.21 99.9799 289.21C99.6112 289.21 99.2577 289.356 98.997 289.617C98.7363 289.878 98.5899 290.231 98.5899 290.6V295.6C98.5801 295.69 98.5801 295.78 98.5899 295.87H101.37Z" fill="#E2A558"></path>
<path id="Vector_161" d="M119.36 295.87C119.365 295.78 119.365 295.689 119.36 295.6V290.6C119.376 290.408 119.353 290.215 119.29 290.033C119.228 289.85 119.129 289.683 118.999 289.542C118.868 289.4 118.71 289.287 118.534 289.209C118.358 289.132 118.167 289.092 117.975 289.092C117.782 289.092 117.592 289.132 117.416 289.209C117.24 289.287 117.081 289.4 116.951 289.542C116.821 289.683 116.722 289.85 116.66 290.033C116.597 290.215 116.574 290.408 116.59 290.6V295.6C116.585 295.689 116.585 295.78 116.59 295.87H119.36Z" fill="#E2A558"></path>
<path id="Vector_162" d="M123.58 295.87C123.585 295.78 123.585 295.689 123.58 295.6V290.6C123.596 290.408 123.573 290.215 123.51 290.033C123.448 289.85 123.349 289.683 123.219 289.542C123.088 289.4 122.93 289.287 122.754 289.209C122.578 289.132 122.387 289.092 122.195 289.092C122.002 289.092 121.812 289.132 121.636 289.209C121.46 289.287 121.301 289.4 121.171 289.542C121.041 289.683 120.942 289.85 120.88 290.033C120.817 290.215 120.794 290.408 120.81 290.6V295.6C120.805 295.689 120.805 295.78 120.81 295.87H123.58Z" fill="#E2A558"></path>
</g>
<g id="M&#195;&#182;nchengladbach">
<path id="Vector_163" d="M174 196.24H176.29L177.29 203.57L178.29 196.24H180.59V206.48H179.07V198.73L178 206.48H176.65L175.48 198.73V206.48H174V196.24Z" fill="white"></path>
<path id="Vector_164" d="M181.79 204.05V198.67C181.769 198.336 181.816 198.001 181.929 197.685C182.042 197.37 182.219 197.081 182.448 196.837C182.677 196.593 182.954 196.398 183.261 196.265C183.569 196.132 183.9 196.063 184.235 196.063C184.57 196.063 184.901 196.132 185.209 196.265C185.516 196.398 185.793 196.593 186.022 196.837C186.251 197.081 186.428 197.37 186.541 197.685C186.654 198.001 186.701 198.336 186.68 198.67V204.05C186.701 204.384 186.654 204.719 186.541 205.034C186.428 205.35 186.251 205.638 186.022 205.882C185.793 206.127 185.516 206.321 185.209 206.455C184.901 206.588 184.57 206.656 184.235 206.656C183.9 206.656 183.569 206.588 183.261 206.455C182.954 206.321 182.677 206.127 182.448 205.882C182.219 205.638 182.042 205.35 181.929 205.034C181.816 204.719 181.769 204.384 181.79 204.05V204.05ZM182.39 194.05H183.83V195.55H182.39V194.05ZM185.07 204.15V198.56C185.07 197.83 184.75 197.56 184.24 197.56C183.73 197.56 183.4 197.84 183.4 198.56V204.13C183.4 204.86 183.72 205.13 184.24 205.13C184.76 205.13 185.07 204.89 185.07 204.13V204.15ZM184.65 194.05H186.08V195.55H184.65V194.05Z" fill="white"></path>
<path id="Vector_165" d="M187.76 196.24H189.76L191.33 202.37V196.24H192.76V206.48H191.11L189.18 199.01V206.48H187.74L187.76 196.24Z" fill="white"></path>
<path id="Vector_166" d="M193.91 204.13V198.63C193.91 198.001 194.16 197.398 194.604 196.954C195.049 196.509 195.651 196.26 196.28 196.26C196.908 196.26 197.511 196.509 197.956 196.954C198.4 197.398 198.65 198.001 198.65 198.63V199.71H197.13V198.53C197.13 197.86 196.81 197.53 196.32 197.53C195.83 197.53 195.52 197.81 195.52 198.53V204.25C195.52 204.92 195.84 205.18 196.32 205.18C196.8 205.18 197.13 204.92 197.13 204.25V202.68H198.65V204.13C198.65 204.758 198.4 205.361 197.956 205.806C197.511 206.25 196.908 206.5 196.28 206.5C195.651 206.5 195.049 206.25 194.604 205.806C194.16 205.361 193.91 204.758 193.91 204.13Z" fill="white"></path>
<path id="Vector_167" d="M199.62 196.24H201.23V200.41H203V196.24H204.61V206.48H203V201.87H201.28V206.48H199.67L199.62 196.24Z" fill="white"></path>
<path id="Vector_168" d="M205.76 196.24H210.15V197.71H207.37V200.41H209.58V201.87H207.37V205.02H210.15V206.48H205.76V196.24Z" fill="white"></path>
<path id="Vector_169" d="M211.07 196.24H213.07L214.64 202.37V196.24H216.07V206.48H214.42L212.49 199.01V206.48H211.05L211.07 196.24Z" fill="white"></path>
<path id="Vector_170" d="M217.21 204.05V198.67C217.21 197.03 218.02 196.1 219.6 196.1C221.18 196.1 222 197.03 222 198.67V199.55H220.48V198.55C220.48 197.82 220.16 197.55 219.65 197.55C219.14 197.55 218.81 197.83 218.81 198.55V204.13C218.81 204.86 219.14 205.13 219.65 205.13C220.16 205.13 220.48 204.87 220.48 204.13V202.13H219.68V200.66H222V204.01C222 205.65 221.18 206.59 219.6 206.59C218.02 206.59 217.21 205.69 217.21 204.05Z" fill="white"></path>
<path id="Vector_171" d="M223 196.24H224.61V205.02H227.26V206.48H223V196.24Z" fill="white"></path>
<path id="Vector_172" d="M229.38 196.24H231.56L233.23 206.48H231.62L231.32 204.48H229.5L229.2 206.48H227.71L229.38 196.24ZM231.13 203.09L230.42 198.03L229.72 203.09H231.13Z" fill="white"></path>
<path id="Vector_173" d="M234 196.24H236.46C238.07 196.24 238.86 197.14 238.86 198.77V203.95C238.86 205.59 238.07 206.48 236.46 206.48H234V196.24ZM236.43 205.02C236.94 205.02 237.25 204.76 237.25 204.02V198.7C237.25 197.97 236.94 197.7 236.43 197.7H235.61V205.01L236.43 205.02Z" fill="white"></path>
<path id="Vector_174" d="M239.94 196.24H242.37C244.04 196.24 244.76 197.02 244.76 198.6V199.01C244.76 200.01 244.43 200.72 243.76 201.01C244.62 201.3 244.96 202.06 244.96 203.15V204.02C245.001 204.351 244.966 204.687 244.857 205.002C244.748 205.317 244.568 205.602 244.332 205.837C244.095 206.072 243.808 206.249 243.492 206.355C243.176 206.462 242.84 206.494 242.51 206.45H239.98L239.94 196.24ZM242.18 200.41C242.78 200.41 243.18 200.15 243.18 199.33V198.76C243.18 198.03 242.93 197.76 242.36 197.76H241.58V200.46L242.18 200.41ZM242.47 205.02C243.02 205.02 243.31 204.77 243.31 204.02V203.13C243.31 202.13 243 201.88 242.31 201.88H241.59V205.03L242.47 205.02Z" fill="white"></path>
<path id="Vector_175" d="M247.1 196.24H249.28L251 206.48H249.39L249.09 204.48H247.27L246.97 206.48H245.48L247.1 196.24ZM248.85 203.09L248.14 198.03L247.44 203.09H248.85Z" fill="white"></path>
<path id="Vector_176" d="M251.59 204.13V198.63C251.59 198.319 251.651 198.01 251.77 197.723C251.89 197.435 252.064 197.174 252.284 196.954C252.504 196.734 252.766 196.559 253.053 196.44C253.341 196.321 253.649 196.26 253.96 196.26C254.271 196.26 254.58 196.321 254.867 196.44C255.155 196.559 255.416 196.734 255.636 196.954C255.856 197.174 256.031 197.435 256.15 197.723C256.269 198.01 256.33 198.319 256.33 198.63V199.71H254.81V198.53C254.81 197.86 254.49 197.53 254.01 197.53C253.53 197.53 253.2 197.81 253.2 198.53V204.25C253.2 204.92 253.52 205.18 254.01 205.18C254.5 205.18 254.81 204.92 254.81 204.25V202.68H256.33V204.13C256.33 204.758 256.08 205.361 255.636 205.806C255.191 206.25 254.589 206.5 253.96 206.5C253.332 206.5 252.729 206.25 252.284 205.806C251.84 205.361 251.59 204.758 251.59 204.13V204.13Z" fill="white"></path>
<path id="Vector_177" d="M257.3 196.24H258.91V200.41H260.63V196.24H262.24V206.48H260.63V201.87H258.91V206.48H257.3V196.24Z" fill="white"></path>
<path id="Vector_178" d="M164.06 224.4C165.46 222.03 170.16 213.9 170.16 210.85C170.16 209.126 169.475 207.472 168.256 206.253C167.037 205.034 165.384 204.35 163.66 204.35C161.936 204.35 160.283 205.034 159.064 206.253C157.845 207.472 157.16 209.126 157.16 210.85C157.16 213.85 161.86 222.03 163.27 224.4C161.65 224.46 160.4 224.87 160.4 225.4C160.4 225.93 161.86 226.4 163.66 226.4C165.46 226.4 166.92 225.96 166.92 225.4C166.92 224.84 165.67 224.46 164.06 224.4ZM159.06 210.83C159.06 209.926 159.328 209.042 159.83 208.291C160.332 207.539 161.046 206.953 161.881 206.607C162.716 206.262 163.635 206.171 164.521 206.347C165.408 206.524 166.222 206.959 166.861 207.598C167.501 208.237 167.936 209.052 168.112 209.938C168.288 210.825 168.198 211.743 167.852 212.578C167.506 213.414 166.92 214.127 166.169 214.629C165.417 215.132 164.534 215.4 163.63 215.4C162.424 215.389 161.271 214.903 160.421 214.048C159.571 213.192 159.092 212.036 159.09 210.83H159.06Z" fill="#EF8619"></path>
<path id="Vector_179" d="M198.22 218.77H192.53V220.19H198.22V218.77Z" fill="white"></path>
<path id="Vector_180" d="M220.98 218.77H215.29V220.19H220.98V218.77Z" fill="white"></path>
<path id="Vector_181" d="M232.36 218.77H226.67V220.19H232.36V218.77Z" fill="white"></path>
<path id="Vector_182" d="M209.6 218.77H203.91V220.19H209.6V218.77Z" fill="white"></path>
<path id="Vector_183" d="M243.74 218.77H238.05V220.19H243.74V218.77Z" fill="white"></path>
<path id="Vector_184" d="M192.02 218.99H178.74V219.73H192.02V218.99Z" fill="white"></path>
<path id="Vector_185" d="M192.02 217.51H178.74V218.25H192.02V217.51Z" fill="white"></path>
<path id="Vector_186" d="M192.02 221.94H178.74V222.68H192.02V221.94Z" fill="white"></path>
<path id="Vector_187" d="M192.02 214.56H178.74V215.3H192.02V214.56Z" fill="white"></path>
<path id="Vector_188" d="M192.02 223.41H178.74V224.15H192.02V223.41Z" fill="white"></path>
<path id="Vector_189" d="M192.02 216.04H178.74V216.78H192.02V216.04Z" fill="white"></path>
<path id="Vector_190" d="M192.02 220.46H178.74V221.2H192.02V220.46Z" fill="white"></path>
<path id="Vector_191" d="M257.72 220.46H244.44V221.2H257.72V220.46Z" fill="white"></path>
<path id="Vector_192" d="M257.72 216.04H244.44V216.78H257.72V216.04Z" fill="white"></path>
<path id="Vector_193" d="M257.72 214.56H244.44V215.3H257.72V214.56Z" fill="white"></path>
<path id="Vector_194" d="M257.72 218.99H244.44V219.73H257.72V218.99Z" fill="white"></path>
<path id="Vector_195" d="M257.72 223.41H244.44V224.15H257.72V223.41Z" fill="white"></path>
<path id="Vector_196" d="M257.72 217.51H244.44V218.25H257.72V217.51Z" fill="white"></path>
<path id="Vector_197" d="M257.72 221.94H244.44V222.68H257.72V221.94Z" fill="white"></path>
<path id="Vector_198" d="M175.04 212.35V213.82H178.75H192.02H244.44H257.72H262.4V212.35H175.04Z" fill="white"></path>
<path id="Vector_199" d="M262.4 224.53H175.04V226.01H262.4V224.53Z" fill="white"></path>
</g>
<g id="Windr&#195;&#164;der gro&#195;&#159;">
<path id="Vector_200" d="M563.78 489.34V481.78C563.921 481.947 564.096 482.08 564.294 482.172C564.492 482.264 564.707 482.311 564.925 482.311C565.143 482.311 565.358 482.264 565.556 482.172C565.754 482.08 565.929 481.947 566.07 481.78V489.34L566.85 512.84V516.19H563V512.84L563.78 489.34Z" fill="white"></path>
<path id="Vector_201" d="M565.054 480.881C565.252 480.231 560.664 478.256 554.806 476.468C548.947 474.68 544.038 473.758 543.839 474.408C543.641 475.057 548.229 477.033 554.088 478.821C559.946 480.609 564.855 481.531 565.054 480.881Z" fill="white"></path>
<path id="Vector_202" d="M573.848 474.145C578.326 469.965 581.579 466.175 581.116 465.678C580.652 465.181 576.647 468.167 572.17 472.346C567.693 476.526 564.439 480.317 564.902 480.813C565.366 481.31 569.371 478.324 573.848 474.145Z" fill="white"></path>
<path id="Vector_203" d="M570.105 502.338C570.767 502.185 570.184 497.224 568.803 491.257C567.422 485.29 565.766 480.576 565.104 480.73C564.442 480.883 565.025 485.844 566.406 491.811C567.787 497.778 569.443 502.492 570.105 502.338Z" fill="white"></path>
<path id="Vector_204" d="M564.93 482.05C565.764 482.05 566.44 481.374 566.44 480.54C566.44 479.706 565.764 479.03 564.93 479.03C564.096 479.03 563.42 479.706 563.42 480.54C563.42 481.374 564.096 482.05 564.93 482.05Z" fill="#EF8619"></path>
<path id="Vector_205" d="M628.27 519V511.44C628.413 511.606 628.589 511.739 628.788 511.83C628.986 511.921 629.202 511.969 629.42 511.97C629.637 511.971 629.852 511.923 630.049 511.832C630.246 511.74 630.42 511.607 630.56 511.44V518.97L631.33 542.46V545.82H627.48V542.46L628.27 519Z" fill="white"></path>
<path id="Vector_206" d="M618.33 511.49C624.455 511.49 629.42 510.94 629.42 510.26C629.42 509.581 624.455 509.03 618.33 509.03C612.205 509.03 607.24 509.581 607.24 510.26C607.24 510.94 612.205 511.49 618.33 511.49Z" fill="white"></path>
<path id="Vector_207" d="M635.858 501.242C638.92 495.938 640.926 491.362 640.337 491.023C639.749 490.683 636.79 494.708 633.727 500.012C630.665 505.316 628.659 509.892 629.247 510.231C629.836 510.571 632.795 506.546 635.858 501.242Z" fill="white"></path>
<path id="Vector_208" d="M640.507 529.32C641.095 528.98 639.089 524.405 636.027 519.101C632.964 513.797 630.005 509.772 629.417 510.112C628.828 510.451 630.834 515.027 633.896 520.331C636.959 525.635 639.918 529.66 640.507 529.32Z" fill="white"></path>
<path id="Vector_209" d="M629.42 511.71C630.254 511.71 630.93 511.034 630.93 510.2C630.93 509.366 630.254 508.69 629.42 508.69C628.586 508.69 627.91 509.366 627.91 510.2C627.91 511.034 628.586 511.71 629.42 511.71Z" fill="#EF8619"></path>
<path id="Vector_210" d="M592.29 516.76V509.3C592.43 509.463 592.603 509.593 592.798 509.683C592.993 509.772 593.205 509.819 593.42 509.819C593.635 509.819 593.847 509.772 594.042 509.683C594.237 509.593 594.41 509.463 594.55 509.3V516.76L595.32 539.96V543.28H591.52V539.96L592.29 516.76Z" fill="white"></path>
<path id="Vector_211" d="M609.646 522.424C610.088 521.922 606.767 518.269 602.229 514.264C597.691 510.259 593.653 507.418 593.211 507.919C592.769 508.42 596.089 512.073 600.628 516.078C605.166 520.084 609.204 522.925 609.646 522.424Z" fill="white"></path>
<path id="Vector_212" d="M596.736 497.519C597.936 491.586 598.377 486.669 597.722 486.537C597.067 486.404 595.564 491.107 594.364 497.04C593.165 502.973 592.723 507.89 593.378 508.022C594.033 508.154 595.537 503.452 596.736 497.519Z" fill="white"></path>
<path id="Vector_213" d="M583.308 512.428C589.046 510.5 593.525 508.424 593.312 507.79C593.099 507.157 588.275 508.206 582.537 510.134C576.799 512.061 572.32 514.138 572.533 514.771C572.746 515.405 577.57 514.355 583.308 512.428Z" fill="white"></path>
<path id="Vector_214" d="M593.42 509.56C594.243 509.56 594.91 508.893 594.91 508.07C594.91 507.247 594.243 506.58 593.42 506.58C592.597 506.58 591.93 507.247 591.93 508.07C591.93 508.893 592.597 509.56 593.42 509.56Z" fill="#EF8619"></path>
</g>
</g>
</svg>
